<svg xmlns="http://www.w3.org/2000/svg" xmlns:xlink="http://www.w3.org/1999/xlink" width="603" height="652" viewBox="0 0 603 652">
  <defs>
    <clipPath id="clip-path">
      <rect id="Rectangle_13786" data-name="Rectangle 13786" width="603" height="652" transform="translate(-117 710)" fill="#fff"/>
    </clipPath>
  </defs>
  <g id="Mask_Group_72" data-name="Mask Group 72" transform="translate(117 -710)" opacity="0.7" clip-path="url(#clip-path)">
    <g id="locked-padlock" transform="translate(161.167 778.045) rotate(28.999)" opacity="0.996">
      <path id="Path_5" data-name="Path 5" d="M439.73,216.838H429.268V167.871C429.268,77.3,357.4,1.648,267.567.033c-2.455-.044-7.359-.044-9.812,0C167.922,1.648,96.052,77.3,96.052,167.871v48.966H85.588c-16.123,0-29.275,16.638-29.275,37.186v245.6c0,20.525,13.152,37.318,29.276,37.318H439.73c16.124,0,29.276-16.793,29.276-37.318v-245.6C469.007,233.476,455.855,216.838,439.73,216.838ZM295.838,376.572v74.21A15.842,15.842,0,0,1,280.22,466.47H245.1a15.843,15.843,0,0,1-15.62-15.689v-74.21a44.16,44.16,0,0,1-13.05-31.765c0-23.535,18.192-43.757,41.323-44.692,2.451-.1,7.361-.1,9.812,0,23.131.934,41.323,21.157,41.323,44.692A44.168,44.168,0,0,1,295.838,376.572ZM360.31,216.838H165.01V167.871c0-53.949,43.843-98.557,97.649-98.557s97.652,44.608,97.652,98.557v48.966Z" transform="translate(-56.313)" fill="none" stroke="#c0ccd5" stroke-width="1"/>
    </g>
  </g>
</svg>
