<svg xmlns="http://www.w3.org/2000/svg" width="30" height="29.584" viewBox="0 0 30 29.584">
  <defs>
    <style>
      .cls-1 {
        fill: #c0ccd5;
      }
    </style>
  </defs>
  <path id="answericon" class="cls-1" d="M31.015,14.756A14.79,14.79,0,1,0,1.729,18.91a14.539,14.539,0,0,0,.449,2.078,14.861,14.861,0,0,0,1.851,3.672c.008.119.016.235.016.352A6.814,6.814,0,0,1,1.3,30.634.358.358,0,0,0,1.171,31a.35.35,0,0,0,.29.262,10.547,10.547,0,0,0,7.407-1.689c.065-.046.133-.092.2-.135l.051-.041a17.485,17.485,0,0,0,5.429,2.111,14.8,14.8,0,0,0,16.47-16.757Zm-19.5,8.811a.39.39,0,0,1-.39.39h-2.1a.39.39,0,0,1-.39-.39V16.929a.39.39,0,0,1,.39-.39h2.1a.39.39,0,0,1,.39.39ZM22.8,23.246a1.521,1.521,0,0,1-1.491,1.212H16.594A9.915,9.915,0,0,1,15.46,24.4l-1.077-.122s-1.773-.33-1.808-.338l-.035-.008a.511.511,0,0,1-.352-.487V17.647a.515.515,0,0,1,.263-.449h0a3.772,3.772,0,0,0,1.285-1.28l3.8-5.964a1.382,1.382,0,0,1,.271-.357,1.408,1.408,0,0,1,2.354.771,1.488,1.488,0,0,1,.022.246,1.375,1.375,0,0,1-.032.3v0a.934.934,0,0,1-.032.116l-.23.744L19.414,13.3l-.16.509-.162.525-.011.032h3.9a1.468,1.468,0,0,1,1.348,1.475Z" transform="translate(-1.161 -2.042)"/>
</svg>
