<svg id="Icon_ionic-ios-camera" data-name="Icon ionic-ios-camera" xmlns="http://www.w3.org/2000/svg" width="29.073" height="21.8" viewBox="0 0 29.073 21.8">
  <defs>
    <style>
      .cls-1 {
        fill: #36a9ae;
      }
    </style>
  </defs>
  <path id="Path_10779" data-name="Path 10779" class="cls-1" d="M22.663,19.646a4.353,4.353,0,1,1-4.353-4.353A4.353,4.353,0,0,1,22.663,19.646Z" transform="translate(-3.774 -7.312)"/>
  <path id="Path_10780" data-name="Path 10780" class="cls-1" d="M31.263,11.507H27.137a1.229,1.229,0,0,1-.908-.41c-2.146-2.407-2.96-3.219-3.838-3.219H15.917c-.894,0-1.756.817-3.915,3.233a1.205,1.205,0,0,1-.894.4h-.317V10.9a.608.608,0,0,0-.606-.606H8.218a.608.608,0,0,0-.606.606v.606H7.043A2.455,2.455,0,0,0,4.5,13.831V27.156a2.622,2.622,0,0,0,2.536,2.522H31.263a2.427,2.427,0,0,0,2.309-2.522V13.831a2.257,2.257,0,0,0-2.309-2.325ZM19.343,26.679a6.472,6.472,0,1,1,6.163-6.163,6.472,6.472,0,0,1-6.163,6.163ZM26.309,15.9a.576.576,0,1,0-.005,0Z" transform="translate(-4.5 -7.878)"/>
</svg>
