<svg xmlns="http://www.w3.org/2000/svg" width="36.9" height="25.7" viewBox="0 0 36.9 25.7">
  <defs>
    <style>
      .cls-1 {
        fill: #c0ccd5;
      }
    </style>
  </defs>
  <g id="Group_1" data-name="Group 1" transform="translate(-235 -315)">
    <g id="emailicon" transform="translate(232.8 313.8)">
      <path id="Path_1" data-name="Path 1" class="cls-1" d="M2.2,5.4v21c0,.1.1.2.2.1l10.9-10a.3.3,0,0,0,0-.4L2.4,5.3C2.3,5.3,2.2,5.3,2.2,5.4Z"/>
      <path id="Path_2" data-name="Path 2" class="cls-1" d="M23.5,17.1,21,19.6a2.878,2.878,0,0,1-2.1.9,2.792,2.792,0,0,1-2-.8l-2.6-2.6-.1-.1L3.5,26.8v.1H34.2c.1,0,.1-.1,0-.1L23.5,17.1Z"/>
      <path id="Path_3" data-name="Path 3" class="cls-1" d="M24.5,16.5l10.9,10c.1.1.2,0,.2-.1V11.2a5.2,5.2,0,0,0,3.5-4.9A5.121,5.121,0,0,0,34,1.2a5.011,5.011,0,0,0-4.7,3.2H2.9c-.1,0-.1.1,0,.1L14.3,15.7l.7.7L17.6,19c.1.1.2.2.3.2l.1.1c.1,0,.1.1.2.1h.1c.1,0,.1,0,.2.1h.8c.1,0,.1,0,.2-.1h.2a.349.349,0,0,0,.2-.1l.1-.1.3-.3,2.5-2.5.7-.7,6.3-6.2a2.336,2.336,0,0,0,.7.7l-6,5.9A.3.3,0,0,0,24.5,16.5ZM30.1,6.3a3.8,3.8,0,1,1,3.8,3.8A3.736,3.736,0,0,1,30.1,6.3Z"/>
      <path id="Path_5" data-name="Path 5" class="cls-1" d="M33.6,7.8a2.509,2.509,0,0,1-1-.2l-.2.8a2.959,2.959,0,0,0,1.2.3c1.2,0,1.9-.7,1.9-1.6A1.29,1.29,0,0,0,35,6a2.133,2.133,0,0,0-1.2-.3h-.3l.1-.7h1.7V4.1H33l-.3,2.3h.6c.9,0,1.2.3,1.2.7C34.5,7.6,34.1,7.8,33.6,7.8Z"/>
    </g>
  </g>
</svg>
