<svg id="Group_795" data-name="Group 795" xmlns="http://www.w3.org/2000/svg" width="53.151" height="53.151" viewBox="0 0 53.151 53.151">
  <defs>
    <style>
      .cls-1 {
        fill: #edc951;
      }

      .cls-2 {
        fill: #d6b137;
      }

      .cls-3 {
        fill: #f8f8f8;
      }

      .cls-4, .cls-7 {
        fill: #2d9541;
      }

      .cls-5 {
        fill: #ebecec;
      }

      .cls-6 {
        fill: #fff;
      }

      .cls-7 {
        stroke: #f8f8f8;
        stroke-width: 0.3px;
      }
    </style>
  </defs>
  <path id="Path_4424" data-name="Path 4424" class="cls-1" d="M26.575,0A26.575,26.575,0,1,1,0,26.575,26.573,26.573,0,0,1,26.575,0Z" transform="translate(0 0)"/>
  <path id="Path_4425" data-name="Path 4425" class="cls-2" d="M171.861,162.641a26.573,26.573,0,0,1-26.451,24.042,25.506,25.506,0,0,1-2.834-.156l-9.976-9.976L158.231,149Z" transform="translate(-118.834 -133.532)"/>
  <path id="Path_4426" data-name="Path 4426" class="cls-3" d="M132.6,97.6h20.284l5.336,5.346v27.541H132.6Z" transform="translate(-118.834 -87.468)"/>
  <path id="Path_4427" data-name="Path 4427" class="cls-4" d="M132.6,97.6h20.284l5.336,5.346v2.564H132.6Z" transform="translate(-118.834 -87.468)"/>
  <path id="Path_4428" data-name="Path 4428" class="cls-5" d="M328,97.6v5.346h5.336Z" transform="translate(-293.95 -87.468)"/>
  <g id="Group_784" data-name="Group 784" transform="translate(16.45 12.453)">
    <path id="Path_5074" data-name="Path 5074" class="cls-6" d="M146.5,598.6l.924-1.62h.867l-1.349,2.174,1.4,2.209h-.879l-.951-1.646-.951,1.646h-.867l1.379-2.209-1.349-2.174h.861Z" transform="translate(-144.691 -596.919)"/>
    <path id="Path_5075" data-name="Path 5075" class="cls-6" d="M157.9,600.779h2.014v.587h-2.746v-4.384h.731Z" transform="translate(-152.992 -596.919)"/>
    <path id="Path_5076" data-name="Path 5076" class="cls-6" d="M168.944,600.112a.561.561,0,0,0-.2-.447,1.921,1.921,0,0,0-.718-.311,3.033,3.033,0,0,1-1.13-.51,1.017,1.017,0,0,1-.4-.833,1.063,1.063,0,0,1,.438-.873,1.778,1.778,0,0,1,1.13-.343,1.681,1.681,0,0,1,1.161.39,1.164,1.164,0,0,1,.423.935l-.006.018h-.7a.706.706,0,0,0-.229-.546.935.935,0,0,0-.653-.209.956.956,0,0,0-.615.174.553.553,0,0,0-.215.451.491.491,0,0,0,.233.414,2.565,2.565,0,0,0,.773.313,2.576,2.576,0,0,1,1.075.524,1.1,1.1,0,0,1,.367.852,1.029,1.029,0,0,1-.438.871,1.891,1.891,0,0,1-1.151.324,2.034,2.034,0,0,1-1.2-.366,1.122,1.122,0,0,1-.5-1l.006-.018h.7a.686.686,0,0,0,.277.6,1.214,1.214,0,0,0,.72.2,1.066,1.066,0,0,0,.632-.163A.519.519,0,0,0,168.944,600.112Z" transform="translate(-159.115 -596.795)"/>
  </g>
  <path id="Path_5117" data-name="Path 5117" class="cls-7" d="M162.672,648.772H156.06v14.814h21.364V648.772Zm-5.337,1.274H161.4v2.944h-4.063Zm0,4.219H161.4v3.654h-4.063Zm0,4.929H161.4v3.116h-4.063Zm18.815,3.116H162.672v-3.116H176.15Zm0-4.391H162.672v-3.654H176.15Zm-13.478-4.928v-2.944H176.15v2.944Z" transform="translate(-140.189 -626.192)"/>
</svg>
