<svg xmlns="http://www.w3.org/2000/svg" width="14.617" height="13.993" viewBox="0 0 14.617 13.993">
  <defs>
    <style>
      .cls-1 {
        fill: #fff;
      }
    </style>
  </defs>
  <path id="Path_17210" data-name="Path 17210" class="cls-1" d="M-433.071,1028.385v-.97c.036-.012.027-.045.032-.071.032-.178.054-.358.1-.532a5.737,5.737,0,0,1,2.326-3.341,7.9,7.9,0,0,1,3.846-1.452,8.539,8.539,0,0,1,4.288.58,6.585,6.585,0,0,1,3.261,2.7,4.825,4.825,0,0,1,.292,4.688,6.857,6.857,0,0,1-1.439,1.97,20.927,20.927,0,0,1-3.123,2.521,17.91,17.91,0,0,1-2.2,1.34,1.092,1.092,0,0,1-.448.133c-.185.005-.279-.075-.28-.261a2.184,2.184,0,0,1,.036-.325,4.962,4.962,0,0,0,.1-.989.472.472,0,0,0-.279-.429,1.984,1.984,0,0,0-.587-.167,7.734,7.734,0,0,1-3.853-1.686,5.546,5.546,0,0,1-2-3.321,1.342,1.342,0,0,0-.077-.387Zm7.279-.656c.043.057.078.1.111.147l1.321,1.8a.392.392,0,0,0,.469.177.4.4,0,0,0,.26-.416v-2.807a.4.4,0,0,0-.092-.3.4.4,0,0,0-.285-.14.393.393,0,0,0-.39.444v1.712a.254.254,0,0,1-.108-.112q-.656-.888-1.308-1.778c-.174-.237-.311-.307-.491-.249-.2.064-.271.2-.271.5v2.522c0,.1,0,.21.007.313a.366.366,0,0,0,.327.325.372.372,0,0,0,.408-.262.823.823,0,0,0,.019-.212q0-.749,0-1.5a.322.322,0,0,1,.024-.166Zm3.781,2.147h.727a.38.38,0,0,0,.269-.113.38.38,0,0,0,.11-.27.388.388,0,0,0-.126-.286.387.387,0,0,0-.3-.1q-.457-.006-.912,0c-.085,0-.118-.022-.114-.112.007-.152.008-.3,0-.456-.006-.1.037-.126.132-.124.29.005.579,0,.869,0a.55.55,0,0,0,.183-.019.381.381,0,0,0,.26-.411.375.375,0,0,0-.377-.34c-.319-.006-.636,0-.955,0-.088,0-.116-.025-.113-.112a4.512,4.512,0,0,0,0-.456c-.006-.106.035-.125.131-.123.3.006.608,0,.912,0a.385.385,0,0,0,.287-.1.385.385,0,0,0,.12-.281.384.384,0,0,0-.121-.279.383.383,0,0,0-.287-.1h-1.4a.379.379,0,0,0-.3.111.378.378,0,0,0-.108.3v2.865a.377.377,0,0,0,.108.3.377.377,0,0,0,.3.11c.234,0,.467,0,.7,0Zm-8.451-1.832v1.411a.376.376,0,0,0,.092.292.376.376,0,0,0,.279.127q.74.009,1.482,0a.367.367,0,0,0,.363-.366.386.386,0,0,0-.119-.295.386.386,0,0,0-.3-.1c-.3,0-.6-.006-.9,0-.109,0-.136-.033-.135-.138.005-.494,0-.988,0-1.482v-.94a.369.369,0,0,0-.355-.36.377.377,0,0,0-.4.331,1.2,1.2,0,0,0-.009.17q0,.677,0,1.354Zm3.335,0h0v-1.469a.374.374,0,0,0-.321-.379.386.386,0,0,0-.416.253.689.689,0,0,0-.022.226v2.724a1.175,1.175,0,0,0,.007.157.371.371,0,0,0,.36.323.377.377,0,0,0,.29-.115.377.377,0,0,0,.1-.294c0-.476,0-.955,0-1.431Z" transform="translate(433.071 -1021.956)"/>
</svg>
