<svg xmlns="http://www.w3.org/2000/svg" width="24.03" height="31.246" viewBox="0 0 24.03 31.246">
  <defs>
    <style>
      .cls-1 {
        fill: #c0ccd5;
      }
    </style>
  </defs>
  <g id="locked-padlock" transform="translate(0.007)">
    <path id="Path_5" data-name="Path 5" class="cls-1" d="M78.625,12.618h-.609V9.769A9.714,9.714,0,0,0,68.607,0h-.571a9.714,9.714,0,0,0-9.41,9.767v2.85h-.609a1.977,1.977,0,0,0-1.7,2.164V29.074a1.986,1.986,0,0,0,1.7,2.172H78.625a1.986,1.986,0,0,0,1.7-2.172V14.782a1.977,1.977,0,0,0-1.7-2.164Zm-8.374,9.3v4.319a.922.922,0,0,1-.909.913H67.3a.922.922,0,0,1-.909-.913V21.914a2.615,2.615,0,0,1,1.645-4.449c.143-.006.428-.006.571,0a2.615,2.615,0,0,1,1.645,4.449ZM74,12.618H62.638V9.769A5.683,5.683,0,1,1,74,9.769v2.85Z" transform="translate(-56.313)"/>
  </g>
</svg>
