<svg xmlns="http://www.w3.org/2000/svg" width="45.635" height="77.499" viewBox="0 0 45.635 77.499">
  <g id="Group_634" data-name="Group 634" transform="translate(0 0)">
    <path id="Path_108" data-name="Path 108" d="M157.321,280.858c0,.184-2.206,7.812-10.478,15.9s-12.224,12.408-11.4,21.691,11.58,19.1,21.781,18.749c16.176-.552,21.414-13.694,21.874-18.566s-2.847-15.808-12.128-22.794C159.386,290.132,157.321,280.674,157.321,280.858Z" transform="translate(-134.46 -259.72)" fill="#083f88" fill-rule="evenodd"/>
    <path id="Path_109" data-name="Path 109" d="M196.822,407.072V409c-2.666.965-3.907,4.733-3.907,6.709v.827s-.046.046.092.046c.092,0,.873-.276,1.287-.322.551-.092,1.7-.138,1.792-.138.873,0,1.287.138,2.344.23a10.19,10.19,0,0,0-2.068-1.746v-.092a17.384,17.384,0,0,1,4.825-2.666c.046,0,.276-.046.276-.138a2.549,2.549,0,0,0-.46-.827,4.682,4.682,0,0,0-2.3-1.884v-1.93h.138c.368.138.735.276,1.057.414a7.526,7.526,0,0,1,3.355,3.723c.046.046.092.138.138.138a7.357,7.357,0,0,1,6.112,2.114l-1.655.965a6.317,6.317,0,0,0-3.585-1.2,8.992,8.992,0,0,0-4.734,1.517,12.282,12.282,0,0,1,2.9,4.825,11.905,11.905,0,0,0,.46-2.8c.506.23.965.46,1.425.689.184.092.506.276.735.414.138.046.322.23.46.276.368.23.827.552,1.241.873a10.747,10.747,0,0,0,1.1.919c.092,0,.138-.23.23-.322a6.694,6.694,0,0,0,.735-2.16c0-.138.046-.414.046-.506,0-.138-.092-.689-.092-.781a8.324,8.324,0,0,1,1.609-1.011,5.554,5.554,0,0,1,.276,1.746c0,.138-.092.643-.092.965-.046.23-.092.506-.138.735a8,8,0,0,1-.506,1.471c-.23.46-.827,1.241-.827,1.379,0,.092.322.506.46.781a7.593,7.593,0,0,1,1.1,3.953,6.194,6.194,0,0,1-.23,1.792c-.552-.322-1.1-.643-1.655-1.011a.5.5,0,0,1,.046-.23v-1.011c-.092-2.068-2.114-4.779-4.412-6.02a13.026,13.026,0,0,1-2.666,5.009s-.046.046.092.046a12.032,12.032,0,0,0,2.528-1.011c.046.735.138,2.252.092,2.987,0,.046,0,.092-.092.138l.092.689c-.092.689-.322,1.976-.322,2.068,0,.23.506.184.552.184a5.375,5.375,0,0,0,3.171-1.149l1.609.965a6.83,6.83,0,0,1-4.871,2.068c-.092,0-.689-.046-1.057-.092-.689,1.976-3.4,4.273-4.825,4.457v-1.976c2.9-1.287,3.723-4.457,3.907-6.525,0-.781,0-.873.046-.965-.046-.046,0-.092-.138-.092-.092,0-1.2.276-1.792.368-.414.046-1.2.092-1.287.092a6.787,6.787,0,0,1-1.241-.092q-.483-.069-1.1-.138a13.589,13.589,0,0,0,2.114,1.792,19.689,19.689,0,0,1-5.146,2.8,4.927,4.927,0,0,0,2.758,2.758v1.976a6.3,6.3,0,0,1-1.7-.781,6.439,6.439,0,0,1-1.655-1.379,5.424,5.424,0,0,1-.781-1.1q-.3-.535-.552-1.1c-.046,0-.046.046-.184.046h-1.379a7.429,7.429,0,0,1-4.5-2.068,10.017,10.017,0,0,1,1.609-1.011c.092,0,.46.322.781.46a5.559,5.559,0,0,0,2.8.735A9.962,9.962,0,0,0,196,428.4a12.265,12.265,0,0,1-2.9-4.871,9.679,9.679,0,0,0-.46,2.8,18.53,18.53,0,0,1-4.917-3.171,3.8,3.8,0,0,0-1.011,2.436,3.4,3.4,0,0,0,.046,1.333,12.31,12.31,0,0,1-1.517,1.011H185.1a6.589,6.589,0,0,1-.184-.965v-1.608a6.606,6.606,0,0,1,.184-1.011,7.266,7.266,0,0,1,.643-1.655c.138-.368.689-.965.689-1.057,0-.138-.689-1.011-.873-1.517a9.8,9.8,0,0,1-.643-2.344v-1.787a5.355,5.355,0,0,1,.184-.827,11.456,11.456,0,0,1,1.609.965,3.851,3.851,0,0,1,0,.735c0,2.252,1.471,4.825,4.412,6.525.23-.46.322-1.1.552-1.609a8.827,8.827,0,0,1,2.022-3.309s.046-.046,0-.138a13.2,13.2,0,0,0-2.528,1.011,18.39,18.39,0,0,1-.046-3.723l.276-2.344a2.586,2.586,0,0,1-.6,0,5.143,5.143,0,0,0-3.125,1.149l-1.609-.965a6.722,6.722,0,0,1,4.871-2.068c.092,0,.689.046,1.057.092.689-1.792,2.8-4,4.641-4.411Zm3.952,14.475a3.123,3.123,0,0,1-2.987,3.079,3.057,3.057,0,1,1,2.987-3.079Zm5.6-12.449a1.68,1.68,0,0,1-1.7,1.746c-.138,0-.23-.046-.368-.046a1.974,1.974,0,0,1-1.287-1.2v-.965c.552-1.149.873-1.241,1.655-1.241a1.641,1.641,0,0,1,1.7,1.7Zm-13.925.046a1.745,1.745,0,0,1-1.7,1.792c-.735,0-1.655-.781-1.655-1.379v-.827a1.563,1.563,0,0,1,1.655-1.287,1.668,1.668,0,0,1,1.7,1.7Zm20.909,12.361a1.679,1.679,0,0,1-1.7,1.746,3.638,3.638,0,0,1-.6-.138,1.524,1.524,0,0,1-.735-.505,2.809,2.809,0,0,1-.322-.689v-.831a1.652,1.652,0,0,1,1.655-1.333,1.675,1.675,0,0,1,1.7,1.746Zm-27.8.092a1.68,1.68,0,0,1-1.7,1.746,1.723,1.723,0,1,1,1.7-1.746Zm20.909,12.361a1.745,1.745,0,0,1-1.746,1.746,1.723,1.723,0,0,1-1.655-1.746,1.654,1.654,0,0,1,1.7-1.746,1.734,1.734,0,0,1,1.7,1.743ZM192.547,434a1.679,1.679,0,0,1-1.7,1.746c-.138,0-.276,0-.322-.046a1.364,1.364,0,0,1-.689-.322,3.729,3.729,0,0,1-.643-.919v-.873a1.651,1.651,0,0,1,1.655-1.333,1.7,1.7,0,0,1,1.7,1.743Z" transform="translate(-174.95 -368.862)" fill="#fff" fill-rule="evenodd"/>
    <path id="Path_110" data-name="Path 110" d="M159.3,213.648c4.365,4.5,9.375,9.007,11.259,13.51a22.12,22.12,0,0,1,1.379,4.044,24.3,24.3,0,0,1,.6,5.33,17.514,17.514,0,0,1-3.171,10.2,11.482,11.482,0,0,0-.414-2.8c-.184-.6-1.471-3.447-1.471-4.5v-1.374c.046-.23.184-.6.184-.735,0-.184-.184-.138-.23-.138a2.92,2.92,0,0,0-1.011.643,3.613,3.613,0,0,0-1.057,2.8c0,1.7.919,3.585.919,5.882a10.722,10.722,0,0,1-.184,1.655,5.009,5.009,0,0,1-2.987,3.263c-.965.276-1.884.46-2.758.643-.368.046-1.057.322-1.2.322h-.185v-.138a3.847,3.847,0,0,1,1.287-1.057c1.287-.735,3.217-1.471,3.217-3.079,0-.184-.046-.781-.368-.781-.092,0-1.057.46-1.609.689a12.131,12.131,0,0,1-2.068.689c-2.436.46-6.571,3.033-7.444,6.112-.092.322-.184.689-.276,1.057h-.133a.652.652,0,0,1-.092-.276c-.6-3.631-5.376-6.479-7.582-6.894a37.839,37.839,0,0,1-3.769-1.379c-.322,0-.322.689-.322.781,0,1.149,1.1,2.114,2.482,2.666a4.948,4.948,0,0,1,2.068,1.563c-.046.046-.046.046-.184.046-.092,0-.643-.23-.965-.276-.414-.092-.919-.138-1.333-.23-1.517-.276-3.723-.965-4.5-3.033a7.6,7.6,0,0,1-.276-.965,6.31,6.31,0,0,1-.092-.735v-1.245a32.533,32.533,0,0,1,.919-4.6v-1.333a3.858,3.858,0,0,0-.552-1.471c-.046-.092-1.1-1.333-1.471-1.333h-.23c0,.046-.046,0-.046.138,0,.092.092.322.092.46a4.78,4.78,0,0,1,.138.965c0,3.079-2.068,4.5-1.93,7.993a17.99,17.99,0,0,1-3.171-9.237v-1.837a25.7,25.7,0,0,1,.6-4.6,20.518,20.518,0,0,1,1.2-3.585,21.842,21.842,0,0,1,3.033-4.963c3.355-4.319,8.777-8.639,11.857-12.958,1.379,1.287,2.8,1.149,4.228,2.436a6.1,6.1,0,0,1,2.39-1.379,7.475,7.475,0,0,0,1.655-1.2,55.06,55.06,0,0,0,3.576,4.235Zm-4.734-5.928a4.147,4.147,0,0,1-3.079,1.333,3.261,3.261,0,0,1-2.758-1.287l1.057-1.746a2.07,2.07,0,0,0,1.746,1.057c.827,0,1.379-.46,1.655-1.655Zm-1.976-3.447c-.23-.092-.46-.23-.689-.322a1.268,1.268,0,0,1,.322-.414Zm1.2-1.241a2.378,2.378,0,0,1,1.792,2.482,4.088,4.088,0,0,1-.138.873,23.124,23.124,0,0,1-1.93-3.355ZM147.86,206.3a8.283,8.283,0,0,1-.368-1.792c0-1.517,1.609-4.181,3.585-4.458a27.891,27.891,0,0,1-3.221,6.25Zm4.251-15.1c.013.091.245.215.337.261-.046.138-.544.314-.681.5a8.016,8.016,0,0,1,1.746,1.333s.084.054.038.054a5.321,5.321,0,0,0-1.693,1,11.247,11.247,0,0,1,2.582,1.922,5.138,5.138,0,0,0-2.9,1.2l1.968.881,2.528,1.333a3.311,3.311,0,0,1-1.456.307c-.138,0-1.042-.122-1.456-.168l-1.034.038a12.027,12.027,0,0,1,.46,1.149l1.172-.008a4.287,4.287,0,0,1,3.792,4.6,4.756,4.756,0,0,1-.827,2.62c.643.827,1.333,1.655,2.022,2.482,2.022,2.344,4.411,4.182,6.709,6.571a58.86,58.86,0,0,1,4.641,5.606,21.894,21.894,0,0,1,2.8,5.146,20.946,20.946,0,0,1,1.609,7.9,18.936,18.936,0,0,1-.506,3.86c-.138.506-.184,1.1-.322,1.655a12.344,12.344,0,0,1-.781,2.3c-4.366,9.375-14.2,12.27-21.231,12.27a23.413,23.413,0,0,1-5.744-.643c-4.964-1.011-11.856-4.365-15.027-10.616a20.2,20.2,0,0,1-.965-2.3,19.4,19.4,0,0,1-.6-2.62,20.93,20.93,0,0,1-.46-2.8v-2.246a23.451,23.451,0,0,1,.827-4.641,24.705,24.705,0,0,1,1.425-3.723,16.864,16.864,0,0,1,2.39-3.907c.643-.781,1.287-1.655,1.93-2.436.551-.643,1.149-1.333,1.746-2.022.552-.6,1.149-1.287,1.746-1.838.919-.965,1.93-1.746,2.9-2.666.735-.735,4.665-4.787,4.665-5.2,0-.138-.429-.75-.567-1.072a11.763,11.763,0,0,1-.476-1.7l.008-1.632a6.378,6.378,0,0,1,2.252-4.09,10.721,10.721,0,0,1,2.068-1.241,3.4,3.4,0,0,0-1.892-.957,8.911,8.911,0,0,1,3.086-1.846,3,3,0,0,0-1.746-1.057s-.046,0-.046-.092a4.7,4.7,0,0,1,1.93-1.609,3.547,3.547,0,0,0-1.057-.873c.092-.368,1.057-.689.965-1.057a3.542,3.542,0,0,0,.092-.689,4.021,4.021,0,0,0,.092-.735c.046-.322.092-.689.138-1.057.092-.46.23-1.7.23-1.7s.431,3.315.568,4.246Z" transform="translate(-128.833 -178.516)" fill="#fcb040" fill-rule="evenodd"/>
    <g id="Group_652" data-name="Group 652" transform="translate(8.911 0.683)">
      <g id="Group_634-2" data-name="Group 634" transform="translate(14.935 11.126)">
        <path id="Path_111" data-name="Path 111" d="M305.5,211.917l-.368.184,10.34,24.172L318,237.284l-.184-4.044Z" transform="translate(-305.132 -211.917)" fill="#fcb040" fill-rule="evenodd"/>
        <path id="Path_112" data-name="Path 112" d="M306.659,211.917l-.187.095,12.689,25.272-.184-4.044Z" transform="translate(-306.289 -211.917)" fill="#af752a" fill-rule="evenodd"/>
      </g>
      <g id="Group_635" data-name="Group 635" transform="translate(15.882 10.416)">
        <path id="Path_113" data-name="Path 113" d="M312.1,206.835l9.811,10.133,2.022-.138-.276-1.884-11.374-8.293Z" transform="translate(-312.1 -206.653)" fill="#fcb040" fill-rule="evenodd"/>
        <path id="Path_114" data-name="Path 114" d="M312.712,206.755l11.75,10.075-.276-1.884-11.374-8.293Z" transform="translate(-312.632 -206.653)" fill="#af752a" fill-rule="evenodd"/>
      </g>
      <g id="Group_636" data-name="Group 636" transform="translate(16.316 9.884)">
        <path id="Path_115" data-name="Path 115" d="M315.325,202.975l8.777,5.1,1.333-.506-.46-1.379-9.467-3.447Z" transform="translate(-315.325 -202.744)" fill="#fcb040" fill-rule="evenodd"/>
        <path id="Path_116" data-name="Path 116" d="M315.9,202.88l10.032,4.69-.46-1.379L316,202.745Z" transform="translate(-315.821 -202.744)" fill="#af752a" fill-rule="evenodd"/>
      </g>
      <g id="Group_637" data-name="Group 637" transform="translate(16.729 9.104)">
        <path id="Path_117" data-name="Path 117" d="M318.382,196.97v.23l7.72,1.976.873-.827-.552-.965Z" transform="translate(-318.382 -196.97)" fill="#fcb040" fill-rule="evenodd"/>
        <path id="Path_118" data-name="Path 118" d="M318.382,196.97v.135l8.592,1.244-.552-.965Z" transform="translate(-318.382 -196.97)" fill="#af752a" fill-rule="evenodd"/>
      </g>
      <g id="Group_638" data-name="Group 638" transform="translate(16.729 6.76)">
        <path id="Path_119" data-name="Path 119" d="M318.382,181.07v.276h7.031l.643-.919-.965-.781Z" transform="translate(-318.382 -179.645)" fill="#fcb040" fill-rule="evenodd"/>
        <path id="Path_120" data-name="Path 120" d="M318.382,181.07v.161l7.674-.8-.965-.781Z" transform="translate(-318.382 -179.645)" fill="#af752a" fill-rule="evenodd"/>
      </g>
      <g id="Group_639" data-name="Group 639" transform="translate(16.499 4.461)">
        <path id="Path_121" data-name="Path 121" d="M316.867,165.923l5.836-1.7.23-1.1-1.149-.46-5.1,2.9Z" transform="translate(-316.683 -162.66)" fill="#fcb040" fill-rule="evenodd"/>
        <path id="Path_122" data-name="Path 122" d="M316.787,165.762l6.147-2.643-1.149-.46-5.1,2.9Z" transform="translate(-316.683 -162.66)" fill="#af752a" fill-rule="evenodd"/>
      </g>
      <g id="Group_640" data-name="Group 640" transform="translate(15.948 2.719)">
        <path id="Path_123" data-name="Path 123" d="M312.607,153.7l.322.322,4.871-2.987V149.8l-1.425-.046Z" transform="translate(-312.607 -149.754)" fill="#fcb040" fill-rule="evenodd"/>
        <path id="Path_124" data-name="Path 124" d="M312.607,153.7l.172.172L317.8,149.8l-1.425-.046Z" transform="translate(-312.607 -149.754)" fill="#af752a" fill-rule="evenodd"/>
      </g>
      <g id="Group_641" data-name="Group 641" transform="translate(15.258 1.339)">
        <path id="Path_125" data-name="Path 125" d="M307.512,144.3l.414.23,3.631-3.952-.368-1.011-1.2.046Z" transform="translate(-307.512 -139.562)" fill="#fcb040" fill-rule="evenodd"/>
        <path id="Path_126" data-name="Path 126" d="M307.512,144.3l.2.112,3.478-4.846-1.2.046Z" transform="translate(-307.512 -139.562)" fill="#af752a" fill-rule="evenodd"/>
      </g>
      <g id="Group_642" data-name="Group 642" transform="translate(14.569 0)">
        <path id="Path_127" data-name="Path 127" d="M302.416,135.454l.414.092,2.252-4.733-.643-1.1-1.057.689Z" transform="translate(-302.416 -129.705)" fill="#fcb040" fill-rule="evenodd"/>
        <path id="Path_128" data-name="Path 128" d="M302.416,135.454l.218.046,1.8-5.795-1.057.689Z" transform="translate(-302.416 -129.705)" fill="#af752a" fill-rule="evenodd"/>
      </g>
      <g id="Group_643" data-name="Group 643" transform="translate(0 11.126)">
        <path id="Path_129" data-name="Path 129" d="M207.232,211.917l.368.184-10.34,24.172-2.528,1.011.184-4.044Z" transform="translate(-194.73 -211.917)" fill="#fcb040" fill-rule="evenodd"/>
        <path id="Path_130" data-name="Path 130" d="M207.232,211.917l.187.095L194.73,237.284l.184-4.044Z" transform="translate(-194.73 -211.917)" fill="#af752a" fill-rule="evenodd"/>
      </g>
      <g id="Group_644" data-name="Group 644" transform="translate(0.093 10.416)">
        <path id="Path_131" data-name="Path 131" d="M207.245,206.835l-9.811,10.133-2.022-.138.276-1.884,11.374-8.293Z" transform="translate(-195.411 -206.653)" fill="#fcb040" fill-rule="evenodd"/>
        <path id="Path_132" data-name="Path 132" d="M207.162,206.755l-11.75,10.075.276-1.884,11.374-8.293Z" transform="translate(-195.411 -206.653)" fill="#af752a" fill-rule="evenodd"/>
      </g>
      <g id="Group_645" data-name="Group 645" transform="translate(1.381 9.884)">
        <path id="Path_133" data-name="Path 133" d="M215.033,202.975l-8.777,5.1-1.333-.506.46-1.379,9.467-3.447Z" transform="translate(-204.923 -202.744)" fill="#fcb040" fill-rule="evenodd"/>
        <path id="Path_134" data-name="Path 134" d="M214.955,202.88l-10.032,4.69.46-1.379,9.467-3.447Z" transform="translate(-204.923 -202.744)" fill="#af752a" fill-rule="evenodd"/>
      </g>
      <g id="Group_646" data-name="Group 646" transform="translate(2.484 9.104)">
        <path id="Path_135" data-name="Path 135" d="M221.669,196.97v.23l-7.72,1.976-.873-.827.552-.965Z" transform="translate(-213.076 -196.97)" fill="#fcb040" fill-rule="evenodd"/>
        <path id="Path_136" data-name="Path 136" d="M221.669,196.97v.135l-8.592,1.244.552-.965Z" transform="translate(-213.076 -196.97)" fill="#af752a" fill-rule="evenodd"/>
      </g>
      <g id="Group_647" data-name="Group 647" transform="translate(3.403 6.76)">
        <path id="Path_137" data-name="Path 137" d="M227.544,181.07v.276h-7.031l-.643-.919.965-.781Z" transform="translate(-219.87 -179.645)" fill="#fcb040" fill-rule="evenodd"/>
        <path id="Path_138" data-name="Path 138" d="M227.544,181.07v.161l-7.674-.8.965-.781Z" transform="translate(-219.87 -179.645)" fill="#af752a" fill-rule="evenodd"/>
      </g>
      <g id="Group_648" data-name="Group 648" transform="translate(5.057 4.461)">
        <path id="Path_139" data-name="Path 139" d="M238.165,165.923l-5.836-1.7-.23-1.1,1.149-.46,5.1,2.9Z" transform="translate(-232.099 -162.66)" fill="#fcb040" fill-rule="evenodd"/>
        <path id="Path_140" data-name="Path 140" d="M238.246,165.762,232.1,163.12l1.149-.46,5.1,2.9Z" transform="translate(-232.099 -162.66)" fill="#af752a" fill-rule="evenodd"/>
      </g>
      <g id="Group_649" data-name="Group 649" transform="translate(6.666 2.717)">
        <path id="Path_141" data-name="Path 141" d="M249.181,153.7l-.322.322-4.871-2.987V149.8l1.425-.046Z" transform="translate(-243.989 -149.752)" fill="#fcb040" fill-rule="evenodd"/>
        <path id="Path_142" data-name="Path 142" d="M249.181,153.7l-.172.172-5.021-4.078,1.425-.046Z" transform="translate(-243.989 -149.752)" fill="#af752a" fill-rule="evenodd"/>
      </g>
      <g id="Group_650" data-name="Group 650" transform="translate(8.503 1.339)">
        <path id="Path_143" data-name="Path 143" d="M261.62,144.3l-.414.23-3.631-3.952.368-1.011,1.2.046Z" transform="translate(-257.576 -139.562)" fill="#fcb040" fill-rule="evenodd"/>
        <path id="Path_144" data-name="Path 144" d="M263.97,144.3l-.2.112-3.478-4.846,1.2.046Z" transform="translate(-259.926 -139.562)" fill="#af752a" fill-rule="evenodd"/>
      </g>
      <g id="Group_651" data-name="Group 651" transform="translate(10.572 0)">
        <path id="Path_145" data-name="Path 145" d="M275.528,135.454l-.414.092-2.252-4.733.643-1.1,1.057.689Z" transform="translate(-272.862 -129.705)" fill="#fcb040" fill-rule="evenodd"/>
        <path id="Path_146" data-name="Path 146" d="M279.64,135.454l-.219.046-1.8-5.795,1.057.689Z" transform="translate(-276.975 -129.705)" fill="#af752a" fill-rule="evenodd"/>
      </g>
    </g>
    <g id="Group_653" data-name="Group 653" transform="translate(21.804 0)">
      <path id="Path_147" data-name="Path 147" d="M290.982,124.615l-.965,1.011.689,5.376h.6l.643-5.376Z" transform="translate(-290.017 -124.615)" fill="#fcb040" fill-rule="evenodd"/>
      <path id="Path_148" data-name="Path 148" d="M290.982,124.615l-.965,1.011.689,5.376h.276Z" transform="translate(-290.017 -124.615)" fill="#af752a" fill-rule="evenodd"/>
    </g>
  </g>
</svg>
