<svg xmlns="http://www.w3.org/2000/svg" width="50.812" height="49.248" viewBox="0 0 50.812 49.248">
  <defs>
    <style>
      .cls-1 {
        fill: #523131;
      }

      .cls-2 {
        fill: #6ba3a3;
      }

      .cls-3 {
        fill: #eee3c8;
      }

      .cls-4 {
        fill: #703e3e;
      }

      .cls-5 {
        fill: #fff;
      }

      .cls-6 {
        fill: #efe2b8;
      }
    </style>
  </defs>
  <g id="Group_25289" data-name="Group 25289" transform="translate(-646.597 -751.435)">
    <path id="Path_17274" data-name="Path 17274" class="cls-1" d="M154.809,51.525a1.187,1.187,0,0,1-.763,1.5L125.2,64.348a1.189,1.189,0,0,1-1.5-.766L112.22,28.047a1.187,1.187,0,0,1,.766-1.5L141.824,15.22a1.19,1.19,0,0,1,1.5.765Z" transform="translate(534.436 736.273)"/>
    <g id="Group_25286" data-name="Group 25286" transform="translate(669.896 757.419)">
      <path id="Path_17275" data-name="Path 17275" class="cls-2" d="M127.4,47.046a.844.844,0,0,1-.541-1.067l8.659-26.469a.846.846,0,0,1,1.065-.541l17.16,5.614a.847.847,0,0,1,.544,1.067l-8.663,26.469a.842.842,0,0,1-1.064.541Z" transform="translate(-126.816 -18.928)"/>
      <rect id="Rectangle_13772" data-name="Rectangle 13772" class="cls-3" width="10.372" height="12.062" transform="translate(10.542 13.213) rotate(-71.885)"/>
      <path id="Path_17276" data-name="Path 17276" class="cls-4" d="M140.569,24.234a2.371,2.371,0,1,0,1.514,2.989A2.371,2.371,0,0,0,140.569,24.234Z" transform="translate(-120.536 -15.867)"/>
      <path id="Path_17277" data-name="Path 17277" class="cls-4" d="M133.672,29.391c3.566.622,6.549-.1,7.142-1.9s-1.39-4.153-4.636-5.757Z" transform="translate(-122.771 -17.275)"/>
      <rect id="Rectangle_13773" data-name="Rectangle 13773" class="cls-5" width="12.906" height="1.315" transform="translate(15.029 30.136) rotate(-71.88)"/>
      <rect id="Rectangle_13774" data-name="Rectangle 13774" class="cls-5" width="6.992" height="1.314" transform="translate(14.329 23.685) rotate(-71.887)"/>
      <rect id="Rectangle_13775" data-name="Rectangle 13775" class="cls-5" width="9.105" height="1.314" transform="matrix(0.311, -0.95, 0.95, 0.311, 11.145, 24.866)"/>
      <rect id="Rectangle_13776" data-name="Rectangle 13776" class="cls-5" width="13.01" height="1.314" transform="matrix(0.311, -0.95, 0.95, 0.311, 7.67, 27.728)"/>
      <path id="Path_17278" data-name="Path 17278" class="cls-1" d="M127.935,46.166a.847.847,0,0,1-.507-1.084l8.163-24.949a.847.847,0,0,1,1.051-.574l1.73.566a.848.848,0,0,1,.509,1.084l-8.163,24.949a.848.848,0,0,1-1.051.576Z" transform="translate(-126.482 -18.579)"/>
    </g>
    <path id="Path_17279" data-name="Path 17279" class="cls-5" d="M133.607,22.586v-.013l-.056.025Z" transform="translate(547.054 740.642)"/>
    <path id="Path_17280" data-name="Path 17280" class="cls-5" d="M133.52,22.613l.053-.023-.061.012Z" transform="translate(547.031 740.652)"/>
    <path id="Path_17281" data-name="Path 17281" class="cls-4" d="M153.274,53.1a1.185,1.185,0,0,1-.766,1.495l-27.3,8.83a1.189,1.189,0,0,1-1.5-.766L112.22,27.12a1.187,1.187,0,0,1,.766-1.5l27.3-8.829a1.19,1.19,0,0,1,1.5.766Z" transform="translate(534.436 737.2)"/>
    <path id="Path_17282" data-name="Path 17282" class="cls-6" d="M135.508,27.063a7.826,7.826,0,0,0-.779-.493,8.237,8.237,0,0,0-6.291-.73,1.642,1.642,0,0,0-.275.064,1.876,1.876,0,0,0-.261.108A8.253,8.253,0,0,0,125.911,40.5a7.75,7.75,0,0,0,.779.493,8.224,8.224,0,0,0,6.29.728,1.471,1.471,0,0,0,.275-.064,2.061,2.061,0,0,0,.259-.107,8.246,8.246,0,0,0,4.676-4.277,8.348,8.348,0,0,0,.342-.855,8.236,8.236,0,0,0-3.024-9.353Zm2.043,4.022-3.574,1.156a17.915,17.915,0,0,0-1.38-3.053,12.608,12.608,0,0,0,2.161-1.415c.03-.024.057-.048.084-.072a7.317,7.317,0,0,1,2.709,3.385Zm-3.518,5.461a19.7,19.7,0,0,0-4.4,1.423,16.783,16.783,0,0,1-1.332-2.93l5.1-1.646a16.764,16.764,0,0,1,.632,3.154Zm-.892,4.174-.17.057-.172.051c-.709.07-1.712-.688-2.677-2.089a19.214,19.214,0,0,1,3.967-1.281c.036,1.7-.331,2.9-.948,3.263Zm-5.121-6.554a16.665,16.665,0,0,1-.634-3.153,18.856,18.856,0,0,0,2.24-.583,19.134,19.134,0,0,0,2.158-.839,16.762,16.762,0,0,1,1.332,2.929Zm.256-7.326.172-.057c.057-.019.114-.035.172-.052.711-.068,1.712.688,2.677,2.089a18.759,18.759,0,0,1-1.949.749,18.6,18.6,0,0,1-2.018.533c-.037-1.7.33-2.9.946-3.261Zm5.735.374a12.127,12.127,0,0,1-1.894,1.205,10.807,10.807,0,0,0-.652-.876,6.6,6.6,0,0,0-1.146-1.107,7.361,7.361,0,0,1,3.691.778Zm-7.283.385a6.472,6.472,0,0,0-.281,1.569,10.72,10.72,0,0,0-.017,1.092,12.144,12.144,0,0,1-2.24.129,7.347,7.347,0,0,1,2.537-2.789ZM123.8,31.272l.108.008a12.621,12.621,0,0,0,2.582-.116,17.97,17.97,0,0,0,.668,3.283L123.585,35.6a7.309,7.309,0,0,1,.215-4.328Zm.067,5.2,3.574-1.156a17.973,17.973,0,0,0,1.38,3.053,12.485,12.485,0,0,0-2.161,1.415l-.084.072a7.325,7.325,0,0,1-2.709-3.38Zm3.541,3.871a12.013,12.013,0,0,1,1.892-1.2,10.839,10.839,0,0,0,.652.876,6.561,6.561,0,0,0,1.146,1.108,7.391,7.391,0,0,1-3.69-.777Zm7.283-.385a6.624,6.624,0,0,0,.283-1.569c.024-.348.027-.714.016-1.092a12.143,12.143,0,0,1,2.24-.129,7.359,7.359,0,0,1-2.539,2.794Zm2.927-3.674a.487.487,0,0,1-.108-.008,12.5,12.5,0,0,0-2.58.118,18.114,18.114,0,0,0-.669-3.283l3.573-1.154a7.3,7.3,0,0,1-.216,4.331Z" transform="translate(540.505 742.381)"/>
    <g id="Group_25287" data-name="Group 25287" transform="translate(656.303 770.055)">
      <path id="Path_17283" data-name="Path 17283" class="cls-6" d="M128.959,42.071l-.17.057c-.057.017-.116.037-.172.052-.711.07-1.712-.69-2.676-2.089.351-.161.728-.313,1.119-.461a8.737,8.737,0,0,1-.692-.7c-.313.124-.62.256-.919.393a16.729,16.729,0,0,1-1.331-2.93l.611-.2c-.054-.143-.1-.285-.154-.432s-.087-.293-.129-.44l-.612.2a17.062,17.062,0,0,1-.631-3.154c.32-.062.646-.137.971-.219a9.675,9.675,0,0,1,.148-.975c-.4.11-.8.205-1.177.283-.038-1.7.331-2.9.948-3.261.057-.021.113-.04.17-.057s.114-.037.17-.054a1.591,1.591,0,0,1,.968.3,8.974,8.974,0,0,1,1.111-1.507,8.239,8.239,0,0,0-2.262.316,1.821,1.821,0,0,0-.271.064,1.642,1.642,0,0,0-.261.11,8.227,8.227,0,0,0-4.673,4.275,7.476,7.476,0,0,0-.343.854A8.258,8.258,0,0,0,128.8,43.07a1.5,1.5,0,0,0,.272-.064,1.693,1.693,0,0,0,.261-.107,8.209,8.209,0,0,0,2.018-1.068,8.957,8.957,0,0,1-1.784-.569,1.606,1.606,0,0,1-.608.809ZM122.544,28.95a6.549,6.549,0,0,0-.281,1.569,10.739,10.739,0,0,0-.016,1.092,12.143,12.143,0,0,1-2.24.129,7.342,7.342,0,0,1,2.537-2.79Zm-2.927,3.674a.505.505,0,0,1,.11.008,12.633,12.633,0,0,0,2.582-.118,18.089,18.089,0,0,0,.665,3.283L119.4,36.953a7.333,7.333,0,0,1,.217-4.329Zm2.776,8.586a7.332,7.332,0,0,1-2.708-3.383l3.571-1.156a17.985,17.985,0,0,0,1.38,3.053,12.717,12.717,0,0,0-2.159,1.415Zm.833.49a11.939,11.939,0,0,1,1.894-1.207,10.493,10.493,0,0,0,.65.874,6.614,6.614,0,0,0,1.146,1.108A7.354,7.354,0,0,1,123.226,41.7Z" transform="translate(-118.266 -26.875)"/>
    </g>
    <g id="Group_25288" data-name="Group 25288" transform="translate(650.042 757.736)">
      <path id="Path_17284" data-name="Path 17284" class="cls-3" d="M114.328,24.057,117.5,23.03a2.284,2.284,0,0,1,1.716-.008,1.947,1.947,0,0,1,.973,1.237A2,2,0,0,1,120.1,25.9a2.561,2.561,0,0,1-1.549,1.086l-1.048.337.744,2.3-1.919.622Zm2.771,2.016.469-.151a1.245,1.245,0,0,0,.712-.442.648.648,0,0,0,.067-.564.719.719,0,0,0-.353-.431,1.071,1.071,0,0,0-.8.033l-.544.175Z" transform="translate(-114.328 -16.925)"/>
      <path id="Path_17285" data-name="Path 17285" class="cls-3" d="M122.756,26.882l-2.169.7.029,1.118-1.952.631.326-6.938,2.084-.674,4.323,5.436-2,.646Zm-.827-1.208-1.4-2,.043,2.442Z" transform="translate(-111.77 -17.597)"/>
      <path id="Path_17286" data-name="Path 17286" class="cls-3" d="M122.892,25.8l1.782-.7a1.441,1.441,0,0,0,.458.6,1.064,1.064,0,0,0,.967.1.982.982,0,0,0,.569-.4.611.611,0,0,0,.078-.517.6.6,0,0,0-.351-.361,2.52,2.52,0,0,0-1.1-.043,4.359,4.359,0,0,1-2.035-.172,1.576,1.576,0,0,1-.925-1.021,1.7,1.7,0,0,1-.018-.989,1.939,1.939,0,0,1,.617-.936,4.128,4.128,0,0,1,1.444-.735,3.265,3.265,0,0,1,1.949-.142,2,2,0,0,1,1.2,1.162l-1.768.688a1.01,1.01,0,0,0-.5-.51,1.022,1.022,0,0,0-.7.016.8.8,0,0,0-.455.3.459.459,0,0,0-.059.4.363.363,0,0,0,.224.221,1.643,1.643,0,0,0,.717.021,8.423,8.423,0,0,1,1.972-.033,1.98,1.98,0,0,1,1.011.431,1.815,1.815,0,0,1,.542.835,2.056,2.056,0,0,1,.025,1.2,2.152,2.152,0,0,1-.673,1.06,3.92,3.92,0,0,1-1.407.741,3.229,3.229,0,0,1-2.383.1,2.519,2.519,0,0,1-1.181-1.316Z" transform="translate(-109.651 -18.378)"/>
      <path id="Path_17287" data-name="Path 17287" class="cls-3" d="M126.818,24.534l1.782-.7a1.449,1.449,0,0,0,.458.6,1.056,1.056,0,0,0,.965.1.979.979,0,0,0,.569-.4.61.61,0,0,0,.078-.517.6.6,0,0,0-.351-.362,2.573,2.573,0,0,0-1.094-.041,4.437,4.437,0,0,1-2.037-.17,1.6,1.6,0,0,1-.927-1.021,1.706,1.706,0,0,1-.013-.991,1.9,1.9,0,0,1,.614-.935,4.048,4.048,0,0,1,1.444-.736,3.273,3.273,0,0,1,1.951-.143,2,2,0,0,1,1.194,1.164l-1.768.688a1.017,1.017,0,0,0-.5-.51,1,1,0,0,0-.693.016.794.794,0,0,0-.458.3.453.453,0,0,0-.057.4.363.363,0,0,0,.224.221,1.592,1.592,0,0,0,.715.019,8.526,8.526,0,0,1,1.973-.033,2,2,0,0,1,1.01.431,1.825,1.825,0,0,1,.542.838,2.043,2.043,0,0,1,.027,1.2,2.181,2.181,0,0,1-.674,1.059,3.9,3.9,0,0,1-1.405.739,3.231,3.231,0,0,1-2.383.1,2.528,2.528,0,0,1-1.186-1.316Z" transform="translate(-107.335 -19.127)"/>
    </g>
  </g>
</svg>
