<svg id="Group_793" data-name="Group 793" xmlns="http://www.w3.org/2000/svg" width="53.151" height="53.151" viewBox="0 0 53.151 53.151">
  <defs>
    <style>
      .cls-1 {
        fill: #edc951;
      }

      .cls-2 {
        fill: #d6b137;
      }

      .cls-3 {
        fill: #f8f8f8;
      }

      .cls-4 {
        fill: #ed5951;
      }

      .cls-5 {
        fill: #ebecec;
      }

      .cls-6 {
        fill: #fff;
      }
    </style>
  </defs>
  <path id="Path_5125" data-name="Path 5125" class="cls-1" d="M26.575,0A26.575,26.575,0,1,1,0,26.575,26.573,26.573,0,0,1,26.575,0Z" transform="translate(0 0)"/>
  <path id="Path_5126" data-name="Path 5126" class="cls-2" d="M171.861,162.641a26.573,26.573,0,0,1-26.451,24.042,25.506,25.506,0,0,1-2.834-.156l-9.976-9.976L158.231,149Z" transform="translate(-118.834 -133.532)"/>
  <path id="Path_5127" data-name="Path 5127" class="cls-3" d="M132.6,97.6h20.284l5.336,5.346v27.541H132.6Z" transform="translate(-118.834 -87.468)"/>
  <path id="Path_5130" data-name="Path 5130" class="cls-4" d="M132.6,97.6h20.284l5.336,5.346v2.564H132.6Z" transform="translate(-118.834 -87.468)"/>
  <path id="Path_5131" data-name="Path 5131" class="cls-5" d="M328,97.6v5.346h5.336Z" transform="translate(-293.95 -87.468)"/>
  <path id="Path_5128" data-name="Path 5128" class="cls-4" d="M171.832,207.942a3.2,3.2,0,0,1,1.879.394l.363.384a.823.823,0,0,0-.062-1.059c-1.069-1.08-4.993-.457-6.384-.311-.156.01-.343-.156-.457-.239a10.221,10.221,0,0,1-1.744-1.536l-.81-1.017a13.119,13.119,0,0,1-1.526-2.844c-.125-.3-.093-.26-.021-.581.042-.2.083-.4.114-.612a11.889,11.889,0,0,0,.218-2.658c-.176-.031-.135.062-.176.208l-.55,1.786c-.021.052-.031.093-.052.145a.193.193,0,0,0-.021.073l-.042.062a6.515,6.515,0,0,1-.249-.986,13.249,13.249,0,0,1-.3-3.322c.042-.7.291-1.806.862-.841a5.892,5.892,0,0,1,.4.81l.322.893a2.46,2.46,0,0,0,.031-1.1,1.684,1.684,0,0,0-.395-.82c-.083-.042-.114-.1-.208-.166-.073-.052-.145-.083-.228-.135a1.431,1.431,0,0,0-1.059-.073l-.187.093-.125.093c-.031.031,0,.01-.052.031a2.883,2.883,0,0,0-.2.28,2.505,2.505,0,0,0-.239,1.173,18.617,18.617,0,0,0,.945,5.647c.052.156-.01.218-.062.363-.218.54-.478,1.1-.706,1.63-.529,1.235-1.848,3.81-2.512,5-.446.8-.851,1.651-1.308,2.44a13.611,13.611,0,0,1-.758,1.142,18.654,18.654,0,0,1-1.287,1.536c-.166.135-.3.311-.467.457-.093.083-.145.156-.249.239-.083.073-.156.145-.249.218s-.394.394-.561.28c-.322-.332,1.277-2.388,1.661-2.761l1.318-1.36a7.49,7.49,0,0,0-1.64.893c-.654.467-2.118,1.962-2.19,2.824-.073.893,1.318,1.391,2.408.675a2,2,0,0,0,.353-.28,12.719,12.719,0,0,0,1.37-1.765c.6-.893,1.142-1.775,1.692-2.709.083-.145.208-.166.363-.239A26.33,26.33,0,0,1,167,208.191c.208-.021.27.062.436.156.145.083.26.145.4.228a15.56,15.56,0,0,0,2.637,1.111c1.183.343,3.436.779,3.55-.789l-.125.1c-.561.436-2.045.093-2.616-.073a16.811,16.811,0,0,1-2.408-.882C169.86,207.973,170.9,207.931,171.832,207.942Zm-7.5,0a25.155,25.155,0,0,0-4.277,1.308c-.228.1-.55.28-.747.343a2.486,2.486,0,0,1,.218-.394c.436-.727,1.972-3.623,2.263-4.277.125-.28.239-.54.363-.83s.208-.581.332-.862c.1.145.249.5.343.664a9.12,9.12,0,0,0,1.246,1.765c.156.187.332.363.488.529l1.059.934c.166.135.426.291.571.426Z" transform="translate(-137.004 -174.151)"/>
  <g id="Group_792" data-name="Group 792" transform="translate(15.649 12.453)">
    <path id="Path_5064" data-name="Path 5064" class="cls-6" d="M290.613,436.15v1.711h-.753V433.35h1.763a1.671,1.671,0,0,1,1.169.386,1.432,1.432,0,0,1,0,2.032,1.679,1.679,0,0,1-1.169.383Zm0-.6h1.01a.822.822,0,0,0,.629-.224.789.789,0,0,0,.211-.567.76.76,0,0,0-.839-.8h-1.01Z" transform="translate(-289.86 -433.35)"/>
    <path id="Path_5065" data-name="Path 5065" class="cls-6" d="M301.567,437.861V433.35h1.462a1.89,1.89,0,0,1,1.4.536,1.863,1.863,0,0,1,.537,1.379v.685a1.855,1.855,0,0,1-.537,1.378,1.9,1.9,0,0,1-1.4.533Zm.753-3.906v3.3h.687a1.114,1.114,0,0,0,.882-.365,1.382,1.382,0,0,0,.32-.944v-.69a1.371,1.371,0,0,0-.32-.938,1.112,1.112,0,0,0-.882-.365Z" transform="translate(-297.532 -433.35)"/>
    <path id="Path_5066" data-name="Path 5066" class="cls-6" d="M316.21,435.937h-1.976v1.924h-.753V433.35h3.045v.6h-2.292v1.379h1.976Z" transform="translate(-305.34 -433.35)"/>
  </g>
</svg>
