<svg xmlns="http://www.w3.org/2000/svg" width="53.15" height="53.151" viewBox="0 0 53.15 53.151">
  <g id="Group_2" data-name="Group 2" transform="translate(-227 -301)">
    <g id="Group_793" data-name="Group 793" transform="translate(227 301)">
      <path id="Path_5125" data-name="Path 5125" d="M26.575,0A26.575,26.575,0,1,1,0,26.575,26.575,26.575,0,0,1,26.575,0Z" fill="#edc951"/>
      <path id="Path_5126" data-name="Path 5126" d="M171.861,162.641a26.573,26.573,0,0,1-26.451,24.042,25.508,25.508,0,0,1-2.834-.156l-9.976-9.976L158.231,149Z" transform="translate(-118.834 -133.532)" fill="#d6b137"/>
      <path id="Path_5127" data-name="Path 5127" d="M132.6,97.6h20.284l5.336,5.346v27.541H132.6Z" transform="translate(-118.834 -87.468)" fill="#f8f8f8"/>
      <path id="Path_5131" data-name="Path 5131" d="M328,97.6v5.346h5.336Z" transform="translate(-293.95 -87.468)" fill="#ebecec"/>
    </g>
    <g id="Group_1" data-name="Group 1" transform="translate(67 -0.937)">
      <g id="pptx_icon__2019_" data-name="pptx_icon_(2019)" transform="translate(162.5 303.525)">
        <path id="Path_3" data-name="Path 3" d="M62,34a5.506,5.506,0,0,1,5.506,5.506H62Z" transform="translate(-34.177 -17.089)" fill="#f5ba9d"/>
        <path id="Path_4" data-name="Path 4" d="M49.152,40.241A6.241,6.241,0,1,1,42.911,34v6.241Zm.734,9.177H33.367a.367.367,0,0,0,0,.734H49.886a.367.367,0,0,0,0-.734Zm0-1.835H33.367a.367.367,0,1,0,0,.734H49.886a.367.367,0,0,0,0-.734Z" transform="translate(-15.823 -17.089)" fill="#c8c6c4"/>
        <path id="Path_5" data-name="Path 5" d="M9.468,48.684H21.215a1.468,1.468,0,0,0,1.468-1.468V35.468A1.468,1.468,0,0,0,21.215,34H9.468A1.468,1.468,0,0,0,8,35.468V47.215A1.468,1.468,0,0,0,9.468,48.684Z" transform="translate(0 -17.089)" fill="#c43e1c"/>
        <path id="Path_6" data-name="Path 6" d="M23.617,42a3.771,3.771,0,0,1,2.492.729,2.6,2.6,0,0,1,.865,2.11,2.934,2.934,0,0,1-.428,1.577,2.862,2.862,0,0,1-1.216,1.074,4.138,4.138,0,0,1-1.828.383H21.835v3.3H20V42Zm-1.782,4.405h1.456a1.894,1.894,0,0,0,1.287-.384,1.416,1.416,0,0,0,.435-1.121q0-1.432-1.667-1.432h-1.51Z" transform="translate(-7.595 -22.152)" fill="#fff"/>
      </g>
    </g>
  </g>
</svg>
