<svg id="questionicon" xmlns="http://www.w3.org/2000/svg" width="30" height="30" viewBox="0 0 30 30">
  <defs>
    <style>
      .cls-1 {
        fill: #c0ccd5;
      }
    </style>
  </defs>
  <path id="Path_1" data-name="Path 1" class="cls-1" d="M27.989,7.471A14.937,14.937,0,0,0,22.53,2.012,14.673,14.673,0,0,0,15,0,14.672,14.672,0,0,0,7.471,2.012,14.933,14.933,0,0,0,2.012,7.471,14.672,14.672,0,0,0,0,15a14.675,14.675,0,0,0,2.012,7.529,14.937,14.937,0,0,0,5.459,5.459A14.674,14.674,0,0,0,15,30a14.674,14.674,0,0,0,7.53-2.012,14.933,14.933,0,0,0,5.459-5.459A14.675,14.675,0,0,0,30,15,14.676,14.676,0,0,0,27.989,7.471ZM17.5,24.375a.6.6,0,0,1-.625.625h-3.75a.6.6,0,0,1-.625-.625v-3.75A.6.6,0,0,1,13.126,20h3.75a.6.6,0,0,1,.625.624Zm4.756-11.543a5.164,5.164,0,0,1-.547,1.182,4.526,4.526,0,0,1-.869.937,8.15,8.15,0,0,1-.9.684q-.331.2-.957.557a3.29,3.29,0,0,0-1.064.967,1.858,1.858,0,0,0-.42.966.6.6,0,0,1-.625.625h-3.75a.6.6,0,0,1-.625-.625v-.7a3.613,3.613,0,0,1,1.025-2.451,6.69,6.69,0,0,1,2.256-1.69A3.952,3.952,0,0,0,17.11,12.4,1.75,1.75,0,0,0,17.5,11.21a1.423,1.423,0,0,0-.733-1.153A2.86,2.86,0,0,0,15.1,9.55a2.843,2.843,0,0,0-1.68.469,9.734,9.734,0,0,0-1.68,1.8.576.576,0,0,1-.488.235.552.552,0,0,1-.371-.117L8.3,9.98a.558.558,0,0,1-.156-.82A7.977,7.977,0,0,1,15.391,5a7.607,7.607,0,0,1,6.026,3.067A5.245,5.245,0,0,1,22.5,11.25,4.956,4.956,0,0,1,22.256,12.832Z" transform="translate(0 0)"/>
</svg>
