<svg xmlns="http://www.w3.org/2000/svg" width="27" height="27" viewBox="0 0 27 27">
  <defs>
    <style>
      .cls-1 {
        fill: #fbb617;
      }

      .cls-2 {
        fill: #22365c;
      }
    </style>
  </defs>
  <g id="Group_602" data-name="Group 602" transform="translate(-1199.737 -13.737)">
    <circle id="Ellipse_8" data-name="Ellipse 8" class="cls-1" cx="13.5" cy="13.5" r="13.5" transform="translate(1199.737 13.737)"/>
    <g id="Group_81" data-name="Group 81" transform="translate(1207.135 21.135)">
      <path id="Path_62" data-name="Path 62" class="cls-2" d="M805.184,805.86l-.048-.049-1.172,1.172.029.028.311.31c.2.2.623.1.947-.225s.424-.748.225-.947l-.29-.29Z" transform="translate(-794.051 -795.836)"/>
      <path id="Path_64" data-name="Path 64" class="cls-2" d="M228.15,221.769a4.566,4.566,0,1,0,2.527,8.369l2.534,2.5,1.172-1.171-2.517-2.479a4.561,4.561,0,0,0-3.715-7.214Zm.062,7.777a3.211,3.211,0,1,1,3.211-3.211,3.211,3.211,0,0,1-3.211,3.211Z" transform="translate(-223.584 -221.769)"/>
    </g>
  </g>
</svg>
