<svg xmlns="http://www.w3.org/2000/svg" width="29.769" height="29.937" viewBox="0 0 29.769 29.937">
  <g id="Group_81" data-name="Group 81" transform="translate(-0.002)">
    <path id="Path_62" data-name="Path 62" d="M807.326,805.946l-.132-.135-3.23,3.23.08.077.857.854c.551.551,1.717.276,2.61-.62s1.169-2.061.62-2.61l-.8-.8Z" transform="translate(-778.642 -780.319)" fill="#22365c"/>
    <path id="Path_64" data-name="Path 64" d="M236.169,221.769a12.584,12.584,0,1,0,6.965,23.066l4.984,4.89,3.23-3.227-4.937-4.832a12.571,12.571,0,0,0-10.239-19.882Zm.171,21.434a8.85,8.85,0,1,1,8.85-8.85,8.85,8.85,0,0,1-8.85,8.85Z" transform="translate(-223.584 -221.769)" fill="#22365c"/>
  </g>
</svg>
