<svg xmlns="http://www.w3.org/2000/svg" width="41.593" height="41.656" viewBox="0 0 41.593 41.656">
  <g id="telephone-call-receiver" transform="translate(0 0)">
    <path id="Path_16096" data-name="Path 16096" d="M1167.651,218.444a9.619,9.619,0,0,0,7.653-3.108,10.537,10.537,0,0,0,.93-1.137,2.93,2.93,0,0,0-.281-3.637q-2.062-2.1-4.16-4.161a2.843,2.843,0,0,0-4.055.009c-1.14,1.119-2.261,2.257-3.392,3.386a1.548,1.548,0,0,1-2.533.019l-11.943-11.946a1.57,1.57,0,0,1,.012-2.547c1.1-1.11,2.217-2.213,3.32-3.323a2.841,2.841,0,0,0,.008-4.185q-1.988-2-4-4a2.9,2.9,0,0,0-4.1-.109,10.481,10.481,0,0,0-2.82,3.343,11.289,11.289,0,0,0-.446,8.81,26.324,26.324,0,0,0,4.764,8.472,51.916,51.916,0,0,0,10.514,10.073,31.944,31.944,0,0,0,3.271,2.013,1.486,1.486,0,0,1,.7,2.112,1.519,1.519,0,0,1-2.174.523,40.34,40.34,0,0,1-7.775-5.56,56.066,56.066,0,0,1-7.728-8.331,28.853,28.853,0,0,1-4.23-7.6,15.136,15.136,0,0,1-.476-9.726,12.814,12.814,0,0,1,4.231-6.277,6.508,6.508,0,0,1,3.086-1.572,5.75,5.75,0,0,1,5.161,1.545c1.469,1.415,2.908,2.862,4.329,4.327a5.864,5.864,0,0,1-.035,8.115q-1.145,1.171-2.317,2.314c-.239.232-.291.389-.025.652q4.8,4.77,9.563,9.564c.255.256.415.238.655-.01.726-.749,1.469-1.484,2.214-2.215a5.907,5.907,0,0,1,8.369,0q2.077,2.05,4.128,4.126a6.08,6.08,0,0,1,.334,7.944,13.356,13.356,0,0,1-6.713,4.647,13.223,13.223,0,0,1-5.446.425,1.5,1.5,0,0,1,.253-2.979C1166.892,218.445,1167.274,218.444,1167.651,218.444Z" transform="translate(-1138.132 -179.877)" fill="#f6f8f9"/>
  </g>
</svg>
