<svg xmlns="http://www.w3.org/2000/svg" width="53.15" height="53.151" viewBox="0 0 53.15 53.151">
  <g id="Group_2" data-name="Group 2" transform="translate(-227 -301)">
    <g id="Group_2-2" data-name="Group 2">
      <g id="Group_793" data-name="Group 793" transform="translate(227 301)">
        <path id="Path_5125" data-name="Path 5125" d="M26.575,0A26.575,26.575,0,1,1,0,26.575,26.575,26.575,0,0,1,26.575,0Z" fill="#edc951"/>
        <path id="Path_5126" data-name="Path 5126" d="M171.861,162.641a26.573,26.573,0,0,1-26.451,24.042,25.508,25.508,0,0,1-2.834-.156l-9.976-9.976L158.231,149Z" transform="translate(-118.834 -133.532)" fill="#d6b137"/>
        <path id="Path_5127" data-name="Path 5127" d="M132.6,97.6h20.284l5.336,5.346v27.541H132.6Z" transform="translate(-118.834 -87.468)" fill="#f8f8f8"/>
        <path id="Path_5131" data-name="Path 5131" d="M328,97.6v5.346h5.336Z" transform="translate(-293.95 -87.468)" fill="#ebecec"/>
      </g>
    </g>
    <g id="video-818" transform="translate(369.323 443.324)">
      <g id="Group_1" data-name="Group 1" transform="translate(-126.036 -126.036)">
        <path id="Path_1" data-name="Path 1" d="M10.288,0A10.288,10.288,0,1,0,20.575,10.288,10.288,10.288,0,0,0,10.288,0Zm3.944,10.661L8.639,13.89a.431.431,0,0,1-.647-.373V7.059a.431.431,0,0,1,.647-.374l5.592,3.229A.431.431,0,0,1,14.232,10.661Z" fill="#d60101"/>
      </g>
    </g>
  </g>
</svg>
