<svg xmlns="http://www.w3.org/2000/svg" width="17.559" height="13.988" viewBox="0 0 17.559 13.988">
  <defs>
    <style>
      .cls-1 {
        fill: #fff;
      }
    </style>
  </defs>
  <path id="Youtube" class="cls-1" d="M8.778,13.988h0c-.046,0-4.587-.034-5.963-.191-.074-.018-.164-.031-.269-.047a2.436,2.436,0,0,1-1.669-.811,4.862,4.862,0,0,1-.7-1.971C.18,10.951,0,9.358,0,7.757v-1.5c0-1.6.18-3.226.182-3.242a4.42,4.42,0,0,1,.7-1.971A2.366,2.366,0,0,1,2.58.224h.049C5.057.034,8.741,0,8.778,0S12.5.034,14.923.223l.083.007a2.212,2.212,0,0,1,1.673.819,4.862,4.862,0,0,1,.7,1.971c0,.016.182,1.642.182,3.242v1.5c0,1.569-.18,3.2-.182,3.21a4.863,4.863,0,0,1-.7,1.971,2.366,2.366,0,0,1-1.7.821h-.049C12.5,13.988,8.815,13.988,8.778,13.988ZM6.659,3.783v6.894l5.751-3.37Z"/>
</svg>
