<svg xmlns="http://www.w3.org/2000/svg" xmlns:xlink="http://www.w3.org/1999/xlink" width="193.72" height="57.782" viewBox="0 0 193.72 57.782">
  <defs>
    <style>
      .cls-1 {
        fill: #1d4482;
      }

      .cls-2 {
        fill: #f4ad40;
      }

      .cls-3, .cls-4 {
        stroke: rgba(0,0,0,0);
        stroke-miterlimit: 10;
      }

      .cls-3 {
        fill: url(#linear-gradient);
      }

      .cls-4 {
        fill: url(#linear-gradient-2);
      }

      .cls-5 {
        opacity: 0.5;
        fill: url(#linear-gradient-3);
      }

      .cls-6 {
        fill: #f1ab3d;
      }

      .cls-7 {
        fill: #fff;
      }
    </style>
    <linearGradient id="linear-gradient" y1="0.5" x2="1" y2="0.5" gradientUnits="objectBoundingBox">
      <stop offset="0" stop-color="#31a1db"/>
      <stop offset="1" stop-color="#221f1f"/>
    </linearGradient>
    <linearGradient id="linear-gradient-2" x1="0.876" y1="0.283" x2="0.061" y2="1.048" gradientUnits="objectBoundingBox">
      <stop offset="0" stop-color="#31a1db"/>
      <stop offset="1" stop-color="#1d4481"/>
      <stop offset="1" stop-color="#221f1f"/>
    </linearGradient>
    <linearGradient id="linear-gradient-3" x1="0.5" x2="0.5" y2="1" gradientUnits="objectBoundingBox">
      <stop offset="0" stop-color="#31a3dc"/>
      <stop offset="1" stop-color="#07245c"/>
    </linearGradient>
  </defs>
  <g id="Group_25367" data-name="Group 25367" transform="translate(0.889 0.5)">
    <g id="Group_25364" data-name="Group 25364" transform="translate(94.808 4.619)">
      <path id="Path_52052" data-name="Path 52052" class="cls-1" d="M19.44-122.936q-.292-.014-.59-.021t-.59-.007q-1.014,0-2,.055a18.435,18.435,0,0,0-1.888.2,13.411,13.411,0,0,0-1.675.361,5.2,5.2,0,0,0-1.336.576,2.816,2.816,0,0,0-.882.848,2.061,2.061,0,0,0-.32,1.146,2.088,2.088,0,0,0,.32,1.2,2.4,2.4,0,0,0,.827.756,3.57,3.57,0,0,0,1.133.4,7.131,7.131,0,0,0,1.251.111,9.791,9.791,0,0,0,1.438-.125,16.773,16.773,0,0,0,1.813-.389v4.447a21.04,21.04,0,0,1-2.168.508,11.6,11.6,0,0,1-1.987.174,13.306,13.306,0,0,1-3.238-.383,8.031,8.031,0,0,1-2.689-1.2,5.907,5.907,0,0,1-1.833-2.063,6.244,6.244,0,0,1-.674-3,6.794,6.794,0,0,1,.529-2.759,6.373,6.373,0,0,1,1.48-2.1A8.512,8.512,0,0,1,8.626-125.7a14.881,14.881,0,0,1,2.876-.979,22.653,22.653,0,0,1,3.314-.515q1.751-.146,3.585-.118.264,0,.52.007t.52.021v-1.987a2.851,2.851,0,0,0-.369-1.508,2.9,2.9,0,0,0-.945-.965,3.988,3.988,0,0,0-1.271-.515,6.267,6.267,0,0,0-1.348-.153,5.418,5.418,0,0,0-1.668.25,3.816,3.816,0,0,0-1.376.778,3.886,3.886,0,0,0-.965,1.355,5.472,5.472,0,0,0-.424,1.966H5.156a11.507,11.507,0,0,1,.473-3.056,8.065,8.065,0,0,1,1.133-2.327,6.95,6.95,0,0,1,1.689-1.668,9.372,9.372,0,0,1,2.133-1.1,11.919,11.919,0,0,1,2.48-.6,20.182,20.182,0,0,1,2.737-.181,16.764,16.764,0,0,1,2.147.139,11.318,11.318,0,0,1,2.091.473,2.389,2.389,0,0,0,.556-.5,3.164,3.164,0,0,0,.4-.625,3.464,3.464,0,0,0,.243-.674,2.669,2.669,0,0,0,.082-.632h5.862a5.942,5.942,0,0,1-.209,1.543,6.288,6.288,0,0,1-.611,1.487,6.371,6.371,0,0,1-.986,1.306,5.2,5.2,0,0,1-1.334.986,7.2,7.2,0,0,1,.848,1.924,9.05,9.05,0,0,1,.307,2.466v15.952H19.44ZM3.961-139.8l2.265-4.433h18.9v4.433ZM35.085-136.5v2.446a13.934,13.934,0,0,1,1.341-1.259,7.518,7.518,0,0,1,1.438-.924,7.521,7.521,0,0,1,1.647-.576,8.781,8.781,0,0,1,1.956-.206,11.764,11.764,0,0,1,4.224.653,6.673,6.673,0,0,1,2.7,1.827,6.794,6.794,0,0,1,1.431,2.807,14.508,14.508,0,0,1,.417,3.6v14.966H44.478v-15.367a3.513,3.513,0,0,0-.25-1.355,2.946,2.946,0,0,0-.708-1.035,3.159,3.159,0,0,0-1.125-.666,4.475,4.475,0,0,0-1.5-.236,6.521,6.521,0,0,0-2.453.424,4.728,4.728,0,0,0-1.743,1.181,4.931,4.931,0,0,0-1.042,1.8,7.169,7.169,0,0,0-.348,2.279v12.977H29.515V-136.5Zm32.736,7.726a3.8,3.8,0,0,0-.473-1.619,3.233,3.233,0,0,0-1.007-1.07,4.325,4.325,0,0,0-1.431-.6,7.679,7.679,0,0,0-1.729-.188,5.7,5.7,0,0,0-1.119.1,3.949,3.949,0,0,0-.917.292,1.827,1.827,0,0,0-.625.459.912.912,0,0,0-.229.6.656.656,0,0,0,.292.5,3.685,3.685,0,0,0,.75.452,9.171,9.171,0,0,0,1.028.4q.569.188,1.133.348t1.056.285l.813.209q1.487.417,2.731.813a16.721,16.721,0,0,1,2.23.875,9.1,9.1,0,0,1,1.723,1.07,5.349,5.349,0,0,1,1.223,1.383A6.157,6.157,0,0,1,74-122.636a10.553,10.553,0,0,1,.243,2.4,7.278,7.278,0,0,1-.383,2.432,6.328,6.328,0,0,1-1.063,1.917,6.822,6.822,0,0,1-1.612,1.431,9.691,9.691,0,0,1-2.042.986,12.61,12.61,0,0,1-2.348.569,17.38,17.38,0,0,1-2.515.181,16.078,16.078,0,0,1-3.738-.424,9.449,9.449,0,0,1-3.119-1.327,6.661,6.661,0,0,1-2.133-2.334,6.987,6.987,0,0,1-.792-3.433v-4.612h5.795v4.612a1.978,1.978,0,0,0,.362,1.2,2.883,2.883,0,0,0,.93.813,4.414,4.414,0,0,0,1.278.466,7.012,7.012,0,0,0,1.418.146,8.334,8.334,0,0,0,1.355-.118,4.457,4.457,0,0,0,1.309-.41,2.906,2.906,0,0,0,.986-.806,2.02,2.02,0,0,0,.39-1.278,5.976,5.976,0,0,0-.055-.854,2.208,2.208,0,0,0-.236-.722,2.147,2.147,0,0,0-.542-.639,5.015,5.015,0,0,0-.968-.6,13.418,13.418,0,0,0-1.5-.611q-.9-.313-2.162-.674-1.751-.445-3.279-1a12.021,12.021,0,0,1-2.654-1.32,6.106,6.106,0,0,1-1.778-1.805,4.562,4.562,0,0,1-.653-2.473,5.345,5.345,0,0,1,.411-2.008,5.1,5.1,0,0,1,1.042-1.556,6.217,6.217,0,0,1,1.536-1.139,10.137,10.137,0,0,1,1.882-.764,12.728,12.728,0,0,1,2.112-.431,18.543,18.543,0,0,1,2.2-.132,16.657,16.657,0,0,1,3.884.431,8.685,8.685,0,0,1,3.133,1.4,6.864,6.864,0,0,1,2.112,2.536,8.872,8.872,0,0,1,.821,3.814ZM52.788-139.8l2.265-4.433h18.9v4.433Zm22.245-11.889a5.533,5.533,0,0,0-1.848.285,3.753,3.753,0,0,0-1.355.806A3.423,3.423,0,0,0,71-149.359a4.321,4.321,0,0,0-.285,1.6H65.181a7.539,7.539,0,0,1,.736-3.39,7.17,7.17,0,0,1,2.049-2.508,9.443,9.443,0,0,1,3.119-1.564,14.338,14.338,0,0,1,3.946-.57Z" transform="translate(22.99 155.791)"/>
      <path id="Path_52053" data-name="Path 52053" class="cls-2" d="M6.62-92.88v-23.554h5.849v13.1a7.622,7.622,0,0,0,.4,2.645,4.884,4.884,0,0,0,1.052,1.739,3.833,3.833,0,0,0,1.459.954,4.835,4.835,0,0,0,1.635.288,5.9,5.9,0,0,0,2.146-.351,3.784,3.784,0,0,0,1.466-.982,3.918,3.918,0,0,0,.835-1.523,6.858,6.858,0,0,0,.267-1.97v-13.9h5.808v14.421a14.864,14.864,0,0,1-.456,3.739A8.636,8.636,0,0,1,25.635-95.2a6.96,6.96,0,0,1-2.56,2.071,8.659,8.659,0,0,1-3.816.766,8.807,8.807,0,0,1-3.943-.87,8.282,8.282,0,0,1-3.072-2.7v3.044Zm1.767-31.372H21.9v-3.62h5.569v8.093H6.1Z" transform="translate(-6.1 136.051)"/>
    </g>
    <g id="Group_25356" data-name="Group 25356" transform="translate(0 0)">
      <g id="Group_25341" data-name="Group 25341">
        <g id="Group_25340" data-name="Group 25340">
          <path id="Union_3" data-name="Union 3" class="cls-3" d="M13.188,36.326a.012.012,0,0,0,0-.007c-.457-1.222-.9-2.417-1.38-3.57-1.977-4.732-4.626-8.76-11.809-11,2.972-3.338,6.195-4.741,9.4-4.741q.548,0,1.1.055c4.458.434,8.823,3.479,12.358,7.7a13.978,13.978,0,0,1,1.5,1.931l.16.008a9.018,9.018,0,0,0,1.657-.117,11.182,11.182,0,0,0,2.424-.7A34.55,34.55,0,0,0,56.485,40a34.443,34.443,0,0,0,15.9-3.861A34.443,34.443,0,0,1,56.478,40,34.548,34.548,0,0,1,28.59,25.888C39.58,21.41,49.913,0,59.208,0a6.34,6.34,0,0,1,4,1.48c-8.571,11.765-12.52,14.946-11.41,17.091C63.919,9.427,68.1,2.7,75.057,8.252c-11.342,12.264-16.066,15.24-15.087,17.5,16.448-9.171,17.246-12.089,23.287-6.533C79.568,22.628,64.3,33.067,66.889,34.292c2.271-1.356,5.741-3.334,8.026-4.385a.242.242,0,0,0,.029-.013c.015-.008.03-.015.03-.012a7.606,7.606,0,0,1,4.134-.511,7.529,7.529,0,0,1,1.82.515,6.729,6.729,0,0,1,2.327,1.636,9.822,9.822,0,0,0-2.265-.28,9.814,9.814,0,0,1,2.264.28c-4.923,4.956-9.131,9.964-13.353,14.294q-.57.586-1.144,1.157A.319.319,0,0,1,68.73,47,34.609,34.609,0,0,1,13.188,36.326ZM56.8,42.98a31.3,31.3,0,0,0,4.849-1.054A31.31,31.31,0,0,1,56.8,42.98Zm5.683-1.344a35.909,35.909,0,0,0,4.253-1.787,35.927,35.927,0,0,1-4.251,1.787Zm15.2-9.641.025-.014Z"/>
          <path id="Union_1" data-name="Union 1" class="cls-4" d="M7.315,35.55c-3.325-2.58-5.585-6.313-7.27-8.79L0,26.693l.16.008a9.018,9.018,0,0,0,1.657-.117,11.182,11.182,0,0,0,2.424-.7A34.55,34.55,0,0,0,32.129,40a34.441,34.441,0,0,0,16.129-3.979,31.934,31.934,0,0,1-10.119,5.609q-.408.143-.829.286H37.3a31.3,31.3,0,0,1-9.067,1.339A32.21,32.21,0,0,1,7.315,35.55ZM4.24,25.889C15.232,21.41,25.564,0,34.859,0a6.34,6.34,0,0,1,4,1.48c-8.571,11.765-12.52,14.946-11.41,17.091C39.571,9.427,43.754,2.7,50.709,8.252c-11.344,12.264-16.067,15.24-15.089,17.5,16.448-9.171,17.246-12.089,23.287-6.533-3.691,3.407-18.964,13.844-16.369,15.071,2.271-1.356,5.741-3.334,8.026-4.386a.243.243,0,0,0,.029-.013c.015-.008.03-.015.03-.012a7.607,7.607,0,0,1,4.128-.507,7.529,7.529,0,0,1,1.825.515A6.729,6.729,0,0,1,58.9,31.524a8.692,8.692,0,0,0-3.977-.093,7.657,7.657,0,0,0-1.442.483L53.331,32c-.051.027-.1.055-.152.085l-.151.089a11.849,11.849,0,0,0-1.086.748c-.064.048-.129.1-.193.149l-.194.154c-.388.312-.784.652-1.2,1.012-.279.242-.566.495-.867.753-.376.324-.77.659-1.191,1l-.008.007-.038.031h0A34.441,34.441,0,0,1,32.13,40,34.548,34.548,0,0,1,4.241,25.888Z" transform="translate(24.348)"/>
          <path id="Path_216" data-name="Path 216" class="cls-5" d="M677.557,1273.473a31.94,31.94,0,0,1-10.12,5.609q-.409.143-.828.286H666.6a32.107,32.107,0,0,1-29.973-6.375c-3.325-2.577-5.585-6.312-7.27-8.792l-.045-.067.159.008a9.047,9.047,0,0,0,1.656-.117,11.145,11.145,0,0,0,2.424-.7,34.622,34.622,0,0,0,44.012,10.138" transform="translate(-604.955 -1237.446)"/>
          <path id="Path_218" data-name="Path 218" class="cls-6" d="M460.515,1261.129a6.911,6.911,0,0,0-9.867,2.484,27.085,27.085,0,0,1-13.7-1.064,23.991,23.991,0,0,1-6.578-3.5,7.458,7.458,0,0,0,7.713-2.5.88.88,0,0,0,0-1.114,7.464,7.464,0,0,0-11.59,0c-.015.019-.027.04-.041.06a25.236,25.236,0,0,1-3.525-4.836.881.881,0,1,0-1.571.8,26.081,26.081,0,0,0,3.637,5.07,27.417,27.417,0,0,0,11.38,7.686c.586.2,1.163.376,1.732.534a7.441,7.441,0,0,0-2,5.079v.012a7.453,7.453,0,0,0,2.757,5.78.881.881,0,0,0,1.113,0,7.551,7.551,0,0,0,2.534-3.99,7.439,7.439,0,0,0-1.2-6.177,28.832,28.832,0,0,0,4.59.371,27.4,27.4,0,0,0,4.957-.446,6.911,6.911,0,0,0,9.975-3.16.881.881,0,0,0-.329-1.087" transform="translate(-407.522 -1224.963)"/>
        </g>
        <circle id="Ellipse_614" data-name="Ellipse 614" class="cls-7" cx="2.189" cy="2.189" r="2.189" transform="translate(7.221 18.615)"/>
      </g>
    </g>
  </g>
</svg>
