<svg xmlns="http://www.w3.org/2000/svg" xmlns:xlink="http://www.w3.org/1999/xlink" width="1300.564" height="180.004" viewBox="0 0 1300.564 180.004">
  <defs>
    <clipPath id="clip-path">
      <path id="Path_17244" data-name="Path 17244" d="M-1000.564,0H226a73.865,73.865,0,0,1,74,73.728V180H-1000.564Z" transform="translate(1000.564 145)" fill="#013f87"/>
    </clipPath>
    <linearGradient id="linear-gradient" y1="0.5" x2="1" y2="0.5" gradientUnits="objectBoundingBox">
      <stop offset="0" stop-color="#daece5"/>
      <stop offset="1" stop-color="#b2deeb"/>
    </linearGradient>
  </defs>
  <g id="Group_2539" data-name="Group 2539" transform="translate(-778 -573)">
    <g id="Group_25218" data-name="Group 25218" transform="translate(778 428)">
      <path id="Path_17229" data-name="Path 17229" d="M-1000.564,0H226a73.865,73.865,0,0,1,74,73.728V180H-1000.564Z" transform="translate(1000.564 145)" fill="#013f87"/>
      <g id="Group_25217" data-name="Group 25217">
        <g id="Group_25216" data-name="Group 25216">
          <g id="Mask_Group_54" data-name="Mask Group 54" opacity="0.8" clip-path="url(#clip-path)">
            <path id="Path_16995" data-name="Path 16995" d="M720.445,0C686.77,14.564,701.31,44.367,664.888,54.322c-34.8,9.511-73.58-1.18-108.342,8.433-13.855,3.831-26.2,14.364-37.871,24.621q-.789.693-1.57,1.392a181.448,181.448,0,0,0-42.144,55.972l-35.867,73.8H923.745s43.361-167.953-71.17-178.793-89.4,0-89.4,0V0Z" transform="translate(376.824 106.21)" fill="#2b65ee" opacity="0.496"/>
            <circle id="Ellipse_576" data-name="Ellipse 576" cx="250.5" cy="250.5" r="250.5" transform="translate(953 -148)" fill="#2095d3" opacity="0.3"/>
          </g>
        </g>
      </g>
    </g>
    <g id="Group_1" data-name="Group 1" transform="translate(1462.369 328.51)" opacity="0.8">
      <g id="Group_2513" data-name="Group 2513" transform="translate(298.332 279.242)">
        <g id="Group_2509" data-name="Group 2509" transform="translate(38.526)">
          <path id="Path_5453" data-name="Path 5453" d="M669.589,324.716l-.514,36.673,9.953-2.65-5.618-35.751Z" transform="translate(-667.992 -312.203)" fill="#f18c72"/>
          <g id="Group_2508" data-name="Group 2508">
            <path id="Path_5454" data-name="Path 5454" d="M673.449,300.9a5.331,5.331,0,0,1-.239,3.8l-1.294,4.807-.911.461-2.918,1.053c.456-.92.183.073.183.073l-1.059-7.412s-3.117-4.357,3.746-6.212a1.636,1.636,0,0,1,1.781.581A4.181,4.181,0,0,1,673.449,300.9Z" transform="translate(-666.506 -297.408)" fill="#f18c72"/>
          </g>
          <path id="Path_5455" data-name="Path 5455" d="M674.611,436.212a215.332,215.332,0,0,1-5.536-28.843l9.6-4.884,4.333,12.67Z" transform="translate(-667.992 -358.183)" fill="#005558"/>
        </g>
        <path id="Path_5456" data-name="Path 5456" d="M693.019,634.811c.576-3.272.894-5.186.894-5.186l-7.6,5.186Z" transform="translate(-639.436 -489.559)" fill="#f7a57a"/>
        <g id="Group_2511" data-name="Group 2511" transform="translate(0 4.272)">
          <path id="Path_5457" data-name="Path 5457" d="M586.593,334.186,599.7,368.44l8.263-6.149L589.5,331.166Z" transform="translate(-581.759 -321.205)" fill="#f7a57a"/>
          <g id="Group_2510" data-name="Group 2510">
            <path id="Path_5458" data-name="Path 5458" d="M581.585,310.163a5.329,5.329,0,0,1,1.186,3.617l.579,4.945-.675.766-2.32,2.059c.082-1.024.2,0,.2,0l-3.729-6.492s-4.51-2.892,1.178-7.159a1.636,1.636,0,0,1,1.87-.119A4.179,4.179,0,0,1,581.585,310.163Z" transform="translate(-575.127 -307.54)" fill="#f7a57a"/>
          </g>
        </g>
        <path id="Path_5459" data-name="Path 5459" d="M670.8,425.87h8.448l-3.372-9.929L669.275,420Z" transform="translate(-629.581 -365.966)" fill="#f18c72"/>
        <path id="Path_5460" data-name="Path 5460" d="M629.743,427.547c.043-.25.1-.46.15-.689a127.647,127.647,0,0,1-12.208-18.386l7.109-8.093,12.9,15.346,4.741.02s6.405-4.227,12,1.543c2.044,2.107,3.405,7.824,2.04,13.867-3.765,16.66-.819,25.473-.819,25.473l-21.8,8.126s-.5-14.487-.837-24.647v-.035a11.332,11.332,0,0,0-1.769-5.56A9.938,9.938,0,0,1,629.743,427.547Z" transform="translate(-599.742 -356.965)" fill="#d7e1fc"/>
        <g id="Group_2512" data-name="Group 2512" transform="translate(33.285 32.129)">
          <path id="Path_5461" data-name="Path 5461" d="M659.044,373.613l13.853,4.849L671.531,388.8c-.019.147-.059.287-.086.431-.266.048-.532.1-.8.162-.043.011-.085.025-.128.037s-.084.015-.126.026a9.484,9.484,0,0,0-6.476,6.484,16.356,16.356,0,0,1-6-.077,6.006,6.006,0,0,1-3.149-1.358C651.85,388.13,659.044,373.613,659.044,373.613Z" transform="translate(-654.074 -373.613)" fill="#f7a57a"/>
        </g>
        <path id="Path_5462" data-name="Path 5462" d="M662.6,377.721c3.73,1.823,2.851,21.044,3.5,34.134a14.877,14.877,0,0,0,12.6,13.913c4.938.788,10.359.933,13.629-.93-2.162-1.768-13.816-18.916-10.083-41.621.491-2.988.552-11.309-4.482-15.825-5.59-5.016-17.125,1.529-17.125,1.529S657.474,375.216,662.6,377.721Z" transform="translate(-624.024 -336.791)" fill="#122043"/>
        <path id="Path_5463" data-name="Path 5463" d="M675.414,578.688c2.012-11.7,5.3-14.269,5.3-23.113,0-5.051-2.59-10.76-4.578-14.4a21.063,21.063,0,0,1-2.872-8.079l-.135-.472-22.106-.034s-2.9,14.77-2.9,23.555c0,2.723.376,13.587.7,22.541Z" transform="translate(-617.348 -433.436)" fill="#fff"/>
      </g>
      <g id="Group_2522" data-name="Group 2522" transform="translate(142.532 266)">
        <g id="Group_2514" data-name="Group 2514" transform="translate(24.205 125.028)">
          <path id="Path_5464" data-name="Path 5464" d="M289.613,596.015h21.194c.172-10.93-.046-21.954-.863-32.413-8.8,0-10.135-1.053-30.659-1.053C283.909,563.431,287.236,577.692,289.613,596.015Z" transform="translate(-272.421 -562.549)" fill="#f2f2f2"/>
          <path id="Path_5465" data-name="Path 5465" d="M263,597.459h25.235c1.769-11.642,2.639-22.862,1.926-32.413-7.684,0-17.888,1.053-26.352,1.053C264.588,573.195,263.36,587.9,263,597.459Z" transform="translate(-263.002 -563.993)" fill="#fff"/>
        </g>
        <g id="Group_2521" data-name="Group 2521" transform="translate(0 0)">
          <g id="Group_2515" data-name="Group 2515" transform="translate(99.01 16.531)">
            <path id="Path_5466" data-name="Path 5466" d="M446.9,316.988l4.83-4.036a1.586,1.586,0,0,0,.537-1.458l-.208-1.293a1.585,1.585,0,0,0-.631-1.03l-5.013-3.655a1.585,1.585,0,0,0-1.966.078l-.587.5a1.585,1.585,0,0,0-.546,1.051l-.749,7.778Z" transform="translate(-441.667 -305.21)" fill="#f7a57a"/>
            <path id="Path_5467" data-name="Path 5467" d="M441.332,318.3l-.882-5.494a1.518,1.518,0,0,1,1.6-1.755l2.412.168c.642.045,2.138,3.192,2.138,3.192s-1.93,1.681-3-1.341a2.39,2.39,0,0,1-1.194.227,6.817,6.817,0,0,1,2.052,6.491Z" transform="translate(-440.43 -308.589)" fill="#f18c72"/>
          </g>
          <path id="Path_5468" data-name="Path 5468" d="M383.118,328.81s-11.311,30.582-17.6,41.684-25.861,25.957-25.861,25.957l-9.1-21.559s17.6-8.578,26.279-17.726,20.414-31.708,20.414-31.708Z" transform="translate(-277.872 -300.39)" fill="#fbe694"/>
          <g id="Group_2516" data-name="Group 2516">
            <path id="Path_5469" data-name="Path 5469" d="M208.559,276.355l-2.808-5.633a1.584,1.584,0,0,1,.092-1.551l.709-1.1a1.584,1.584,0,0,1,.991-.691l6.058-1.341a1.586,1.586,0,0,1,1.771.859l.336.7a1.586,1.586,0,0,1,.079,1.182l-2.429,7.427Z" transform="translate(-205.592 -266)" fill="#f7a57a"/>
            <path id="Path_5470" data-name="Path 5470" d="M219.26,279.557l3.009-4.681a1.518,1.518,0,0,0-.767-2.251l-2.278-.812c-.606-.216-3.237,2.069-3.237,2.069s1.095,2.314,3.286-.027a2.39,2.39,0,0,0,1,.686,6.816,6.816,0,0,0-4.48,5.126Z" transform="translate(-211.494 -269.354)" fill="#f7a57a"/>
          </g>
          <path id="Path_5471" data-name="Path 5471" d="M262.353,350.013c12.661,8.379,6.881,58.854,6.881,58.854l-37.6-.4,4.19-41.281s-18.648-21.435-22-37.11-5.027-40.392-5.027-40.392h7.122s7.96,32.224,12.987,40.392S250.689,349.8,250.689,349.8Z" transform="translate(-207.444 -279.7)" fill="#ffeb9a"/>
          <g id="Group_2517" data-name="Group 2517" transform="translate(58.351 74.314)">
            <path id="Path_5472" data-name="Path 5472" d="M347.368,494.4h.853c.931-10.548,2.8-39.83-3.77-52.135-.147.309-.3.616-.458.92C350.045,455.451,348.244,484.171,347.368,494.4Z" transform="translate(-343.993 -442.263)" fill="url(#linear-gradient)"/>
          </g>
          <g id="Group_2520" data-name="Group 2520" transform="translate(36.52 38.225)">
            <g id="Group_2518" data-name="Group 2518" transform="translate(9.914 24.106)">
              <path id="Path_5473" data-name="Path 5473" d="M315.726,421.047l1.689-7.205,8.278.925.616,8.562a1.785,1.785,0,0,1-.172.172A23.545,23.545,0,0,0,315.726,421.047Z" transform="translate(-315.726 -413.842)" fill="#f18c72"/>
            </g>
            <g id="Group_2519" data-name="Group 2519">
              <path id="Path_5474" data-name="Path 5474" d="M308.971,379.6l2.173,11.334a1.78,1.78,0,0,1,1.9,2.02,2.148,2.148,0,0,1,.308.814,13.221,13.221,0,0,0,10.5.951c7.031-2.39.725-15.746.725-15.746Z" transform="translate(-301.905 -369.565)" fill="#f7a57a"/>
              <path id="Path_5475" data-name="Path 5475" d="M296.841,375.776a7.061,7.061,0,0,0-2.271-2.907c-4.583-2.969-1.284-6.059-.1-7.073,1.307-1.122.661-3.686,2.318-5.4,2.528-2.617,5.584-.7,7.354-1.286s2.562-3.164,5.383-2.252,2.818,3.027,3.787,3.784,2.188-1.878,5.15.525c4.506,3.657-2.931,6.527-2.931,6.527a14.086,14.086,0,0,1-9.84.919,1.845,1.845,0,0,0-2.082.829c-1.076,2,.235,11.528.235,11.528l-2.073-1.286S297.623,379.576,296.841,375.776Z" transform="translate(-292.212 -356.665)" fill="#122043"/>
              <path id="Path_5476" data-name="Path 5476" d="M313.45,399.128a1.77,1.77,0,1,0,.639-2.42A1.769,1.769,0,0,0,313.45,399.128Z" transform="translate(-304.357 -379.686)" fill="#f7a57a"/>
            </g>
          </g>
          <path id="Path_5477" data-name="Path 5477" d="M323.116,425.083l.17,3.923-12.8-2.554,2.684-4.275Z" transform="translate(-266.259 -356.331)" fill="url(#linear-gradient)"/>
        </g>
      </g>
      <g id="Group_2528" data-name="Group 2528" transform="translate(227.158 301.338)">
        <path id="Path_5478" data-name="Path 5478" d="M486.378,587.371l.46-30.149s-17.04-21.641-19.7,0c-.73,5.943-.244,17.1.844,30.149Z" transform="translate(-441.293 -464.215)" fill="#020633"/>
        <path id="Path_5479" data-name="Path 5479" d="M433.317,600.533h21.641c2.657-15.5,3.869-30.173,3.869-30.173H433.513C434.326,577.772,434.1,588.55,433.317,600.533Z" transform="translate(-421.932 -477.377)" fill="#000543"/>
        <path id="Path_5480" data-name="Path 5480" d="M505.134,434.737s10.087,23.522,12.647,23.522c2.048,0-.768-19.208-.768-19.208h8.448s10.623,32.921,2.175,38.937-27.007-17.024-27.007-17.024Z" transform="translate(-460.865 -398.934)" fill="#fff"/>
        <path id="Path_5481" data-name="Path 5481" d="M439.975,576.738l3.057,7.558c1.473,2.969,6.882,3.044,10.475,2.1a.746.746,0,0,0,.352-1.225c-1.973-2.164-7.092-7.708-8.867-8.949Z" transform="translate(-425.783 -480.769)" fill="#f7a57a"/>
        <path id="Path_5482" data-name="Path 5482" d="M465.511,423.087s5.268,3.572,5.268,7.669v54.367H439.912v-50.83s.632-11.3,11.68-11.3S465.511,423.087,465.511,423.087Z" transform="translate(-425.747 -392.14)" fill="#fff"/>
        <g id="Group_2523" data-name="Group 2523" transform="translate(44.521 44.178)">
          <path id="Path_5483" data-name="Path 5483" d="M511.911,503.429V454.6l1.024.034v48.795Z" transform="translate(-511.911 -454.6)" fill="#dde8fb"/>
        </g>
        <path id="Path_5484" data-name="Path 5484" d="M469.071,392.863l1.159,12.769a7.834,7.834,0,0,0,6.223,2.374c3.836-.348,3.585-3.113,3.585-3.113l-.742-8.183-5.811-.964Z" transform="translate(-442.612 -374.714)" fill="#f18c72"/>
        <path id="Path_5485" data-name="Path 5485" d="M478.988,378.8a4.774,4.774,0,0,0,2.78-1c2.913-5.737-2.294-20.016-2.294-20.016l-12.158,3.338.5,9.84a8.267,8.267,0,0,0,3.7,6.483h0A13.265,13.265,0,0,0,478.988,378.8Z" transform="translate(-441.597 -354.428)" fill="#f7a57a"/>
        <path id="Path_5486" data-name="Path 5486" d="M469.134,356.245a26.55,26.55,0,0,0,8.419-.764c4.246-1.159,1.053-5.664,1.053-5.664s-3.062,1.748-8.815,1.424c-3.882-.218-4.98-.868-7.317.664-3.175,2.082-1.821,8.042-1.821,8.042l3,12.6.689-.062s-.519-7.605-.754-10.189c.615-1.242,1.4-1.313,2.026-1.073a1.939,1.939,0,0,1,1.183,1.661L468,376.13s8.768,2.872,10.856,2.018-.239-10.543-.239-10.543a3.959,3.959,0,0,0-4.3,1.473c-1.708,2.3-4.215.3-4.215.3Z" transform="translate(-437.577 -349.817)" fill="#122043"/>
        <path id="Path_5487" data-name="Path 5487" d="M540,430.08l-.3-1.622c-.659-3.592-4.092-8.059-7.55-9.232h-3.586l1.111,7.662,5.061,3.192Z" transform="translate(-477.02 -389.962)" fill="#f7a57a"/>
        <path id="Path_5488" data-name="Path 5488" d="M468.462,376.271a2.165,2.165,0,0,1,2.218,1.843,1.865,1.865,0,0,1-1.19,2.439,2.165,2.165,0,0,1-2.218-1.843A1.865,1.865,0,0,1,468.462,376.271Z" transform="translate(-441.528 -365.106)" fill="#f7a57a"/>
        <path id="Path_5489" data-name="Path 5489" d="M528.028,431.708l6.986,4.042s-4.384-.044-4.455,0l-7.395-6.187s.536-1.081,2.212-.168A8.5,8.5,0,0,1,528.028,431.708Z" transform="translate(-473.899 -395.632)" fill="#f7a57a"/>
        <path id="Path_5490" data-name="Path 5490" d="M423.765,431.06s-17.451,19.386-17.451,31.006,14.165,32.1,14.165,32.1l7-2.048s-6.314-25.343-6.314-32.085,12.97-16.626,12.97-16.626" transform="translate(-406.314 -396.807)" fill="#fff"/>
        <g id="Group_2524" data-name="Group 2524" transform="translate(14.336 46.193)">
          <path id="Path_5491" data-name="Path 5491" d="M441.34,476.413c0,5.8,5.138,27.025,6.345,31.969-.355.093-.5.121-1.037.261-1.484-6.108-6.332-26.525-6.332-32.23,0-6.915,12.635-16.623,13.172-17.033l.621.814C453.981,460.292,441.34,470,441.34,476.413Z" transform="translate(-440.316 -459.38)" fill="#dde8fb"/>
        </g>
        <g id="Group_2527" data-name="Group 2527" transform="translate(41.766 4.113)">
          <path id="Path_5492" data-name="Path 5492" d="M519.317,398.843s-.756,7.61,4.407,13.2a2.016,2.016,0,0,0,1.365.6,5.13,5.13,0,0,0,2.368-.616,2.243,2.243,0,0,0,1.36-1.175.969.969,0,0,0-.193-1c-1.063-1.31-4.392-5.844-3.46-10.208A7.583,7.583,0,0,0,519.317,398.843Z" transform="translate(-513.417 -382.135)" fill="#31a9db"/>
          <path id="Path_5493" data-name="Path 5493" d="M532.247,411.785a1.485,1.485,0,0,0,.743-.856.969.969,0,0,0-.193-1c-1.063-1.31-4.392-5.844-3.46-10.208a6.4,6.4,0,0,0-2.845-1.009C526.767,403.389,528.049,406.415,532.247,411.785Z" transform="translate(-517.59 -382.211)" fill="#37b4e8"/>
          <g id="Group_2526" data-name="Group 2526" transform="translate(10.389 20.254)">
            <g id="Group_2525" data-name="Group 2525" transform="translate(0 0.013)">
              <path id="Path_5494" data-name="Path 5494" d="M530.213,410.006c.317,1.051.909,1.8,1.322,1.677s.491-1.078.174-2.128-.909-1.8-1.322-1.676S529.9,408.956,530.213,410.006Z" transform="translate(-530.018 -407.772)" fill="#f4872e"/>
              <path id="Path_5495" data-name="Path 5495" d="M530.7,407.79l.433-.145-.012.226-.284.143Z" transform="translate(-530.413 -407.645)" fill="#f4872e"/>
              <path id="Path_5496" data-name="Path 5496" d="M533.253,416.693l.527-.152-.618-.034Z" transform="translate(-531.837 -412.77)" fill="#de1d4c"/>
            </g>
            <path id="Path_5497" data-name="Path 5497" d="M531.048,409.754c.317,1.051.909,1.8,1.322,1.677s.491-1.078.174-2.128-.909-1.8-1.322-1.676S530.731,408.7,531.048,409.754Z" transform="translate(-530.501 -407.613)" fill="#ffc630"/>
          </g>
          <path id="Path_5498" data-name="Path 5498" d="M508.828,384.657l-.824.075a2.818,2.818,0,0,0-2.616,2.988l.2,2.167a2.818,2.818,0,0,0,3.111,2.468l.824-.075Z" transform="translate(-505.377 -374.082)" fill="#ffc630"/>
          <path id="Path_5499" data-name="Path 5499" d="M565.222,370.009c.537,5.913-.388,10.83-2.065,10.982s-3.472-4.518-4.008-10.431.387-10.831,2.065-10.983S564.685,364.1,565.222,370.009Z" transform="translate(-536.39 -359.573)" fill="#122043"/>
          <path id="Path_5500" data-name="Path 5500" d="M557.261,376.3l2.541,1.344.314,3.464-2.27,2.469-1.264-4.427Z" transform="translate(-534.994 -369.249)" fill="#fff"/>
          <path id="Path_5501" data-name="Path 5501" d="M532.222,371.151c-.451-4.97.132-9.224,1.324-10.549l-.006-.006a49.143,49.143,0,0,1-21.1,10.264l.686,7.558s15.866-2.344,22.292,2.879l.008-.005C534.014,380.206,532.673,376.124,532.222,371.151Z" transform="translate(-509.463 -360.165)" fill="#39c1fa"/>
          <path id="Path_5502" data-name="Path 5502" d="M564.419,381.162c.087.96.011,1.753-.17,1.77s-.4-.749-.486-1.71-.011-1.753.17-1.769S564.332,380.2,564.419,381.162Z" transform="translate(-539.126 -371.071)" fill="#ffc630"/>
        </g>
        <path id="Path_5503" data-name="Path 5503" d="M536.47,424.733a8.235,8.235,0,0,1-3.9.636c-2.031,0-2.946-2.5-3.293-3.855-.122-.479-.23-1.157.367-1.462l3.264-.453Z" transform="translate(-477.378 -390.179)" fill="#f7a57a"/>
      </g>
      <g id="Group_2532" data-name="Group 2532" transform="translate(368.811 292.402)">
        <g id="Group_2529" data-name="Group 2529" transform="translate(39.23 21.369)">
          <path id="Path_5504" data-name="Path 5504" d="M845.912,379.308l14.05,9.161-4.337,11.1c-.062.157-.143.3-.213.455-.309-.019-.617-.038-.929-.038-.051,0-.1.005-.152.006s-.1-.006-.146-.006a10.838,10.838,0,0,0-8.955,5.428A18.68,18.68,0,0,1,838.6,403.7a6.861,6.861,0,0,1-3.124-2.366C833.969,393.455,845.912,379.308,845.912,379.308Z" transform="translate(-835.342 -379.308)" fill="#f7a57a"/>
        </g>
        <path id="Path_5505" data-name="Path 5505" d="M806.882,382.18s-1.721,16.307,1.743,26.69c-1.608,1.4-7.512,7.725-9.369-.478s2.084-29.084,2.084-29.084Z" transform="translate(-774.953 -357.939)" fill="#f7a57a"/>
        <g id="Group_2531" data-name="Group 2531" transform="translate(0.462 0.214)">
          <g id="Group_2530" data-name="Group 2530" transform="translate(38.476 22.873)">
            <path id="Path_5506" data-name="Path 5506" d="M836.071,383.382l3.305,2.126-1.179,2.468-3.547-1.563Z" transform="translate(-834.65 -383.382)" fill="#0f787a"/>
            <path id="Path_5507" data-name="Path 5507" d="M842.275,388.846c-.331.755-.355,1.474-.053,1.606s.815-.372,1.146-1.127.355-1.474.053-1.606S842.606,388.091,842.275,388.846Z" transform="translate(-838.907 -385.879)" fill="#005558"/>
          </g>
          <path id="Path_5508" data-name="Path 5508" d="M743.4,339.977c0-.032-.01-.061-.013-.093a33.1,33.1,0,0,1,3.2-5.737,28.843,28.843,0,0,0,3.07-5.016l34.134,22.34-2.21,4.171L743.4,341.532A10.524,10.524,0,0,0,743.4,339.977Z" transform="translate(-743.39 -329.131)" fill="#002b49"/>
        </g>
        <path id="Path_5509" data-name="Path 5509" d="M853.477,438.879l1.228,7.666H843.843l-.781-9.394Z" transform="translate(-800.578 -391.395)" fill="#f18c72"/>
        <path id="Path_5510" data-name="Path 5510" d="M776.374,408.964s-12.829-4.086-16.85-9.579,2.783-35.559,2.783-35.559l-.879-5.411a5.037,5.037,0,0,1,4.927-5.844l3.427-.03a1.961,1.961,0,0,1,1.809,2.757l-4.508,10.143s-3.383,22.772,1.355,24.5a53.4,53.4,0,0,0,12.048,2.5Z" transform="translate(-751.525 -342.457)" fill="#f7a57a"/>
        <path id="Path_5511" data-name="Path 5511" d="M852.015,399.338l3.3-7.319-2.144-1.347a4.034,4.034,0,0,1-1.673-4.717l2.35-6.9s-6.685-.818-6.483-7.046c0-3.206,4.413-3.224,4.413-3.224a6.416,6.416,0,0,0,5.413,3.206c1.758-.221,6.583.427,9.838,6.109,2.19,3.821,1.23,9.807-.677,14.3-1.708,4.025-6.068,6.273-10.389,6.936Z" transform="translate(-803.063 -351.854)" fill="#122043"/>
        <path id="Path_5512" data-name="Path 5512" d="M848.565,610.2c1.964-12.882,2.412-23.123,2.412-23.123H829.648L823.011,604.6s.236,1.573,1.156,5.608Z" transform="translate(-788.98 -478.113)" fill="#f2f2f2"/>
        <path id="Path_5513" data-name="Path 5513" d="M863.476,414.226a3.108,3.108,0,0,1-1.776,3.409c-1.374.729-2.806.386-3.2-.767a3.108,3.108,0,0,1,1.776-3.409C861.65,412.729,863.083,413.073,863.476,414.226Z" transform="translate(-809.449 -377.47)" fill="#f7a57a"/>
        <path id="Path_5514" data-name="Path 5514" d="M794.143,505.5h31.151V465.531a16.957,16.957,0,0,0-15.38-16.883l-21.662-2.622s-2.547,3.9-9.645,12.959a73.139,73.139,0,0,0,18.4,7.7Z" transform="translate(-763.297 -396.528)" fill="#013f87"/>
        <path id="Path_5515" data-name="Path 5515" d="M822.656,610.2c9.275-13.075,12.058-23.123,12.058-23.123H803.564s-5.16,8.8-8.669,23.123Z" transform="translate(-772.718 -478.113)" fill="#fff"/>
        <path id="Path_5516" data-name="Path 5516" d="M748,335.979c-1.676,3.476-3.949,5.852-5.078,5.308s-.686-3.8.99-7.279,3.948-5.852,5.077-5.308S749.673,332.5,748,335.979Z" transform="translate(-742.295 -328.623)" fill="#53b6b9"/>
        <path id="Path_5517" data-name="Path 5517" d="M810.963,363.66l-.288.138a4.343,4.343,0,0,1-3.251.2l-.192-.064a5.8,5.8,0,0,1-3.694-3.745h0a1.076,1.076,0,0,1,1.246-1.379l2.158.453a3.252,3.252,0,0,1,2.049,1.4Z" transform="translate(-777.688 -346.071)" fill="#f7a57a"/>
      </g>
      <g id="Group_2538" data-name="Group 2538" transform="translate(96.565 292.403)">
        <path id="Path_5518" data-name="Path 5518" d="M154.916,400.271l19.145-8.048c4.09-1.719,8.859-4.677,10.653-8.734l9.608-21.738,3.324.582s-1.8,23.088-9.168,32.415-21.851,14.4-21.851,14.4Z" transform="translate(-130.315 -347.784)" fill="#f7a57a"/>
        <path id="Path_5519" data-name="Path 5519" d="M113.707,441.344s5.76-10.819,13.3-12.712c6.462,0,7.976.946,7.976.946s8.285,10.271,11.171,16.913a9.509,9.509,0,0,1-.042,7.78c-5.089,10.967-4.442,32.083-4.442,32.083H116.25s4.446-31.6,3.6-37.85A8.024,8.024,0,0,0,113.707,441.344Z" transform="translate(-106.48 -386.467)" fill="#d7e1fc"/>
        <path id="Path_5520" data-name="Path 5520" d="M161.95,597.745l-5.532-32.206h-7.988L139.8,577.02a80.317,80.317,0,0,0,.131,20.725Z" transform="translate(-121.225 -465.653)" fill="#40274b"/>
        <g id="Group_2534" data-name="Group 2534" transform="translate(14.029 14.208)">
          <path id="Path_5521" data-name="Path 5521" d="M156.266,408.175l.017,12.383-7.433-8.1.8-11.526Z" transform="translate(-140.836 -384.652)" fill="#f18c72"/>
          <path id="Path_5522" data-name="Path 5522" d="M146.509,367.752c-5.149.7-7.71,7.3-7.71,7.3l.058,19.533-8.927-7.719a69.577,69.577,0,0,1,1.554-18.414c1.91-6.046,9.615-7.639,15.025-4.689,2.631,1.435,4.194,4.25,5.123,7.046a22.268,22.268,0,0,1,.53,11.661L149.1,396.8l-3.811-3.779a15.577,15.577,0,0,1-.017-7.179C147.232,378.651,149.966,367.282,146.509,367.752Z" transform="translate(-129.841 -362.323)" fill="#122043"/>
          <path id="Path_5523" data-name="Path 5523" d="M147.008,392.672a1.819,1.819,0,0,1,2.413.237,1.568,1.568,0,0,1,.323,2.259,1.82,1.82,0,0,1-2.413-.236A1.568,1.568,0,0,1,147.008,392.672Z" transform="translate(-139.565 -379.669)" fill="#f7a57a"/>
          <g id="Group_2533" data-name="Group 2533" transform="translate(8.81 4.009)">
            <path id="Path_5524" data-name="Path 5524" d="M159.5,391.51a4.012,4.012,0,0,0,2.4-.625c2.875-4.582-.4-16.934-.4-16.934l-4.6-2.12-5.839,3.991-.333,8.277a6.95,6.95,0,0,0,2.607,5.709h0A11.146,11.146,0,0,0,159.5,391.51Z" transform="translate(-150.737 -371.831)" fill="#f7a57a"/>
          </g>
          <path id="Path_5525" data-name="Path 5525" d="M156.4,370.665c1.1,3.692-8.682,7.976-8.682,7.976l-2.458-4.608,4.491-5.5,5.677.907A3.269,3.269,0,0,1,156.4,370.665Z" transform="translate(-138.759 -365.912)" fill="#122043"/>
          <path id="Path_5526" data-name="Path 5526" d="M171.8,374.389c.2,1.457,2.476,3.223,2.476,3.223l.214-1.741-.518-1.223L172.8,374S171.591,372.933,171.8,374.389Z" transform="translate(-154.094 -368.859)" fill="#122043"/>
        </g>
        <path id="Path_5527" data-name="Path 5527" d="M120.474,597.745c2.538-13.371,4.436-25.183,4.811-32.206H107.849s-11.622,5.006-11.277,32.206Z" transform="translate(-96.565 -465.653)" fill="#452a51"/>
        <g id="Group_2535" data-name="Group 2535" transform="translate(61.486 0)">
          <path id="Path_5528" data-name="Path 5528" d="M248.378,339.467c.2-.332.77-1.531.569-4.173-.181-2.371-2.1-7.167.529-6.629,1.664,2.022,3.881,4.205,3.881,4.205.877,1.32.634,3.957.151,5.579l-2.12,4.833s-2.558.81-2.672.869l-.6-.927A11.519,11.519,0,0,0,248.378,339.467Z" transform="translate(-245.699 -328.624)" fill="#f7a57a"/>
          <path id="Path_5529" data-name="Path 5529" d="M246.047,347.14a2.01,2.01,0,0,0,.256-.309c.185.288.385.562.593.828.239,1.218.518,2.428.771,3.643-.767.05-1.844.122-1.92.14l-3.347-7.613s.788-.793,1.993.5A7.88,7.88,0,0,1,246.047,347.14Z" transform="translate(-242.401 -337.279)" fill="#f7a57a"/>
        </g>
        <g id="Group_2536" data-name="Group 2536" transform="translate(8.073 43.202)">
          <path id="Path_5530" data-name="Path 5530" d="M125.184,431.092l-.417.631c.1.067,10.189,6.846,10.189,17.914v45.109H116.482l.588-34.735c-.25.2-.506.392-.767.577l-.591,34.915h20V449.637C135.712,438.167,125.289,431.16,125.184,431.092Z" transform="translate(-115.712 -431.092)" fill="#53b6b9"/>
        </g>
        <path id="Path_5531" data-name="Path 5531" d="M104.075,458.782s-12.649,32.727-3.991,35.708,24.459-20.555,24.459-20.555l-3.045-2.375-14.424,12.309s3.249-4.586,4.856-14.759S104.075,458.782,104.075,458.782Z" transform="translate(-96.848 -403.906)" fill="#f7a57a"/>
        <path id="Path_5532" data-name="Path 5532" d="M154.1,476.79l.935-6.814s2.355-2.583,4.136-3.046a1.343,1.343,0,0,1,1.422.542c.741,1.048,2.423,3.512,2.459,4.3a1.286,1.286,0,0,1-.477,1.018l-2.174,1.889-2.864,3.942Z" transform="translate(-129.844 -408.595)" fill="#f7a57a"/>
        <g id="Group_2537" data-name="Group 2537" transform="translate(6.131 98.611)">
          <rect id="Rectangle_13504" data-name="Rectangle 13504" width="24.132" height="18.006" rx="7.452" transform="translate(0 0)" fill="#e9a03c"/>
          <path id="Path_5533" data-name="Path 5533" d="M135.24,571.142v-5.486a3.151,3.151,0,0,0-3.142-3.142H114.25a3.151,3.151,0,0,0-3.142,3.142v5.486Z" transform="translate(-111.108 -562.514)" fill="#faab3e"/>
          <path id="Path_5534" data-name="Path 5534" d="M158.371,580.52h0c-1.505,0-2.737-.645-2.737-2.151v-13.7c0-1.505,1.232-2.151,2.737-2.151h0a2.72,2.72,0,0,1,2.737,2.151v13.119A2.432,2.432,0,0,1,158.371,580.52Z" transform="translate(-136.861 -562.514)" fill="#d18f34"/>
          <path id="Path_5535" data-name="Path 5535" d="M131.864,581.981h0a.833.833,0,0,1-.83-.83v-4.185a.833.833,0,0,1,.83-.83h0a.833.833,0,0,1,.831.83v4.185A.833.833,0,0,1,131.864,581.981Z" transform="translate(-122.633 -570.392)" fill="#cfdef0"/>
        </g>
      </g>
    </g>
  </g>
</svg>
