<svg xmlns="http://www.w3.org/2000/svg" xmlns:xlink="http://www.w3.org/1999/xlink" width="1300.564" height="180" viewBox="0 0 1300.564 180">
  <defs>
    <style>
      .cls-1 {
        fill: #013f87;
      }

      .cls-2 {
        opacity: 0.8;
        clip-path: url(#clip-path);
      }

      .cls-3 {
        fill: #2b65ee;
        opacity: 0.496;
      }

      .cls-4 {
        fill: #2095d3;
        opacity: 0.3;
      }

      .cls-5 {
        fill: #ff907b;
      }

      .cls-6 {
        fill: #000543;
      }

      .cls-7 {
        fill: #ff9985;
      }

      .cls-8 {
        fill: #fff;
      }

      .cls-9 {
        fill: #ffeb9a;
      }

      .cls-10 {
        fill: #d7e1fc;
      }

      .cls-11 {
        fill: #39c1fa;
      }

      .cls-12 {
        fill: #ffa27f;
      }

      .cls-13 {
        fill: #fa694f;
      }

      .cls-14 {
        fill: #fcb16d;
      }

      .cls-15 {
        fill: #6d72a0;
      }

      .cls-16 {
        fill: #fbe9dc;
      }

      .cls-17 {
        fill: #452a51;
      }

      .cls-18 {
        fill: #267067;
      }

      .cls-19 {
        fill: #7196bc;
      }

      .cls-20 {
        fill: #ffb288;
      }

      .cls-21 {
        fill: #faab3e;
      }

      .cls-22 {
        fill: #f95e44;
      }

      .cls-23 {
        fill: #ffaa7e;
      }

      .cls-24 {
        fill: #b2c3eb;
      }
    </style>
    <clipPath id="clip-path">
      <path id="Path_17244" data-name="Path 17244" class="cls-1" d="M-1000.564,0H226a73.865,73.865,0,0,1,74,73.728V180H-1000.564Z" transform="translate(1000.564 145)"/>
    </clipPath>
  </defs>
  <g id="Group_2" data-name="Group 2" transform="translate(650 90)">
    <g id="Group_25218" data-name="Group 25218" transform="translate(-650 -235)">
      <path id="Path_17229" data-name="Path 17229" class="cls-1" d="M-1000.564,0H226a73.865,73.865,0,0,1,74,73.728V180H-1000.564Z" transform="translate(1000.564 145)"/>
      <g id="Group_25217" data-name="Group 25217">
        <g id="Group_25216" data-name="Group 25216">
          <g id="Mask_Group_54" data-name="Mask Group 54" class="cls-2">
            <path id="Path_16995" data-name="Path 16995" class="cls-3" d="M720.445,0C686.77,14.564,701.31,44.367,664.888,54.322c-34.8,9.511-73.58-1.18-108.342,8.433-13.855,3.831-26.2,14.364-37.871,24.621q-.789.693-1.57,1.392a181.448,181.448,0,0,0-42.144,55.972l-35.867,73.8H923.745s43.361-167.953-71.17-178.793-89.4,0-89.4,0V0Z" transform="translate(376.824 106.21)"/>
            <circle id="Ellipse_576" data-name="Ellipse 576" class="cls-4" cx="250.5" cy="250.5" r="250.5" transform="translate(953 -148)"/>
          </g>
        </g>
      </g>
    </g>
    <g id="Group_1" data-name="Group 1" transform="translate(-650 -235)">
      <g id="Mask_Group_55" data-name="Mask Group 55" class="cls-2">
        <g id="Group_25219" data-name="Group 25219">
          <g id="Group_22437" data-name="Group 22437" transform="translate(805.182 172.175)">
            <g id="Group_22432" data-name="Group 22432" transform="translate(9.929 8.398)">
              <path id="Path_16989" data-name="Path 16989" class="cls-5" d="M437.753,638.634a1.239,1.239,0,0,0-1.715.345l-3.631,5.167a1.207,1.207,0,1,0,1.968,1.391l3.631-5.167A1.248,1.248,0,0,0,437.753,638.634Z" transform="translate(-432.166 -638.424)"/>
            </g>
            <path id="Path_16990" data-name="Path 16990" class="cls-5" d="M355.548,633.4a5.384,5.384,0,0,1,1.15-2.62,3.113,3.113,0,0,1,1.626-.755,14.429,14.429,0,0,1,4.538-.247,4.234,4.234,0,0,1,3.78,2.5,7.228,7.228,0,0,1-.1,5.347c-1.217,3.054-1.679,4.133-3.894,5.673-2.773,1.928-5.376,1.477-6.3-3.1C355.868,637.851,355.063,635.613,355.548,633.4Z" transform="translate(-354.411 -622.322)"/>
            <g id="Group_22433" data-name="Group 22433" transform="translate(8.23 0.237)">
              <path id="Path_16991" data-name="Path 16991" class="cls-5" d="M419.549,578.614l-1.938-8.892a1.118,1.118,0,0,1,2.185-.479l1.938,8.892a1.118,1.118,0,0,1-2.185.479Z" transform="translate(-417.585 -568.361)"/>
            </g>
            <g id="Group_22434" data-name="Group 22434" transform="translate(5.079)">
              <path id="Path_16992" data-name="Path 16992" class="cls-5" d="M392.5,576.576l-1.938-8.892a1.118,1.118,0,1,1,2.185-.479l1.938,8.892a1.118,1.118,0,1,1-2.185.479Z" transform="translate(-390.533 -566.323)"/>
            </g>
            <g id="Group_22435" data-name="Group 22435" transform="translate(2.062 1.957)">
              <path id="Path_16993" data-name="Path 16993" class="cls-5" d="M366.6,593.373l-1.938-8.892a1.118,1.118,0,1,1,2.184-.479l1.938,8.892a1.118,1.118,0,1,1-2.184.479Z" transform="translate(-364.631 -583.12)"/>
            </g>
            <g id="Group_22436" data-name="Group 22436" transform="translate(0 4.74)">
              <path id="Path_16994" data-name="Path 16994" class="cls-5" d="M348.89,617.268l-1.938-8.893a1.118,1.118,0,0,1,2.185-.479l1.938,8.892a1.118,1.118,0,0,1-2.185.479Z" transform="translate(-346.926 -607.015)"/>
            </g>
          </g>
          <g id="Group_22449" data-name="Group 22449" transform="translate(954.2 159.825)">
            <g id="Group_22438" data-name="Group 22438" transform="translate(8.647 45.251)">
              <path id="Path_16996" data-name="Path 16996" class="cls-6" d="M1731.608,854.055c-.517-.813-1.827-.693-2.831-.854a7.458,7.458,0,0,1-1.007-.2c-.175-.078-.6-.282-.688-.332a2.311,2.311,0,0,0-1.963-.377c-.228.024-.375-.114-.649-.065h-.018c-2.714.489-7.21,2.423-4.512,10.03-.064.246-.1.778-.284.926a6.615,6.615,0,0,1-1.061-.254,8.32,8.32,0,0,0-4.031-.107,5.092,5.092,0,0,0-3.206,2.308,9.692,9.692,0,0,1-1.392,2.512c-.986.918-2.513.766-3.845.973a6.575,6.575,0,0,0-4.05,2.32,8.308,8.308,0,0,0-.831,8.338,14.075,14.075,0,0,0,5.955,6.339,8.34,8.34,0,0,0,4.176.847,7.551,7.551,0,0,0,4.58-1.655,11.94,11.94,0,0,0,4.092-4.051c1.084-2.142.845-4.726.375-7.107a12.175,12.175,0,0,1-.368-2.909,3.357,3.357,0,0,1,1.181-2.56,8.068,8.068,0,0,1,2.726-.956,1.191,1.191,0,0,0,.39-.008,6.124,6.124,0,0,0,4.381-3.37,9.844,9.844,0,0,1,.938-1.532,6.547,6.547,0,0,0,1.294-2.761,18.583,18.583,0,0,1,1.011-2.392,4.292,4.292,0,0,0-.363-3.1Z" transform="translate(-1700.505 -851.815)"/>
              <path id="Path_16997" data-name="Path 16997" class="cls-6" d="M1856.171,848.793a7.591,7.591,0,0,1,7.128,6.679,5.576,5.576,0,0,1-5.993,6.161,7.591,7.591,0,0,1-7.128-6.679,5.576,5.576,0,0,1,5.993-6.161Z" transform="translate(-1832.721 -848.788)"/>
            </g>
            <path id="Path_16998" data-name="Path 16998" class="cls-7" d="M1747.995,1821.908c-.517,2.739.766,4.7,2.26,2.475a22.417,22.417,0,0,0,1.584-3.972c.057-.17.114-.329.171-.5l-3.481-.576C1748.335,1820.212,1748.152,1821.074,1747.995,1821.908Z" transform="translate(-1733.713 -1661.039)"/>
            <path id="Path_16999" data-name="Path 16999" class="cls-7" d="M1929.9,759.848a10.178,10.178,0,0,1,1.494-3.361c.452-.566.8-1.028,1.514-.652a1.856,1.856,0,0,1,.609,2.217c-3.32,10.293-6.917,19.635-9.349,25.66-3.122,7.731-5.534,13.026-6.65,15.211l-.249.488-6.435-3.45.35-.5C1919.861,783.12,1926.849,769.448,1929.9,759.848Z" transform="translate(-1877.689 -721.29)"/>
            <path id="Path_17000" data-name="Path 17000" class="cls-7" d="M1709.4,731.393a.4.4,0,0,0-.029-.319c-.116-.157-.405-.1-.545.041a1.7,1.7,0,0,0-.265.524.561.561,0,0,1-.445.37,3.076,3.076,0,0,1-.155-1.847,2.371,2.371,0,0,0,.106-.637,1.741,1.741,0,0,0-.446-.907,1.181,1.181,0,0,0-.678-.527,1.245,1.245,0,0,0-.57.072,2.727,2.727,0,0,0-1.69,1.147,2.4,2.4,0,0,0-.174,1.337,9.518,9.518,0,0,0,.767,3,1.607,1.607,0,0,0,.913,1,2.15,2.15,0,0,0,2.208-.773,8.485,8.485,0,0,0,1-2.481Z" transform="translate(-1695.381 -696.889)"/>
            <path id="Path_17001" data-name="Path 17001" class="cls-7" d="M2074.523,726.292a.4.4,0,0,1,.068-.313c.135-.142.415-.053.536.109a1.7,1.7,0,0,1,.2.552.562.562,0,0,0,.4.422,3.079,3.079,0,0,0,.383-1.813,2.361,2.361,0,0,1-.027-.645,1.742,1.742,0,0,1,.555-.844,1.179,1.179,0,0,1,.738-.438,1.246,1.246,0,0,1,.556.142,2.73,2.73,0,0,1,1.535,1.349,2.4,2.4,0,0,1,.007,1.348,9.5,9.5,0,0,1-1.132,2.878,1.6,1.6,0,0,1-1.03.88,2.152,2.152,0,0,1-2.1-1.042A8.469,8.469,0,0,1,2074.523,726.292Z" transform="translate(-2022.307 -692.684)"/>
            <path id="Path_17002" data-name="Path 17002" class="cls-7" d="M1923.243,1822.184c.411,2.72,2.245,4.124,2.911,1.564a22.194,22.194,0,0,0,.18-4.218c0-.177,0-.344,0-.517l-3.429.6C1923.007,1820.494,1923.118,1821.357,1923.243,1822.184Z" transform="translate(-1888.351 -1660.75)"/>
            <path id="Path_17003" data-name="Path 17003" class="cls-8" d="M1871.768,1328.857l-.09-.994-14.149.28.215,1.243c.1.6.234,1.3.382,2.089a187.789,187.789,0,0,1,2.84,21.271,170.543,170.543,0,0,1,.035,31.144,1.594,1.594,0,0,0,1.4,1.768l7.3.649a1.571,1.571,0,0,0,1.668-1.466c.912-10.366,1.484-19.313,1.725-31.146a246.226,246.226,0,0,0-1.326-24.838Z" transform="translate(-1830.593 -1226.809)"/>
            <path id="Path_17004" data-name="Path 17004" class="cls-8" d="M1731.879,1508.875c-.037,1.555-.087,3.126-.158,4.726-.139,3.119-.333,6.148-.594,9.263-.148,1.766-.326,3.593-.548,5.581-.156,1.4-.318,2.8-.5,4.165-.66,4.911-1.212,7.646-1.792,10.327a1.861,1.861,0,0,0,1.363,2.238l6.6,1.413a1.753,1.753,0,0,0,2.058-1.409c.622-2.939,1.386-6.606,2.269-11.375,1.058-5.718,2.033-11.642,2.9-17.609q.564-3.9,1-7.321Z" transform="translate(-1716.364 -1386.737)"/>
            <path id="Path_17005" data-name="Path 17005" class="cls-9" d="M1806.661,1039.126c-1.407-16.8,2.087-23.64.312-29.556a.666.666,0,0,1-.049-.115,8.873,8.873,0,0,0-3.221-4.641c-4.323-2.991-8.029-1.238-11.056.576-7.137,4.71-1.1,17.8-3.212,24.714-1.6,5.26-8.074,10.973-5.308,17.98,2.543,2.583,13.041,2.515,16,2.194C1810.061,1049.2,1806.916,1042.168,1806.661,1039.126Z" transform="translate(-1765.138 -939.965)"/>
            <path id="Path_17006" data-name="Path 17006" class="cls-10" d="M1930.826,1857.2c0-.35-.268-.7-.877-.878a44.005,44.005,0,0,0-6.556-1.627c-.063.067-.433,1.523-.677,2.5Z" transform="translate(-1888.186 -1692.279)"/>
            <path id="Path_17007" data-name="Path 17007" class="cls-10" d="M1749.69,1855.046c.069-.4-.2-.831-.909-1.052a56.744,56.744,0,0,0-6.129-1.721.933.933,0,0,0-1.063.669c-.18.63-.414,1.5-.574,2.1Z" transform="translate(-1727.649 -1690.122)"/>
            <path id="Path_17008" data-name="Path 17008" class="cls-9" d="M1754.273,1334.477s-3.79,13.99-4.452,24.044a2.085,2.085,0,0,0,1.66,2.179c6.087,1.262,26.049,4.921,26.731-1.246,0,0-.3-18.769-.7-24.148Z" transform="translate(-1735.426 -1232.653)"/>
            <ellipse id="Ellipse_609" data-name="Ellipse 609" class="cls-7" cx="3.373" cy="4.274" rx="3.373" ry="4.274" transform="translate(27.757 66.339) rotate(-43.581)"/>
            <path id="Path_17009" data-name="Path 17009" class="cls-7" d="M1712.443,762.6c.568-.325.791-.075,1.495.787a9.353,9.353,0,0,1,1.494,3.22c.56,1.683,1.7,4.647,3.711,9.131,1.994,4.448,4.38,8.4,6.813,12.678,1.5,2.633,3.067,5.213,4.666,7.669a3.062,3.062,0,0,1-2.949,4.707,3.16,3.16,0,0,1-.5-.107,3.05,3.05,0,0,1-1.893-1.666c-1.2-2.671-2.466-5.581-3.75-8.653-2.507-6-6.217-15.294-9.661-25.544A1.854,1.854,0,0,1,1712.443,762.6Z" transform="translate(-1701.779 -727.269)"/>
            <rect id="Rectangle_13428" data-name="Rectangle 13428" class="cls-11" width="65.327" height="34.505" rx="5.31"/>
            <g id="Group_22448" data-name="Group 22448" transform="translate(27.424 46.766)">
              <g id="Group_22447" data-name="Group 22447">
                <g id="Group_22445" data-name="Group 22445">
                  <g id="Group_22444" data-name="Group 22444">
                    <path id="Path_17010" data-name="Path 17010" class="cls-12" d="M1898.2,876.835l-5.014-.079a.411.411,0,0,1-.4-.416l.042-2.679a.811.811,0,0,1,.82-.8l4.616.072a1.95,1.95,0,0,1-.061,3.9Z" transform="translate(-1889.169 -871.573)"/>
                    <path id="Path_17011" data-name="Path 17011" class="cls-6" d="M1869,901.544a5.268,5.268,0,0,0,.979,1.817s0,.022.007.018a3.7,3.7,0,0,0,1.08-2.551,1.8,1.8,0,0,1-.515-1.434c.016-.852.424-1.533.91-1.522a.379.379,0,0,1,.1.039l-3.229-3C1867.923,896.407,1868,898.528,1869,901.544Z" transform="translate(-1867.354 -891.052)"/>
                    <g id="Group_22439" data-name="Group 22439" transform="translate(2.702 1.705)">
                      <path id="Path_17012" data-name="Path 17012" class="cls-7" d="M1892.443,876.429a4.549,4.549,0,0,1,1.685,3.6l-.075,3.678a4.572,4.572,0,1,1-9.143-.188l.073-3.557Z" transform="translate(-1884.909 -876.429)"/>
                    </g>
                    <g id="Group_22440" data-name="Group 22440" transform="translate(2.504 9.087)">
                      <path id="Path_17013" data-name="Path 17013" class="cls-7" d="M1883.859,950.4l2.172.729c.365.008,1.152-1.048,1.162-1.521l.181-8.874a.784.784,0,0,0-.646-.874l-2.652-.055a.784.784,0,0,0-.681.846l-.181,8.873a.784.784,0,0,0,.645.876Z" transform="translate(-1883.213 -939.802)"/>
                    </g>
                    <path id="Path_17014" data-name="Path 17014" class="cls-6" d="M1916.394,903.172l-1.112-.017a.3.3,0,0,0-.009.592l1.112.018a.3.3,0,0,0,.009-.592Z" transform="translate(-1908.777 -898.337)"/>
                    <path id="Path_17015" data-name="Path 17015" class="cls-6" d="M1953.693,903.749l-.863-.013a.306.306,0,0,0-.009.592l.863.013a.306.306,0,0,0,.009-.592Z" transform="translate(-1942.01 -898.85)"/>
                    <path id="Path_17016" data-name="Path 17016" class="cls-13" d="M1938.379,933.406l-.035-.1a.571.571,0,0,1-.367.488l-.5.154a.359.359,0,0,1-.415-.19l-.011.056c-.067.338.2.637.484.549l.5-.154a.622.622,0,0,0,.344-.8Z" transform="translate(-1928.267 -924.976)"/>
                    <g id="Group_22441" data-name="Group 22441" transform="translate(6.754 6.21)">
                      <path id="Path_17017" data-name="Path 17017" class="cls-6" d="M1920.363,915.625c0,.283-.157.51-.34.507s-.329-.235-.324-.518.157-.51.34-.507S1920.367,915.342,1920.363,915.625Z" transform="translate(-1919.698 -915.108)"/>
                      <path id="Path_17018" data-name="Path 17018" class="cls-6" d="M1922.619,915.107l.565.009-.354.344Z" transform="translate(-1922.279 -915.107)"/>
                    </g>
                    <g id="Group_22442" data-name="Group 22442" transform="translate(10.747 6.273)">
                      <path id="Path_17019" data-name="Path 17019" class="cls-6" d="M1954.64,916.162c0,.283-.157.51-.34.507s-.329-.235-.324-.518.157-.51.34-.507S1954.644,915.879,1954.64,916.162Z" transform="translate(-1953.975 -915.645)"/>
                      <path id="Path_17020" data-name="Path 17020" class="cls-6" d="M1956.9,915.645l.565.009-.354.344Z" transform="translate(-1956.555 -915.645)"/>
                    </g>
                    <g id="Group_22443" data-name="Group 22443" transform="translate(1.501 6.883)">
                      <path id="Path_17021" data-name="Path 17021" class="cls-7" d="M1875.921,920.879a1.59,1.59,0,1,0,1.261,1.589,1.447,1.447,0,0,0-1.261-1.589Z" transform="translate(-1874.596 -920.879)"/>
                    </g>
                    <path id="Path_17022" data-name="Path 17022" class="cls-6" d="M1863.494,865.31c.533-1.057.7-2.4,1.665-3.077a3.2,3.2,0,0,1,2.088-.427,16.694,16.694,0,0,1,2.573.456l1.854.429a.459.459,0,0,1,.2.082.471.471,0,0,1,.119.211c.1.3.521,1.029.435,1.338-.1.347-.536.352-.827.366a6.984,6.984,0,0,0-5.442,2.852c-.555.817-.861,1.789-1.435,2.592a4.582,4.582,0,0,1-1.4,1.283c-.023.013-.048.024-.072.037l-1.537-3.8a13.077,13.077,0,0,0,1.779-2.342Z" transform="translate(-1861.712 -861.79)"/>
                  </g>
                </g>
                <g id="Group_22446" data-name="Group 22446" transform="translate(8.083 10.123)">
                  <path id="Path_17023" data-name="Path 17023" class="cls-8" d="M1931.108,948.7c.035.313.065.626.743.729,0,0,.827.12,1.037-.56Z" transform="translate(-1931.108 -948.696)"/>
                </g>
              </g>
            </g>
          </g>
          <g id="Group_22473" data-name="Group 22473" transform="translate(888.47 146.061)">
            <g id="Group_22455" data-name="Group 22455" transform="translate(67.442 82.559)">
              <g id="Group_22450" data-name="Group 22450" transform="translate(0 2.187)">
                <path id="Path_17024" data-name="Path 17024" class="cls-7" d="M1641.4,1069.7a.545.545,0,0,1,.614.461l.466,2.731a.529.529,0,1,1-1.041.179l-.466-2.731a.546.546,0,0,1,.427-.64Z" transform="translate(-1640.967 -1069.691)"/>
              </g>
              <path id="Path_17025" data-name="Path 17025" class="cls-7" d="M1650.151,1078.924a2.362,2.362,0,0,0,.037-1.254,1.368,1.368,0,0,0-.5-.606,6.341,6.341,0,0,0-1.75-.955,1.852,1.852,0,0,0-1.967.277,3.164,3.164,0,0,0-.966,2.135,4.246,4.246,0,0,0,.475,2.981c.735,1.287,1.85,1.6,3.078-.035a7.346,7.346,0,0,0,1.593-2.543Z" transform="translate(-1644.49 -1073.032)"/>
              <g id="Group_22451" data-name="Group 22451" transform="translate(1.31)">
                <path id="Path_17026" data-name="Path 17026" class="cls-7" d="M1653.092,1054.858l2.438-3.153a.491.491,0,1,0-.775-.6l-2.438,3.153a.491.491,0,1,0,.774.6Z" transform="translate(-1652.215 -1050.913)"/>
              </g>
              <g id="Group_22452" data-name="Group 22452" transform="translate(2.602 0.502)">
                <path id="Path_17027" data-name="Path 17027" class="cls-7" d="M1664.182,1059.165l2.438-3.153a.491.491,0,1,0-.774-.6l-2.438,3.153a.491.491,0,1,0,.775.6Z" transform="translate(-1663.305 -1055.219)"/>
              </g>
              <g id="Group_22453" data-name="Group 22453" transform="translate(3.428 1.846)">
                <path id="Path_17028" data-name="Path 17028" class="cls-7" d="M1671.277,1070.709l2.438-3.153a.491.491,0,1,0-.775-.6l-2.438,3.153a.491.491,0,1,0,.775.6Z" transform="translate(-1670.4 -1066.764)"/>
              </g>
              <g id="Group_22454" data-name="Group 22454" transform="translate(3.721 3.338)">
                <path id="Path_17029" data-name="Path 17029" class="cls-7" d="M1673.793,1083.513l2.438-3.153a.491.491,0,1,0-.775-.6l-2.438,3.153a.491.491,0,1,0,.775.6Z" transform="translate(-1672.916 -1079.568)"/>
              </g>
            </g>
            <path id="Path_17030" data-name="Path 17030" class="cls-7" d="M1682.49,1231.03l-12.792-1.621,1.832-7.763,8.964,3.288Z" transform="translate(-1598.909 -1119.2)"/>
            <path id="Path_17031" data-name="Path 17031" class="cls-6" d="M1535.634,1644.283c.878,1.429,2.222,3.076,2.972,4.582a21.665,21.665,0,0,1,2.081,7.5h1.2a21.64,21.64,0,0,0-1.4-8.168c-2.263-5.71-7.372-10.025-8.776-16.024-.129-.549-.907-5.191-1.92-4.762-.664.281-.291,3.3-.134,3.758a62.761,62.761,0,0,0,5.977,13.114Z" transform="translate(-1474.962 -1477.678)"/>
            <path id="Path_17032" data-name="Path 17032" class="cls-6" d="M1635.884,1604.445a110.153,110.153,0,0,1,6.735,19.616,64.834,64.834,0,0,1,1.232,7.5h3.647c.012-.2.023-.4.026-.6a26.5,26.5,0,0,0-.366-4.078l-.6-4.223a18.474,18.474,0,0,0-.75-3.572c-.314-.89-.763-1.724-1.078-2.613-.75-2.116-.716-4.46-1.45-6.582a29.936,29.936,0,0,0-2.55-4.78,12.579,12.579,0,0,1-1.145-2.565,20.629,20.629,0,0,0-.394-2.318c-.515-1.137-2.411-1.159-3.285-.427a2.633,2.633,0,0,0-.773,2.268A7.986,7.986,0,0,0,1635.884,1604.445Z" transform="translate(-1568.359 -1452.872)"/>
            <path id="Path_17033" data-name="Path 17033" class="cls-6" d="M1551.541,1633.745c.411-5.095-.6-10.616-4.09-18.75-2.579-6.022-4.019-10.576-5.567-13.215-2.936,2.6-15.058,4.365-15.058,4.365,5.093,10.084,10.984,19.639,12.158,27.6Z" transform="translate(-1472.679 -1455.057)"/>
            <path id="Path_17034" data-name="Path 17034" class="cls-6" d="M1490.334,1628.762a21.343,21.343,0,0,1,2.1,10.311c-.054,3.552-.639,7.07-1.046,10.6-.027.231-.049.462-.073.694h2.732a59.657,59.657,0,0,1-.024-7.212c.255-2.622,1.03-5.176,1.174-7.807.125-2.283-.459-4.521-.306-6.79.175-2.59.688-5.391.1-7.057-.428-1.217-2.626-1.036-3.773-.455-1.234.625-2.3,3.185-2.2,4.519a8.509,8.509,0,0,0,1.316,3.2Z" transform="translate(-1439.276 -1471.677)"/>
            <path id="Path_17035" data-name="Path 17035" class="cls-6" d="M1388.147,1633.979a60.148,60.148,0,0,0,.2,7.995h13.429c.586-10.933.964-23.779.642-30.876-16.45,0-14.772-.031-17.061.094C1385.687,1615.11,1388.909,1621.969,1388.147,1633.979Z" transform="translate(-1347.69 -1463.286)"/>
            <path id="Path_17036" data-name="Path 17036" class="cls-8" d="M1553.631,1180.169c-4.864,4.482,3.659,12.847,12.266,14.4a1.4,1.4,0,0,0,1.627-1.142l1.286-7.359a2.277,2.277,0,0,0-1.626-2.782C1558.865,1181.3,1553.631,1180.169,1553.631,1180.169Z" transform="translate(-1495.109 -1082.554)"/>
            <g id="Group_22456" data-name="Group 22456" transform="translate(27.58 102.446)">
              <path id="Path_17037" data-name="Path 17037" class="cls-10" d="M1301.936,1235.486a22.514,22.514,0,0,0-2.919,6.538c-.923,4.315.661,8.818,3.021,12.543,2.868,4.524,7.285,8.461,12.6,9.07a6.605,6.605,0,0,0,3.769-.5c1.862-.957,2.8-3.067,3.435-5.066a39.427,39.427,0,0,0-2.035-28.508c-1.537-3.235-4.323-9.677-8.769-7.454C1307.145,1224.048,1304.064,1231.863,1301.936,1235.486Z" transform="translate(-1298.75 -1221.646)"/>
            </g>
            <g id="Group_22459" data-name="Group 22459" transform="translate(36.371 97.083)">
              <g id="Group_22458" data-name="Group 22458">
                <g id="Group_22457" data-name="Group 22457">
                  <path id="Path_17038" data-name="Path 17038" class="cls-8" d="M1375.869,1178.323c2.4-1.644,16.332-3.1,19.211-2.62,6.357,1.061,10.1,3.65,11.128,9.091,3.438,18.291-1.729,24.306,2.337,38.373a7.461,7.461,0,0,1,.015,4.218,4.247,4.247,0,0,1-.8,1.686,3.866,3.866,0,0,1-2.614.71c-8,.189-16.825.378-25.039.567a4.919,4.919,0,0,1-4.854-3.677c-2.653-9.959,5.294-5.394.242-31.943C1375.5,1188.68,1372.382,1183.288,1375.869,1178.323Z" transform="translate(-1374.216 -1175.61)"/>
                </g>
              </g>
            </g>
            <path id="Path_17039" data-name="Path 17039" class="cls-10" d="M1389,1180.671a.68.68,0,0,0-.891-.46.79.79,0,0,0-.481.952c.049.17,4.031,14.707-6.219,33.571v2.869a59.11,59.11,0,0,0,8.194-23.459C1390.509,1185.984,1389.06,1180.884,1389,1180.671Z" transform="translate(-1344.2 -1082.555)"/>
            <path id="Path_17040" data-name="Path 17040" class="cls-7" d="M1648.391,1110.743c4.266,6.349,2.767,4.842,5.107,8.578,6.389,12.993,19.13,12.5-.728-10.11C1647.241,1102.914,1643.666,1103.709,1648.391,1110.743Z" transform="translate(-1578.146 -1016.088)"/>
            <ellipse id="Ellipse_610" data-name="Ellipse 610" class="cls-7" cx="4.836" cy="2.868" rx="4.836" ry="2.868" transform="translate(49.513 97.098)"/>
            <g id="Group_22463" data-name="Group 22463" transform="translate(22.939 50.65)">
              <g id="Group_22462" data-name="Group 22462">
                <g id="Group_22460" data-name="Group 22460" transform="translate(0.429 4.162)">
                  <path id="Path_17041" data-name="Path 17041" class="cls-7" d="M1263.34,812.913a1.046,1.046,0,0,1,1.429.186c.83,1.016,1.323,3.331,1.893,5.317.588,2.047,1.262,4.8,1.976,7.718.822,3.357,1.665,6.8,2.5,9.715.469,1.633,2.276,6.116,1.541,7.647-.407.847-2.375-.613-3.249-.146-.939.5-1.833.935-2.325-.012-3.058-5.9-4.338-21.879-4.507-26.5C1262.493,813.9,1263.114,813,1263.34,812.913Z" transform="translate(-1262.588 -812.705)"/>
                </g>
                <g id="Group_22461" data-name="Group 22461">
                  <path id="Path_17042" data-name="Path 17042" class="cls-7" d="M1262.8,783.018a4.393,4.393,0,0,0,.711-1.85,20.282,20.282,0,0,0,.318-2.452.219.219,0,0,1-.027-.039,2.55,2.55,0,0,0-1.916-1.616,1.974,1.974,0,0,0-2.008.58,3.693,3.693,0,0,0-.842,1.874,3.969,3.969,0,0,0,.926,3.923,1.936,1.936,0,0,0,1,.459A2.123,2.123,0,0,0,1262.8,783.018Z" transform="translate(-1258.906 -776.97)"/>
                </g>
              </g>
            </g>
            <g id="Group_22468" data-name="Group 22468" transform="translate(48.476 73.508)">
              <g id="Group_22467" data-name="Group 22467">
                <path id="Path_17043" data-name="Path 17043" class="cls-6" d="M1480.813,1005.326c-.632.613-1.8,1.656-2.16,2.126a1.66,1.66,0,0,0-.43,1.6c.229.5.873.694,1.154,1.162.417.694-.044,1.808.641,2.264.284.189.688.184.937.413.349.321.219.929.538,1.277a.935.935,0,0,0,1.046.134,2.209,2.209,0,0,0,.828-.75,2.784,2.784,0,0,0,.674-1.935c-.106-.8-.77-1.4-1.187-2.093a3.178,3.178,0,0,1,.213-3.635c.284-.333.644-.6.944-.921a1.642,1.642,0,0,0,.524-1.148,2.924,2.924,0,0,0-.42-1.06,1.062,1.062,0,0,1-.016-1.1c.113-.148.287-.247.4-.4.3-.418-.042-.844-.467-.954a1.11,1.11,0,0,0-.991.294C1482.114,1001.216,1481.6,1004.56,1480.813,1005.326Z" transform="translate(-1478.139 -997.125)"/>
                <path id="Path_17044" data-name="Path 17044" class="cls-6" d="M1566.969,978.541c.1-.782.084-1.632-.522-2a6.269,6.269,0,0,1-.8-.388c-.359-.3-.336-.866-.362-1.37s-1.031.116-1.552.033c-.5-.079-.268-.862-.789-.888-.772-.039-1.129-.948-1.957-.666a10.019,10.019,0,0,1-1,.491c-.478.1-.769-.307-1.241-.245a1.33,1.33,0,0,0-.9.714,1.871,1.871,0,0,0-.162,1,1.7,1.7,0,0,0,.72,1.482,5.848,5.848,0,0,0,2.272.172,2.068,2.068,0,0,1,2.174,2c-.007.381-.116.784-.143,1.17a1.037,1.037,0,0,0,.33.972,2.5,2.5,0,0,0,1.009.222c.352.051.7.2.719.542.007.159-.065.339-.051.5.037.434.576.4.978.134a1.352,1.352,0,0,0,.583-.889,16.237,16.237,0,0,0,.694-2.986Z" transform="translate(-1548.417 -973.209)"/>
                <path id="Path_17045" data-name="Path 17045" class="cls-12" d="M1544.154,1007.771l-6.342-.6a.475.475,0,0,1-.438-.53l.43-3.254a1.027,1.027,0,0,1,1.116-.861l5.853.552a2.26,2.26,0,0,1,2.081,2.522l-.013.1a2.473,2.473,0,0,1-2.687,2.071Z" transform="translate(-1530.471 -999.109)"/>
                <path id="Path_17046" data-name="Path 17046" class="cls-6" d="M1497.1,1033.448a6.035,6.035,0,0,0,.975,2.286c0,.006,0,.027.006.023a4.546,4.546,0,0,0,1.711-2.965,2.073,2.073,0,0,1-.447-1.779c.139-1.024.745-1.8,1.354-1.743a.464.464,0,0,1,.124.057l-3.633-3.937C1496.472,1027.153,1496.271,1029.715,1497.1,1033.448Z" transform="translate(-1494.415 -1019.312)"/>
                <g id="Group_22464" data-name="Group 22464" transform="translate(2.835 9.949)">
                  <path id="Path_17047" data-name="Path 17047" class="cls-7" d="M1504.111,1058.625a1.838,1.838,0,0,0-1.63,1.938,1.716,1.716,0,0,0,1.623,1.851,1.838,1.838,0,0,0,1.63-1.937,1.716,1.716,0,0,0-1.623-1.852Z" transform="translate(-1502.481 -1058.625)"/>
                </g>
                <g id="Group_22465" data-name="Group 22465" transform="translate(4.183 4.479)">
                  <path id="Path_17048" data-name="Path 17048" class="cls-7" d="M1525.344,1011.659a5.867,5.867,0,0,1,1.707,4.994l-.673,4.906a5.768,5.768,0,0,1-6.384,5.3c-3.376-.334-6.352-3.17-5.893-6.521l.651-4.744Z" transform="translate(-1514.055 -1011.659)"/>
                </g>
                <g id="Group_22466" data-name="Group 22466" transform="translate(2.446 11.898)">
                  <path id="Path_17049" data-name="Path 17049" class="cls-7" d="M1500,1089.3l4.579,1.169a1.22,1.22,0,0,0,1.466-.837l3.311-11.65a1.143,1.143,0,0,0-.824-1.421l-4.579-1.169a1.221,1.221,0,0,0-1.466.837l-3.311,11.649a1.143,1.143,0,0,0,.824,1.422Z" transform="translate(-1499.137 -1075.357)"/>
                </g>
                <path id="Path_17050" data-name="Path 17050" class="cls-8" d="M1573.544,1101.956c-.007.366.154.828,1.045,1.045,0,0,1.312.274,1.311-.594Z" transform="translate(-1562.431 -1086.96)"/>
                <path id="Path_17051" data-name="Path 17051" class="cls-6" d="M1565.875,1046.429l-1.393-.131a.383.383,0,0,0-.417.322.351.351,0,0,0,.323.391l1.393.131a.383.383,0,0,0,.417-.321.35.35,0,0,0-.323-.392Z" transform="translate(-1554.054 -1037.783)"/>
                <path id="Path_17052" data-name="Path 17052" class="cls-6" d="M1612.988,1050.875l-1.392-.131a.384.384,0,0,0-.417.322.351.351,0,0,0,.323.391l1.393.131a.384.384,0,0,0,.417-.321.351.351,0,0,0-.324-.392Z" transform="translate(-1595.68 -1041.71)"/>
                <path id="Path_17053" data-name="Path 17053" class="cls-6" d="M1610.193,1060.135c-.046.349-.275.615-.511.593s-.39-.324-.343-.673.275-.615.511-.593S1610.239,1059.786,1610.193,1060.135Z" transform="translate(-1594.049 -1049.414)"/>
                <path id="Path_17054" data-name="Path 17054" class="cls-6" d="M1565.254,1056.732c-.046.349-.275.615-.511.593s-.39-.324-.343-.673.275-.615.51-.593S1565.3,1056.383,1565.254,1056.732Z" transform="translate(-1554.345 -1046.408)"/>
                <path id="Path_17055" data-name="Path 17055" class="cls-13" d="M1584.221,1080.273l-.037-.124a.756.756,0,0,1-.6.544l-.75.126a.553.553,0,0,1-.58-.278l-.024.066a.55.55,0,0,0,.633.719l.75-.126a.742.742,0,0,0,.608-.927Z" transform="translate(-1570.073 -1067.693)"/>
                <path id="Path_17056" data-name="Path 17056" class="cls-12" d="M1550.648,998.49a9.638,9.638,0,0,0-6.875-.33l1.559,1.236Z" transform="translate(-1536.128 -994.854)"/>
                <path id="Path_17057" data-name="Path 17057" class="cls-6" d="M1525.429,992.46s-1.236-1.359-4.765-1.058-2.888,4.258-6.767,4.525l-1.8-.559,1.526-6.578s7.6-4.349,11.848,1.8Z" transform="translate(-1508.144 -985.656)"/>
                <path id="Path_17058" data-name="Path 17058" class="cls-6" d="M1497.942,981.891a7.982,7.982,0,0,1,7.288-5.13,8.411,8.411,0,0,1,7.735,4.517Z" transform="translate(-1495.635 -976.346)"/>
              </g>
            </g>
            <g id="Group_22469" data-name="Group 22469" transform="translate(50.261 72.546)">
              <path id="Path_17059" data-name="Path 17059" class="cls-9" d="M1497.975,972.642a11.521,11.521,0,0,1,5.478-.534,14.95,14.95,0,0,1,2,.579l4.141,1.412a17.683,17.683,0,0,0-1.533-5.321,6.965,6.965,0,0,0-4.029-3.6c-2.042-.595-4.213.088-6.229.765a6.831,6.831,0,0,0-1.969.9,5.174,5.174,0,0,0-1.477,1.964,7.39,7.39,0,0,0-.707,4.917c.306,1.061.93.328,1.646-.035A16.7,16.7,0,0,1,1497.975,972.642Z" transform="translate(-1493.468 -964.948)"/>
            </g>
            <g id="Group_22470" data-name="Group 22470" transform="translate(54.48 73.455)">
              <path id="Path_17060" data-name="Path 17060" class="cls-14" d="M1537.29,973.53c1.812-.765,5.7-1.324,7.091.139a3.309,3.309,0,0,1,.636,3.129c-.471,1.712-2.171,3.357-3.526,4.39-5.047-1.932-6.7-1.649-11.8-1.557C1529.825,979.041,1534.745,974.6,1537.29,973.53Z" transform="translate(-1529.69 -972.757)"/>
            </g>
            <g id="Group_22472" data-name="Group 22472">
              <g id="Group_22471" data-name="Group 22471" transform="translate(24.587 45.594)">
                <path id="Path_17061" data-name="Path 17061" class="cls-6" d="M1274.782,748.432a.138.138,0,0,1-.137-.123l-1.589-14.59a.138.138,0,1,1,.274-.03l1.589,14.59a.138.138,0,0,1-.122.152Z" transform="translate(-1273.055 -733.565)"/>
              </g>
              <path id="Path_17062" data-name="Path 17062" class="cls-11" d="M1105.458,387.609l-37.984,4.162a.621.621,0,0,1-.684-.551l-4.819-44.238a.622.622,0,0,1,.55-.686l37.984-4.162a.621.621,0,0,1,.684.551l4.819,44.238a.622.622,0,0,1-.55.686Z" transform="translate(-1061.967 -342.13)"/>
            </g>
            <path id="Path_17063" data-name="Path 17063" class="cls-8" d="M1287.37,1049.48l-7.144,2.436a2.468,2.468,0,0,0-1.46,3.325l12.209,27.932,5.781-17.593-6.337-14.741A2.457,2.457,0,0,0,1287.37,1049.48Z" transform="translate(-1253.33 -966.972)"/>
          </g>
          <g id="Group_22480" data-name="Group 22480" transform="translate(960.151 167.232)">
            <g id="Group_22479" data-name="Group 22479">
              <g id="Group_22474" data-name="Group 22474">
                <path id="Path_17064" data-name="Path 17064" class="cls-8" d="M1731.743,524.028l-54.381-.139v1.2l54.381.139Z" transform="translate(-1677.362 -523.888)"/>
              </g>
              <g id="Group_22475" data-name="Group 22475" transform="translate(0 4.604)">
                <path id="Path_17065" data-name="Path 17065" class="cls-8" d="M1731.743,563.554l-54.381-.14v1.2l54.381.14Z" transform="translate(-1677.362 -563.414)"/>
              </g>
              <g id="Group_22476" data-name="Group 22476" transform="translate(0 9.208)">
                <path id="Path_17066" data-name="Path 17066" class="cls-8" d="M1731.743,603.08l-54.381-.139v1.2l54.381.14Z" transform="translate(-1677.362 -602.941)"/>
              </g>
              <g id="Group_22477" data-name="Group 22477" transform="translate(0 13.811)">
                <path id="Path_17067" data-name="Path 17067" class="cls-8" d="M1731.743,642.6l-54.381-.14v1.2l54.381.14Z" transform="translate(-1677.362 -642.462)"/>
              </g>
              <g id="Group_22478" data-name="Group 22478" transform="translate(0 18.416)">
                <path id="Path_17068" data-name="Path 17068" class="cls-8" d="M1708.022,682.073l-30.66-.079v1.2l30.66.079Z" transform="translate(-1677.362 -681.995)"/>
              </g>
            </g>
          </g>
          <g id="Group_22502" data-name="Group 22502" transform="translate(1076.5 183.547)">
            <path id="Path_17074" data-name="Path 17074" class="cls-15" d="M2722.65,1742.268c-.184-.224-.524-.315-.674-.18l-2.391,2.149c-.139.125-.044.382.2.536l5.063,3.209c1.33.843,2.482-.02,1.546-1.159Z" transform="translate(-2714.479 -1616.452)"/>
            <path id="Path_17075" data-name="Path 17075" class="cls-15" d="M2928.614,1775.765l-5.692-1.941c-.28-.1-.624.008-.682.206l-.928,3.147c-.054.183.166.354.459.358l6.118.066C2929.5,1777.618,2930.037,1776.25,2928.614,1775.765Z" transform="translate(-2892.759 -1644.516)"/>
            <path id="Path_17076" data-name="Path 17076" class="cls-7" d="M2932.345,1757.22l-2.878-.141c-.012.146-.022.288-.029.427a8.16,8.16,0,0,0,.023,1.214l2.713.148Q2932.261,1758.045,2932.345,1757.22Z" transform="translate(-2899.934 -1629.753)"/>
            <path id="Path_17077" data-name="Path 17077" class="cls-16" d="M2929.728,1771.172c.118,1.217.54,1.987,1.178,2.038a1.619,1.619,0,0,0,1.5-1.566c.011-.108.022-.216.034-.324Z" transform="translate(-2900.202 -1642.204)"/>
            <path id="Path_17078" data-name="Path 17078" class="cls-8" d="M2903.406,1375.681a2.519,2.519,0,0,0-.031-.3l-.112-.974-9.577.548-1.1.131.145,1.108c.014.08.036.207.05.287,1.95,9.078,4.487,26.96,2.911,40.963a1.485,1.485,0,0,0,1.406,1.641l3.208.162a1.494,1.494,0,0,0,1.558-1.337,295.056,295.056,0,0,0,1.542-42.229Z" transform="translate(-2867.384 -1291.653)"/>
            <path id="Path_17079" data-name="Path 17079" class="cls-16" d="M2740.5,1739.243c-.562,1.468-.111,2.636.458,2.926.64.328,1.571-.306,2.414-1.606Z" transform="translate(-2732.79 -1613.994)"/>
            <path id="Path_17080" data-name="Path 17080" class="cls-7" d="M2745.49,1724.675c.273-.457.543-.9.81-1.34l-2.937-1.791q-.265.566-.518,1.138c-.116.262-.231.524-.342.789-.02.046-.029.089-.046.135l2.871,1.32C2745.382,1724.842,2745.437,1724.764,2745.49,1724.675Z" transform="translate(-2734.744 -1598.357)"/>
            <path id="Path_17081" data-name="Path 17081" class="cls-8" d="M2759.959,1374.592l.283-.466a16.95,16.95,0,0,0-.295-1.849l-.149-.667-7.479-1.409-2.633-.528-.028,1.237a41.882,41.882,0,0,0,.783,6.728c3.045,18.62-.073,15.171-8.142,31.332a1.621,1.621,0,0,0,.6,2.111l2.645,1.6a1.6,1.6,0,0,0,2.182-.513C2757.8,1396.233,2763.3,1394.535,2759.959,1374.592Z" transform="translate(-2734.453 -1287.471)"/>
            <g id="Group_22490" data-name="Group 22490" transform="translate(6.455 26.597)">
              <g id="Group_22489" data-name="Group 22489" transform="translate(0.479 4.423)">
                <path id="Path_17082" data-name="Path 17082" class="cls-7" d="M2738.092,934.57c.124-2.454.211-3.667.3-4.27l-1.684-.026c-.276,1.163-.609,2.635-.933,4.3Z" transform="translate(-2735.77 -930.274)"/>
              </g>
              <path id="Path_17083" data-name="Path 17083" class="cls-7" d="M2735.549,894.591a.307.307,0,0,0-.052-.242c-.1-.109-.32-.041-.414.084a1.312,1.312,0,0,0-.152.426.434.434,0,0,1-.306.326,2.373,2.373,0,0,1-.3-1.4,1.826,1.826,0,0,0,.021-.5,1.339,1.339,0,0,0-.428-.651.91.91,0,0,0-.569-.338.961.961,0,0,0-.429.11,2.108,2.108,0,0,0-1.184,1.041,1.849,1.849,0,0,0-.005,1.04,7.333,7.333,0,0,0,.874,2.22,1.24,1.24,0,0,0,.795.679,1.66,1.66,0,0,0,1.617-.8,6.535,6.535,0,0,0,.532-1.995Z" transform="translate(-2731.661 -892.298)"/>
            </g>
            <g id="Group_22491" data-name="Group 22491" transform="translate(40.779 30.329)">
              <path id="Path_17084" data-name="Path 17084" class="cls-7" d="M3026.626,928.63c-.124-2.454-.211-3.667-.3-4.27l1.684-.026c.276,1.163.609,2.635.933,4.3Z" transform="translate(-3026.331 -924.334)"/>
            </g>
            <path id="Path_17085" data-name="Path 17085" class="cls-1" d="M2925.68,940.278h-1.418a1.692,1.692,0,0,0-1.688,1.532,82.6,82.6,0,0,1-2.1,11.839c-.774,3.06-8.164,12.078-9.169,13.243-1.628,2.826-.771,5.329.915,6.34,1.633.985,4.208.606,6.031-2.329,6.7-11.466,9.043-17.62,9.124-28.9a1.705,1.705,0,0,0-1.695-1.725Z" transform="translate(-2883.159 -908.092)"/>
            <path id="Path_17086" data-name="Path 17086" class="cls-7" d="M3017.643,897.856a.537.537,0,0,0-.26.595,3.27,3.27,0,0,1,.132.911,2.823,2.823,0,0,0-.137,1.567,1.338,1.338,0,0,0,.37.6,5.156,5.156,0,0,0,.784.319,5.994,5.994,0,0,0,.589.39c.22.086.544-.02.542-.256l.447-.689a2.953,2.953,0,0,1,.185-1.389,3.494,3.494,0,0,0,.219-.6.661.661,0,0,0-.147-.6,11.1,11.1,0,0,0-2.042-.773A1.95,1.95,0,0,0,3017.643,897.856Z" transform="translate(-2977.583 -870.596)"/>
            <path id="Path_17087" data-name="Path 17087" class="cls-1" d="M2752.735,996.307c-1.475-2.5-2.886-5.163-3.116-8.088-.657-8.392,5.528-14.018.088-19.265q-1.324-.262-2.61-.464c-5.261-.829-7.688-.5-10.478.411l-.024.008a4.768,4.768,0,0,1-4.337-.659,30.061,30.061,0,0,1-3.769-3.22c-1.928-6.173-2.01-5.3-2.013-17.048a1.348,1.348,0,0,0-1.241-1.346l-1.258-.094a1.342,1.342,0,0,0-1.431,1.162c-1.19,9.066-1.3,16.866-.4,19.215,1.308,2.822,2.286,3.792,6.99,8.449l1.477,1.464a89.047,89.047,0,0,0,1.175,22.438c.354,2.11,1.338,1.9,3.534,1.836l12.765-.354,1.169-.032a6.018,6.018,0,0,0,2.41-.629,2.691,2.691,0,0,0,1.069-3.784Z" transform="translate(-2716.273 -913.623)"/>
            <rect id="Rectangle_13429" data-name="Rectangle 13429" class="cls-1" width="52.069" height="30.571" rx="5.31"/>
            <g id="Group_22501" data-name="Group 22501" transform="translate(20.631 38.103)">
              <g id="Group_22500" data-name="Group 22500">
                <g id="Group_22492" data-name="Group 22492" transform="translate(2.165 8.654)">
                  <path id="Path_17088" data-name="Path 17088" class="cls-7" d="M2872.749,1074.441l2.717-.222c.367-.008.687.654.679.275l-.184-8.444a.681.681,0,0,0-.683-.676l-2.675.057a.682.682,0,0,0-.654.7l.184,8.438C2872.141,1074.953,2872.381,1074.449,2872.749,1074.441Z" transform="translate(-2871.948 -1065.375)"/>
                </g>
                <g id="Group_22499" data-name="Group 22499">
                  <path id="Path_17089" data-name="Path 17089" class="cls-6" d="M2863.642,997.938l-.025-.025c.009.234-.278.454-.278.485l-.106-.042a.746.746,0,0,0-1.231-.322l.066.4-.725.046-.061-.009a.439.439,0,0,1-.382-.233c-.044-.122.009-.257-.029-.382-.076-.251-.444-.286-.545-.529s.15-.486.119-.749a.48.48,0,0,0-.116-.247,2.808,2.808,0,0,1-2.516.621c-.068-.014-.136-.035-.2-.052a1.935,1.935,0,0,1-1.294-.414l-.164-.055a.276.276,0,0,1-.3.212c-.177-.026-.335-.156-.511-.2-.417-.1-.756.327-.834.761-.069.383-.079.969-.143,1.4.014.1.029.208.046.316l-.05.593a1.465,1.465,0,0,1-.32-.824c0-.1-.242-.372-.244-.649,0-.588-.517-1.161-.419-1.757.062-.375.439-.574.578-.919a8.911,8.911,0,0,0,.118-1.068c.164-.633.884-.856,1.245-1.375.158-.228.565.141.7-.1.332-.577.864-1,1.416-.849a1,1,0,0,0,.687.051.612.612,0,0,0,.088-.041,2.59,2.59,0,0,1,.453-.635.826.826,0,0,1,1.055-.123c.234.183.335.5.542.721.693.729,2.045-.056,2.663.744a1.723,1.723,0,0,1,.067,1.52c.239-.212.6.207.613.551s-.1.721.1,1.013c.087.131.222.217.319.34A1.554,1.554,0,0,1,2863.642,997.938Z" transform="translate(-2853.36 -991.074)"/>
                  <path id="Path_17090" data-name="Path 17090" class="cls-6" d="M2860.907,1042.24a4.025,4.025,0,0,0,.649,1.442s.429.508.429.5a3.439,3.439,0,0,1,.54-2.379,1.384,1.384,0,0,1-.314-1.124c.059-.65.406-1.148.778-1.113.028,0,.051.025.077.036l-2.3-2.472a8.979,8.979,0,0,0,.142,5.11Z" transform="translate(-2859.634 -1031.769)"/>
                  <g id="Group_22493" data-name="Group 22493" transform="translate(1.273 7.775)">
                    <path id="Path_17091" data-name="Path 17091" class="cls-7" d="M2865.389,1057.825a1.218,1.218,0,1,0,.877,1.283A1.108,1.108,0,0,0,2865.389,1057.825Z" transform="translate(-2864.287 -1057.821)"/>
                  </g>
                  <g id="Group_22494" data-name="Group 22494" transform="translate(2.171 4.271)">
                    <path id="Path_17092" data-name="Path 17092" class="cls-7" d="M2878.619,1027.739a3.914,3.914,0,0,1,1.161,3.153l-.286,3.112a3.429,3.429,0,0,1-3.744,3.4,4.008,4.008,0,0,1-3.739-4.094l.277-3.01Z" transform="translate(-2871.996 -1027.739)"/>
                  </g>
                  <g id="Group_22495" data-name="Group 22495" transform="translate(5.574 6.746)">
                    <path id="Path_17093" data-name="Path 17093" class="cls-6" d="M2902.31,1049.068l-.849-.074a.227.227,0,0,0-.04.452l.849.074a.227.227,0,0,0,.04-.452Z" transform="translate(-2901.215 -1048.993)"/>
                  </g>
                  <g id="Group_22496" data-name="Group 22496" transform="translate(8.922 6.991)">
                    <path id="Path_17094" data-name="Path 17094" class="cls-6" d="M2931.056,1051.167l-.849-.074a.227.227,0,0,0-.039.452l.848.074a.227.227,0,0,0,.04-.452Z" transform="translate(-2929.962 -1051.091)"/>
                  </g>
                  <g id="Group_22497" data-name="Group 22497" transform="translate(8.833 7.797)">
                    <path id="Path_17095" data-name="Path 17095" class="cls-6" d="M2929.715,1058.435c-.019.222-.152.391-.3.379s-.245-.2-.226-.424.152-.391.3-.379S2929.734,1058.214,2929.715,1058.435Z" transform="translate(-2929.192 -1058.01)"/>
                  </g>
                  <g id="Group_22498" data-name="Group 22498" transform="translate(5.645 7.579)">
                    <path id="Path_17096" data-name="Path 17096" class="cls-6" d="M2902.35,1056.565c-.019.222-.151.391-.3.379s-.245-.2-.225-.424.151-.391.3-.379S2902.37,1056.344,2902.35,1056.565Z" transform="translate(-2901.828 -1056.141)"/>
                  </g>
                  <path id="Path_17097" data-name="Path 17097" class="cls-13" d="M2914.438,1071.287l-.026-.078a.45.45,0,0,1-.353.349l-.452.085a.341.341,0,0,1-.359-.172l-.013.042a.353.353,0,0,0,.4.451l.452-.085a.456.456,0,0,0,.351-.592Z" transform="translate(-2906.247 -1061.875)"/>
                  <path id="Path_17098" data-name="Path 17098" class="cls-6" d="M2869.8,1019s-.784-.853-2.919-.64-1.647,2.716-4,2.91l-1.1-.343-1.077-2.709s6.347-4.273,9.076-.4Z" transform="translate(-2859.849 -1013.271)"/>
                </g>
              </g>
              <path id="Path_17099" data-name="Path 17099" class="cls-8" d="M2907.241,1085.911l1.349.077a.892.892,0,0,1-1.349-.077Z" transform="translate(-2900.965 -1074.865)"/>
            </g>
            <rect id="Rectangle_13430" data-name="Rectangle 13430" class="cls-7" width="5.965" height="2.357" rx="1.178" transform="translate(22.259 55.009)"/>
          </g>
          <g id="Group_22537" data-name="Group 22537" transform="translate(998.846 215.912)">
            <g id="Group_22507" data-name="Group 22507" transform="translate(58.423 5.781)">
              <path id="Path_17100" data-name="Path 17100" class="cls-17" d="M2612.28,1424.744c-.233,1.249-.827,2.387-1.177,3.6a49.4,49.4,0,0,0-.789,5.029c-.755,4.237-3.268,8.147-3.01,12.451l6.018-17.451c.817-2.371,1.645-4.938,1-7.367-.481-1.805-1.736-3.318-2.073-5.159-.25-1.367.024-2.838-.458-4.132a.931.931,0,0,0-.317-.474c-.3-.2-2.822-4.849-3-4.516-.9,1.714,2.208,9.576,2.722,11.255C2611.857,1420.153,2612.712,1422.424,2612.28,1424.744Z" transform="translate(-2596.085 -1358.341)"/>
              <path id="Path_17101" data-name="Path 17101" class="cls-7" d="M2611.87,1759.737l-.075.212c-2.176,5.986.724,5.362,1.643,2.732.342-.978.677-1.961,1.012-2.943Z" transform="translate(-2599.37 -1670.246)"/>
              <path id="Path_17102" data-name="Path 17102" class="cls-17" d="M2611.925,1399.363l-.326-.613-6.937-.176-.083.051-.089.011a1.366,1.366,0,0,0-1.119,1.764l.259.857c5.387,14.8,4.959,14.823,2.143,23.889-2.246,7.23-3.144,9.606-4.23,14.992a1.4,1.4,0,0,0,1.141,1.681l3.294.182a1.65,1.65,0,0,0,1.656-1.194c4.209-12.448,6.858-16.3,6.945-21.938a61.473,61.473,0,0,0-2.655-19.506Z" transform="translate(-2590.988 -1351.151)"/>
              <path id="Path_17103" data-name="Path 17103" class="cls-17" d="M2537.026,1424.014c-.233,1.249-.827,2.387-1.177,3.6a49.265,49.265,0,0,0-.79,5.029c-.755,4.237-3.268,8.147-3.01,12.451l6.018-17.451c.817-2.371,1.644-4.938,1-7.367-.481-1.805-1.736-3.318-2.073-5.159-.25-1.367.025-2.838-.458-4.133a.934.934,0,0,0-.317-.474c-.3-.2-2.822-4.849-3-4.516-.9,1.714,2.208,9.576,2.722,11.256C2536.6,1419.423,2537.458,1421.694,2537.026,1424.014Z" transform="translate(-2529.597 -1357.696)"/>
              <path id="Path_17104" data-name="Path 17104" class="cls-7" d="M2536.586,1759.737l-.045.127c-2.176,5.986.724,5.362,1.643,2.732.332-.949.657-1.9.983-2.858Z" transform="translate(-2532.882 -1670.246)"/>
              <path id="Path_17105" data-name="Path 17105" class="cls-17" d="M2536.671,1398.633l-.326-.613-6.938-.176-.083.052-.089.011a1.366,1.366,0,0,0-1.119,1.764l.259.857c5.386,14.8,4.959,14.823,2.143,23.89-2.246,7.23-3.144,9.6-4.23,14.992a1.4,1.4,0,0,0,1.141,1.681l3.294.183a1.649,1.649,0,0,0,1.655-1.194c4.208-12.448,6.858-16.3,6.945-21.938A61.462,61.462,0,0,0,2536.671,1398.633Z" transform="translate(-2524.5 -1350.507)"/>
              <path id="Path_17106" data-name="Path 17106" class="cls-6" d="M2513.5,995.4a7.124,7.124,0,0,1-.742,1.844c-.338.45-.845.728-1.217,1.148a1.272,1.272,0,0,0-.213,1.566c.173.213.44.325.612.537.486.6-.033,1.442-.232,2.178a2.558,2.558,0,0,0,.636,2.4c.434.44,1.07.785,1.15,1.4.063.487-.266.989-.076,1.443.279.666,1.283.486,1.811.966.372.338.412.906.575,1.388a2.489,2.489,0,0,0,2.055,1.664,4.371,4.371,0,0,1,1.442.134c.581.261.919.984,1.529,1.149,1.269.341,1.568-1.214,2.433-2.036,1.088-1.035,3.19-.878,3.677-2.334.115-.341.124-.752.383-.99s.685-.2.972-.415c.539-.4.312-1.343.549-1.952a4.4,4.4,0,0,1,.272-.381c2.23-3.324,2.583-7.307.539-9.862-1.693-2.117-4.628-2.746-7.628-1.958-.027-.025-.042-.054-.07-.078a3.063,3.063,0,0,0-2.313-.7c-1.553.082-2.04,1.535-3.323,1.8-.491.1-.99-.23-1.49-.2C2514.181,994.147,2513.731,994.774,2513.5,995.4Z" transform="translate(-2511.135 -992.375)"/>
              <g id="Group_22503" data-name="Group 22503" transform="translate(8.614)">
                <path id="Path_17107" data-name="Path 17107" class="cls-6" d="M2596.14,1002.111c-.735-.567-2.211-1.123-2.776-1.6a5.86,5.86,0,0,1-1.05-1.077,2.456,2.456,0,0,1-.4-1.107c0,.007.312-.579.062-.15a4.179,4.179,0,0,0,.571-2.9,3.748,3.748,0,0,1,.934-1.739,4.912,4.912,0,0,1,2.928-1.639,5.813,5.813,0,0,1,1.909-.418,3.421,3.421,0,0,1,2.709.8,6.627,6.627,0,0,1,.57.619c.154.222.29.458.431.689.241.141,1.128.734,1.24,1.419a2.8,2.8,0,0,1-.165,1.916c-.663-.1-1.275-1.014-1.844-.892a1.808,1.808,0,0,0-.513.215,3.206,3.206,0,0,0-1.712,1.927c-.215.819.078,1.817-.5,2.446-.521.562-1.5.529-2.066,1.05A1.5,1.5,0,0,0,2596.14,1002.111Z" transform="translate(-2591.114 -991.438)"/>
                <path id="Path_17108" data-name="Path 17108" class="cls-6" d="M2585.137,1028.224a17.49,17.49,0,0,0,3.4,4.512s.919,1.521.923,1.518c1.1-.861.2-3.391.2-3.391a1.591,1.591,0,0,1-.256-1.293c.117-.727.541-1.259.947-1.188.031.005.054.032.082.047l-2.333-2.977C2587.581,1026.682,2584.671,1025.515,2585.137,1028.224Z" transform="translate(-2585.086 -1021.489)"/>
              </g>
              <g id="Group_22505" data-name="Group 22505" transform="translate(6.473 19.291)">
                <g id="Group_22504" data-name="Group 22504">
                  <path id="Path_17109" data-name="Path 17109" class="cls-18" d="M2574.393,1164.369c-.365-1.5-.663-3.029-.9-4.4-.667-3.807-5.468-3.644-6.784-.935l3.089,7.222C2571.406,1166.516,2572.974,1165.584,2574.393,1164.369Z" transform="translate(-2566.707 -1157.052)"/>
                </g>
              </g>
              <path id="Path_17110" data-name="Path 17110" class="cls-10" d="M2557.052,1147.627c-.5-6.254.54-10.241.291-13.494l.014-.011q-.017-.186-.044-.37a5.016,5.016,0,0,0-.11-.526c0-.007,0-.014,0-.021-.126-.466-.262-1.009-.424-1.55a6.914,6.914,0,0,0-1.993-3.171c-3.362-3.021-6.6-1.742-8.832-.288l-.767.527c-3.616,2.48-2.271,8.158-2.271,8.158.449,2.765,1.308,4.1,1.388,7.177.152,5.818-3.66,7.43-3.887,13.813,0,0-.054.072-.137.188a2.2,2.2,0,0,0,.242,2.822c2.17,2.076,4.436,3.153,7.1,2.31,3.946-1.247,6.644-.344,9.462-1.722a2.114,2.114,0,0,0,1.16-1.844C2558.424,1153.293,2557.677,1155.355,2557.052,1147.627Z" transform="translate(-2536.526 -1110.892)"/>
              <g id="Group_22506" data-name="Group 22506" transform="translate(11.116 1.717)">
                <path id="Path_17111" data-name="Path 17111" class="cls-6" d="M2608.028,1013.929a3.691,3.691,0,0,0,.947-.932c.458-.657.7-1.451,1.146-2.119a5.546,5.546,0,0,1,4.344-2.331c.233-.012.583-.016.66-.3a.689.689,0,0,0-.045-.35c-.085-.268-.247-.582-.3-.744a.391.391,0,0,0-.094-.173.364.364,0,0,0-.161-.067l-1.479-.351a13.036,13.036,0,0,0-2.054-.373,2.5,2.5,0,0,0-1.667.349c-.766.555-.9,1.652-1.329,2.516a4.483,4.483,0,0,1-.339.566l-.3-.29a5.516,5.516,0,0,0-.15.883c-.209.252-.424.5-.629.753l.889,2.254c.108.478.243.985.421,1.534a4.34,4.34,0,0,0,.781,1.485s0,.018,0,.015.046-1.906.046-1.906a.961.961,0,0,1-.691-.419Z" transform="translate(-2606.571 -1006.178)"/>
                <path id="Path_17112" data-name="Path 17112" class="cls-7" d="M2626.131,1020.949a.694.694,0,0,1,.045.35c-.077.283-.427.287-.66.3a5.546,5.546,0,0,0-4.344,2.331c-.443.668-.687,1.463-1.146,2.119a3.7,3.7,0,0,1-.947.932.962.962,0,0,0,.686.42l-.038,1.9-.106,5.307a.638.638,0,0,0,.515.714l2.117.045c.291.006.536-.305.543-.692l.089-4.479a3.527,3.527,0,0,0,.467.044,3.7,3.7,0,0,0,3.722-3.658l.06-3.007a3.732,3.732,0,0,0-1-2.626Zm-2.587,3.78c0,.231-.125.417-.271.415s-.262-.192-.259-.423.125-.417.271-.415l.451.007-.223.222a.6.6,0,0,1,.031.194Zm.151-1.063-.888-.014a.242.242,0,1,1,.007-.484l.887.014a.242.242,0,1,1-.007.484Zm.973,4.5c-.542-.084-.565-.339-.593-.6l1.42.138c.078.612-.827.464-.827.464Zm.752-1.392-.4.126c-.229.073-.44-.172-.386-.448l.009-.046a.284.284,0,0,0,.331.155l.4-.126a.465.465,0,0,0,.293-.4l.028.081a.513.513,0,0,1-.275.66Zm1.311-2c0,.231-.125.417-.271.415s-.262-.192-.259-.423.125-.417.272-.415l.451.007-.223.222a.586.586,0,0,1,.03.2Zm.21-1.062-.689-.011a.22.22,0,0,1-.179-.245.217.217,0,0,1,.187-.239l.689.011a.22.22,0,0,1,.179.245c0,.139-.086.246-.187.245Z" transform="translate(-2617.623 -1019.228)"/>
                <path id="Path_17113" data-name="Path 17113" class="cls-6" d="M2650.449,1040.253a.24.24,0,0,0-.232-.246l-.887-.014a.242.242,0,0,0-.008.484l.888.014A.24.24,0,0,0,2650.449,1040.253Z" transform="translate(-2644.137 -1036.054)"/>
                <path id="Path_17114" data-name="Path 17114" class="cls-6" d="M2679.988,1040.479l-.689-.011a.251.251,0,0,0-.008.484l.689.011a.252.252,0,0,0,.008-.484Z" transform="translate(-2670.663 -1036.474)"/>
                <path id="Path_17115" data-name="Path 17115" class="cls-13" d="M2667.738,1064.643a.465.465,0,0,1-.293.4l-.4.126a.284.284,0,0,1-.331-.155l-.009.046c-.054.276.157.521.387.448l.4-.126a.513.513,0,0,0,.275-.656Z" transform="translate(-2659.694 -1057.833)"/>
                <path id="Path_17116" data-name="Path 17116" class="cls-6" d="M2653.126,1049.764c-.146,0-.268.183-.271.415s.112.421.259.423.268-.183.271-.415a.6.6,0,0,0-.031-.194l.223-.222Z" transform="translate(-2647.464 -1044.687)"/>
                <path id="Path_17117" data-name="Path 17117" class="cls-6" d="M2680.485,1050.2c-.146,0-.268.183-.271.415s.112.421.258.423.268-.183.272-.415a.6.6,0,0,0-.031-.194l.223-.222Z" transform="translate(-2671.636 -1045.076)"/>
                <path id="Path_17118" data-name="Path 17118" class="cls-8" d="M2662.554,1078.406s.9.148.827-.458l-1.42-.138C2661.989,1078.066,2662.013,1078.322,2662.554,1078.406Z" transform="translate(-2655.509 -1069.466)"/>
              </g>
              <path id="Path_17119" data-name="Path 17119" class="cls-7" d="M2613.439,1129.192a3.446,3.446,0,0,0-2.57.785,1.05,1.05,0,0,0,.155,1.645q1.354,1.159,2.671,2.352c.51.461,1.292.4,1.5-.111a21.076,21.076,0,0,0,1.016-2.71C2616.553,1130.089,2614.56,1129.319,2613.439,1129.192Z" transform="translate(-2598.96 -1113.128)"/>
              <path id="Path_17120" data-name="Path 17120" class="cls-8" d="M2541.351,1786.112l-1.355-.5a3.445,3.445,0,0,1-4.855-.851s-.023,2.633-.023,2.633c-.046.168.141.325.392.328l5.221.067C2542.1,1787.81,2542.564,1786.558,2541.351,1786.112Z" transform="translate(-2532.318 -1692.358)"/>
              <path id="Path_17121" data-name="Path 17121" class="cls-7" d="M2540.186,1782.072l-3.5-1.286a1.45,1.45,0,0,0-1.36.428,3.447,3.447,0,0,0,4.86.858Z" transform="translate(-2532.508 -1688.815)"/>
              <path id="Path_17122" data-name="Path 17122" class="cls-8" d="M2617,1787.034l-1.355-.5a3.444,3.444,0,0,1-4.855-.851s-.023,2.633-.023,2.633c-.046.167.141.325.392.328l5.221.067C2617.749,1788.731,2618.21,1787.479,2617,1787.034Z" transform="translate(-2599.152 -1693.171)"/>
              <path id="Path_17123" data-name="Path 17123" class="cls-7" d="M2615.832,1782.994l-3.5-1.286a1.45,1.45,0,0,0-1.36.428,3.447,3.447,0,0,0,4.86.858Z" transform="translate(-2599.343 -1689.63)"/>
            </g>
            <g id="Group_22512" data-name="Group 22512" transform="translate(12.305 52.128)">
              <path id="Path_17124" data-name="Path 17124" class="cls-10" d="M2116.845,1402.924c.084,1.579-.063,3.158-.007,4.738.084,2.356.62,4.679.65,7.037.023,1.861-.27,3.7-.4,5.547a63.1,63.1,0,0,0,.644,11.681c1.205-6.327.614-12.963.543-19.487-.058-5.356.229-10.756-.486-16.084-.139-1.036-.8-6.733-1.791-7-1.03-.28-.8,3.844-.73,4.438C2115.638,1396.871,2116.68,1399.806,2116.845,1402.924Z" transform="translate(-2115.199 -1389.339)"/>
              <g id="Group_22511" data-name="Group 22511" transform="translate(0.676 0.046)">
                <path id="Path_17125" data-name="Path 17125" class="cls-10" d="M2251.279,1400a29.37,29.37,0,0,1,.066,4.014c-.1,1.377-.4,2.733-.474,4.112-.11,2.11.312,4.226.155,6.333-.142,1.912-.755,3.753-.977,5.656-.151,1.3-.119,2.608-.245,3.906a32.268,32.268,0,0,1-.744,4.052l-1.8,7.875c.439-5.1.764-10.216,1.089-15.328q.445-7.014.891-14.028c.083-1.31.619-13,1.135-12.949C2251.41,1393.757,2251.23,1399.215,2251.279,1400Z" transform="translate(-2232.557 -1393.19)"/>
                <path id="Path_17126" data-name="Path 17126" class="cls-7" d="M2210.362,1761.789c-.8,6.667,2.42,5.966,2.738,3.017.108-1,.207-2.01.308-3.017Z" transform="translate(-2199.842 -1718.452)"/>
                <path id="Path_17127" data-name="Path 17127" class="cls-7" d="M2151.008,1761.789c-.011.088-.021.186-.032.273-.9,6.8,2.333,5.661,2.684,2.678.116-.981.222-1.967.331-2.951Z" transform="translate(-2147.346 -1718.452)"/>
                <path id="Path_17128" data-name="Path 17128" class="cls-10" d="M2202.43,1435.993c2.391-18.234,3.013-36.936,2.732-42.85-9.722,0-7.913-.064-9.344.015.059.713,2.673,22.6.421,42.421-.1.866.216,1.631,1.042,1.633l3.816.007a1.369,1.369,0,0,0,1.333-1.226Z" transform="translate(-2187.104 -1392.724)"/>
                <path id="Path_17129" data-name="Path 17129" class="cls-10" d="M2124.171,1434.257h3.808a1.634,1.634,0,0,0,1.63-1.563c.866-19.827,2.281-37.467,1.934-42.478l-10.539-.484c.477,2.567,2.27,20.548,1.537,42.833a1.634,1.634,0,0,0,1.63,1.692Z" transform="translate(-2121.004 -1389.732)"/>
                <g id="Group_22508" data-name="Group 22508" transform="translate(6.724 3.985)">
                  <path id="Path_17130" data-name="Path 17130" class="cls-19" d="M2178.984,1464.695a1.868,1.868,0,0,0,1.88-1.778c.344-7.711.776-14.974,1.156-21.381.4-6.717.744-12.531.829-16.35l1.4-.749a.263.263,0,0,0,.108-.349.248.248,0,0,0-.338-.111l-1.533.82a.261.261,0,0,0-.136.225c-.079,3.805-.427,9.68-.831,16.483-.381,6.409-.812,13.674-1.156,21.389a1.36,1.36,0,0,1-1.379,1.283.259.259,0,1,0,0,.518Z" transform="translate(-2178.733 -1423.948)"/>
                </g>
                <g id="Group_22509" data-name="Group 22509" transform="translate(2.783 45.828)">
                  <path id="Path_17131" data-name="Path 17131" class="cls-6" d="M2150.344,1784.867l-4.263-1.662a.38.38,0,0,0-.507.188l-.668,2.791c-.039.162.127.312.346.312h4.566C2151.018,1786.5,2151.41,1785.282,2150.344,1784.867Z" transform="translate(-2144.9 -1783.175)"/>
                </g>
                <g id="Group_22510" data-name="Group 22510" transform="translate(9.681 45.828)">
                  <path id="Path_17132" data-name="Path 17132" class="cls-6" d="M2210.318,1784.867l-4.855-1.662c-.239-.082-.53.013-.577.188l-.761,2.791c-.044.162.145.312.394.312h5.2C2211.085,1786.5,2211.531,1785.282,2210.318,1784.867Z" transform="translate(-2204.119 -1783.175)"/>
                </g>
              </g>
            </g>
            <g id="Group_22514" data-name="Group 22514" transform="translate(20.204 20.886)">
              <g id="Group_22513" data-name="Group 22513">
                <path id="Path_17133" data-name="Path 17133" class="cls-20" d="M2188.275,1127.147c-2.49-.416-3.81-1.713-5.2-3.269a2,2,0,0,1-.047-.757,1.169,1.169,0,0,1,.392-.766,1.7,1.7,0,0,1,.456-.23c1.655-.635,2.381-1.535,4.133-.6a4.677,4.677,0,0,1,2.462,3.4,5.652,5.652,0,0,1,.017,1.239,2.861,2.861,0,0,1-2.213.983Z" transform="translate(-2183.013 -1121.121)"/>
              </g>
            </g>
            <path id="Path_17134" data-name="Path 17134" class="cls-8" d="M2132.25,1136.914c-.517-6.028.552-9.871.3-13.006l.014-.011q-.017-.179-.045-.357a4.556,4.556,0,0,0-.113-.507v-.021c-.129-.449-.269-.972-.433-1.494a6.625,6.625,0,0,0-2.041-3.056c-3.441-2.912-6.757-1.68-9.04-.278l-.786.508c-3.7,2.391-2.324,7.863-2.324,7.863.46,2.665,1.338,3.948,1.421,6.918.156,5.608-3.747,7.162-3.978,13.314,0,0-.056.069-.141.182a2.026,2.026,0,0,0,.247,2.72c2.221,2,4.54,3.039,7.27,2.226,4.039-1.2,6.8-.331,9.685-1.66a2.032,2.032,0,0,0,1.187-1.778C2133.655,1142.375,2132.89,1144.363,2132.25,1136.914Z" transform="translate(-2102.426 -1096.317)"/>
            <path id="Path_17135" data-name="Path 17135" class="cls-6" d="M2135.186,942.184a4.3,4.3,0,0,1-1.226.063c-.342-.074-.635-.292-.969-.393a.766.766,0,0,0-.928.293c-.072.156-.062.338-.133.493-.2.437-.811.363-1.274.444a1.547,1.547,0,0,0-1.16,1c-.127.365-.146.821-.468,1.031-.254.165-.622.109-.823.338-.295.336.078.864-.046,1.294-.087.3-.392.476-.616.7a1.574,1.574,0,0,0-.368,1.618,2.848,2.848,0,0,1,.317.862c.012.4-.3.787-.224,1.18.155.817,1.1.577,1.792.855.87.349,1.354,1.595,2.3,1.488.221-.025.452-.128.655-.043s.3.338.494.447c.366.2.832-.177,1.235-.2a2.648,2.648,0,0,1,.286.055c2.453.4,4.764-.455,5.63-2.3a4.634,4.634,0,0,0-.98-4.889c.007-.022.019-.038.025-.061a1.984,1.984,0,0,0-.237-1.511c-.467-.868-1.407-.762-1.9-1.428-.188-.255-.14-.628-.295-.906a1.1,1.1,0,0,0-1.087-.43Z" transform="translate(-2113.398 -941.81)"/>
            <g id="Group_22515" data-name="Group 22515" transform="translate(17.272 4.401)">
              <path id="Path_17136" data-name="Path 17136" class="cls-6" d="M2169.157,990.26c-.752-.567-2.263-1.122-2.841-1.6a5.923,5.923,0,0,1-1.075-1.076,2.424,2.424,0,0,1-.414-1.106c0,.007.319-.578.063-.149a4.1,4.1,0,0,0,.584-2.9,3.716,3.716,0,0,1,.956-1.738c1.356-1.466,2.109-1.29,3-1.638a6.063,6.063,0,0,1,1.954-.418,3.561,3.561,0,0,1,2.772.8,6.667,6.667,0,0,1,.583.619c.158.222.3.457.441.688.247.141,1.154.734,1.27,1.417a2.745,2.745,0,0,1-.169,1.915c-.678-.1-1.3-1.013-1.887-.891a1.868,1.868,0,0,0-.526.215,3.23,3.23,0,0,0-1.752,1.926c-.22.818.08,1.816-.516,2.444-.533.562-1.535.529-2.114,1.05a1.493,1.493,0,0,0-.329.442Z" transform="translate(-2164.014 -979.595)"/>
              <path id="Path_17137" data-name="Path 17137" class="cls-6" d="M2157.9,1016.356a17.518,17.518,0,0,0,3.484,4.509s.941,1.52.945,1.517c1.128-.861.206-3.388.206-3.388a1.561,1.561,0,0,1-.261-1.292c.12-.727.554-1.258.969-1.188.031.005.055.032.084.047l-2.387-2.975C2160.4,1014.815,2157.419,1013.649,2157.9,1016.356Z" transform="translate(-2157.844 -1009.626)"/>
            </g>
            <g id="Group_22524" data-name="Group 22524" transform="translate(19.345 5.781)">
              <g id="Group_22522" data-name="Group 22522">
                <g id="Group_22521" data-name="Group 22521">
                  <path id="Path_17138" data-name="Path 17138" class="cls-12" d="M2206.892,1004.32l-4.294-.067a.352.352,0,0,1-.344-.357l.036-2.294a.694.694,0,0,1,.7-.683l3.952.062a1.67,1.67,0,1,1-.052,3.339Z" transform="translate(-2199.154 -999.815)"/>
                  <path id="Path_17139" data-name="Path 17139" class="cls-6" d="M2181.88,1025.479a4.507,4.507,0,0,0,.838,1.556s0,.019.006.016a3.169,3.169,0,0,0,.925-2.184,1.545,1.545,0,0,1-.441-1.228c.014-.729.363-1.313.78-1.3a.33.33,0,0,1,.088.034l-2.765-2.571a10.032,10.032,0,0,0,.569,5.677Z" transform="translate(-2180.475 -1016.495)"/>
                  <g id="Group_22516" data-name="Group 22516" transform="translate(2.314 1.46)">
                    <path id="Path_17140" data-name="Path 17140" class="cls-7" d="M2201.958,1003.972a3.9,3.9,0,0,1,1.443,3.087l-.064,3.15a3.916,3.916,0,1,1-7.83-.161l.064-3.046Z" transform="translate(-2195.506 -1003.972)"/>
                  </g>
                  <g id="Group_22517" data-name="Group 22517" transform="translate(2.145 7.781)">
                    <path id="Path_17141" data-name="Path 17141" class="cls-7" d="M2194.607,1067.311l2.271.047a.671.671,0,0,0,.583-.724l.156-7.6a.672.672,0,0,0-.553-.748l-2.271-.047a.671.671,0,0,0-.583.725l-.155,7.6A.671.671,0,0,0,2194.607,1067.311Z" transform="translate(-2194.054 -1058.239)"/>
                  </g>
                  <path id="Path_17142" data-name="Path 17142" class="cls-6" d="M2222.467,1026.873l-.952-.015a.254.254,0,0,0-.008.507l.952.015a.254.254,0,0,0,.008-.507Z" transform="translate(-2215.945 -1022.732)"/>
                  <path id="Path_17143" data-name="Path 17143" class="cls-6" d="M2254.407,1027.367l-.739-.012a.262.262,0,0,0-.008.507l.739.012a.262.262,0,0,0,.008-.507Z" transform="translate(-2244.403 -1023.172)"/>
                  <path id="Path_17144" data-name="Path 17144" class="cls-13" d="M2241.294,1052.762l-.03-.085a.487.487,0,0,1-.315.418l-.427.132a.307.307,0,0,1-.355-.162l-.01.048c-.058.29.169.546.415.47l.427-.132a.533.533,0,0,0,.295-.689Z" transform="translate(-2232.634 -1045.544)"/>
                  <g id="Group_22518" data-name="Group 22518" transform="translate(5.784 5.318)">
                    <path id="Path_17145" data-name="Path 17145" class="cls-6" d="M2225.866,1037.537c0,.242-.134.437-.291.434s-.281-.2-.277-.443.134-.437.291-.434S2225.87,1037.3,2225.866,1037.537Z" transform="translate(-2225.298 -1037.094)"/>
                    <path id="Path_17146" data-name="Path 17146" class="cls-6" d="M2227.8,1037.094l.484.008-.3.294Z" transform="translate(-2227.507 -1037.094)"/>
                  </g>
                  <g id="Group_22519" data-name="Group 22519" transform="translate(9.202 5.372)">
                    <path id="Path_17147" data-name="Path 17147" class="cls-6" d="M2255.217,1038c0,.242-.134.437-.291.434s-.281-.2-.278-.443.134-.437.291-.434S2255.221,1037.755,2255.217,1038Z" transform="translate(-2254.648 -1037.554)"/>
                    <path id="Path_17148" data-name="Path 17148" class="cls-6" d="M2257.149,1037.553l.484.008-.3.294Z" transform="translate(-2256.858 -1037.553)"/>
                  </g>
                  <g id="Group_22520" data-name="Group 22520" transform="translate(1.285 5.894)">
                    <path id="Path_17149" data-name="Path 17149" class="cls-7" d="M2187.811,1042.037a1.362,1.362,0,1,0,1.08,1.36A1.238,1.238,0,0,0,2187.811,1042.037Z" transform="translate(-2186.677 -1042.036)"/>
                  </g>
                  <path id="Path_17150" data-name="Path 17150" class="cls-6" d="M2177.169,994.452c.457-.905.6-2.054,1.426-2.635a2.738,2.738,0,0,1,1.788-.365,14.3,14.3,0,0,1,2.2.39l1.587.368a.4.4,0,0,1,.172.07.4.4,0,0,1,.1.181c.09.257.446.881.372,1.146-.083.3-.459.3-.708.314a5.981,5.981,0,0,0-4.66,2.442c-.475.7-.737,1.532-1.229,2.22a3.921,3.921,0,0,1-1.2,1.1l-.062.032-1.316-3.257a11.185,11.185,0,0,0,1.53-2.006Z" transform="translate(-2175.643 -991.438)"/>
                </g>
              </g>
              <g id="Group_22523" data-name="Group 22523" transform="translate(6.922 8.74)">
                <path id="Path_17151" data-name="Path 17151" class="cls-8" d="M2235.067,1066.471c.03.269.056.536.636.624,0,0,.971.155.888-.48Z" transform="translate(-2235.067 -1066.471)"/>
              </g>
            </g>
            <path id="Path_17152" data-name="Path 17152" class="cls-9" d="M2173.648,980.491s-7.361.631-7.863,9.13a9.04,9.04,0,0,1-.8-.689,3.885,3.885,0,0,1-.553-4.954c1.24-1.852,3.417-4.314,6.443-4.79A2.43,2.43,0,0,1,2173.648,980.491Z" transform="translate(-2145.817 -974.794)"/>
            <path id="Path_17153" data-name="Path 17153" class="cls-7" d="M2191.279,1120.883h-2.59a1.32,1.32,0,0,0,0,2.64h2.59a1.32,1.32,0,1,0,0-2.64Z" transform="translate(-2166.662 -1100.025)"/>
            <rect id="Rectangle_13431" data-name="Rectangle 13431" class="cls-21" width="93.314" height="36.641" rx="5.31" transform="translate(1.949 27.338)"/>
            <g id="Group_22527" data-name="Group 22527" transform="translate(0 42.947)">
              <g id="Group_22526" data-name="Group 22526" transform="translate(0.037)">
                <path id="Rectangle_13432" data-name="Rectangle 13432" class="cls-7" d="M.333,0h0A.333.333,0,0,1,.666.333V1.4a.333.333,0,0,1-.333.333h0A.333.333,0,0,1,0,1.4V.333A.333.333,0,0,1,.333,0Z" transform="translate(2.021 1.784) rotate(-175.52)"/>
                <g id="Group_22525" data-name="Group 22525" transform="translate(0 1.254)">
                  <rect id="Rectangle_13433" data-name="Rectangle 13433" class="cls-7" width="0.843" height="2.836" rx="0.421" transform="translate(0.155 3.214) rotate(-90.73)"/>
                  <path id="Rectangle_13434" data-name="Rectangle 13434" class="cls-7" d="M.422,0h0A.421.421,0,0,1,.843.421V3.143a.422.422,0,0,1-.422.422h0A.421.421,0,0,1,0,3.143V.422A.422.422,0,0,1,.422,0Z" transform="translate(0.011 2.536) rotate(-90.728)"/>
                  <path id="Rectangle_13435" data-name="Rectangle 13435" class="cls-7" d="M.422,0h0A.422.422,0,0,1,.843.422V3.143a.422.422,0,0,1-.422.422h0A.422.422,0,0,1,0,3.142V.422A.422.422,0,0,1,.422,0Z" transform="translate(0.042 0.888) rotate(-90.745)"/>
                  <rect id="Rectangle_13436" data-name="Rectangle 13436" class="cls-7" width="0.843" height="3.819" rx="0.421" transform="translate(0.048 1.716) rotate(-90.745)"/>
                </g>
              </g>
              <path id="Path_17154" data-name="Path 17154" class="cls-7" d="M2009.661,1324.382a5.861,5.861,0,0,0,.094,2.513l.417-.263S2011.208,1325.074,2009.661,1324.382Z" transform="translate(-2009.562 -1322.767)"/>
            </g>
            <g id="Group_22530" data-name="Group 22530" transform="translate(93.308 42.402)">
              <g id="Group_22529" data-name="Group 22529">
                <path id="Rectangle_13437" data-name="Rectangle 13437" class="cls-7" d="M.333,0h0A.333.333,0,0,1,.666.333V1.4a.333.333,0,0,1-.333.333h0A.333.333,0,0,1,0,1.4V.333A.333.333,0,0,1,.333,0Z" transform="translate(1.71 0.052) rotate(-4.48)"/>
                <g id="Group_22528" data-name="Group 22528" transform="translate(0 1.254)">
                  <rect id="Rectangle_13438" data-name="Rectangle 13438" class="cls-7" width="0.843" height="2.836" rx="0.421" transform="translate(0.877 3.178) rotate(-89.274)"/>
                  <rect id="Rectangle_13439" data-name="Rectangle 13439" class="cls-7" width="0.843" height="3.564" rx="0.421" transform="translate(0.293 2.49) rotate(-89.255)"/>
                  <rect id="Rectangle_13440" data-name="Rectangle 13440" class="cls-7" width="0.843" height="3.564" rx="0.421" transform="translate(0.261 0.843) rotate(-89.255)"/>
                  <path id="Rectangle_13441" data-name="Rectangle 13441" class="cls-7" d="M.422,0h0A.421.421,0,0,1,.843.421V3.4a.421.421,0,0,1-.421.421h0A.422.422,0,0,1,0,3.4V.422A.422.422,0,0,1,.422,0Z" transform="translate(0 1.668) rotate(-89.278)"/>
                </g>
              </g>
              <path id="Path_17155" data-name="Path 17155" class="cls-7" d="M2836.847,1319.7a5.862,5.862,0,0,1-.094,2.512l-.417-.263S2835.3,1320.392,2836.847,1319.7Z" transform="translate(-2833.042 -1318.085)"/>
            </g>
            <g id="Group_22533" data-name="Group 22533" transform="translate(35.742 25.383)">
              <g id="Group_22532" data-name="Group 22532" transform="translate(0 0.037)">
                <path id="Rectangle_13442" data-name="Rectangle 13442" class="cls-7" d="M.334,0h0A.334.334,0,0,1,.668.334V1.4a.334.334,0,0,1-.334.334h0A.334.334,0,0,1,0,1.4V.334A.334.334,0,0,1,.334,0Z" transform="matrix(-0.078, -0.997, 0.997, -0.078, 0.052, 2.163)"/>
                <g id="Group_22531" data-name="Group 22531" transform="translate(1.25)">
                  <rect id="Rectangle_13443" data-name="Rectangle 13443" class="cls-7" width="0.841" height="2.845" rx="0.42" transform="translate(3.168 2.999) rotate(-179.255)"/>
                  <path id="Rectangle_13444" data-name="Rectangle 13444" class="cls-7" d="M.42,0h0A.42.42,0,0,1,.84.42V3.154a.42.42,0,0,1-.42.42h0A.42.42,0,0,1,0,3.154V.42A.42.42,0,0,1,.42,0Z" transform="translate(2.483 3.585) rotate(-179.255)"/>
                  <path id="Rectangle_13445" data-name="Rectangle 13445" class="cls-7" d="M.42,0h0A.42.42,0,0,1,.84.42V3.154a.42.42,0,0,1-.42.42h0A.42.42,0,0,1,0,3.154V.42A.42.42,0,0,1,.42,0Z" transform="translate(0.841 3.617) rotate(-179.255)"/>
                  <rect id="Rectangle_13446" data-name="Rectangle 13446" class="cls-7" width="0.841" height="3.831" rx="0.42" transform="translate(1.663 3.879) rotate(-179.255)"/>
                </g>
              </g>
              <path id="Path_17156" data-name="Path 17156" class="cls-7" d="M2330.241,1159.824a5.811,5.811,0,0,1,2.505.094l-.262.419S2330.93,1161.375,2330.241,1159.824Z" transform="translate(-2328.631 -1159.724)"/>
            </g>
            <g id="Group_22536" data-name="Group 22536" transform="translate(49.004 25.25)">
              <g id="Group_22535" data-name="Group 22535" transform="translate(0 0.037)">
                <rect id="Rectangle_13447" data-name="Rectangle 13447" class="cls-7" width="0.668" height="1.732" rx="0.334" transform="matrix(0.078, -0.997, 0.997, 0.078, 2.677, 2.028)"/>
                <g id="Group_22534" data-name="Group 22534">
                  <path id="Rectangle_13448" data-name="Rectangle 13448" class="cls-7" d="M.42,0h0A.42.42,0,0,1,.84.42v2a.42.42,0,0,1-.42.42h0A.42.42,0,0,1,0,2.424v-2A.42.42,0,0,1,.42,0Z" transform="translate(0 0.155) rotate(-0.745)"/>
                  <path id="Rectangle_13449" data-name="Rectangle 13449" class="cls-7" d="M.42,0h0A.42.42,0,0,1,.84.42V3.154a.42.42,0,0,1-.42.42h0A.42.42,0,0,1,0,3.154V.42A.42.42,0,0,1,.42,0Z" transform="translate(0.676 0.011) rotate(-0.73)"/>
                  <rect id="Rectangle_13450" data-name="Rectangle 13450" class="cls-7" width="0.841" height="3.574" rx="0.42" transform="translate(2.318 0.043) rotate(-0.735)"/>
                  <path id="Rectangle_13451" data-name="Rectangle 13451" class="cls-7" d="M.42,0h0A.42.42,0,0,1,.84.42V3.41a.42.42,0,0,1-.42.42h0A.42.42,0,0,1,0,3.41V.42A.42.42,0,0,1,.42,0Z" transform="translate(1.493 0.048) rotate(-0.745)"/>
                </g>
              </g>
              <path id="Path_17157" data-name="Path 17157" class="cls-7" d="M2435.69,1158.683a5.813,5.813,0,0,0-2.5.094l.262.419S2435,1160.235,2435.69,1158.683Z" transform="translate(-2432.845 -1158.584)"/>
            </g>
          </g>
          <g id="Group_22542" data-name="Group 22542" transform="translate(1084.239 193.591)">
            <g id="Group_22541" data-name="Group 22541">
              <g id="Group_22538" data-name="Group 22538">
                <path id="Path_17158" data-name="Path 17158" class="cls-8" d="M2781.766,750.286l-39.08-.1v1.2l39.08.1Z" transform="translate(-2742.686 -750.186)"/>
              </g>
              <g id="Group_22539" data-name="Group 22539" transform="translate(0 4.604)">
                <path id="Path_17159" data-name="Path 17159" class="cls-8" d="M2781.766,789.809l-39.08-.1v1.2l39.08.1Z" transform="translate(-2742.686 -789.708)"/>
              </g>
              <g id="Group_22540" data-name="Group 22540" transform="translate(0 9.208)">
                <path id="Path_17160" data-name="Path 17160" class="cls-8" d="M2773.346,829.319l-30.66-.079v1.2l30.66.079Z" transform="translate(-2742.686 -829.24)"/>
              </g>
            </g>
          </g>
          <g id="Group_22549" data-name="Group 22549" transform="translate(1031.84 254.778)">
            <g id="Group_22548" data-name="Group 22548">
              <g id="Group_22543" data-name="Group 22543">
                <path id="Path_17161" data-name="Path 17161" class="cls-8" d="M2315.238,1275.531l-22.411-.041v.6l22.411.042Z" transform="translate(-2292.827 -1275.49)"/>
              </g>
              <g id="Group_22544" data-name="Group 22544" transform="translate(0 2.328)">
                <path id="Path_17162" data-name="Path 17162" class="cls-8" d="M2315.238,1295.518l-22.411-.041v.6l22.411.041Z" transform="translate(-2292.827 -1295.476)"/>
              </g>
              <g id="Group_22545" data-name="Group 22545" transform="translate(0 4.656)">
                <path id="Path_17163" data-name="Path 17163" class="cls-8" d="M2315.238,1315.5l-22.411-.042v.6l22.411.041Z" transform="translate(-2292.827 -1315.463)"/>
              </g>
              <g id="Group_22546" data-name="Group 22546" transform="translate(0 6.984)">
                <path id="Path_17164" data-name="Path 17164" class="cls-8" d="M2315.238,1335.489l-22.411-.042v.6l22.411.042Z" transform="translate(-2292.827 -1335.448)"/>
              </g>
              <g id="Group_22547" data-name="Group 22547" transform="translate(0 9.312)">
                <path id="Path_17165" data-name="Path 17165" class="cls-8" d="M2307.239,1355.464l-14.412-.027v.6l14.412.027Z" transform="translate(-2292.827 -1355.438)"/>
              </g>
            </g>
          </g>
          <g id="Group_22554" data-name="Group 22554" transform="translate(1065.294 248.227)">
            <g id="Group_22553" data-name="Group 22553">
              <g id="Group_22550" data-name="Group 22550">
                <path id="Path_17166" data-name="Path 17166" class="cls-8" d="M2602.45,1219.284l-22.411-.041v.6l22.411.042Z" transform="translate(-2580.039 -1219.243)"/>
              </g>
              <g id="Group_22551" data-name="Group 22551" transform="translate(0 2.328)">
                <path id="Path_17167" data-name="Path 17167" class="cls-8" d="M2602.45,1239.271l-22.411-.042v.6l22.411.041Z" transform="translate(-2580.039 -1239.23)"/>
              </g>
              <g id="Group_22552" data-name="Group 22552" transform="translate(0 4.656)">
                <path id="Path_17168" data-name="Path 17168" class="cls-8" d="M2587.844,1259.231l-7.8-.015v.6l7.8.014Z" transform="translate(-2580.039 -1259.216)"/>
              </g>
            </g>
          </g>
          <g id="Group_22555" data-name="Group 22555" transform="translate(1007.392 248.754)">
            <path id="Path_17169" data-name="Path 17169" class="cls-8" d="M2103.437,1241.454l-2.864,2.872-17.635-17.687,2.864-2.872Z" transform="translate(-2082.938 -1223.767)"/>
            <path id="Path_17170" data-name="Path 17170" class="cls-8" d="M2085.8,1244.326l-2.864-2.872,17.635-17.687,2.864,2.872Z" transform="translate(-2082.938 -1223.767)"/>
          </g>
          <g id="Group_22556" data-name="Group 22556" transform="translate(1042.888 267.692)">
            <path id="Path_17171" data-name="Path 17171" class="cls-8" d="M2397.927,1395.2l-1.432,1.436-8.818-8.843,1.432-1.436Z" transform="translate(-2387.677 -1386.353)"/>
            <path id="Path_17172" data-name="Path 17172" class="cls-8" d="M2389.109,1396.633l-1.432-1.436,8.818-8.844,1.432,1.436Z" transform="translate(-2387.677 -1386.353)"/>
          </g>
          <g id="Group_22557" data-name="Group 22557" transform="translate(1055.474 248.059)">
            <path id="Path_17173" data-name="Path 17173" class="cls-8" d="M2500.869,1222.239l-.719.72-4.424-4.437.719-.72Z" transform="translate(-2495.726 -1217.802)"/>
            <path id="Path_17174" data-name="Path 17174" class="cls-8" d="M2496.445,1222.96l-.719-.72,4.424-4.437.719.72Z" transform="translate(-2495.726 -1217.802)"/>
          </g>
          <g id="Group_22558" data-name="Group 22558" transform="translate(1068.968 258.746)">
            <path id="Path_17175" data-name="Path 17175" class="cls-8" d="M2626.639,1322.551l-2.1,2.111-12.96-13,2.1-2.111Z" transform="translate(-2611.575 -1309.554)"/>
            <path id="Path_17176" data-name="Path 17176" class="cls-8" d="M2613.68,1324.662l-2.1-2.111,12.96-13,2.1,2.111Z" transform="translate(-2611.575 -1309.554)"/>
          </g>
          <g id="Group_22569" data-name="Group 22569" transform="translate(800.861 186.091)">
            <path id="Path_17177" data-name="Path 17177" class="cls-5" d="M885.2,1375.755c-2.887-1.874-10.718-15.535-10.718-15.535l-8.777,12.629c3.226,1.4,12,15.8,20.9,16.129,1.428.052,2.063-.831,3.622-1.239l-3.554-12.174a1.139,1.139,0,0,1-1.473.19Z" transform="translate(-800.959 -1281.663)"/>
            <path id="Path_17178" data-name="Path 17178" class="cls-10" d="M823.221,1239l8.14,15.681a6.82,6.82,0,0,1-.8,7.469l-13.452,16.384S808.085,1245.592,823.221,1239Z" transform="translate(-755.664 -1174.566)"/>
            <g id="Group_22562" data-name="Group 22562" transform="translate(38.368 18.953)">
              <path id="Path_17179" data-name="Path 17179" class="cls-6" d="M643.7,928.742c-.886,1.2-1.708,2.656-1.36,4.1a16.342,16.342,0,0,1,.552,1.737,5.024,5.024,0,0,1-.927,2.815,2.97,2.97,0,0,0-.3,2.858c.505.808,1.618,1.016,2.2,1.767.867,1.113.39,3.139,1.638,3.783.517.267,1.183.173,1.653.517.658.482.6,1.562,1.215,2.1a1.509,1.509,0,0,0,1.762.01,3.644,3.644,0,0,0,1.174-1.474,4.949,4.949,0,0,0,.617-3.49c-.381-1.365-1.629-2.258-2.494-3.371a5.777,5.777,0,0,1-.579-6.336c.384-.637.909-1.175,1.322-1.793a2.88,2.88,0,0,0,.571-2.1,5.373,5.373,0,0,0-.965-1.745,1.942,1.942,0,0,1-.308-1.894c.149-.28.41-.489.55-.774A1.122,1.122,0,0,0,649,923.9c-.717-.1-1.063.261-1.56.718A29.476,29.476,0,0,0,643.7,928.742Z" transform="translate(-641.148 -915.105)"/>
              <path id="Path_17180" data-name="Path 17180" class="cls-6" d="M757.488,857.885c-.243-1.343-.705-2.8-1.887-3.459a14.666,14.666,0,0,1-1.505-.7,4.528,4.528,0,0,1-1.3-2.37c-.3-.868-.824-1.807-1.721-1.968-.856-.153-1.691.479-2.558.416-1.285-.094-2.34-1.67-3.551-1.215-.5.189-.855.7-1.379.81-.733.152-1.418-.554-2.16-.464a1.419,1.419,0,0,0-1.109,1.2,3.348,3.348,0,0,0,.25,1.711,4.437,4.437,0,0,0,1.945,2.575c1.15.582,2.526.28,3.811.375a5.166,5.166,0,0,1,4.594,3.513c.185.655.216,1.346.37,2.009a2.592,2.592,0,0,0,1.043,1.684,4.833,4.833,0,0,0,1.769.417,1.736,1.736,0,0,1,1.458.958c.094.275.07.582.173.853a1.016,1.016,0,0,0,1.672.264c.514-.429.49-.887.5-1.509a27.162,27.162,0,0,0-.415-5.105Z" transform="translate(-728.513 -848.512)"/>
              <path id="Path_17181" data-name="Path 17181" class="cls-6" d="M668.207,986.609a11.061,11.061,0,0,0,2.2,3.75c.009.009.007.047.015.038a7.921,7.921,0,0,0,2.064-5.493,3.809,3.809,0,0,1-1.193-2.984c-.033-1.8.767-3.28,1.788-3.3a.782.782,0,0,1,.22.073l-7-6.046C665.554,975.848,665.878,980.324,668.207,986.609Z" transform="translate(-662.828 -958.186)"/>
              <g id="Group_22559" data-name="Group 22559" transform="translate(4.922 20.681)">
                <path id="Path_17182" data-name="Path 17182" class="cls-5" d="M684.138,1026.063a3.078,3.078,0,0,0-2.656,3.37,3.028,3.028,0,0,0,2.768,3.24,3.079,3.079,0,0,0,2.656-3.369,3.028,3.028,0,0,0-2.768-3.241Z" transform="translate(-681.481 -1026.063)"/>
              </g>
              <g id="Group_22560" data-name="Group 22560" transform="translate(7.743 8.969)">
                <path id="Path_17183" data-name="Path 17183" class="cls-5" d="M722.173,925.509a10.757,10.757,0,0,1,4.1,8.282l-.777,8.824c.1,5.9-4.512,10.582-8.255,10.336-5.645-.371-11.3-4.142-11.4-10.039l-.141-8.347Z" transform="translate(-705.701 -925.509)"/>
              </g>
              <g id="Group_22561" data-name="Group 22561" transform="translate(5.556 24.507)">
                <path id="Path_17184" data-name="Path 17184" class="cls-5" d="M686.929,1079.442l.511-18.524a2.031,2.031,0,0,1,2.025-2.006l7.873.172a2,2,0,0,1,1.912,2.091l-.508,18.4Z" transform="translate(-686.929 -1058.912)"/>
              </g>
              <path id="Path_17185" data-name="Path 17185" class="cls-6" d="M780.463,989.526l-2.332.067a.63.63,0,0,0-.606.644.62.62,0,0,0,.633.609l2.332-.067a.63.63,0,0,0,.606-.644.62.62,0,0,0-.633-.609Z" transform="translate(-761.416 -973.101)"/>
              <path id="Path_17186" data-name="Path 17186" class="cls-6" d="M859.363,987.26l-2.332.067a.63.63,0,0,0-.606.644.62.62,0,0,0,.633.609l2.332-.067a.63.63,0,0,0,.606-.644.62.62,0,0,0-.633-.609Z" transform="translate(-831.126 -971.099)"/>
              <path id="Path_17187" data-name="Path 17187" class="cls-6" d="M857.709,1009.086c.013.615-.3,1.122-.691,1.133s-.726-.478-.739-1.092.3-1.122.691-1.133S857.7,1008.471,857.709,1009.086Z" transform="translate(-830.996 -989.417)"/>
              <path id="Path_17188" data-name="Path 17188" class="cls-6" d="M782.665,1012.7c.013.615-.3,1.122-.691,1.133s-.726-.478-.739-1.092.3-1.122.691-1.133S782.652,1012.08,782.665,1012.7Z" transform="translate(-764.693 -992.606)"/>
              <path id="Path_17189" data-name="Path 17189" class="cls-22" d="M819.922,1047.05l-.093-.207a1.252,1.252,0,0,1-.856,1.069l-1.205.377a.925.925,0,0,1-1.029-.358l-.023.12a.964.964,0,0,0,1.228,1.11l1.205-.377a1.271,1.271,0,0,0,.773-1.734Z" transform="translate(-796.026 -1023.742)"/>
              <path id="Path_17190" data-name="Path 17190" class="cls-23" d="M755.187,913.827s-4.7-2.659-11.48-.623l2.642,2.167Z" transform="translate(-731.537 -904.991)"/>
              <path id="Path_17191" data-name="Path 17191" class="cls-6" d="M703.918,907.58s-9.216,8.516-21.7,8.352l-.046-7.253,17.458-4.744Z" transform="translate(-677.168 -897.479)"/>
              <path id="Path_17192" data-name="Path 17192" class="cls-6" d="M703.254,976.53l-.084,8.074a10.262,10.262,0,0,0,2.151,7.325,24.134,24.134,0,0,0,3.956,3.242c2.041,1.261,7.09.755,9.226.662,1.994-.087,4.044-2.221,4.4-4.21l.359-6.811s-6.8.794-11.044-.229c-3.466-.835-3.789-1.564-4.8-5.02l-2.009-6.877Z" transform="translate(-695.704 -958.222)"/>
              <path id="Path_17193" data-name="Path 17193" class="cls-8" d="M805.382,1092.092c.087.678.5,1.5,2.126,1.694,0,0,2.386.21,2.146-1.392Z" transform="translate(-786.028 -1063.72)"/>
              <path id="Path_17194" data-name="Path 17194" class="cls-6" d="M640.435,863.964a10.177,10.177,0,0,1-.2,1.618c-.188.634-.626,1.154-.844,1.777-.981,2.8,2.751,5.884,1.354,8.477,1.074-.141,1.757-1.317,2.072-2.426a9.457,9.457,0,0,1,1.136-3.231c1.027-1.355,2.9-1.513,4.248-2.487,1.172-.844,1.931-2.287,3.205-2.938,1.425-.729,3.183-.3,4.6-1.044.949-.5,1.707-1.5,2.756-1.606a13.446,13.446,0,0,0,1.478,0c3.5-.756-.284-5.864-1.465-6.92-1.725-1.543-4.476-3.066-6.806-2.551-2.773.614-3.761,3.617-5.86,5.249C643.926,859.587,640.856,860.645,640.435,863.964Z" transform="translate(-639.227 -852.067)"/>
            </g>
            <g id="Group_22563" data-name="Group 22563" transform="translate(6.187 61.044)">
              <path id="Path_17195" data-name="Path 17195" class="cls-5" d="M658.557,1209.91c-6.493-.291-11.878,1.134-17.366,2.315-.529.114-1.051.238-1.573.363q-.96.23-1.9.487l10.68,9a3.143,3.143,0,0,0,4.861-1.049Z" transform="translate(-605.714 -1209.872)"/>
              <path id="Path_17196" data-name="Path 17196" class="cls-9" d="M637.527,1210.2l-5.067,10.633a3.556,3.556,0,0,1-5.5,1.186l-10.272-8.653c-.946.259-1.863.553-2.772.855l11.812,10.272a5.291,5.291,0,0,0,8.177-1.574l6.393-12.476C639.357,1210.334,638.425,1210.241,637.527,1210.2Z" transform="translate(-584.684 -1210.163)"/>
              <path id="Path_17197" data-name="Path 17197" class="cls-10" d="M421.123,1289.621a29.072,29.072,0,0,0-2.193-5.786c-1.217-2.649-2.4-5.458-2.127-8.576.3-3.419,2.3-6.776,2.847-10.207.393-2.48,0-4.882.112-7.343.251-5.719,3.135-11.142,5.157-16.671a13.831,13.831,0,0,0,.7-2.768c3.351-8.6,2.731-15.868-.849-22.076a8.052,8.052,0,0,0-6.174-3.9h-.039l-6.365,12.42a5.339,5.339,0,0,1-8.252,1.589l-11.765-10.232c-8.024,2.662-14.486,7.039-16.683,14.187-.96,3.124-2.875,8.994-3.521,11.817-.383,1.673-2.075,5.346-2.377,7.578-.214,1.578-1.2,3.07-1.727,4.628-1.031,3.054-.228,6.088-.411,9.166-.35,5.9-4.307,11.781-4.506,17.658-.1,2.905.719,5.719,1.221,8.521Z" transform="translate(-362.946 -1212.007)"/>
            </g>
            <path id="Path_17198" data-name="Path 17198" class="cls-5" d="M321.031,727.278a17.569,17.569,0,0,0,2.771,10.877l9.092,14.4-13.414,8.4L311.8,744.5a20.118,20.118,0,0,1-1.7-11.939c1.685-9.852,6.29-42.025,7.1-46.767l7.355,1.383C324.1,692.676,320.963,728.078,321.031,727.278Z" transform="translate(-309.831 -685.797)"/>
            <path id="Path_17199" data-name="Path 17199" class="cls-10" d="M374.07,1214.563l-.192.157a12.82,12.82,0,0,1-18.316-1.624c-11.421-14.152-10.666-13-12.74-15.8a2.44,2.44,0,0,1,.643-3.46l10.68-6.96a3.179,3.179,0,0,1,3.966.327c4.937,4.706,15.513,16.329,19.6,20.324C380.989,1210.738,377.7,1211.583,374.07,1214.563Z" transform="translate(-338.574 -1128.036)"/>
            <g id="Group_22568" data-name="Group 22568" transform="translate(66.665 28.808)">
              <path id="Path_17200" data-name="Path 17200" class="cls-5" d="M961.654,1230.277c-3.517-11.616-8.543-23.5-9.1-24.823l-.077-.181c-2.626,1.063-3.52,6.505-2.944,9.264,1.563,7.483,3.874,18.832,4.516,22.368l.481,2.652c.076.413,1.419,8.461,1.419,8.461a5.307,5.307,0,0,0,7.08,3.733,4.535,4.535,0,0,0,1.139-.577l.307-.261C965.15,1249.749,966.237,1245.409,961.654,1230.277Z" transform="translate(-941.533 -1173.572)"/>
              <g id="Group_22567" data-name="Group 22567">
                <g id="Group_22564" data-name="Group 22564" transform="translate(7.659 25.522)">
                  <path id="Path_17201" data-name="Path 17201" class="cls-15" d="M971.888,1152.229l-5.59.438.014.1,3.434-.269c-.215,3.631,1.907,7.748,3.158,9.834a1.831,1.831,0,0,1-.467,2.4l-3.2,1.536a2.486,2.486,0,0,0,2.652.256l2.29-1.75a2.4,2.4,0,0,0,.637-3.1C973.547,1159.482,971.686,1155.641,971.888,1152.229Z" transform="translate(-964.156 -1152.229)"/>
                  <path id="Path_17202" data-name="Path 17202" class="cls-6" d="M953.5,1154.517l-3.434.269-2.156.169s1.256,9.048,4.948,13.206a.976.976,0,0,0,1.321.121l.7-.531,1.384-1.057a1.732,1.732,0,0,0,.442-2.269C955.459,1162.363,953.284,1158.191,953.5,1154.517Z" transform="translate(-947.912 -1154.25)"/>
                </g>
                <ellipse id="Ellipse_611" data-name="Ellipse 611" class="cls-10" cx="6.886" cy="8.061" rx="6.886" ry="8.061" transform="matrix(0.994, -0.106, 0.106, 0.994, 0, 12.488)"/>
                <path id="Path_17203" data-name="Path 17203" class="cls-15" d="M1120.68,949.936q.023.187.047.372t.043.372c.844,6.976,3.525,12.651,6.519,14.454a3.668,3.668,0,0,0,2.37.58c3.846-.486,6.1-8,5.04-16.794q-.023-.186-.047-.371t-.043-.372c-1.063-8.789-5.043-15.52-8.889-15.034a3.7,3.7,0,0,0-2.161,1.152C1121.085,936.789,1119.837,942.96,1120.68,949.936Z" transform="translate(-1092.665 -933.118)"/>
                <g id="Group_22566" data-name="Group 22566" transform="translate(4.253 1.15)">
                  <g id="Group_22565" data-name="Group 22565">
                    <path id="Path_17204" data-name="Path 17204" class="cls-10" d="M1128.148,1039.648l-7.73-.195a35.642,35.642,0,0,0,.262,4.432q.023.186.047.371t.043.372a35.556,35.556,0,0,0,.8,4.356l7.424-2.343S1128.2,1039.689,1128.148,1039.648Z" transform="translate(-1096.918 -1028.217)"/>
                    <path id="Path_17205" data-name="Path 17205" class="cls-8" d="M943.323,963.755a35.534,35.534,0,0,1-.8-4.356q-.023-.186-.043-.372t-.047-.371a35.654,35.654,0,0,1-.262-4.432c.024-5.068,1.208-9.261,3.141-11.209v-.027s-7.379,8.609-23.964,10.55a.98.98,0,0,0-.217.053.584.584,0,0,0-.1.006c-1.75.221-2.743,3.914-2.219,8.248q.01.085.021.169c.006.056.013.113.02.17.524,4.334,2.368,7.669,4.118,7.448a.505.505,0,0,0,.094-.018.964.964,0,0,0,.223,0c16.549-2.243,25.757,4.271,25.757,4.271v-.028C946.7,972.444,944.553,968.668,943.323,963.755Z" transform="translate(-918.671 -942.987)"/>
                  </g>
                  <path id="Path_17206" data-name="Path 17206" class="cls-24" d="M1177.823,1044.33c.234,1.931-.408,3.6-1.434,3.731s-2.046-1.331-2.28-3.262.408-3.6,1.434-3.731S1177.59,1042.4,1177.823,1044.33Z" transform="translate(-1144.314 -1029.636)"/>
                </g>
              </g>
              <path id="Path_17207" data-name="Path 17207" class="cls-5" d="M987.082,1174.559c-1.174.282-3.414,1.33-3.013,5.208a3.083,3.083,0,0,0,1.322,2.261c1.11.741,2.958,1.329,5.145-.518,0,0,.865-3.313-2.331-6.618a1.181,1.181,0,0,0-1.123-.333Z" transform="translate(-972.156 -1146.407)"/>
              <path id="Path_17208" data-name="Path 17208" class="cls-5" d="M976.959,1189.129a3.762,3.762,0,0,0-.589.851,1.04,1.04,0,0,0,.037.99c.1.144.251.25.341.4.278.462-.1,1.112.157,1.584.234.423.815.347,1.04.775.137.261.054.6.247.818.4.468.642.128.9.464.089.117.109.35.2.484a.985.985,0,0,0,1.037.186,7.324,7.324,0,0,0,2.344-1.833,2.665,2.665,0,0,0,.579-.648,1.61,1.61,0,0,0,.189-.8,1.7,1.7,0,0,0-.373-1.068,3.3,3.3,0,0,0-1.589-.821,2.172,2.172,0,0,1-1.427-1.025,4.54,4.54,0,0,1-.186-.978.976.976,0,0,0-.535-.787,1.889,1.889,0,0,0-.819.035c-.167.014-.424-.072-.573.013-.185.106-.349.519-.47.692Q977.224,1188.8,976.959,1189.129Z" transform="translate(-965.303 -1158.028)"/>
              <path id="Path_17209" data-name="Path 17209" class="cls-5" d="M952.733,1176.873a1.38,1.38,0,0,0,.127-.638.574.574,0,0,0-.363-.5.888.888,0,0,0-.756.269,8.034,8.034,0,0,0-1.243,1.149l-.835,1.085-.007.036c-.08.165-.73,3.058-.771,3.236-.123.541-.1,1.049-.231,1.578-.289,1.19-.467,4.545.394,5.326.13.118,1.165-1.677,1.333-1.626a.889.889,0,0,0,.773-.171,1.831,1.831,0,0,0,.537-.761,4.214,4.214,0,0,0,.32-1.62,7.2,7.2,0,0,0-.411-2.628,6.507,6.507,0,0,1-.312-.861,3.082,3.082,0,0,1,.037-1.3,2.32,2.32,0,0,1,.447-.967A6.6,6.6,0,0,0,952.733,1176.873Z" transform="translate(-940.699 -1147.456)"/>
            </g>
          </g>
        </g>
      </g>
    </g>
  </g>
</svg>
