<svg xmlns="http://www.w3.org/2000/svg" xmlns:xlink="http://www.w3.org/1999/xlink" width="1300.564" height="180" viewBox="0 0 1300.564 180">
  <defs>
    <style>
      .cls-1 {
        fill: #013f87;
      }

      .cls-2, .cls-5 {
        opacity: 0.8;
      }

      .cls-2 {
        clip-path: url(#clip-path);
      }

      .cls-3 {
        fill: #2b65ee;
        opacity: 0.496;
      }

      .cls-4 {
        fill: #2095d3;
        opacity: 0.3;
      }

      .cls-6 {
        fill: url(#linear-gradient);
      }

      .cls-7 {
        fill: url(#linear-gradient-2);
      }

      .cls-8 {
        fill: #91b3fa;
      }

      .cls-57, .cls-9 {
        fill: #39c1fa;
      }

      .cls-9 {
        opacity: 0.32;
      }

      .cls-10 {
        fill: url(#linear-gradient-3);
      }

      .cls-11 {
        fill: #faab3e;
      }

      .cls-12 {
        fill: url(#linear-gradient-4);
      }

      .cls-13 {
        fill: url(#linear-gradient-5);
      }

      .cls-14 {
        fill: url(#linear-gradient-6);
      }

      .cls-15 {
        fill: url(#linear-gradient-7);
      }

      .cls-16 {
        fill: #ffeb9a;
      }

      .cls-17 {
        fill: url(#linear-gradient-8);
      }

      .cls-18 {
        fill: url(#linear-gradient-9);
      }

      .cls-19 {
        fill: url(#linear-gradient-10);
      }

      .cls-20 {
        fill: url(#linear-gradient-11);
      }

      .cls-21 {
        fill: url(#linear-gradient-12);
      }

      .cls-22 {
        fill: url(#linear-gradient-13);
      }

      .cls-23 {
        fill: url(#linear-gradient-14);
      }

      .cls-24 {
        fill: url(#linear-gradient-15);
      }

      .cls-25 {
        fill: url(#linear-gradient-16);
      }

      .cls-26 {
        fill: url(#linear-gradient-17);
      }

      .cls-27 {
        fill: url(#linear-gradient-18);
      }

      .cls-28 {
        fill: url(#linear-gradient-19);
      }

      .cls-29 {
        fill: url(#linear-gradient-20);
      }

      .cls-30 {
        fill: url(#linear-gradient-22);
      }

      .cls-31 {
        fill: #fff;
      }

      .cls-32 {
        fill: url(#linear-gradient-25);
      }

      .cls-33 {
        fill: url(#linear-gradient-26);
      }

      .cls-34 {
        fill: url(#linear-gradient-27);
      }

      .cls-35 {
        fill: url(#linear-gradient-28);
      }

      .cls-36 {
        fill: url(#linear-gradient-29);
      }

      .cls-37 {
        fill: url(#linear-gradient-30);
      }

      .cls-38 {
        fill: url(#linear-gradient-31);
      }

      .cls-39 {
        fill: url(#linear-gradient-32);
      }

      .cls-40 {
        fill: url(#linear-gradient-33);
      }

      .cls-41 {
        fill: url(#linear-gradient-34);
      }

      .cls-42 {
        fill: #d7e1fc;
      }

      .cls-43 {
        fill: url(#linear-gradient-35);
      }

      .cls-44 {
        fill: url(#linear-gradient-36);
      }

      .cls-45 {
        fill: url(#linear-gradient-37);
      }

      .cls-46 {
        fill: url(#linear-gradient-38);
      }

      .cls-47 {
        fill: url(#linear-gradient-39);
      }

      .cls-48 {
        fill: url(#linear-gradient-40);
      }

      .cls-49 {
        fill: url(#linear-gradient-41);
      }

      .cls-50 {
        fill: url(#linear-gradient-42);
      }

      .cls-51 {
        fill: url(#linear-gradient-43);
      }

      .cls-52 {
        fill: url(#linear-gradient-44);
      }

      .cls-53 {
        fill: url(#linear-gradient-45);
      }

      .cls-54 {
        fill: url(#linear-gradient-46);
      }

      .cls-55 {
        fill: url(#linear-gradient-47);
      }

      .cls-56 {
        fill: url(#linear-gradient-48);
      }

      .cls-58 {
        fill: #29a2d5;
      }

      .cls-59 {
        fill: #bdd0fb;
      }

      .cls-60 {
        opacity: 0.34;
        fill: url(#linear-gradient-50);
      }
    </style>
    <clipPath id="clip-path">
      <path id="Path_17244" data-name="Path 17244" class="cls-1" d="M-1000.564,0H226a73.865,73.865,0,0,1,74,73.728V180H-1000.564Z" transform="translate(1000.564 145)"/>
    </clipPath>
    <linearGradient id="linear-gradient" x1="0.506" y1="-0.282" x2="0.487" y2="0.971" gradientUnits="objectBoundingBox">
      <stop offset="0" stop-color="#09005d"/>
      <stop offset="1" stop-color="#1a0f91"/>
    </linearGradient>
    <linearGradient id="linear-gradient-2" x1="0.499" y1="0.129" x2="0.484" y2="1.298" gradientUnits="objectBoundingBox">
      <stop offset="0" stop-color="#4042e2"/>
      <stop offset="1" stop-color="#4f52ff"/>
    </linearGradient>
    <linearGradient id="linear-gradient-3" x1="0.488" y1="-8.568" x2="0.498" y2="-0.696" xlink:href="#linear-gradient"/>
    <linearGradient id="linear-gradient-4" x1="0.26" y1="2.161" x2="-0.282" y2="6.963" gradientUnits="objectBoundingBox">
      <stop offset="0" stop-color="#fe7062"/>
      <stop offset="1" stop-color="#ff928e"/>
    </linearGradient>
    <linearGradient id="linear-gradient-5" x1="0.876" y1="0.224" x2="1.677" y2="-0.361" gradientUnits="objectBoundingBox">
      <stop offset="0" stop-color="#ff928e"/>
      <stop offset="1" stop-color="#feb3b1"/>
    </linearGradient>
    <linearGradient id="linear-gradient-6" x1="-17.328" y1="0.006" x2="-17.532" y2="3.202" xlink:href="#linear-gradient-2"/>
    <linearGradient id="linear-gradient-7" x1="0.439" y1="0.904" x2="0.562" y2="0.319" xlink:href="#linear-gradient-5"/>
    <linearGradient id="linear-gradient-8" x1="-16.487" y1="-2.158" x2="-16.646" y2="6.275" xlink:href="#linear-gradient-2"/>
    <linearGradient id="linear-gradient-9" x1="-25.163" y1="1.885" x2="-25.394" y2="0.326" xlink:href="#linear-gradient-5"/>
    <linearGradient id="linear-gradient-10" x1="-49.319" y1="-36.82" x2="-49.192" y2="-35.626" xlink:href="#linear-gradient-5"/>
    <linearGradient id="linear-gradient-11" x1="-51.568" y1="10.189" x2="-52.684" y2="11.372" xlink:href="#linear-gradient"/>
    <linearGradient id="linear-gradient-12" x1="-210.832" y1="-118.046" x2="-210.284" y2="-114.24" xlink:href="#linear-gradient-5"/>
    <linearGradient id="linear-gradient-13" x1="0.673" y1="-1.849" x2="0.442" y2="1.441" xlink:href="#linear-gradient-5"/>
    <linearGradient id="linear-gradient-14" x1="-28.532" y1="11.983" x2="-29.212" y2="12.887" xlink:href="#linear-gradient"/>
    <linearGradient id="linear-gradient-15" x1="-6.778" y1="3.434" x2="-7.517" y2="5.871" xlink:href="#linear-gradient"/>
    <linearGradient id="linear-gradient-16" x1="-5.951" y1="0.134" x2="-6.351" y2="0.8" xlink:href="#linear-gradient"/>
    <linearGradient id="linear-gradient-17" x1="-68.153" y1="-0.304" x2="-69.993" y2="1.583" xlink:href="#linear-gradient-2"/>
    <linearGradient id="linear-gradient-18" y1="0.5" x2="1" y2="0.5" gradientUnits="objectBoundingBox">
      <stop offset="0" stop-color="#dae3fe"/>
      <stop offset="1" stop-color="#e9effd"/>
    </linearGradient>
    <linearGradient id="linear-gradient-19" x1="-3.682" y1="0.229" x2="-3.96" y2="0.742" xlink:href="#linear-gradient"/>
    <linearGradient id="linear-gradient-20" x1="0" y1="0.5" x2="1" y2="0.5" xlink:href="#linear-gradient-4"/>
    <linearGradient id="linear-gradient-22" x1="0" y1="0.5" x2="1" y2="0.5" xlink:href="#linear-gradient-5"/>
    <linearGradient id="linear-gradient-25" x1="-48.504" y1="1.065" x2="-48.337" y2="0.071" xlink:href="#linear-gradient-5"/>
    <linearGradient id="linear-gradient-26" x1="4.638" y1="-3.525" x2="2.46" y2="-1.423" gradientUnits="objectBoundingBox">
      <stop offset="0" stop-color="#e1473d"/>
      <stop offset="1" stop-color="#e9605a"/>
    </linearGradient>
    <linearGradient id="linear-gradient-27" x1="2.763" y1="-3.317" x2="1.603" y2="-1.356" xlink:href="#linear-gradient-26"/>
    <linearGradient id="linear-gradient-28" x1="1.556" y1="-3.016" x2="1.052" y2="-1.355" xlink:href="#linear-gradient-26"/>
    <linearGradient id="linear-gradient-29" x1="0" y1="0.5" x2="1" y2="0.5" xlink:href="#linear-gradient"/>
    <linearGradient id="linear-gradient-30" x1="0.526" y1="1.052" x2="0.483" y2="0.16" xlink:href="#linear-gradient-5"/>
    <linearGradient id="linear-gradient-31" x1="1.363" y1="0.064" x2="0.238" y2="0.592" xlink:href="#linear-gradient-5"/>
    <linearGradient id="linear-gradient-32" x1="-0.163" y1="0.857" x2="1.332" y2="-0.089" xlink:href="#linear-gradient-26"/>
    <linearGradient id="linear-gradient-33" x1="-0.066" y1="1.629" x2="0.982" y2="-0.596" xlink:href="#linear-gradient-5"/>
    <linearGradient id="linear-gradient-34" x1="2.146" y1="-9.541" x2="1.688" y2="-8.106" xlink:href="#linear-gradient"/>
    <linearGradient id="linear-gradient-35" x1="-0.16" y1="-0.191" x2="1.984" y2="2.225" gradientUnits="objectBoundingBox">
      <stop offset="0" stop-color="#a22b25"/>
      <stop offset="1" stop-color="#c0423c"/>
    </linearGradient>
    <linearGradient id="linear-gradient-36" x1="-155.683" y1="-0.196" x2="-153.412" y2="2.22" xlink:href="#linear-gradient-35"/>
    <linearGradient id="linear-gradient-37" x1="0.511" y1="-0.189" x2="0.467" y2="2.505" xlink:href="#linear-gradient"/>
    <linearGradient id="linear-gradient-38" x1="0.532" y1="-0.192" x2="0.925" y2="-8.689" xlink:href="#linear-gradient-2"/>
    <linearGradient id="linear-gradient-39" x1="0.152" y1="-0.561" x2="1.194" y2="-0.561" xlink:href="#linear-gradient-2"/>
    <linearGradient id="linear-gradient-40" x1="2.58" y1="-4.058" x2="-0.86" y2="3.366" xlink:href="#linear-gradient-35"/>
    <linearGradient id="linear-gradient-41" x1="-135.787" y1="-2.223" x2="-134.741" y2="-2.223" xlink:href="#linear-gradient-2"/>
    <linearGradient id="linear-gradient-42" x1="3.788" y1="-6.36" x2="0.301" y2="1.144" xlink:href="#linear-gradient-35"/>
    <linearGradient id="linear-gradient-43" x1="0.553" y1="0.25" x2="0.889" y2="-1.494" xlink:href="#linear-gradient-2"/>
    <linearGradient id="linear-gradient-44" x1="0.625" y1="-0.433" x2="0.476" y2="0.704" xlink:href="#linear-gradient-2"/>
    <linearGradient id="linear-gradient-45" x1="0.511" y1="1.753" x2="0.489" y2="-0.794" gradientUnits="objectBoundingBox">
      <stop offset="0" stop-color="#c4421b"/>
      <stop offset="1" stop-color="#5c0e16"/>
    </linearGradient>
    <linearGradient id="linear-gradient-46" x1="2.756" y1="-6.786" x2="2.834" y2="-8.174" xlink:href="#linear-gradient-35"/>
    <linearGradient id="linear-gradient-47" x1="2.11" y1="-10.352" x2="1.656" y2="-8.777" xlink:href="#linear-gradient"/>
    <linearGradient id="linear-gradient-48" x1="3.499" y1="-2.194" x2="4.249" y2="-10.667" xlink:href="#linear-gradient-35"/>
    <linearGradient id="linear-gradient-50" x1="19.515" y1="18.295" x2="20.518" y2="18.295" xlink:href="#linear-gradient-18"/>
  </defs>
  <g id="Group_14267" data-name="Group 14267" transform="translate(0 -145)">
    <g id="Group_25218" data-name="Group 25218">
      <path id="Path_17229" data-name="Path 17229" class="cls-1" d="M-1000.564,0H226a73.865,73.865,0,0,1,74,73.728V180H-1000.564Z" transform="translate(1000.564 145)"/>
      <g id="Group_25217" data-name="Group 25217">
        <g id="Group_25216" data-name="Group 25216">
          <g id="Mask_Group_54" data-name="Mask Group 54" class="cls-2">
            <path id="Path_16995" data-name="Path 16995" class="cls-3" d="M720.445,0C686.77,14.564,701.31,44.367,664.888,54.322c-34.8,9.511-73.58-1.18-108.342,8.433-13.855,3.831-26.2,14.364-37.871,24.621q-.789.693-1.57,1.392a181.448,181.448,0,0,0-42.144,55.972l-35.867,73.8H923.745s43.361-167.953-71.17-178.793-89.4,0-89.4,0V0Z" transform="translate(376.824 106.21)"/>
            <circle id="Ellipse_576" data-name="Ellipse 576" class="cls-4" cx="250.5" cy="250.5" r="250.5" transform="translate(953 -148)"/>
          </g>
        </g>
      </g>
    </g>
    <g id="Group_14223" data-name="Group 14223" class="cls-5" transform="translate(19217 11960.986)">
      <path id="Path_51903" data-name="Path 51903" class="cls-6" d="M597.265,572.929a3.73,3.73,0,0,1-3.721,3.718H392.313a3.73,3.73,0,0,1-3.721-3.718l-1.674-115.642a6.48,6.48,0,0,1,6.824-5.737l196.665-5.089a9.378,9.378,0,0,1,9.622,9.591Z" transform="translate(-18798.174 -12235.832)"/>
      <path id="Path_51904" data-name="Path 51904" class="cls-7" d="M627.435,598.354a3.531,3.531,0,0,1-3.521,3.521H431.01a3.531,3.531,0,0,1-3.521-3.521l-1.58-104.981c.186-6.318,5.725-8.588,9.082-8.454l188.486-5.057a6.591,6.591,0,0,1,6.762,6.744Z" transform="translate(-18832.018 -12264.824)"/>
      <path id="Path_51905" data-name="Path 51905" class="cls-8" d="M451.167,938.312a.255.255,0,0,1-.255-.252l-.125-8.514a.256.256,0,0,1,.252-.259.266.266,0,0,1,.259.252l.125,8.514a.256.256,0,0,1-.252.259Z" transform="translate(-18853.611 -12654.916)"/>
      <path id="Path_51906" data-name="Path 51906" class="cls-8" d="M446.52,564.877a.255.255,0,0,1-.255-.252l-.479-32.608a6.875,6.875,0,0,1,1.985-5.154c2.381-2.281,6.108-2.166,6.265-2.16l60.194-1.615a.252.252,0,0,1,.262.248.255.255,0,0,1-.248.262l-60.208,1.615c-.167-.005-3.686-.114-5.911,2.018a6.381,6.381,0,0,0-1.828,4.783l.479,32.6a.256.256,0,0,1-.252.259Z" transform="translate(-18849.27 -12302.345)"/>
      <path id="Path_51907" data-name="Path 51907" class="cls-9" d="M499.7,644.389c.2-8.677.127-85.512-.371-92.148s9.837-7.881,25.7-8.627,149.744-3.7,153.192-3.983c7.748-.628,9.352,10.953,8.577,36.095-.582,18.889-1.548,50-1.992,64.315a7.9,7.9,0,0,1-7.878,7.653c-32.216.089-155.692.442-163.912.687C503.557,648.662,499.617,647.829,499.7,644.389Z" transform="translate(-18895.727 -12316.683)"/>
      <rect id="Rectangle_13826" data-name="Rectangle 13826" class="cls-10" width="237.243" height="10.161" rx="5.08" transform="translate(-18421.824 -11659.747)"/>
      <circle id="Ellipse_122" data-name="Ellipse 122" class="cls-8" cx="43.582" cy="43.582" r="43.582" transform="translate(-18345.262 -11766.821)"/>
      <path id="Path_51908" data-name="Path 51908" class="cls-11" d="M985.926,967.317a1.667,1.667,0,0,1-1.3-.045l-29.983-13.735,2.129,17.474a6.008,6.008,0,0,0,3.851,5.122c18.688,6.08,36.181,7.443,51.443,0a5.913,5.913,0,0,0,2.96-3.685l5.453-18.232Z" transform="translate(-19290.945 -12675.964)"/>
      <path id="Path_51909" data-name="Path 51909" class="cls-11" d="M855.648,725.8l47.2-19.466a1.667,1.667,0,0,1,1.277,0l46.682,19.039a2.375,2.375,0,0,1-.04,4.243l-51.882,19.668a1.667,1.667,0,0,1-1.3-.046l-42-19.241A2.385,2.385,0,0,1,855.648,725.8Z" transform="translate(-19203.908 -12461.282)"/>
      <path id="Path_51910" data-name="Path 51910" class="cls-11" d="M1535.99,968.789s-10.247,14.224-.671,23.311a.662.662,0,0,0,1.078-.225l3.636-7.387C1542.733,979,1535.99,968.789,1535.99,968.789Z" transform="translate(-19791.408 -12689.202)"/>
      <path id="Path_51911" data-name="Path 51911" class="cls-12" d="M1560.2,918.878h-1.031v-9.565l1.95-.662Z" transform="translate(-19815.66 -12637.004)"/>
      <g id="Group_14200" data-name="Group 14200" transform="translate(-18407.268 -11670.459)">
        <rect id="Rectangle_13827" data-name="Rectangle 13827" class="cls-8" width="1.576" height="17.039" transform="translate(9.736 20.857) rotate(180)"/>
        <path id="Rectangle_13828" data-name="Rectangle 13828" class="cls-8" d="M0,0H13.8a0,0,0,0,1,0,0V0a1.026,1.026,0,0,1-1.026,1.026H1.026A1.026,1.026,0,0,1,0,0V0A0,0,0,0,1,0,0Z" transform="translate(15.848 21.186) rotate(180)"/>
        <rect id="Rectangle_13829" data-name="Rectangle 13829" class="cls-8" width="17.351" height="4.921" rx="2.46"/>
      </g>
      <g id="Group_14201" data-name="Group 14201" transform="translate(-18409.041 -11681.202)">
        <path id="Path_51933" data-name="Path 51933" class="cls-13" d="M535.916,1290.023a13.715,13.715,0,0,1,4.974,2.123,1.312,1.312,0,0,1,.579,1.254,55.625,55.625,0,0,1-5.885,18.471,1.988,1.988,0,0,0-.191,1.363l.742,3.455,1.377,1.291h-3.547l-2.361-6.39,1.01-.319a1.91,1.91,0,0,0,1.334-1.789l.119-6.855a7.8,7.8,0,0,1,1.873-5.161l-5.664-.275Z" transform="translate(-513.562 -1286.823)"/>
        <path id="Path_51934" data-name="Path 51934" class="cls-14" d="M542.612,1458.188c.323.423-3.476.981-5.4.056,0,0-2.661-4.63-2.661-7.013,0,0,.211-.486,1.774-.376,0,0,.893,5.481,1.837,6.1a3.764,3.764,0,0,0,2.639.062A5.555,5.555,0,0,1,542.612,1458.188Z" transform="translate(-517.277 -1426.407)"/>
        <path id="Path_51935" data-name="Path 51935" class="cls-15" d="M535.7,1303.351c.03-.052,6.1-.73,6.1-.73a14.027,14.027,0,0,0,.422,4.385c.621,2.54,9.53,13.543,9.53,13.543l-.934,2.961a15.025,15.025,0,0,0,8.525.513l-5.789-3.474s-5.418-18.464-8.737-21.757l-6.082-2.1Z" transform="translate(-518.273 -1292.608)"/>
        <path id="Path_51936" data-name="Path 51936" class="cls-16" d="M407.5,1265.785s-3.5,5.2-3.783,7.572.958,3.336,4.626,3.495,13.461.156,13.461.156l8.358-7.143s-6.091-2.173-7.674-2.788S407.5,1265.785,407.5,1265.785Z" transform="translate(-403.677 -1265.785)"/>
        <path id="Path_51937" data-name="Path 51937" class="cls-17" d="M649.176,1492.3a1.711,1.711,0,0,0-.326,2.058s7.967,1.412,10.13.772c0,0-.449-1.025-2.885-2.192l.18.138a.291.291,0,0,1-.192.522A22.406,22.406,0,0,1,649.176,1492.3Z" transform="translate(-616.276 -1462.398)"/>
      </g>
      <g id="Group_14202" data-name="Group 14202" transform="translate(-18410.9 -11715.251)">
        <path id="Path_51938" data-name="Path 51938" class="cls-16" d="M418.8,1136.65a79.825,79.825,0,0,0,6.075-6.444,5.447,5.447,0,0,0,.922-4.9,67.652,67.652,0,0,0-2.689-6.772c-.227-.762-4.792-.73-4.792-.73s-8.983,5.83-12.512,15.705l3.964,1.234a46.321,46.321,0,0,1,4.663-6.436s-4.01,5.3-4.151,7.466Z" transform="translate(-403.67 -1103.289)"/>
        <path id="Path_51939" data-name="Path 51939" class="cls-18" d="M507.323,1087.047c-.048.158-1.239,4.108-1.332,4.19a6.67,6.67,0,0,1-3.8-.593l2.012-4.212Z" transform="translate(-487.328 -1076.062)"/>
        <path id="Path_51940" data-name="Path 51940" class="cls-19" d="M521.272,1043.432a8.047,8.047,0,0,1,.487,5.38c-.691,3.365-2.425,3.859-3.642,3.2a6.422,6.422,0,0,1-3.376-4.825C514.207,1044.275,519.678,1040.894,521.272,1043.432Z" transform="translate(-498.189 -1037.963)"/>
        <path id="Path_51941" data-name="Path 51941" class="cls-20" d="M503.243,1025.617s1.425-4.613,4.685-2.241l.362,1.1s2.695-1.132,1.472-3.551a5.164,5.164,0,0,0-7.553-1.73c-2.787,2-3.568,4.054-3.129,6.337s2.069,1.286,2.069,1.286.127-1.733.9-2.132.912.885.912.885Z" transform="translate(-484.528 -1016.852)"/>
        <path id="Path_51942" data-name="Path 51942" class="cls-21" d="M516.514,1060.314s.746-2.367-.689-2.276-.584,2.265-.2,3.05Z" transform="translate(-498.464 -1051.415)"/>
        <path id="Path_51943" data-name="Path 51943" class="cls-22" d="M421.063,1240.191l-2.991-2.883-4.138,1.748s-4.119.638-6.476,0l-2.357-.638-5.327-1.659-.837,2.365a1.424,1.424,0,0,0,.52,1.636,9.4,9.4,0,0,0,1.345.838c.7.307,17.293-.212,17.293-.212Z" transform="translate(-397.634 -1206.542)"/>
        <path id="Path_51944" data-name="Path 51944" class="cls-23" d="M407.221,1011.026a.922.922,0,0,0,.259-1.613c-1.893-1.463-5.231-2.871-9,.831-4.242,4.17-6.588,6.131-7.827,6.02a.927.927,0,0,0-.865,1.466,3.933,3.933,0,0,0,2.121,1.267C400.466,1021.519,403.06,1012.281,407.221,1011.026Z" transform="translate(-389.605 -1007.886)"/>
      </g>
      <g id="Group_14203" data-name="Group 14203" transform="translate(-18399.527 -11695.998)">
        <path id="Path_51945" data-name="Path 51945" class="cls-24" d="M476.477,1262.715h.04l17.351-.019a.777.777,0,0,0,0-1.553l-17.351.019a.777.777,0,0,0-.038,1.552Z" transform="translate(-475.739 -1246.961)"/>
        <path id="Path_51946" data-name="Path 51946" class="cls-25" d="M575.9,1153.721H561.45a2.754,2.754,0,0,0-2.491,1.579l-6.68,14.165h17.958a1.673,1.673,0,0,0,1.557-1.058l5.18-13.108A1.154,1.154,0,0,0,575.9,1153.721Z" transform="translate(-542.174 -1153.721)"/>
        <path id="Path_51947" data-name="Path 51947" class="cls-26" d="M653.169,1199.219c-.313.973-.082,1.918.517,2.11s1.337-.44,1.651-1.413.082-1.918-.517-2.11S653.482,1198.246,653.169,1199.219Z" transform="translate(-629.623 -1191.955)"/>
      </g>
      <g id="Group_14205" data-name="Group 14205" transform="translate(-18423.055 -11680.409)">
        <g id="Group_14204" data-name="Group 14204" transform="translate(0.939 1.352)">
          <path id="Path_51948" data-name="Path 51948" class="cls-8" d="M728.859,1315.038a.623.623,0,0,0,.251-.053.656.656,0,0,0,.333-.854l-13.326-31.7a.63.63,0,0,0-.835-.34.656.656,0,0,0-.333.854l13.326,31.7A.635.635,0,0,0,728.859,1315.038Z" transform="translate(-660.734 -1282.042)"/>
          <path id="Path_51949" data-name="Path 51949" class="cls-8" d="M702.764,1315.037a.635.635,0,0,0,.584-.394l13.326-31.7a.656.656,0,0,0-.333-.854.63.63,0,0,0-.835.34l-13.326,31.7a.656.656,0,0,0,.333.854A.621.621,0,0,0,702.764,1315.037Z" transform="translate(-649.651 -1282.041)"/>
          <path id="Path_51950" data-name="Path 51950" class="cls-8" d="M331.379,1315.038a.623.623,0,0,0,.251-.053.656.656,0,0,0,.333-.854l-13.326-31.7a.63.63,0,0,0-.835-.34.656.656,0,0,0-.333.854l13.326,31.7A.635.635,0,0,0,331.379,1315.038Z" transform="translate(-315.731 -1282.042)"/>
          <path id="Path_51951" data-name="Path 51951" class="cls-8" d="M305.285,1315.037a.635.635,0,0,0,.584-.394l13.326-31.7a.656.656,0,0,0-.333-.854.63.63,0,0,0-.835.34l-13.326,31.7a.656.656,0,0,0,.333.854A.621.621,0,0,0,305.285,1315.037Z" transform="translate(-304.649 -1282.041)"/>
        </g>
        <path id="Path_51952" data-name="Path 51952" class="cls-27" d="M297.552,1272.6a.641.641,0,0,1,.151-.555.736.736,0,0,1,.552-.244h72.405a.838.838,0,0,1,.694.356.73.73,0,0,1,.054.74l-.785,1.592a1.106,1.106,0,0,1-1,.6H298.752a.82.82,0,0,1-.817-.632Z" transform="translate(-297.539 -1271.797)"/>
      </g>
      <path id="Path_51953" data-name="Path 51953" class="cls-28" d="M1806.309,1104.332s7.018,3.887,7.6,10.467.048,33.887-14.023,40.608-32.7,5.172-39.828,4.437-11.083-5.58-11.966-8.916-2.309-15.764,5.191-19.773,15.378-10.15,23.25-16.131S1797.893,1099.281,1806.309,1104.332Z" transform="translate(-19979.01 -12805.633)"/>
      <path id="Path_51954" data-name="Path 51954" class="cls-29" d="M1754.312,1333.9s1.894.1,2.126,4a22.5,22.5,0,0,1-10.324,4.874c-.445.07.623-3.04.783-3.461C1747.661,1337.3,1750.067,1336.01,1754.312,1333.9Z" transform="translate(-19977.83 -13006.107)"/>
      <path id="Path_51955" data-name="Path 51955" class="cls-8" d="M1794.862,1203.279h-1.9a4.856,4.856,0,0,1-3.49-1.476c-3.148-3.249-11.017-10.9-17.237-13a2.1,2.1,0,0,0-2.57,1.111c-1.3,2.77-3.12,9.218,1.194,18.975a1.945,1.945,0,0,0,2.817.884,1.593,1.593,0,0,0,.606-.739l-.474-11.406s10.464,9.152,12.283,10.918S1797.153,1209.233,1794.862,1203.279Z" transform="translate(-19997.049 -12880.07)"/>
      <path id="Path_51956" data-name="Path 51956" class="cls-29" d="M1677.494,1491.064a15.026,15.026,0,0,1,8.2-3.587l1.3.8a14.2,14.2,0,0,1-2.348,2.52,16.408,16.408,0,0,1-5.334,2.145C1677.574,1493.17,1677.318,1492.121,1677.494,1491.064Z" transform="translate(-19918.32 -13139.411)"/>
      <path id="Path_51957" data-name="Path 51957" class="cls-30" d="M1741.583,1361.669c1.032.334,1.486,1.8,4.1.829a23.18,23.18,0,0,0,5.385-2.837c.022.188.04.385.052.6,0,0-4.631,4.4-10.563,5.342a.591.591,0,0,1-.638-.8A14.91,14.91,0,0,1,1741.583,1361.669Z" transform="translate(-19972.514 -13028.47)"/>
      <path id="Path_51958" data-name="Path 51958" class="cls-30" d="M1666.81,1514.123a13.817,13.817,0,0,1,1.262-1.253c-.176,1.058.08,2.107,1.816,1.876a16.411,16.411,0,0,0,5.335-2.145,11.532,11.532,0,0,1-7.766,2.981A.881.881,0,0,1,1666.81,1514.123Z" transform="translate(-19908.898 -13161.217)"/>
      <path id="Path_51959" data-name="Path 51959" class="cls-30" d="M1867.951,1199.424s-3.074,8.853-9.065,2.115l-.57-.253h0l-4.294-2.935.478,1.7a3.178,3.178,0,0,0,1.85,2.078l.566.233c1.077,2.237,3.383,5.628,6.936,6.271,5.331.965,8.065-6.238,8.065-6.238Z" transform="translate(-20071.584 -12888.456)"/>
      <path id="Path_51960" data-name="Path 51960" class="cls-8" d="M1763.176,1321.1l-18.716.2s-10.689,8.843-12.627,22.328c0,0-.322.992,1.61,1.161a37.1,37.1,0,0,0,10.676-11.682c5.167-9.15,15.4-5.031,15.4-5.031,3.363-2.424,8.115-2.918,11.7-3.726Z" transform="translate(-19965.508 -12994.997)"/>
      <path id="Path_51961" data-name="Path 51961" class="cls-31" d="M1955.8,1158.11a53.928,53.928,0,0,0,2.784-12.28,26.458,26.458,0,0,0-2.724-2.062.757.757,0,0,1-.3-.982,58.3,58.3,0,0,1,5.777-7.948c1.9-.473,9.675-4.172,15.154,3.322,2.351,3.216-.467,13.116-11.133,23.368l-2.2.421Z" transform="translate(-20159.65 -12832.175)"/>
      <path id="Path_51962" data-name="Path 51962" class="cls-32" d="M2019.959,1079.339l3.357,7.839a.51.51,0,0,1-.2.569,5.188,5.188,0,0,1-4.828.485.757.757,0,0,1-.487-.651l-.584-5.53Z" transform="translate(-20213.234 -12785.157)"/>
      <path id="Path_51963" data-name="Path 51963" class="cls-33" d="M1978.092,1183.188a.128.128,0,0,1-.128-.128,28.444,28.444,0,0,1,1.083-6.567.128.128,0,1,1,.245.072,28.154,28.154,0,0,0-1.072,6.494.128.128,0,0,1-.127.128Z" transform="translate(-20179.162 -12869.405)"/>
      <path id="Path_51964" data-name="Path 51964" class="cls-34" d="M2031.885,1197.315a.125.125,0,0,1-.052-.011.128.128,0,0,1-.065-.168,33.387,33.387,0,0,0,2.24-6.981.126.126,0,0,1,.143-.111.128.128,0,0,1,.111.143,33.644,33.644,0,0,1-2.26,7.052A.128.128,0,0,1,2031.885,1197.315Z" transform="translate(-20225.854 -12881.246)"/>
      <path id="Path_51965" data-name="Path 51965" class="cls-35" d="M2068.556,1222.485l-.716-.608a.128.128,0,0,1,.165-.194l.558.474c3.5-2.757,4.732-8.1,4.744-8.156a.128.128,0,0,1,.249.056c-.012.055-1.284,5.573-4.918,8.365Z" transform="translate(-20257.135 -12901.954)"/>
      <path id="Path_51966" data-name="Path 51966" class="cls-36" d="M1835.264,1180.043l-.3.413a.439.439,0,0,0,.107.622l6.765,4.621a.44.44,0,0,0,.569-.063h0a.439.439,0,0,0-.051-.647l-6.464-5.034A.44.44,0,0,0,1835.264,1180.043Z" transform="translate(-20054.967 -12872.409)"/>
      <path id="Path_51967" data-name="Path 51967" class="cls-31" d="M1871.28,1282.554a.713.713,0,0,0-.592.756c.008,1.318.239,4.055,1.984,4.584,2.18.662,4.655-.389,4.071-4.882a.863.863,0,0,0-.853-.828Z" transform="translate(-20086.051 -12961.22)"/>
      <path id="Path_51968" data-name="Path 51968" class="cls-37" d="M1873.283,1255.209s11.324,0,17.077-8.937l3.379,3.09s-6.764,11.589-19.5,7.246a12.89,12.89,0,0,1-4.6.147,2.737,2.737,0,0,1-1.7-1.771.5.5,0,0,1,.626-.642A12.928,12.928,0,0,0,1873.283,1255.209Z" transform="translate(-20083.637 -12930.051)"/>
      <path id="Path_51969" data-name="Path 51969" class="cls-31" d="M1913.083,1286.4s.687-1.853,1.865-.509-.736,2.374-1.865,2.521v-.489s1.318-.591,1.15-1.376-1.15.2-1.15.2Z" transform="translate(-20122.846 -12964.015)"/>
      <path id="Path_51970" data-name="Path 51970" class="cls-31" d="M1877.858,1223.635a3.258,3.258,0,0,1,1.181.685,2.106,2.106,0,0,1,.658,1.2,1.712,1.712,0,0,1-.024.695,1.587,1.587,0,0,1-.313.619,5.533,5.533,0,0,1-1.021.868,2.281,2.281,0,0,0-.81.982.983.983,0,0,0-.028.62,1.066,1.066,0,0,0,.363.513,7.22,7.22,0,0,0,1.155.628,2.045,2.045,0,0,1,.524.409.931.931,0,0,1,.251.6.006.006,0,0,1-.006.007.007.007,0,0,1-.007-.006.91.91,0,0,0-.259-.586,2.014,2.014,0,0,0-.525-.39,7.223,7.223,0,0,1-1.18-.609,1.146,1.146,0,0,1-.4-.543,1.079,1.079,0,0,1,.015-.681,2.4,2.4,0,0,1,.826-1.054,5.438,5.438,0,0,0,.974-.864,1.44,1.44,0,0,0,.276-1.179,1.9,1.9,0,0,0-.619-1.067,3.02,3.02,0,0,0-1.108-.608.128.128,0,0,1,.077-.244Z" transform="translate(-20091.844 -12910.396)"/>
      <path id="Path_51971" data-name="Path 51971" class="cls-31" d="M1892.177,1249.46c-.217.449-.637.659-.837,1a.636.636,0,0,0-.1.527.887.887,0,0,0,.358.441c.321.237.8.36,1.05.78a.878.878,0,0,1-.386,1.2.063.063,0,1,1-.052-.115.738.738,0,0,0,.3-1,1.172,1.172,0,0,0-.452-.389c-.181-.1-.384-.187-.572-.316a1.081,1.081,0,0,1-.447-.536.854.854,0,0,1,.111-.7c.243-.405.649-.633.795-.985a.128.128,0,1,1,.236.1Z" transform="translate(-20103.682 -12932.658)"/>
      <g id="Group_14207" data-name="Group 14207" transform="translate(-18204.256 -11712.035)">
        <path id="Path_51972" data-name="Path 51972" class="cls-38" d="M1971.723,1054.209c-.005.129,2.553,8.245,2.553,8.245l4.6-1.56-1.282-8.053S1971.808,1052.056,1971.723,1054.209Z" transform="translate(-1969.489 -1050.002)"/>
        <path id="Path_51973" data-name="Path 51973" class="cls-39" d="M1961.657,1036.576a.7.7,0,0,1,.392.474l.992,4.126a.688.688,0,0,1,.019.19c-.016.355-.158,1.48-1.319,1.278a6.16,6.16,0,0,0-2.537-.122.7.7,0,0,0-.455.881,26.068,26.068,0,0,0,1.417,3.576.7.7,0,0,0,.886.325,19.378,19.378,0,0,0,3.848-2.065.7.7,0,0,0,.274-.663c-.165-1.122-.614-4.27-.6-5.178.009-.844.953-1.456,1.408-1.7a.7.7,0,0,0,.346-.443,1.538,1.538,0,0,0-1.227-2.076.7.7,0,0,1-.511-.828,1.545,1.545,0,0,0-1.113-1.978,2.178,2.178,0,0,0-2.491.829.725.725,0,0,1-.839.231.461.461,0,0,0-.456.05.678.678,0,0,1-.949-.183,1.788,1.788,0,0,0-2.148-.762c-2.075.582-2.07,2.949-1.369,4.262s2.914.554,3.98-.256A2.525,2.525,0,0,1,1961.657,1036.576Z" transform="translate(-1954.801 -1032.248)"/>
        <path id="Path_51974" data-name="Path 51974" class="cls-40" d="M2027.534,1075.6s-1.123-2.342-.293-3.031,2.184-.518,2.077,1.275C2029.186,1076.071,2027.534,1075.6,2027.534,1075.6Z" transform="translate(-2017.412 -1066.919)"/>
      </g>
      <g id="Group_14211" data-name="Group 14211" transform="translate(-18293.631 -11696.578)">
        <path id="Path_51975" data-name="Path 51975" class="cls-41" d="M1397.57,1165.587c-.041.078-1.292.96-1.292.96s-.869,4.788.725,7.145,7.028-1.84,7.028-1.84,3.056-.478,4.591-6.487c.352-1.379-1.85-.331-4.3-.077C1401.154,1165.615,1397.57,1165.587,1397.57,1165.587Z" transform="translate(-1380.436 -1162.642)"/>
        <path id="Path_51976" data-name="Path 51976" class="cls-42" d="M1341.283,1263.9a10.428,10.428,0,0,1,3.17-1.475c.426-.116,2.725.552,4.146.52,1.951-.045,3.937-.933,5.545-.532a11.6,11.6,0,0,1,3.66,1.455c2.26,1.607,3.587,4.6,4.4,7.573a10.347,10.347,0,0,1-3.458,2.27l-.356,14.429-8.532,4.365-9.739-4.889.349-14.1s-3.092-1.44-3.319-1.964S1338.554,1265.771,1341.283,1263.9Z" transform="translate(-1329.297 -1247.389)"/>
        <path id="Path_51977" data-name="Path 51977" class="cls-43" d="M1332.425,1331.829s-4.144,11.489,5.306,16.211c1.962-.261,1.207-3.519,1.207-3.519s-4.106-.909-2.873-10.493A26.528,26.528,0,0,0,1332.425,1331.829Z" transform="translate(-1324.433 -1307.734)"/>
        <path id="Path_51978" data-name="Path 51978" class="cls-44" d="M1481.789,1331.829s2.852,11.993-5.306,16.211c-1.962-.261-1.207-3.519-1.207-3.519s3.309-1.63,2.873-10.493A26.537,26.537,0,0,1,1481.789,1331.829Z" transform="translate(-1449.085 -1307.734)"/>
        <rect id="Rectangle_13830" data-name="Rectangle 13830" class="cls-45" width="18.71" height="12.636" rx="6.318" transform="translate(10.706 28.477)"/>
        <path id="Path_51979" data-name="Path 51979" class="cls-46" d="M1422.752,1383.684a1.142,1.142,0,0,1-.93,1.378,1.227,1.227,0,0,1-1.393-1.034,1.166,1.166,0,0,1,.878-1.435A1.321,1.321,0,0,1,1422.752,1383.684Z" transform="translate(-1401.588 -1351.786)"/>
        <g id="Group_14209" data-name="Group 14209" transform="translate(28.841 44.479)">
          <path id="Path_51980" data-name="Path 51980" class="cls-47" d="M1512.681,1487.142a37.715,37.715,0,0,0-7.09-.227l-.2.545-.333,2.709a56.309,56.309,0,0,0,7.036.848,2.194,2.194,0,0,0,.652-.1c.071-.063.14-.129.206-.2A2.554,2.554,0,0,0,1512.681,1487.142Z" transform="translate(-1503.899 -1486.763)"/>
          <path id="Path_51981" data-name="Path 51981" class="cls-48" d="M1496.566,1486.226l.838.036a1.613,1.613,0,0,1,1.177.609,1.986,1.986,0,0,1,.432,1.359,1.564,1.564,0,0,1-.453,1.034,1.269,1.269,0,0,1-.981.372l-1.282-.091Z" transform="translate(-1496.297 -1486.226)"/>
        </g>
        <g id="Group_14210" data-name="Group 14210" transform="translate(0 44.406)">
          <path id="Path_51982" data-name="Path 51982" class="cls-49" d="M1278.773,1485.868a37.713,37.713,0,0,1,7.093-.01l.188.551.266,2.719a56.211,56.211,0,0,1-7.054.631,2.182,2.182,0,0,1-.649-.117c-.069-.066-.137-.134-.2-.207A2.551,2.551,0,0,1,1278.773,1485.868Z" transform="translate(-1277.841 -1485.677)"/>
          <path id="Path_51983" data-name="Path 51983" class="cls-50" d="M1333.007,1486.231l-.839.01a1.605,1.605,0,0,0-1.192.572,1.978,1.978,0,0,0-.465,1.345,1.573,1.573,0,0,0,.427,1.047,1.276,1.276,0,0,0,.971.4l1.284-.052Z" transform="translate(-1323.556 -1486.158)"/>
        </g>
        <path id="Path_51984" data-name="Path 51984" class="cls-51" d="M1373.438,1410.876c-.971-2.235-3.346-2.6-5.368-1.553-.035.046-12.837,6.607-24.127,9.483a12.275,12.275,0,0,1,.526,3.222q.01.363-.012.715c8.658-.445,18.054-3.332,26.128-5.869A4.463,4.463,0,0,0,1373.438,1410.876Z" transform="translate(-1335.216 -1374.512)"/>
        <path id="Path_51985" data-name="Path 51985" class="cls-52" d="M1318.067,1420.192a7.445,7.445,0,0,1,.729-3.488c.015-.049.033-.1.048-.145-.645-.2-1.478-.47-2.572-.841a123.422,123.422,0,0,1-19.97-8.7,3.655,3.655,0,0,0-5.572,2.275c-.648,2.4.823,4.31,2.935,5.159,7.261,2.917,17.927,5.581,24.415,6.017C1318.076,1420.373,1318.07,1420.282,1318.067,1420.192Z" transform="translate(-1288.895 -1372.505)"/>
        <path id="Path_51986" data-name="Path 51986" class="cls-53" d="M1392.637,1238.783a4.945,4.945,0,0,0,5.048,3.659c4.264-.078,4.644-3.671,4.644-3.671l-2.785-.6-.233-3.1-4.189.31-.078,2.948Z" transform="translate(-1377.481 -1223.751)"/>
        <path id="Path_51987" data-name="Path 51987" class="cls-54" d="M1403.475,1168.474s-4.8,9.3.894,11.556c4.017,1.592,6.536-6.176,5.784-8.28-1.161-3.253-1.926-2.866-1.926-2.866Z" transform="translate(-1385.247 -1165.946)"/>
        <path id="Path_51988" data-name="Path 51988" class="cls-31" d="M1466.26,1192.613l-.036-.1c.018.172.028.35.03.535q.011-.2.018-.394C1466.268,1192.638,1466.264,1192.625,1466.26,1192.613Z" transform="translate(-1441.353 -1186.809)"/>
        <path id="Path_51989" data-name="Path 51989" class="cls-31" d="M1465.725,1190.621c-.007-.063-.015-.127-.023-.188C1465.948,1190.844,1465.473,1189.885,1465.725,1190.621Z" transform="translate(-1440.854 -1184.92)"/>
        <path id="Path_51990" data-name="Path 51990" class="cls-55" d="M1408.4,1149.359c2.572-.585.787,7.372-3.043,6.068s-5.614-2.106-6.211-1.054-1.591,5.353-1.922,3.123c-.309-2.085-.608-5.905,1.4-6.739,1.143-.473,2.147.553,2.935.3a4.047,4.047,0,0,1,3.1.007C1406.026,1151.845,1406.764,1149.731,1408.4,1149.359Z" transform="translate(-1381.269 -1149.328)"/>
        <path id="Path_51991" data-name="Path 51991" class="cls-56" d="M1400.889,1195.646s-.83-1.254-1.209.029-.138,3.056.623,2.232A3.207,3.207,0,0,0,1400.889,1195.646Z" transform="translate(-1383.442 -1189.055)"/>
      </g>
      <path id="Path_52007" data-name="Path 52007" class="cls-29" d="M1015.83,1262.515s-.815-5.074,1.676-6.716a.169.169,0,0,1,.259.143v.965a.262.262,0,0,0,.442.191,5.261,5.261,0,0,1,2.513-1.433.34.34,0,0,1,.367.477c-.624,1.334-2.258,5.073-2.2,7.523Z" transform="translate(-19343.941 -12938.199)"/>
      <path id="Path_52008" data-name="Path 52008" class="cls-11" d="M985.672,1296.671,984,1323.331H994v-25.915a1.741,1.741,0,0,0-1.181-1.647,12.107,12.107,0,0,0-5.779-.624A1.656,1.656,0,0,0,985.672,1296.671Z" transform="translate(-19316.43 -12972.356)"/>
      <path id="Path_52009" data-name="Path 52009" class="cls-42" d="M994.6,1427.953l-.339,7.434a1.082,1.082,0,0,0,1.081,1.131h5.048a1.082,1.082,0,0,0,1.082-1.082V1428a1.082,1.082,0,0,0-1.082-1.082h-4.709A1.082,1.082,0,0,0,994.6,1427.953Z" transform="translate(-19325.334 -13086.849)"/>
      <path id="Path_52010" data-name="Path 52010" class="cls-57" d="M1073.728,1315.162V1287.6a1.568,1.568,0,0,0-1.1-1.5,11.719,11.719,0,0,0-6.845.022,1.422,1.422,0,0,0-1,1.357v27.68Z" transform="translate(-19386.539 -12964.188)"/>
      <path id="Path_52011" data-name="Path 52011" class="cls-58" d="M1071.477,1295.9l.217,4.068a.955.955,0,0,0,.954.9h4.793a.955.955,0,0,0,.955-.924l.13-4.014a.953.953,0,0,0-.75-.964,12.778,12.778,0,0,0-5.575-.049A.961.961,0,0,0,1071.477,1295.9Z" transform="translate(-19392.352 -12972.023)"/>
      <path id="Path_52012" data-name="Path 52012" class="cls-58" d="M1074.292,1348.483h0a.955.955,0,0,0,.953.889h4.589a.955.955,0,0,0,.955-.974h0a.955.955,0,0,0-.955-.936h-4.589A.955.955,0,0,0,1074.292,1348.483Z" transform="translate(-19394.797 -13017.881)"/>
      <path id="Path_52013" data-name="Path 52013" class="cls-57" d="M901.846,1289.406l1.109,26.762h9.466l.717-27.061a1.654,1.654,0,0,0-1.168-1.631,12.576,12.576,0,0,0-9.156.366A1.648,1.648,0,0,0,901.846,1289.406Z" transform="translate(-19245.117 -12965.221)"/>
      <path id="Path_52014" data-name="Path 52014" class="cls-58" d="M908.368,1308.455l.113,1.455a.811.811,0,0,0,.856.748l7.733-.45a.811.811,0,0,0,.762-.75l.075-1.005a.812.812,0,0,0-.809-.872h-7.921A.812.812,0,0,0,908.368,1308.455Z" transform="translate(-19250.777 -12983.266)"/>
      <path id="Path_52015" data-name="Path 52015" class="cls-58" d="M910.8,1333.555v.531a.721.721,0,0,0,.751.721l7.408-.309a.721.721,0,0,0,.691-.721v-.563a.721.721,0,0,0-.754-.72l-7.408.341A.721.721,0,0,0,910.8,1333.555Z" transform="translate(-19252.891 -13004.889)"/>
      <g id="Group_14221" data-name="Group 14221" transform="translate(-18290.301 -11773.597)">
        <path id="Path_52016" data-name="Path 52016" class="cls-8" d="M1304.957,567.232c10.664-.157,63.415-1.081,74.242-1.271a1.911,1.911,0,0,1,1.944,1.911v4.939a1.911,1.911,0,0,1-1.911,1.911h-74.246a1.911,1.911,0,0,1-1.911-1.911v-3.668A1.91,1.91,0,0,1,1304.957,567.232Z" transform="translate(-1303.075 -565.961)"/>
        <path id="Path_52017" data-name="Path 52017" class="cls-59" d="M1419.167,581.6h0a1.923,1.923,0,0,0,1.957,1.923l43.019-.746a1.923,1.923,0,0,0,1.835-2.381l-.2-.8a1.923,1.923,0,0,0-1.937-1.464l-42.824,1.544A1.923,1.923,0,0,0,1419.167,581.6Z" transform="translate(-1403.84 -576.526)"/>
      </g>
      <g id="Group_14222" data-name="Group 14222" transform="translate(-18291.389 -11776.564)">
        <path id="Path_52018" data-name="Path 52018" class="cls-31" d="M1301.633,606.422l-6.614,6.733a.679.679,0,0,0,.048,1l.05.042a.631.631,0,0,0,.892-.08l6.056-7.3Z" transform="translate(-1294.825 -598.112)"/>
        <path id="Path_52019" data-name="Path 52019" class="cls-60" d="M1343.184,549.6a4.379,4.379,0,1,1-5.8-1.994A4.339,4.339,0,0,1,1343.184,549.6Z" transform="translate(-1329.581 -546.68)"/>
        <path id="Path_52020" data-name="Path 52020" class="cls-31" d="M1333.937,543.967a4.784,4.784,0,1,0,6.457,2.219A4.828,4.828,0,0,0,1333.937,543.967Zm3.818,8a4.082,4.082,0,1,1,1.993-5.473A4.119,4.119,0,0,1,1337.755,551.967Z" transform="translate(-1326.346 -543.483)"/>
        <path id="Path_52021" data-name="Path 52021" class="cls-31" d="M1333.028,582.356a.127.127,0,0,1-.123-.094,4.494,4.494,0,0,1-.154-.945.128.128,0,0,1,.121-.134.125.125,0,0,1,.134.121,4.263,4.263,0,0,0,.145.891.127.127,0,0,1-.089.157A.126.126,0,0,1,1333.028,582.356Z" transform="translate(-1327.744 -576.204)"/>
        <path id="Path_52022" data-name="Path 52022" class="cls-31" d="M1304.491,648.9a.128.128,0,0,1-.093-.215l.1-.108a.128.128,0,0,1,.187.175l-.1.108A.127.127,0,0,1,1304.491,648.9Z" transform="translate(-1303.104 -634.669)"/>
      </g>
      <path id="Path_52023" data-name="Path 52023" class="cls-31" d="M1665.73,998.02a.255.255,0,0,1-.249-.2q-.086-.371-.181-.738a.256.256,0,0,1,.495-.128q.1.374.184.75a.255.255,0,0,1-.249.313Zm-.679-2.462a.256.256,0,0,1-.243-.178q-.115-.362-.24-.721a.255.255,0,1,1,.483-.167q.126.365.244.733a.256.256,0,0,1-.243.333Zm-.875-2.4a.256.256,0,0,1-.236-.159q-.144-.352-.3-.7a.255.255,0,1,1,.468-.2q.155.353.3.711a.256.256,0,0,1-.236.353Zm-1.061-2.323a.255.255,0,0,1-.228-.14q-.171-.339-.351-.675a.256.256,0,0,1,.451-.241q.182.341.356.685a.255.255,0,0,1-.113.343A.252.252,0,0,1,1663.116,990.836Zm-1.238-2.234a.255.255,0,0,1-.219-.123q-.2-.325-.4-.646a.255.255,0,1,1,.431-.275q.208.326.408.656a.255.255,0,0,1-.218.388Zm-1.406-2.132a.256.256,0,0,1-.208-.107q-.221-.309-.45-.613a.255.255,0,1,1,.409-.307q.232.309.457.623a.256.256,0,0,1-.207.4Zm-1.565-2.018a.255.255,0,0,1-.2-.091q-.245-.291-.5-.577a.256.256,0,0,1,.384-.337q.255.29.5.586a.255.255,0,0,1-.2.42Zm-1.716-1.892a.253.253,0,0,1-.182-.077q-.266-.272-.538-.537a.255.255,0,0,1,.356-.366q.276.269.547.545a.255.255,0,0,1-.182.434Zm-1.857-1.753a.254.254,0,0,1-.168-.063q-.286-.25-.579-.493a.255.255,0,1,1,.326-.393q.3.247.588.5a.256.256,0,0,1-.168.448Zm-1.99-1.6a.254.254,0,0,1-.152-.05q-.305-.227-.616-.445a.256.256,0,0,1,.294-.418q.316.222.626.453a.255.255,0,0,1-.152.461Zm-2.112-1.436a.256.256,0,0,1-.135-.038l-.167-.1q-.241-.147-.484-.29a.256.256,0,0,1,.259-.441q.247.145.492.3l.17.1a.255.255,0,0,1-.135.472Zm-2.223-1.258a.256.256,0,0,1-.117-.028q-.338-.174-.68-.339a.255.255,0,0,1,.222-.46q.348.168.692.345a.255.255,0,0,1-.117.483Zm-2.317-1.075a.255.255,0,0,1-.1-.02q-.351-.146-.705-.284a.255.255,0,1,1,.185-.476q.36.14.717.288a.256.256,0,0,1-.1.492Zm-2.395-.888a.256.256,0,0,1-.079-.013q-.361-.118-.725-.228a.255.255,0,0,1,.147-.489q.37.112.737.231a.256.256,0,0,1-.079.5Zm-18.389-.62a.256.256,0,0,1-.064-.5q.374-.1.75-.185a.255.255,0,1,1,.116.5q-.37.087-.738.182A.258.258,0,0,1,1625.909,973.928Zm15.933-.079a.262.262,0,0,1-.061-.007q-.369-.09-.741-.171a.255.255,0,1,1,.109-.5q.378.082.753.174a.256.256,0,0,1-.06.5Zm-13.437-.463a.255.255,0,0,1-.044-.507q.38-.067.762-.124a.255.255,0,1,1,.076.505q-.375.057-.75.122A.256.256,0,0,1,1628.4,973.386Zm10.934-.045a.27.27,0,0,1-.042,0q-.375-.061-.752-.114a.255.255,0,0,1,.071-.506q.382.054.763.116a.256.256,0,0,1-.041.508Zm-8.4-.294a.256.256,0,0,1-.024-.51q.384-.036.77-.063a.256.256,0,0,1,.036.51q-.38.027-.758.062Zm5.868-.021h-.022q-.379-.033-.758-.056a.255.255,0,0,1,.032-.51q.385.024.77.057a.255.255,0,0,1-.022.51Zm-3.318-.117a.255.255,0,0,1,0-.511c.166,0,.333,0,.5,0h.274a.255.255,0,0,1,0,.511h-.272q-.245,0-.491,0Z" transform="translate(-19873.365 -12692.331)"/>
      <path id="Path_52024" data-name="Path 52024" class="cls-31" d="M646.9,995.268a.256.256,0,0,1-.232-.361q.16-.352.328-.7a.256.256,0,0,1,.46.223q-.166.342-.323.688A.256.256,0,0,1,646.9,995.268Zm1.15-2.28a.256.256,0,0,1-.223-.38q.188-.338.384-.67a.255.255,0,0,1,.44.259q-.193.328-.378.66A.256.256,0,0,1,648.054,992.987Zm1.333-2.179a.256.256,0,0,1-.212-.4q.215-.321.437-.637a.255.255,0,0,1,.418.294q-.219.311-.43.627A.255.255,0,0,1,649.387,990.809Zm1.5-2.065a.255.255,0,0,1-.2-.414q.24-.3.487-.6a.255.255,0,1,1,.393.326q-.243.293-.479.591A.255.255,0,0,1,650.891,988.744Zm1.664-1.938a.255.255,0,0,1-.187-.429q.263-.283.533-.559a.255.255,0,1,1,.366.357q-.266.272-.524.551A.255.255,0,0,1,652.554,986.806Zm1.812-1.8a.256.256,0,0,1-.173-.444q.285-.261.576-.516a.255.255,0,0,1,.336.385q-.286.25-.566.507A.255.255,0,0,1,654.366,985.006Zm1.949-1.65a.255.255,0,0,1-.157-.457q.3-.237.615-.468a.256.256,0,0,1,.3.411q-.305.226-.605.46A.255.255,0,0,1,656.316,983.356Zm2.076-1.488a.255.255,0,0,1-.14-.469q.323-.212.651-.416a.255.255,0,0,1,.27.434q-.323.2-.64.41A.255.255,0,0,1,658.391,981.868Zm2.19-1.313a.255.255,0,0,1-.122-.48L660.6,980q.269-.145.541-.284a.255.255,0,1,1,.233.455q-.268.137-.533.28l-.139.075A.256.256,0,0,1,660.582,980.555Zm2.292-1.127a.255.255,0,0,1-.1-.489q.353-.156.71-.3a.255.255,0,1,1,.195.472q-.351.145-.7.3A.252.252,0,0,1,662.873,979.428Zm2.376-.936a.256.256,0,0,1-.084-.5q.365-.127.733-.245a.256.256,0,1,1,.156.487q-.362.116-.721.241A.253.253,0,0,1,665.25,978.492Zm2.444-.742a.256.256,0,0,1-.064-.5q.374-.1.75-.186a.256.256,0,0,1,.117.5q-.37.087-.738.183A.258.258,0,0,1,667.693,977.75Zm2.495-.545a.256.256,0,0,1-.044-.507q.38-.067.762-.126a.255.255,0,1,1,.077.505q-.376.057-.75.124A.257.257,0,0,1,670.188,977.205Zm10.489-.105a.258.258,0,0,1-.041,0l-.312-.048a.256.256,0,0,1,.075-.506l.318.049a.255.255,0,0,1-.04.508Zm-7.959-.24a.256.256,0,0,1-.024-.51q.385-.037.77-.065a.256.256,0,0,1,.037.51q-.379.027-.758.064Zm5.868-.02h-.023q-.378-.034-.758-.059a.256.256,0,0,1,.033-.51q.386.025.77.06a.255.255,0,0,1-.023.51Zm-3.318-.122a.256.256,0,0,1,0-.511c.168,0,.331,0,.5,0h.269a.255.255,0,0,1,0,.511h-.267c-.163,0-.33,0-.5,0Z" transform="translate(-19023.613 -12695.637)"/>
      <path id="Path_52025" data-name="Path 52025" class="cls-31" d="M719.554,478.329h-.027l-.2-.022a.256.256,0,0,1,.056-.508l.2.021a.255.255,0,0,1-.027.51Zm-1.97-.275a.268.268,0,0,1-.044,0q-.381-.067-.759-.144a.255.255,0,1,1,.1-.5q.372.075.746.141a.255.255,0,0,1-.044.507Zm-2.493-.551a.258.258,0,0,1-.066-.009q-.373-.1-.744-.21a.255.255,0,1,1,.145-.49q.364.107.731.206a.256.256,0,0,1-.066.5Zm-2.436-.765a.254.254,0,0,1-.087-.015q-.363-.131-.724-.272a.256.256,0,0,1,.186-.476q.354.138.711.267a.255.255,0,0,1-.087.5Zm-2.364-.968a.255.255,0,0,1-.107-.023q-.351-.161-.7-.331a.256.256,0,0,1,.225-.459q.341.167.687.326a.256.256,0,0,1-.107.488Zm-2.276-1.159a.254.254,0,0,1-.125-.033q-.337-.189-.669-.387a.255.255,0,0,1,.261-.439q.327.194.658.381a.255.255,0,0,1-.125.478Zm-2.175-1.34a.254.254,0,0,1-.142-.044q-.32-.216-.636-.439a.255.255,0,0,1,.3-.417q.311.22.626.432a.255.255,0,0,1-.143.467Zm-2.06-1.509a.255.255,0,0,1-.159-.056q-.3-.241-.6-.488a.255.255,0,1,1,.328-.392q.292.244.589.481a.256.256,0,0,1-.16.455Zm-1.933-1.669a.255.255,0,0,1-.175-.069q-.282-.264-.557-.535a.255.255,0,0,1,.358-.364q.271.266.549.526a.255.255,0,0,1-.175.442Zm-1.792-1.819a.255.255,0,0,1-.189-.084q-.26-.286-.512-.578a.255.255,0,1,1,.386-.334q.248.287.5.568a.256.256,0,0,1-.189.427Zm-1.638-1.959a.254.254,0,0,1-.2-.1q-.236-.307-.463-.618a.256.256,0,0,1,.413-.3q.224.307.455.609a.255.255,0,0,1-.2.411Zm-1.469-2.088a.255.255,0,0,1-.215-.117q-.208-.325-.409-.656a.255.255,0,0,1,.437-.265q.2.325.4.645a.255.255,0,0,1-.215.393Zm-1.286-2.206a.255.255,0,0,1-.226-.136q-.18-.342-.351-.689a.255.255,0,1,1,.458-.226q.168.341.345.677a.255.255,0,0,1-.226.374Zm-1.087-2.311a.256.256,0,0,1-.236-.157q-.129-.31-.251-.624l-.036-.095a.255.255,0,1,1,.477-.183l.036.093q.12.308.247.612a.255.255,0,0,1-.138.334A.252.252,0,0,1,694.573,459.709Zm-.875-2.4a.256.256,0,0,1-.244-.179q-.116-.369-.222-.741a.255.255,0,0,1,.491-.14q.1.365.218.727a.256.256,0,0,1-.244.332Zm-.657-2.468a.255.255,0,0,1-.249-.2q-.083-.378-.156-.757a.255.255,0,1,1,.5-.1q.072.373.153.744a.255.255,0,0,1-.25.31Zm-.44-2.516a.256.256,0,0,1-.253-.222q-.05-.383-.091-.767a.256.256,0,0,1,.508-.054q.04.378.089.754a.255.255,0,0,1-.22.287Zm-.227-2.544a.255.255,0,0,1-.255-.244q-.018-.386-.027-.772a.255.255,0,0,1,.25-.261h.006a.255.255,0,0,1,.255.25q.009.38.026.76a.255.255,0,0,1-.243.267Zm-.016-2.554h-.009a.256.256,0,0,1-.246-.264q.013-.386.036-.772a.252.252,0,0,1,.27-.24.255.255,0,0,1,.24.27q-.023.38-.036.759A.255.255,0,0,1,692.359,447.228Zm.191-2.547-.03,0a.255.255,0,0,1-.224-.283q.044-.384.1-.766a.255.255,0,1,1,.506.071q-.052.377-.1.754A.255.255,0,0,1,692.55,444.68Zm.394-2.523a.259.259,0,0,1-.05,0,.256.256,0,0,1-.2-.3q.075-.379.158-.756a.255.255,0,0,1,.5.111q-.082.371-.156.744A.255.255,0,0,1,692.944,442.157Zm.594-2.484a.253.253,0,0,1-.069-.01.255.255,0,0,1-.177-.315q.1-.372.219-.741a.255.255,0,1,1,.488.15q-.112.363-.215.729A.256.256,0,0,1,693.538,439.673Zm.792-2.428a.256.256,0,0,1-.24-.344q.134-.362.278-.721a.255.255,0,1,1,.474.19q-.141.353-.273.709A.256.256,0,0,1,694.33,437.245Zm.987-2.356a.256.256,0,0,1-.231-.364q.164-.35.337-.7a.255.255,0,1,1,.457.228q-.17.34-.331.684A.255.255,0,0,1,695.317,434.89Zm1.179-2.265a.256.256,0,0,1-.221-.383q.193-.335.394-.665a.255.255,0,0,1,.436.266q-.2.324-.388.654A.255.255,0,0,1,696.5,432.625Zm1.368-2.156a.255.255,0,0,1-.209-.4q.221-.317.451-.628a.255.255,0,0,1,.411.3q-.225.306-.443.617A.256.256,0,0,1,697.864,430.468Zm1.552-2.028a.256.256,0,0,1-.2-.42q.249-.3.505-.586a.256.256,0,1,1,.382.339q-.252.284-.5.575A.256.256,0,0,1,699.416,428.44Z" transform="translate(-19063.059 -12219.245)"/>
      <path id="Path_52026" data-name="Path 52026" class="cls-31" d="M1213.947,438.519a.255.255,0,0,1-.255-.242l-.007-.129a.256.256,0,0,1,.243-.267.258.258,0,0,1,.267.243l.006.126a.256.256,0,0,1-.242.268Zm-.033-1.916h0a.256.256,0,0,1-.251-.26q.007-.386.024-.773a.26.26,0,0,1,.266-.244.255.255,0,0,1,.244.266q-.017.379-.023.759A.255.255,0,0,1,1213.914,436.6Zm.159-2.549h-.028a.255.255,0,0,1-.226-.281q.041-.384.092-.767a.255.255,0,1,1,.506.068q-.051.376-.091.754A.256.256,0,0,1,1214.073,434.055Zm.384-2.525a.255.255,0,0,1-.251-.3q.075-.379.16-.756a.255.255,0,1,1,.5.112q-.083.371-.157.744A.255.255,0,0,1,1214.457,431.53Zm.6-2.482a.26.26,0,0,1-.071-.01.256.256,0,0,1-.175-.316q.107-.372.224-.74a.256.256,0,0,1,.487.154q-.115.362-.22.727A.255.255,0,0,1,1215.059,429.048Zm.813-2.421a.256.256,0,0,1-.238-.347q.139-.361.287-.718a.255.255,0,1,1,.472.2q-.145.351-.282.706A.256.256,0,0,1,1215.872,426.627Zm1.017-2.342a.255.255,0,0,1-.23-.367q.169-.348.347-.691a.256.256,0,0,1,.454.235q-.175.337-.341.679A.256.256,0,0,1,1216.889,424.284Zm1.215-2.247a.256.256,0,0,1-.219-.387q.2-.332.406-.658a.255.255,0,0,1,.432.274q-.2.321-.4.647A.255.255,0,0,1,1218.1,422.038Zm1.406-2.132a.256.256,0,0,1-.207-.406q.227-.313.462-.62a.256.256,0,1,1,.406.311q-.231.3-.454.609A.255.255,0,0,1,1219.51,419.906Zm1.589-2a.255.255,0,0,1-.192-.423q.254-.292.516-.576a.255.255,0,0,1,.376.346q-.257.279-.507.566A.256.256,0,0,1,1221.1,417.907Zm1.764-1.846a.255.255,0,0,1-.176-.44q.279-.267.567-.526a.255.255,0,0,1,.342.379q-.282.254-.556.516A.254.254,0,0,1,1222.863,416.06Zm1.926-1.676a.255.255,0,0,1-.159-.456q.3-.24.612-.473a.256.256,0,0,1,.307.409q-.3.228-.6.464A.253.253,0,0,1,1224.789,414.384Zm2.069-1.5a.255.255,0,0,1-.141-.469q.323-.212.651-.417a.256.256,0,0,1,.27.434q-.323.2-.64.409A.254.254,0,0,1,1226.858,412.887Zm2.193-1.309a.255.255,0,0,1-.122-.48q.34-.184.685-.358a.255.255,0,0,1,.231.456q-.339.172-.673.352A.253.253,0,0,1,1229.051,411.577Zm2.3-1.115a.255.255,0,0,1-.1-.49q.354-.154.713-.3a.255.255,0,1,1,.191.474q-.353.142-.7.293A.257.257,0,0,1,1231.349,410.462Zm2.385-.914a.256.256,0,0,1-.081-.5q.367-.123.736-.236a.255.255,0,1,1,.15.489q-.363.111-.723.232A.257.257,0,0,1,1233.733,409.548Zm2.454-.707a.255.255,0,0,1-.06-.5q.376-.091.754-.172a.256.256,0,1,1,.107.5q-.371.08-.741.169A.265.265,0,0,1,1236.187,408.842Zm2.506-.492a.255.255,0,0,1-.038-.508q.382-.058.766-.106a.255.255,0,0,1,.063.507q-.377.047-.752.1Zm2.539-.271a.256.256,0,0,1-.016-.511q.386-.024.772-.037a.256.256,0,1,1,.018.511q-.379.013-.759.036Zm3.32-.008h-.015q-.379-.022-.758-.033a.255.255,0,1,1,.015-.511q.387.011.773.033a.255.255,0,0,1-.015.511Z" transform="translate(-19515.764 -12202.04)"/>
      <path id="Path_52027" data-name="Path 52027" class="cls-31" d="M1211.075,1232.959h-.023a6.686,6.686,0,0,1-.787-.119.256.256,0,0,1,.106-.5,6.092,6.092,0,0,0,.727.11.255.255,0,0,1-.022.51Zm1.771-.15a.255.255,0,0,1-.069-.5,4.036,4.036,0,0,0,.673-.256.256.256,0,1,1,.224.459,4.534,4.534,0,0,1-.758.288A.254.254,0,0,1,1212.847,1232.809Zm-4.222-.529a.25.25,0,0,1-.1-.023c-.234-.105-.47-.223-.7-.35a.256.256,0,0,1,.244-.449c.222.121.447.233.669.333a.256.256,0,0,1-.105.489Zm-2.188-1.31a.255.255,0,0,1-.152-.05c-.206-.152-.412-.312-.615-.477a.255.255,0,0,1,.322-.4c.2.159.4.315.6.463a.256.256,0,0,1-.152.461Zm-1.932-1.668a.254.254,0,0,1-.181-.075c-.182-.182-.363-.372-.537-.562a.255.255,0,0,1,.377-.345q.255.279.522.546a.255.255,0,0,1-.181.436Zm-1.667-1.933a.255.255,0,0,1-.205-.1q-.232-.312-.45-.633a.255.255,0,0,1,.423-.287q.212.312.438.616a.256.256,0,0,1-.2.408Zm-1.372-2.153a.256.256,0,0,1-.225-.134q-.185-.342-.354-.692a.255.255,0,1,1,.46-.223q.165.34.345.672a.256.256,0,0,1-.1.346A.253.253,0,0,1,1201.467,1225.216Zm-1.047-2.328a.256.256,0,0,1-.24-.168c-.088-.242-.172-.49-.25-.736a.256.256,0,1,1,.487-.153c.075.239.157.48.242.715a.256.256,0,0,1-.24.343Zm-.692-2.457a.255.255,0,0,1-.25-.205c-.051-.252-.1-.51-.136-.766a.255.255,0,1,1,.505-.078c.038.249.083.5.132.743a.256.256,0,0,1-.2.3A.275.275,0,0,1,1199.728,1220.432Zm-.313-2.533a.256.256,0,0,1-.255-.243c-.012-.258-.019-.519-.021-.777a.256.256,0,0,1,.254-.257.259.259,0,0,1,.257.254q0,.378.02.755a.256.256,0,0,1-.243.267Zm.063-2.552h-.025a.255.255,0,0,1-.229-.279q.037-.387.092-.772a.256.256,0,1,1,.506.072q-.053.374-.089.75A.255.255,0,0,1,1199.479,1215.347Zm.429-2.516a.25.25,0,0,1-.061-.008.256.256,0,0,1-.187-.309q.093-.378.2-.751a.255.255,0,1,1,.49.143q-.106.363-.2.729A.256.256,0,0,1,1199.907,1212.831Zm.787-2.428a.252.252,0,0,1-.1-.019.255.255,0,0,1-.14-.333c.1-.241.2-.481.309-.714a.255.255,0,1,1,.464.214c-.1.225-.2.458-.3.693A.255.255,0,0,1,1200.694,1210.4Z" transform="translate(-19503.162 -12897.862)"/>
    </g>
  </g>
</svg>
