<svg xmlns="http://www.w3.org/2000/svg" xmlns:xlink="http://www.w3.org/1999/xlink" width="1300.564" height="180" viewBox="0 0 1300.564 180">
  <defs>
    <style>
      .cls-1 {
        fill: #013f87;
      }

      .cls-2, .cls-5 {
        opacity: 0.8;
      }

      .cls-2 {
        clip-path: url(#clip-path);
      }

      .cls-3 {
        fill: #2b65ee;
        opacity: 0.496;
      }

      .cls-4 {
        fill: #2095d3;
        opacity: 0.3;
      }

      .cls-6 {
        fill: #f7a94a;
      }

      .cls-21, .cls-7 {
        fill: #fff;
      }

      .cls-8 {
        fill: #fad189;
      }

      .cls-9 {
        fill: #39c1fa;
      }

      .cls-10 {
        fill: #38acdc;
      }

      .cls-11 {
        fill: #dadada;
      }

      .cls-12 {
        fill: #2a3d5e;
      }

      .cls-13 {
        fill: #232e4d;
      }

      .cls-14 {
        fill: #878787;
      }

      .cls-15 {
        fill: #3c5685;
      }

      .cls-16 {
        fill: #4b6ba6;
      }

      .cls-17 {
        fill: #ededed;
      }

      .cls-18 {
        fill: #faab3e;
      }

      .cls-19 {
        fill: #37bae6;
        opacity: 0.4;
      }

      .cls-20 {
        fill: #367ad1;
      }

      .cls-21 {
        opacity: 0.75;
      }

      .cls-22 {
        fill: #ece3fa;
      }

      .cls-23 {
        fill: #ffbe91;
      }

      .cls-24 {
        fill: #eb8e6c;
      }

      .cls-25 {
        fill: url(#linear-gradient);
      }

      .cls-26 {
        fill: #b3cdee;
      }

      .cls-27 {
        fill: #e7dcfa;
      }

      .cls-28 {
        fill: #ae9dbf;
      }
    </style>
    <clipPath id="clip-path">
      <path id="Path_17244" data-name="Path 17244" class="cls-1" d="M-1000.564,0H226a73.865,73.865,0,0,1,74,73.728V180H-1000.564Z" transform="translate(1000.564 145)"/>
    </clipPath>
    <linearGradient id="linear-gradient" x1="1" y1="0.5" x2="0" y2="0.5" gradientUnits="objectBoundingBox">
      <stop offset="0" stop-color="#2060b3"/>
      <stop offset="1" stop-color="#367ad1"/>
    </linearGradient>
  </defs>
  <g id="Group_14185" data-name="Group 14185" transform="translate(-708 -611)">
    <g id="Group_25218" data-name="Group 25218" transform="translate(708 466)">
      <path id="Path_17229" data-name="Path 17229" class="cls-1" d="M-1000.564,0H226a73.865,73.865,0,0,1,74,73.728V180H-1000.564Z" transform="translate(1000.564 145)"/>
      <g id="Group_25217" data-name="Group 25217">
        <g id="Group_25216" data-name="Group 25216">
          <g id="Mask_Group_54" data-name="Mask Group 54" class="cls-2">
            <path id="Path_16995" data-name="Path 16995" class="cls-3" d="M720.445,0C686.77,14.564,701.31,44.367,664.888,54.322c-34.8,9.511-73.58-1.18-108.342,8.433-13.855,3.831-26.2,14.364-37.871,24.621q-.789.693-1.57,1.392a181.448,181.448,0,0,0-42.144,55.972l-35.867,73.8H923.745s43.361-167.953-71.17-178.793-89.4,0-89.4,0V0Z" transform="translate(376.824 106.21)"/>
            <circle id="Ellipse_576" data-name="Ellipse 576" class="cls-4" cx="250.5" cy="250.5" r="250.5" transform="translate(953 -148)"/>
          </g>
        </g>
      </g>
    </g>
    <g id="Group_1" data-name="Group 1" class="cls-5" transform="translate(20121.398 12453.123)">
      <g id="Group_14170" data-name="Group 14170" transform="translate(-18578.398 -11760.701)">
        <path id="Path_51812" data-name="Path 51812" class="cls-6" d="M1743.047,1589.1l-7.839-11.793h-29.932v80.963H1814V1589.1Z" transform="translate(-1692.099 -1577.302)"/>
        <rect id="Rectangle_13805" data-name="Rectangle 13805" class="cls-7" width="96.878" height="61.968" transform="translate(17.821 18.995)"/>
        <path id="Path_51813" data-name="Path 51813" class="cls-8" d="M1707.477,1776.345h-98.186a4.135,4.135,0,0,0-4,5.186l13.039,49.58h108.724l-13.086-49.761A6.713,6.713,0,0,0,1707.477,1776.345Z" transform="translate(-1605.154 -1750.149)"/>
      </g>
      <path id="Path_51818" data-name="Path 51818" class="cls-9" d="M2368.839,1864.484H2243.686v1.768h.851c1.839,0,2.2,3.992,2.2,8.757,0,4.506-.433,8.757-2.348,8.757h-.707v1.768h124.932c2.447,0,3.074-4.406,3.074-9.876C2371.692,1869.913,2371.36,1864.484,2368.839,1864.484Z" transform="translate(-20738.049 -13587.389)"/>
      <path id="Path_51819" data-name="Path 51819" class="cls-10" d="M2315.468,1864.484h-71.781v1.768h.851c1.839,0,2.2,3.992,2.2,8.757,0,4.506-.433,8.757-2.348,8.757h-.707v1.768h71.56c2.259,0,3-3.922,3-10.26C2318.25,1869.028,2317.733,1864.484,2315.468,1864.484Z" transform="translate(-20738.049 -13587.389)"/>
      <path id="Path_51820" data-name="Path 51820" class="cls-11" d="M2319.145,1877.917h-69.488c1.839,0,2.2,3.992,2.2,8.757,0,4.451-.424,8.65-2.279,8.753l69.418,0c1.915,0,2.348-4.251,2.348-8.757C2321.349,1881.909,2320.984,1877.917,2319.145,1877.917Z" transform="translate(-20743.166 -13599.054)"/>
      <path id="Path_51821" data-name="Path 51821" class="cls-12" d="M2308.948,1751.727c-1.124,0-1.824-2.857-1.824-6.845,0-3.627.719-6.059,1.824-6.059h1.461v-1.945h-123.4c-1.3,0-2.709,2.462-2.709,8.4,0,5.738,1.569,8.4,2.891,8.4h123.215v-1.945Z" transform="translate(-20686.48 -13476.577)"/>
      <path id="Path_51822" data-name="Path 51822" class="cls-13" d="M2697.462,1751.727c-1.124,0-1.824-2.857-1.824-6.845,0-3.627.719-6.059,1.824-6.059h1.461v-1.945H2631.7v16.794h67.224v-1.945Z" transform="translate(-21074.992 -13476.577)"/>
      <path id="Path_51823" data-name="Path 51823" class="cls-7" d="M2319.883,1757.718c0-3.627.719-6.059,1.824-6.059H2200.819c-1.1,0-1.824,2.432-1.824,6.059,0,3.987.7,6.844,1.824,6.844h120.887C2320.583,1764.563,2319.883,1761.705,2319.883,1757.718Z" transform="translate(-20699.238 -13489.413)"/>
      <path id="Path_51824" data-name="Path 51824" class="cls-11" d="M2673.964,1757.718c0-3.627.719-6.059,1.824-6.059h-67.224c-1.1,0-1.824,2.432-1.824,6.059,0,3.987.7,6.844,1.824,6.844h67.224C2674.664,1764.563,2673.964,1761.705,2673.964,1757.718Z" transform="translate(-21053.318 -13489.413)"/>
      <g id="Group_14172" data-name="Group 14172" transform="translate(-18506.34 -11701.854)">
        <path id="Path_51825" data-name="Path 51825" class="cls-12" d="M2298.777,2044.51c-2.255,0-2.487-5.125-2.487-9.022,0-4.949.243-9.021,2.487-9.021h.675v-2.036h-143.7c-1.675,0-3.09,4.011-3.09,11.058,0,5.949.836,11.058,3.09,11.058h143.7v-2.036Z" transform="translate(-2152.667 -2024.43)"/>
        <path id="Path_51826" data-name="Path 51826" class="cls-13" d="M2615.91,2044.51c-2.255,0-2.487-5.125-2.487-9.022,0-4.949.243-9.021,2.487-9.021h.675v-2.036h-95.631c-1.674,0-3.09,4.011-3.09,11.058,0,5.949.835,11.058,3.09,11.058h95.631v-2.036Z" transform="translate(-2469.8 -2024.43)"/>
        <path id="Path_51827" data-name="Path 51827" class="cls-11" d="M2628.9,2048.923c0-4.949.243-9.021,2.487-9.021h-92.864c-2.244,0-2.837,4.073-2.837,9.021,0,3.9.582,9.022,2.837,9.022h92.864C2629.133,2057.944,2628.9,2052.819,2628.9,2048.923Z" transform="translate(-2485.278 -2037.865)"/>
        <path id="Path_51828" data-name="Path 51828" class="cls-7" d="M2738.507,2094.728h-79c-1.231-1.569-.143-5.52,4.472-6.938,19.166-5.889,50-7.454,72.041-2.845,0,.25,0,.505,0,.76C2736.02,2089.6,2736.251,2094.728,2738.507,2094.728Z" transform="translate(-2592.396 -2074.648)"/>
        <path id="Path_51829" data-name="Path 51829" class="cls-14" d="M2715.617,2159.878h-80.775q-.036-.162-.06-.329h80.741C2715.551,2159.662,2715.584,2159.77,2715.617,2159.878Z" transform="translate(-2571.329 -2141.766)"/>
        <path id="Path_51830" data-name="Path 51830" class="cls-14" d="M2714.783,2142.43h-80.445c.011-.109.025-.219.044-.328h80.365C2714.758,2142.212,2714.769,2142.323,2714.783,2142.43Z" transform="translate(-2570.945 -2126.615)"/>
      </g>
      <path id="Path_51831" data-name="Path 51831" class="cls-7" d="M2314.518,1917.714l-64.943-.005c1.857-.1,2.28-4.3,2.28-8.753,0-1.463-.035-2.854-.135-4.078,17.939-2.172,42.311-1.994,54.622,3.387C2311.555,1910.543,2315.293,1914.13,2314.518,1917.714Z" transform="translate(-20743.16 -13621.336)"/>
      <path id="Path_51832" data-name="Path 51832" class="cls-14" d="M2331.478,1994.048c-.031.113-.06.222-.093.328H2261.9q.049-.159.093-.328Z" transform="translate(-20753.859 -13699.901)"/>
      <path id="Path_51833" data-name="Path 51833" class="cls-14" d="M2334.731,1977.1c-.011.111-.023.221-.037.328h-69.488c.013-.107.026-.217.037-.328Z" transform="translate(-20756.736 -13685.184)"/>
      <path id="Path_51834" data-name="Path 51834" class="cls-14" d="M2336.023,1960.152c0,.111-.007.219-.013.328h-69.488c.005-.109.009-.219.015-.328Z" transform="translate(-20757.879 -13670.467)"/>
      <rect id="Rectangle_13809" data-name="Rectangle 13809" class="cls-14" width="69.488" height="0.328" transform="translate(-18491.307 -11712.545)"/>
      <path id="Path_51835" data-name="Path 51835" class="cls-15" d="M2261.81,1577.3h121.258v2.318h-.75c-1.964,0-2.314,4.815-2.314,8.183s.343,8.183,2.314,8.183h.75v2.318H2261.81c-2.531,0-2.684-6.179-2.684-10.5S2259.28,1577.3,2261.81,1577.3Z" transform="translate(-20751.455 -13338.003)"/>
      <path id="Path_51836" data-name="Path 51836" class="cls-16" d="M2576.684,1577.3h79.291v2.318h-.75c-1.963,0-2.314,4.815-2.314,8.183s.343,8.183,2.314,8.183h.75v2.318h-79.291c-2.531,0-3.289-6.179-3.289-10.5S2574.154,1577.3,2576.684,1577.3Z" transform="translate(-21024.363 -13338.003)"/>
      <path id="Path_51837" data-name="Path 51837" class="cls-17" d="M2593.013,1594.913h77.239c-1.964,0-2.314,4.815-2.314,8.183s.343,8.183,2.314,8.183h-77.239c-1.971,0-2.314-4.815-2.314-8.183S2591.05,1594.913,2593.013,1594.913Z" transform="translate(-21039.391 -13353.296)"/>
      <path id="Path_51838" data-name="Path 51838" class="cls-9" d="M2325.407,1435.336H2206.293v2.062h.736c1.928,0,2.273,4.284,2.273,7.28s-.337,7.28-2.273,7.28h-.736v2.062h119.114c2.486,0,2.636-5.5,2.637-9.342S2327.894,1435.336,2325.407,1435.336Z" transform="translate(-20705.576 -13214.722)"/>
      <path id="Path_51840" data-name="Path 51840" class="cls-10" d="M2279.989,1435.336h-73.7v2.062h.736c1.928,0,2.273,4.284,2.273,7.28s-.337,7.28-2.273,7.28h-.736v2.062h73.7c2.486,0,3.231-5.5,3.231-9.342S2282.475,1435.336,2279.989,1435.336Z" transform="translate(-20705.576 -13214.722)"/>
      <path id="Path_51841" data-name="Path 51841" class="cls-11" d="M2283.566,1451h-71.68c1.929,0,2.273,4.284,2.273,7.28s-.337,7.28-2.273,7.28h71.68c1.937,0,2.273-4.284,2.273-7.28S2285.5,1451,2283.566,1451Z" transform="translate(-20710.432 -13228.327)"/>
      <path id="Path_51842" data-name="Path 51842" class="cls-18" d="M3092.026,1864.483H3082.6c2.52,0,2.852,5.429,2.852,11.175,0,5.471-.627,9.876-3.074,9.876h9.427c2.447,0,3.074-4.406,3.074-9.876C3094.878,1869.912,3094.546,1864.483,3092.026,1864.483Z" transform="translate(-21466.357 -13587.388)"/>
      <g id="Group_14179" data-name="Group 14179" transform="translate(-18659.264 -11713.452)">
        <path id="Path_51849" data-name="Path 51849" class="cls-15" d="M1387.372,1960.311a24,24,0,0,0,24,24h4.91a24,24,0,1,0,0-48h-4.91A24,24,0,0,0,1387.372,1960.311Zm7.958,0a18.627,18.627,0,1,1,18.5,20.81A20.956,20.956,0,0,1,1395.33,1960.311Z" transform="translate(-1335.17 -1936.309)"/>
        <ellipse id="Ellipse_121" data-name="Ellipse 121" class="cls-19" cx="20.954" cy="20.954" rx="20.954" ry="20.954" transform="translate(57.705 3.048)"/>
        <path id="Path_51850" data-name="Path 51850" class="cls-12" d="M1424.676,1960.311a24,24,0,1,0,24-24A24,24,0,0,0,1424.676,1960.311Zm3.048,0a20.954,20.954,0,1,1,20.953,20.954A20.954,20.954,0,0,1,1427.724,1960.311Z" transform="translate(-1367.565 -1936.309)"/>
        <g id="Group_14178" data-name="Group 14178" transform="translate(0 27.477)">
          <path id="Path_51851" data-name="Path 51851" class="cls-20" d="M1004.546,2165.423l53.221-14.884-1.4-5.234-53.53,13.731Z" transform="translate(-1001.242 -2145.276)"/>
          <path id="Path_51852" data-name="Path 51852" class="cls-20" d="M1402.2,2148.138c.39,1.454,1.394,2.441,2.238,2.205s1.2-1.588.816-3.024-1.376-2.426-2.219-2.21S1401.81,2146.684,1402.2,2148.138Z" transform="translate(-1347.913 -2145.08)"/>
          <path id="Path_51853" data-name="Path 51853" class="cls-20" d="M990.892,2253.091c.476,1.777,1.89,2.93,3.148,2.579s1.87-2.048,1.4-3.8-1.858-2.91-3.113-2.588S990.416,2251.313,990.892,2253.091Z" transform="translate(-990.736 -2235.522)"/>
        </g>
        <path id="Path_51854" data-name="Path 51854" class="cls-21" d="M1497.9,1976.958c1.368,2.116-1.6,5.151-5.894,7.926s-8.279,4.238-9.647,2.122.459-6.921,4.751-9.7S1496.534,1974.842,1497.9,1976.958Z" transform="translate(-1417.269 -1970.168)"/>
      </g>
      <g id="Group_14181" data-name="Group 14181" transform="translate(-18498.436 -11775.47)">
        <path id="Path_51870" data-name="Path 51870" class="cls-7" d="M2235.345,1472.7c.17-1.436.551-5.487,1.554-7.608-7.662-.011-15.406.36-22.363,1a24.352,24.352,0,0,1,.345,4.425c0,2.937-.324,7.115-2.164,7.275h24.437C2235.118,1476.567,2234.995,1475.642,2235.345,1472.7Z" transform="translate(-2212.717 -1465.088)"/>
        <path id="Path_51871" data-name="Path 51871" class="cls-7" d="M2452.562,1470.51c-6.46-2.348-15.992-3.593-26.31-4.03-1.22,2.141-5.354,7.849-5.422,8.619-.08.914.554,2.707.6,3.9l39.978,0C2462.241,1475.783,2458.2,1472.558,2452.562,1470.51Z" transform="translate(-2393.434 -1466.297)"/>
      </g>
      <path id="Path_51872" data-name="Path 51872" class="cls-7" d="M2645.567,1635.456v.005c14.757,0,51.684-.005,70.471-.005h1.76c-1.971,0-2.316-4.814-2.316-8.184a35.719,35.719,0,0,1,.161-3.575c-20.45-1.706-46.954-1.371-60.615,3.269C2649,1629.015,2644.677,1632.237,2645.567,1635.456Z" transform="translate(-21086.936 -13377.473)"/>
      <path id="Path_51873" data-name="Path 51873" class="cls-13" d="M2884.59,1375.485l-2.223-9.74h-10.421l2.223,9.74h-1.757l-32.05-140.449h1.758l2.222,9.74h10.421l-2.223-9.74h1.758l32.05,140.449Zm-2.622-11.49-2.321-10.172h-10.421l2.321,10.172Zm-2.72-11.922-2.321-10.172h-10.421l2.321,10.172Zm-2.721-11.922-2.321-10.172h-10.421l2.321,10.172Zm-2.72-11.922-2.321-10.172h-10.421l2.321,10.172Zm-2.721-11.922-2.321-10.172h-10.421l2.321,10.172Zm-2.72-11.922-2.322-10.172h-10.42l2.321,10.172Zm-2.721-11.922-2.321-10.172H2852.9l2.321,10.172Zm-2.721-11.922-2.321-10.172h-10.421l2.322,10.172Zm-2.72-11.922-2.321-10.172h-10.421l2.321,10.172Zm-2.721-11.922-2.321-10.172H2844.74l2.321,10.172Z" transform="translate(-21256.191 -13040.783)"/>
      <g id="Group_14182" data-name="Group 14182" transform="translate(-18496.846 -11769.454)">
        <path id="Path_51874" data-name="Path 51874" class="cls-14" d="M2224.816,1545.007h69.028c.005-.108.008-.219,0-.329h-68.938C2224.879,1544.791,2224.847,1544.9,2224.816,1545.007Z" transform="translate(-2224.816 -1540.219)"/>
        <path id="Path_51875" data-name="Path 51875" class="cls-14" d="M2228,1528.068h68.256c-.037-.111-.079-.221-.126-.329h-68.1C2228.021,1527.849,2228.01,1527.96,2228,1528.068Z" transform="translate(-2227.578 -1525.509)"/>
        <path id="Path_51876" data-name="Path 51876" class="cls-14" d="M2229.076,1511.124h66.84c-.09-.11-.184-.218-.281-.327h-66.553C2229.081,1510.906,2229.079,1511.014,2229.076,1511.124Z" transform="translate(-2228.516 -1510.798)"/>
      </g>
      <g id="Group_14184" data-name="Group 14184" transform="translate(-18490.117 -11832.995)">
        <path id="Path_51877" data-name="Path 51877" class="cls-15" d="M2429.843,1040.4c.405,1.9-.348,3.316,1.433,4.8a3.615,3.615,0,0,0,3.24,1,4.5,4.5,0,0,0,3.361-2.226,5.206,5.206,0,0,0,.334-4.846,8.058,8.058,0,0,0-3.624-3.332c-1.6-.893-3.023-1.785-2.748-3.478.235-1.444.374-2.493-.261-3.322-.856-1.118-3.112-1.243-4.413-.588-1.536.773-2.241,1.444-2.1,2.515.15,1.188,3.684,2.63,3.695,4.352,0,.532-.368,1.776-.026,2.2A6.257,6.257,0,0,1,2429.843,1040.4Z" transform="translate(-2405.418 -1028.005)"/>
        <path id="Path_51878" data-name="Path 51878" class="cls-12" d="M2333.7,1388.073a2.418,2.418,0,0,0,2.964,1.354c1.6-.726.76-2.291.138-6.782-.438-3.167-1.105-7.4-1.951-12.229a3.238,3.238,0,0,1,1.48-3.5c1.3-.633,8.6-2.555,9.069-4.927.415-2.1-2.18-4.2-3.89-4.714-2.125-.636-10.563-.36-13.264,1.344-1.693,1.067-1.978,3.635-1.463,5.772C2327.308,1366.565,2332.774,1385.187,2333.7,1388.073Z" transform="translate(-2319.888 -1313.664)"/>
        <path id="Path_51879" data-name="Path 51879" class="cls-17" d="M2372.459,1601.282a8.727,8.727,0,0,0,4.478-1.218,4.888,4.888,0,0,0,1.285-2.557c.359-1.192,1.235-1.171.466-2.477a5.2,5.2,0,0,0-2.015-2.051,3.754,3.754,0,0,0-2.288-.435c-.943.278-1.549,1.236-1.356,2.774a7.248,7.248,0,0,1-1.145,3.79C2371.218,1600.143,2371.523,1601.167,2372.459,1601.282Z" transform="translate(-2358.943 -1518.199)"/>
        <path id="Path_51880" data-name="Path 51880" class="cls-7" d="M2298.916,1605.541c1.28-.423,2.022-1.627,2.895-2.745.847-1.085,2.164-2.488,1.944-4.2-.174-1.356-.72-.227-1.633-.181-1.021.052-2.031-.971-3.061-.582s-1.587,2.36-2.418,3.2-2.532,1.807-3.282,2.761C2290.758,1607.1,2297.913,1605.873,2298.916,1605.541Z" transform="translate(-2290.573 -1522.76)"/>
        <path id="Path_51881" data-name="Path 51881" class="cls-15" d="M2343.863,1383.434a2.346,2.346,0,0,0,1.733,2.951,2.061,2.061,0,0,0,2.338-1.174c1.42-3.55,5.042-13.671,7.333-19.475a3.012,3.012,0,0,1,2.761-2.024h6.28a5.939,5.939,0,0,0,2.854-.461c3.447-2.044,3.68-6.76,1.223-9.812-1.416-1.759-13.784.977-15.469,1.449a5.251,5.251,0,0,0-2.883,2.524C2349.059,1359.381,2344.741,1379.671,2343.863,1383.434Z" transform="translate(-2334.854 -1310.103)"/>
        <path id="Path_51882" data-name="Path 51882" class="cls-7" d="M2397.69,1182.687c.1,1.353.343,5.6,5.3,5.6,2.027,0,5.168-.01,7.123-.01,1.01,0,1.531-.928,1.131-2.1-.346-1.014-2.4-4.067-1.2-7.611.9-2.659.668-9.985-.271-12.864-.647-1.983-2.436-4.556-2.887-3a11.257,11.257,0,0,1-2.717,4.29c-1.79,1.615-4.082,1.544-4.709.1-.67-1.544-.2-2.69-.783-3.859-.517-1.038-2.326,1.732-2.585,2.68a31.346,31.346,0,0,0-1.106,8.13C2394.95,1176.9,2397.474,1179.9,2397.69,1182.687Z" transform="translate(-2379.313 -1144.562)"/>
        <path id="Path_51883" data-name="Path 51883" class="cls-22" d="M2392.931,1255.6c0,4.1,2.391,1.943,6.032,1.943s9.3,3.163,9.3-1.943c0-2.713-5.656-.152-9.3-.152S2392.931,1252.6,2392.931,1255.6Z" transform="translate(-2377.531 -1224.451)"/>
        <path id="Path_51884" data-name="Path 51884" class="cls-23" d="M2413.434,1084.962a2.626,2.626,0,0,0-1.489,2.324,5.556,5.556,0,0,0,.875,3.2c1.241,2,3.616,1.7,5.389.247,1.093-.9,3.34-3.639,2.659-5.313-.364-.9-1.342-.983-2.016-1.548-.879-.737-.5-1.677-.645-2.731,1.227.35,1.332-2.621.926-3.368a.469.469,0,0,0-.33-.149c-.031-.307.26-3.234-2.6-4a4.717,4.717,0,0,0-5.018,1.933c-.7,1.282-.088,2.832.04,4.177a7.231,7.231,0,0,0,.844,3.42A6.837,6.837,0,0,0,2413.434,1084.962Z" transform="translate(-2393.096 -1067.488)"/>
        <path id="Path_51885" data-name="Path 51885" class="cls-1" d="M2377.766,1160.293a3.722,3.722,0,0,1-.373.337,9.748,9.748,0,0,0-1.46,1.293,11.75,11.75,0,0,0-1.678,5.072,29.322,29.322,0,0,0-.091,6.144c.094,1.349.088,3.612-1.91,3.04-.475-.138-2.659-1.125-2.816-1.7a3.491,3.491,0,0,1,.2-1.639c.18-.879.534-3.341.682-4.161.829-4.583,1.935-6.841,4.829-8.113a10.2,10.2,0,0,1,2.089-.713c.028,0,.053-.008.077-.011A2.8,2.8,0,0,0,2377.766,1160.293Z" transform="translate(-2357.087 -1142.489)"/>
        <path id="Path_51886" data-name="Path 51886" class="cls-24" d="M2428.976,1154.867c0,.486.613,2.47,1.954,2.47s2.714-2.834,2.447-3.236c-.284-.428-.8,1.588-2.447,1.589C2429.243,1155.69,2428.976,1154.381,2428.976,1154.867Z" transform="translate(-2408.832 -1137.453)"/>
        <path id="Path_51887" data-name="Path 51887" class="cls-1" d="M2486.293,1173.476a67.73,67.73,0,0,0-2.62-8.986c-1.342-3.764-2.62-6.658-3.8-7.626a5.009,5.009,0,0,0-.938-.851,19.422,19.422,0,0,0-5.439-2.3c-.76-.2.37.621.759.913,2.2,1.655,2.32,13.357,1.574,16.935a15.456,15.456,0,0,0-.634,3.911c.1,1.943,1.869,4.31,3.024,6.244.65,1.089,3.042,5.24,4.329,3.538,1.444-1.909.3-4.275-.058-6-.132-.634-.228-1.264-.306-1.894a12.18,12.18,0,0,0,2.709-1.149A2.9,2.9,0,0,0,2486.293,1173.476Z" transform="translate(-2447.268 -1137.141)"/>
        <path id="Path_51888" data-name="Path 51888" class="cls-23" d="M2442.507,1308.725c.412-.122,9.538-3.244,10.493-3.739,1.678-.871,1-3.179-.664-3.585a4.167,4.167,0,0,0-2.391.4c-2.951,1.456-6.952,3.611-8.322,4.292C2436.367,1308.71,2440.388,1309.351,2442.507,1308.725Z" transform="translate(-2417.564 -1265.373)"/>
        <g id="Group_14183" data-name="Group 14183" transform="translate(0 31.385)">
          <path id="Path_51889" data-name="Path 51889" class="cls-25" d="M2281.127,1278.805h18.082L2294,1266.47h-18.082Z" transform="translate(-2275.919 -1266.47)"/>
          <path id="Path_51890" data-name="Path 51890" class="cls-26" d="M2353.013,1307.217a2.108,2.108,0,0,0,1.763,1.239c.687,0,1.01-.555.723-1.239a2.109,2.109,0,0,0-1.764-1.239C2353.049,1305.978,2352.725,1306.533,2353.013,1307.217Z" transform="translate(-2342.775 -1300.778)"/>
          <path id="Path_51891" data-name="Path 51891" class="cls-27" d="M2418.731,1278.805h-.341l-5.227-12.335h.342Z" transform="translate(-2395.1 -1266.47)"/>
          <rect id="Rectangle_13824" data-name="Rectangle 13824" class="cls-28" width="17.6" height="0.67" transform="translate(23.632 13.005) rotate(180)"/>
          <rect id="Rectangle_13825" data-name="Rectangle 13825" class="cls-27" width="7.169" height="0.67" transform="translate(23.632 12.335)"/>
        </g>
        <path id="Path_51892" data-name="Path 51892" class="cls-12" d="M2407.11,1038.094a4.789,4.789,0,0,0-1.638-3.542c-1.145-.829-3.252-1.7-3.552-2.27-.344-.655-.348-1.709,1.567-2.471.518-.206.059-.351-.559-.2a5.971,5.971,0,0,0-2.517,1.218,1.6,1.6,0,0,0,.208,2.625c.135.112.27.456-.167.6a9.268,9.268,0,0,0-2.434,1.217,4.147,4.147,0,0,0-1.728,4.954c.319,1.051,1.244,2.669,1.958,2.888.2.062.247-.133.223-.629-.056-1.179.029-2.6,2.432-3.947,1.054-.589,2.7-.726,3.354,1.475.125.417.632,1.813,1.1,1.45.156-.12.023-1.087.532-1.314s.6.477.922.1A7.415,7.415,0,0,0,2407.11,1038.094Z" transform="translate(-2380.241 -1029.346)"/>
      </g>
    </g>
  </g>
</svg>
