<svg xmlns="http://www.w3.org/2000/svg" xmlns:xlink="http://www.w3.org/1999/xlink" width="1300.56" height="180" viewBox="0 0 1300.56 180">
  <defs>
    <style>
      .cls-1 {
        fill: #013f87;
      }

      .cls-2 {
        fill: #91b5f8;
      }

      .cls-3, .cls-6 {
        opacity: 0.8;
      }

      .cls-3 {
        clip-path: url(#clip-path);
      }

      .cls-4 {
        fill: #2b65ee;
        opacity: 0.496;
      }

      .cls-5 {
        fill: #2095d3;
        opacity: 0.3;
      }

      .cls-7 {
        fill: #bdd1f9;
      }

      .cls-8 {
        fill: #fb9391;
      }

      .cls-9 {
        fill: #fff;
      }

      .cls-10 {
        fill: #17152b;
      }

      .cls-11 {
        fill: #ffeb9a;
      }

      .cls-12 {
        fill: #ea6868;
      }

      .cls-13 {
        fill: #0a0a0a;
      }

      .cls-14 {
        fill: #060633;
      }

      .cls-15 {
        fill: #000543;
      }

      .cls-16 {
        fill: #fa7267;
      }

      .cls-17 {
        clip-path: url(#clip-path-2);
      }

      .cls-18 {
        clip-path: url(#clip-path-3);
      }

      .cls-19 {
        fill: #050521;
      }

      .cls-20 {
        fill: #131375;
      }

      .cls-21 {
        fill: #39c1fa;
      }

      .cls-22 {
        fill: #043a78;
      }

      .cls-23 {
        fill: #0b0755;
      }

      .cls-24 {
        fill: #452a51;
      }

      .cls-25 {
        fill: #fafafc;
      }

      .cls-26 {
        fill: #7c9af2;
      }
    </style>
    <clipPath id="clip-path">
      <path id="Path_17244" data-name="Path 17244" class="cls-1" d="M-1000.56,0H226a73.865,73.865,0,0,1,74,73.728V180H-1000.56Z" transform="translate(1000.564 145)"/>
    </clipPath>
    <clipPath id="clip-path-2">
      <rect id="Rectangle_13524" data-name="Rectangle 13524" class="cls-2" width="29.178" height="32.946" transform="translate(0.136 0) rotate(0.236)"/>
    </clipPath>
    <clipPath id="clip-path-3">
      <rect id="Rectangle_13526" data-name="Rectangle 13526" class="cls-2" width="29.036" height="32.786" transform="matrix(1, 0.004, -0.004, 1, 0.135, 0)"/>
    </clipPath>
  </defs>
  <g id="Group_3060" data-name="Group 3060" transform="translate(396.996 -238)">
    <g id="Group_25218" data-name="Group 25218" transform="translate(-397 93)">
      <path id="Path_17229" data-name="Path 17229" class="cls-1" d="M-1000.56,0H226a73.865,73.865,0,0,1,74,73.728V180H-1000.56Z" transform="translate(1000.564 145)"/>
      <g id="Group_25217" data-name="Group 25217">
        <g id="Group_25216" data-name="Group 25216">
          <g id="Mask_Group_54" data-name="Mask Group 54" class="cls-3">
            <path id="Path_16995" data-name="Path 16995" class="cls-4" d="M720.445,0C686.77,14.564,701.31,44.367,664.888,54.322c-34.8,9.511-73.58-1.18-108.342,8.433-13.855,3.831-26.2,14.364-37.871,24.621q-.789.693-1.57,1.392a181.448,181.448,0,0,0-42.144,55.972l-35.867,73.8H923.745s43.361-167.953-71.17-178.793-89.4,0-89.4,0V0Z" transform="translate(376.824 106.21)"/>
            <circle id="Ellipse_576" data-name="Ellipse 576" class="cls-5" cx="250.5" cy="250.5" r="250.5" transform="translate(953 -148)"/>
          </g>
        </g>
      </g>
    </g>
    <g id="Group_1" data-name="Group 1" class="cls-6" transform="translate(148.273 -232.748)">
      <g id="Group_3059" data-name="Group 3059" transform="translate(287.326 479.876)">
        <g id="Group_3024" data-name="Group 3024" transform="translate(64.842 14.957)">
          <path id="Path_5693" data-name="Path 5693" class="cls-7" d="M733.875,606.647H720.486a.587.587,0,0,1-.587-.587v-13.39a.587.587,0,0,1,.587-.587h13.389a.587.587,0,0,1,.587.587v13.39A.587.587,0,0,1,733.875,606.647Zm-12.8-1.174h12.216V593.258H721.073Z" transform="translate(-719.899 -590.221)"/>
          <path id="Path_5694" data-name="Path 5694" class="cls-7" d="M740.891,592.946h-.011a.587.587,0,0,1-.5-.3,23.708,23.708,0,0,0-4.153-5.341.587.587,0,0,1,.778-.879,22.986,22.986,0,0,1,3.894,4.8,128.148,128.148,0,0,1,7.688-11.347.587.587,0,0,1,.92.729,129.98,129.98,0,0,0-8.112,12.059A.587.587,0,0,1,740.891,592.946Z" transform="translate(-733.609 -579.654)"/>
        </g>
        <g id="Group_3025" data-name="Group 3025" transform="translate(90.974 0)">
          <path id="Path_5695" data-name="Path 5695" class="cls-7" d="M908.21,506.869H894.821a.587.587,0,0,1-.587-.587V492.893a.587.587,0,0,1,.587-.587H908.21a.587.587,0,0,1,.587.587v13.389A.587.587,0,0,1,908.21,506.869Zm-12.8-1.174h12.216V493.48H895.408Z" transform="translate(-894.234 -490.443)"/>
          <path id="Path_5696" data-name="Path 5696" class="cls-7" d="M915.226,493.168h-.011a.586.586,0,0,1-.5-.3,23.709,23.709,0,0,0-4.153-5.341.587.587,0,0,1,.778-.879,22.979,22.979,0,0,1,3.894,4.8,128.16,128.16,0,0,1,7.688-11.347.587.587,0,1,1,.92.729,129.925,129.925,0,0,0-8.112,12.059A.587.587,0,0,1,915.226,493.168Z" transform="translate(-907.944 -479.876)"/>
        </g>
        <g id="Group_3030" data-name="Group 3030" transform="translate(288.023 10.498)">
          <g id="Group_3027" data-name="Group 3027" transform="translate(4.059 37.907)">
            <path id="Path_5697" data-name="Path 5697" class="cls-8" d="M2596.287,1264.256a24.279,24.279,0,0,0-1.2,3.034c-.192.865-1.021,1.56-.586,1.834s1.432-1.109,1.432-1.109.453,1.745.511,2.3.415,1.527.826,1.517-.054-2.668-.054-2.668.612,2.2.993,2.271.015-2.842.015-2.842a14.969,14.969,0,0,0,.742,2.528c.2.149.4-.107.419-.995a8.455,8.455,0,0,0-.2-1.8,19.121,19.121,0,0,0,.632,1.819c.129.176.435.324.317-.993a13.682,13.682,0,0,0-1.768-5.381Z" transform="translate(-2557.634 -1194.673)"/>
            <path id="Path_5698" data-name="Path 5698" class="cls-8" d="M2421.257,803.765a1.567,1.567,0,0,0,.413-.226c.064.56.18,1.074.18,1.074.2.461.49-2.03.854-1.805.437.27.229,1.929-.035,2.774a24.3,24.3,0,0,1-1.458,2.921l-2.108.305a9.533,9.533,0,0,1-1.116-4.089A33.968,33.968,0,0,0,2421.257,803.765Z" transform="translate(-2407.688 -802.794)"/>
            <path id="Path_5699" data-name="Path 5699" class="cls-9" d="M2520.906,1553.355s.175,5.168.219,5.24-.342.739-.342.739l-1.615.371-1.52-.612s-.1-4.808-.293-5.558S2520.906,1553.355,2520.906,1553.355Z" transform="translate(-2492.155 -1440.671)"/>
            <path id="Path_5700" data-name="Path 5700" class="cls-10" d="M2518.574,1589.414a4.24,4.24,0,0,0,3.462-.6s6.365,2.042,6.261,3.833c0,0,.292.518-2.423.534s-6.93.1-7.046.042S2518.195,1593.479,2518.574,1589.414Z" transform="translate(-2493.081 -1470.993)"/>
            <path id="Path_5701" data-name="Path 5701" class="cls-9" d="M2391.206,1553.355s-.175,5.168-.219,5.24.342.739.342.739l1.615.371,1.52-.612s.1-4.808.293-5.558S2391.206,1553.355,2391.206,1553.355Z" transform="translate(-2384.732 -1440.671)"/>
            <path id="Path_5702" data-name="Path 5702" class="cls-10" d="M2359.012,1589.414a4.24,4.24,0,0,1-3.462-.6s-6.365,2.042-6.26,3.833c0,0-.292.518,2.423.534s6.93.1,7.046.042S2359.391,1593.479,2359.012,1589.414Z" transform="translate(-2349.28 -1470.993)"/>
            <path id="Path_5703" data-name="Path 5703" class="cls-11" d="M2453.235,989.539l6.5,3.794.892,4.451-5.032,24.652-10.97-1.677,4.216-25.015Z" transform="translate(-2430.331 -961.546)"/>
            <path id="Path_5704" data-name="Path 5704" class="cls-9" d="M2387.763,1183.44s-3.6,12.081-5.022,57.05l6.36,1.363s7.449-39.543,7.993-40.036,4.533,40.036,4.533,40.036h6.89l.363-54.853Z" transform="translate(-2377.725 -1126.382)"/>
            <path id="Path_5705" data-name="Path 5705" class="cls-1" d="M2410.044,857.32s-7.162,21.926-8.069,38.517l-8.16-.608s4.352-18.28,4.352-22.027-2.539-21.819-2.539-26.08,2.176-13.116,2.176-13.116l4.125,1S2399.2,850.988,2410.044,857.32Z" transform="translate(-2387.14 -829.327)"/>
            <path id="Path_5706" data-name="Path 5706" class="cls-1" d="M2508.577,1014.849s-4.835,20.741-5.077,24.453-1.42,11.227-1.42,11.227l8.552.494.846-14.65a67.862,67.862,0,0,1,3.264,7.986c.6,2.4,1.693,9.051,1.693,9.051h4.835s.726-14.869-1.813-22.605S2515.981,1019.217,2508.577,1014.849Z" transform="translate(-2479.176 -983.062)"/>
            <g id="Group_3026" data-name="Group 3026" transform="translate(22.963 13.05)">
              <path id="Path_5707" data-name="Path 5707" class="cls-12" d="M2505.029,935.491s-.15-.757-.561-.643c-1.048.291-.58,1.412-.123,1.806Z" transform="translate(-2503.631 -928.093)"/>
              <path id="Path_5708" data-name="Path 5708" class="cls-8" d="M2504.595,904.56l0,0c.023-.063.047-.127.072-.19a5.247,5.247,0,1,1,8.473,5.791c-.916.951-1.711,1.759-2.461,2.394a7.5,7.5,0,0,0-2.448,4.077l-.282,1.248c-3.634.362-4.388-1.673-4.388-1.673l.825-2.164a.583.583,0,0,0-.292-.731l-.005,0C2500.493,911.553,2503.91,906.226,2504.595,904.56Z" transform="translate(-2502.471 -899.43)"/>
              <path id="Path_5709" data-name="Path 5709" class="cls-13" d="M2518.144,937.1a.381.381,0,1,1,.208.5A.381.381,0,0,1,2518.144,937.1Z" transform="translate(-2515.77 -929.812)"/>
              <path id="Path_5710" data-name="Path 5710" class="cls-13" d="M2543.979,954.589a.382.382,0,1,1,.208.5A.381.381,0,0,1,2543.979,954.589Z" transform="translate(-2537.732 -944.684)"/>
              <path id="Path_5711" data-name="Path 5711" class="cls-14" d="M2546.545,945.645a.286.286,0,0,0,.391-.308,1.534,1.534,0,0,0-1.747-1.248.286.286,0,0,0,.042.571.966.966,0,0,1,1.139.763A.286.286,0,0,0,2546.545,945.645Z" transform="translate(-2538.561 -935.954)"/>
              <path id="Path_5712" data-name="Path 5712" class="cls-14" d="M2520.226,929.328a.286.286,0,0,0,.392-.308,1.534,1.534,0,0,0-1.747-1.248.286.286,0,1,0,.042.571.966.966,0,0,1,1.139.763A.285.285,0,0,0,2520.226,929.328Z" transform="translate(-2516.187 -922.082)"/>
              <path id="Path_5713" data-name="Path 5713" class="cls-14" d="M2564.112,940.154l-2.606,2.682-.81-.539,1.211-4.453Z" transform="translate(-2551.968 -930.65)"/>
              <path id="Path_5714" data-name="Path 5714" class="cls-8" d="M2556.763,965.416a.779.779,0,0,1,.518-.187,1.315,1.315,0,0,1,1.281.671c.351.841-1.5,1.928-2.36.656C2556.2,966.556,2556,966.078,2556.763,965.416Z" transform="translate(-2548.129 -953.93)"/>
              <path id="Path_5715" data-name="Path 5715" class="cls-12" d="M2521.672,948.076a.977.977,0,0,0,.834.314.085.085,0,0,0-.028-.167.8.8,0,0,1-.827-.487.3.3,0,0,1-.045-.2c.02-.055.113-.1.242-.158a2.5,2.5,0,0,0,1.244-1.16.085.085,0,0,0-.148-.084,2.318,2.318,0,0,1-1.167,1.09c-.16.074-.286.132-.331.254a.426.426,0,0,0,.052.329A1.144,1.144,0,0,0,2521.672,948.076Z" transform="translate(-2518.588 -937.663)"/>
              <path id="Path_5716" data-name="Path 5716" class="cls-9" d="M2516.39,961a7.272,7.272,0,0,1-2.88-1.554s-.292,1.536.732,2.089S2516.39,961,2516.39,961Z" transform="translate(-2511.823 -949.013)"/>
              <path id="Path_5717" data-name="Path 5717" class="cls-14" d="M2526.783,899.212a2.357,2.357,0,0,0,.607-.935,8.5,8.5,0,0,0,.554-4.466,2.363,2.363,0,0,0-.551-1.352.325.325,0,0,0-.179-.108c-.173-.022-.273.187-.317.355l-.311,1.176a13.957,13.957,0,0,0-1.4-2.351,4.674,4.674,0,0,0-2.167-1.613.724.724,0,0,0-.728.063c-.247.244-.082.659.094.958-1.763-.462-3.647-.921-5.376-.342-.239.08-.511.235-.512.487,0,.236.246.4.476.452a1.931,1.931,0,0,1,.676.2,6.7,6.7,0,0,1-.9.245.793.793,0,0,0-.612.63c-.023.471.559.7,1.022.788l3.886.745c-.185.265-.516.379-.77.58s-.413.62-.168.83a.7.7,0,0,0,.387.125l2.9.333a1.1,1.1,0,0,0-.524,1.1,1.766,1.766,0,0,0,.553.915C2524.083,898.683,2525.883,899.964,2526.783,899.212Z" transform="translate(-2514.085 -889.852)"/>
              <path id="Path_5718" data-name="Path 5718" class="cls-14" d="M2514.08,910.509s-.9.2-2.28,3.078c0,0,1.112-3.381,1.625-3.592S2514.08,910.509,2514.08,910.509Z" transform="translate(-2510.402 -906.943)"/>
            </g>
            <path id="Path_5719" data-name="Path 5719" class="cls-15" d="M2511.758,1009.809v1.8l.937.438,1.36-.907-.846-1.33Z" transform="translate(-2487.403 -978.777)"/>
            <path id="Path_5720" data-name="Path 5720" class="cls-9" d="M2512.793,995.271l-.263-1.291-2.891.645-1.225-2.524-.566.281-.324,2.584,1.949-.045.982,1.556Z" transform="translate(-2483.803 -963.725)"/>
            <path id="Path_5721" data-name="Path 5721" class="cls-15" d="M2471.824,1021.806l-7.042,20.994,1.692,5.705,4.412-4.231,1.934-22.333Z" transform="translate(-2447.469 -988.976)"/>
          </g>
          <g id="Group_3029" data-name="Group 3029" transform="translate(0)">
            <rect id="Rectangle_13521" data-name="Rectangle 13521" class="cls-9" width="27.944" height="36.988" transform="translate(10.421 0) rotate(16.365)"/>
            <g id="Group_3028" data-name="Group 3028" transform="translate(1.731 4.231)">
              <path id="Path_5722" data-name="Path 5722" class="cls-7" d="M2404.642,581.776l-11.39-3.345a.06.06,0,0,1-.04-.074l.052-.178a.06.06,0,0,1,.074-.041l11.39,3.345a.06.06,0,0,1,.04.074l-.052.178A.06.06,0,0,1,2404.642,581.776Z" transform="translate(-2384.295 -578.136)"/>
              <path id="Path_5723" data-name="Path 5723" class="cls-7" d="M2400.439,596.085l-11.39-3.345a.06.06,0,0,1-.041-.074l.052-.178a.06.06,0,0,1,.074-.04l11.39,3.345a.06.06,0,0,1,.041.074l-.052.178A.06.06,0,0,1,2400.439,596.085Z" transform="translate(-2380.723 -590.301)"/>
              <path id="Path_5724" data-name="Path 5724" class="cls-7" d="M2414.2,662.3l-11.39-3.345a.06.06,0,0,1-.041-.074l.052-.178a.06.06,0,0,1,.074-.04l11.39,3.345a.06.06,0,0,1,.041.074l-.052.178A.06.06,0,0,1,2414.2,662.3Z" transform="translate(-2392.423 -646.591)"/>
              <path id="Path_5725" data-name="Path 5725" class="cls-7" d="M2409.619,677.912l-11.39-3.345a.06.06,0,0,1-.041-.074l.053-.178a.06.06,0,0,1,.074-.041l11.39,3.345a.06.06,0,0,1,.041.074l-.052.178A.06.06,0,0,1,2409.619,677.912Z" transform="translate(-2388.526 -659.862)"/>
              <path id="Path_5726" data-name="Path 5726" class="cls-7" d="M2416.3,671.395l-15.778-4.633a.06.06,0,0,1-.041-.074l.052-.178a.06.06,0,0,1,.074-.041l15.778,4.633a.06.06,0,0,1,.041.074l-.052.178A.06.06,0,0,1,2416.3,671.395Z" transform="translate(-2390.474 -653.226)"/>
              <path id="Path_5727" data-name="Path 5727" class="cls-7" d="M2388.98,635.112l-11.39-3.344a.06.06,0,0,1-.041-.074l.052-.178a.06.06,0,0,1,.074-.041l11.39,3.345a.06.06,0,0,1,.041.074l-.052.178A.06.06,0,0,1,2388.98,635.112Z" transform="translate(-2370.981 -623.477)"/>
              <path id="Path_5728" data-name="Path 5728" class="cls-7" d="M2480.443,619.578l-11.39-3.345a.06.06,0,0,1-.041-.074l.052-.178a.06.06,0,0,1,.074-.04l11.39,3.345a.06.06,0,0,1,.041.074l-.052.178A.06.06,0,0,1,2480.443,619.578Z" transform="translate(-2448.734 -610.272)"/>
              <path id="Path_5729" data-name="Path 5729" class="cls-7" d="M2409.567,609.364l-23.383-6.866a.06.06,0,0,1-.041-.074l.052-.178a.06.06,0,0,1,.074-.04l23.383,6.866a.06.06,0,0,1,.041.074l-.052.178A.06.06,0,0,1,2409.567,609.364Z" transform="translate(-2378.288 -598.595)"/>
              <path id="Path_5730" data-name="Path 5730" class="cls-7" d="M2406.32,620.421l-23.383-6.866a.06.06,0,0,1-.041-.074l.052-.178a.06.06,0,0,1,.074-.041l23.383,6.866a.06.06,0,0,1,.041.074l-.052.178A.06.06,0,0,1,2406.32,620.421Z" transform="translate(-2375.527 -607.995)"/>
              <path id="Path_5731" data-name="Path 5731" class="cls-7" d="M2403.646,629.527l-23.383-6.866a.06.06,0,0,1-.041-.074l.052-.178a.06.06,0,0,1,.074-.04l23.383,6.866a.06.06,0,0,1,.041.074l-.052.178A.059.059,0,0,1,2403.646,629.527Z" transform="translate(-2373.254 -615.736)"/>
              <path id="Path_5732" data-name="Path 5732" class="cls-7" d="M2369.63,649.974l-3.315-.973a.138.138,0,0,1-.093-.171l.974-3.315a.138.138,0,0,1,.171-.094l3.315.973a.138.138,0,0,1,.094.171l-.974,3.315A.138.138,0,0,1,2369.63,649.974Zm-3.105-1.2,3.051.9.9-3.05-3.051-.9Z" transform="translate(-2361.349 -635.331)"/>
              <path id="Path_5733" data-name="Path 5733" class="cls-7" d="M2399.687,711.734l-11.39-3.345a.06.06,0,0,1-.041-.074l.052-.178a.06.06,0,0,1,.074-.041l11.39,3.345a.06.06,0,0,1,.041.074l-.052.178A.06.06,0,0,1,2399.687,711.734Z" transform="translate(-2380.083 -688.614)"/>
              <path id="Path_5734" data-name="Path 5734" class="cls-7" d="M2406.366,705.218l-15.778-4.633a.06.06,0,0,1-.041-.074l.052-.178a.06.06,0,0,1,.074-.04l15.778,4.633a.06.06,0,0,1,.041.074l-.052.178A.06.06,0,0,1,2406.366,705.218Z" transform="translate(-2382.032 -681.979)"/>
              <path id="Path_5735" data-name="Path 5735" class="cls-7" d="M2358.17,689l-3.315-.973a.138.138,0,0,1-.094-.171l.974-3.315a.138.138,0,0,1,.171-.094l3.315.973a.138.138,0,0,1,.094.171l-.973,3.315A.138.138,0,0,1,2358.17,689Zm-3.1-1.2,3.05.9.9-3.05-3.051-.9Z" transform="translate(-2351.607 -668.507)"/>
              <path id="Path_5736" data-name="Path 5736" class="cls-16" d="M2377.081,651.1l-.01,0a.184.184,0,0,1-.122-.164,6.009,6.009,0,0,0-.421-1.939.184.184,0,1,1,.342-.136,6.4,6.4,0,0,1,.414,1.642,9.6,9.6,0,0,1,3.272-2.142.184.184,0,1,1,.134.342,9.194,9.194,0,0,0-3.421,2.348A.184.184,0,0,1,2377.081,651.1Z" transform="translate(-2370.104 -637.822)"/>
              <path id="Path_5737" data-name="Path 5737" class="cls-7" d="M2392.047,737.751l-11.39-3.345a.06.06,0,0,1-.041-.074l.052-.178a.06.06,0,0,1,.074-.041l11.39,3.345a.06.06,0,0,1,.041.074l-.052.178A.06.06,0,0,1,2392.047,737.751Z" transform="translate(-2373.589 -710.731)"/>
              <path id="Path_5738" data-name="Path 5738" class="cls-7" d="M2394.142,746.846l-15.778-4.633a.06.06,0,0,1-.041-.074l.052-.178a.06.06,0,0,1,.074-.04l15.777,4.633a.06.06,0,0,1,.041.074l-.052.178A.06.06,0,0,1,2394.142,746.846Z" transform="translate(-2371.64 -717.367)"/>
              <path id="Path_5739" data-name="Path 5739" class="cls-7" d="M2347.475,725.426l-3.315-.973a.138.138,0,0,1-.093-.171l.973-3.315a.138.138,0,0,1,.171-.093l3.315.973a.139.139,0,0,1,.094.171l-.974,3.315A.138.138,0,0,1,2347.475,725.426Zm-3.105-1.2,3.051.9.9-3.05-3.051-.9Z" transform="translate(-2342.515 -699.472)"/>
              <path id="Path_5740" data-name="Path 5740" class="cls-7" d="M2381.733,772.875l-11.39-3.345a.06.06,0,0,1-.041-.074l.052-.178a.06.06,0,0,1,.074-.041l11.39,3.345a.06.06,0,0,1,.041.074l-.052.178A.06.06,0,0,1,2381.733,772.875Z" transform="translate(-2364.821 -740.59)"/>
              <path id="Path_5741" data-name="Path 5741" class="cls-7" d="M2377.149,788.486l-11.39-3.345a.06.06,0,0,1-.041-.074l.052-.178a.06.06,0,0,1,.074-.04l11.39,3.345a.06.06,0,0,1,.041.074l-.052.178A.06.06,0,0,1,2377.149,788.486Z" transform="translate(-2360.924 -753.861)"/>
              <path id="Path_5742" data-name="Path 5742" class="cls-7" d="M2383.829,781.97l-15.778-4.633a.06.06,0,0,1-.041-.074l.052-.178a.06.06,0,0,1,.074-.041l15.778,4.633a.06.06,0,0,1,.041.074l-.052.178A.06.06,0,0,1,2383.829,781.97Z" transform="translate(-2362.872 -747.226)"/>
              <path id="Path_5743" data-name="Path 5743" class="cls-7" d="M2337.161,760.549l-3.315-.973a.138.138,0,0,1-.094-.171l.973-3.315a.138.138,0,0,1,.171-.093l3.315.973a.138.138,0,0,1,.094.171l-.974,3.315A.138.138,0,0,1,2337.161,760.549Zm-3.1-1.2,3.051.9.9-3.05-3.05-.9Z" transform="translate(-2333.747 -729.331)"/>
            </g>
          </g>
          <path id="Path_5744" data-name="Path 5744" class="cls-8" d="M2436.465,808.46a9.891,9.891,0,0,0,.318-2.375c-.044-1-.347-.6-.532,0s-.321,1.124-.727,1.318-1.123.175-1.017.833S2436.227,809.056,2436.465,808.46Z" transform="translate(-2417.663 -767.169)"/>
        </g>
        <g id="Group_3045" data-name="Group 3045" transform="translate(119.273 3.116)">
          <rect id="Rectangle_13522" data-name="Rectangle 13522" class="cls-9" width="114.827" height="156.609" transform="translate(0.645 0) rotate(0.236)"/>
          <g id="Group_3044" data-name="Group 3044" transform="translate(9.144 10.294)">
            <g id="Group_3032" data-name="Group 3032" transform="translate(1.003 82.574)">
              <g id="Group_3031" data-name="Group 3031" class="cls-17" transform="translate(0)">
                <rect id="Rectangle_13523" data-name="Rectangle 13523" class="cls-2" width="33.592" height="37.273" transform="translate(-3.24 -3.782) rotate(0.236)"/>
                <path id="Path_5745" data-name="Path 5745" class="cls-2" d="M1268.23,1164.2c.038,1.567,1.917,2.88,1.394,4.358-.116.328-.345.61-.438.945a1.609,1.609,0,0,0,1.058,1.8,3.076,3.076,0,0,0,2.235-.167c.708-.292,1.351-.72,2.049-1.034a22.208,22.208,0,0,1,5.007-1.129,19.877,19.877,0,0,1,5.146-.771c2,.148,3.8,1.2,5.676,1.929a17.762,17.762,0,0,0,5.991,1.19,6.451,6.451,0,0,0,3.122-.547,4.357,4.357,0,0,0,1.883-5.365,5.186,5.186,0,0,0-2.309-2.589c-.915-.516-2.085-.692-2.774-1.553-.964-1.2-.362-3-.739-4.494a4.407,4.407,0,0,0-2.539-2.8c-1.091-.472-2.449-.543-3.266-1.508-.888-1.049-.585-2.494-.741-3.75a6.217,6.217,0,0,0-2.938-4.351,8.007,8.007,0,0,0-1.474-.723c-3.441-1.278-7.934-.425-9.16,3.51-.375,1.206-.354,2.555-1.019,3.629-.722,1.167-2.169,1.853-2.573,3.165-.507,1.648.9,3.426.427,5.084a5.3,5.3,0,0,1-2.225,2.46A3.638,3.638,0,0,0,1268.23,1164.2Z" transform="translate(-1267.614 -1139.659)"/>
                <path id="Path_5746" data-name="Path 5746" class="cls-2" d="M1276.621,1262.169s8.012,2.564,9.217,4.184,2.571,9.862,2.571,9.862l-30.029-1.17s3.717-8.467,6.066-10.314,7.346-2.594,7.346-2.594Z" transform="translate(-1259.24 -1240.862)"/>
                <path id="Path_5747" data-name="Path 5747" class="cls-2" d="M1314.325,1205.17s-.557-.62-.876-.287c-.812.849.321,1.649.963,1.763Z" transform="translate(-1305.815 -1192.106)"/>
                <path id="Path_5748" data-name="Path 5748" class="cls-2" d="M1321.631,1145.873a5.667,5.667,0,0,1,5.908,7.178,24.471,24.471,0,0,1-1.518,5,5.64,5.64,0,0,0-.389,4.112l.411,1.383c-3.022,2.113-4.69.693-4.69.693l-.482-3.262h0c-3.59.1-4.082-6.481-4.366-8.406h.005c-.013-.072-.027-.143-.037-.216A5.668,5.668,0,0,1,1321.631,1145.873Z" transform="translate(-1308.574 -1142.01)"/>
                <path id="Path_5749" data-name="Path 5749" class="cls-2" d="M1322.294,1149.543a24.166,24.166,0,0,1,2.212,1.98,6.12,6.12,0,0,1,1.825,2.514,7.309,7.309,0,0,0,1.577-3.048,5.334,5.334,0,0,0,.3-1.572,5.921,5.921,0,0,0-.586-2.183,6.188,6.188,0,0,0-1.518-2.479,4.711,4.711,0,0,0-1.731-.855,7.972,7.972,0,0,0-4.475-.091,5.743,5.743,0,0,0-3.473,2.73c-.909,1.723-.733,3.792-.533,5.73a5.735,5.735,0,0,1,.924-2.293,4.858,4.858,0,0,1,.964-1.294,23.865,23.865,0,0,0,2.151-1.643A6.711,6.711,0,0,0,1322.294,1149.543Z" transform="translate(-1307.993 -1140.034)"/>
                <path id="Path_5750" data-name="Path 5750" class="cls-2" d="M1380.057,1201.779a.841.841,0,0,1,.378-.46,1.42,1.42,0,0,1,1.56-.084c.79.587-.325,2.617-1.829,1.912C1380.166,1203.147,1379.717,1202.814,1380.057,1201.779Z" transform="translate(-1362.57 -1188.914)"/>
                <path id="Path_5751" data-name="Path 5751" class="cls-2" d="M1327.055,1203.315a.495.495,0,1,1,.6.361A.495.495,0,0,1,1327.055,1203.315Z" transform="translate(-1317.609 -1190.335)"/>
                <path id="Path_5752" data-name="Path 5752" class="cls-2" d="M1358.379,1202.221a.495.495,0,1,1,.6.361A.495.495,0,0,1,1358.379,1202.221Z" transform="translate(-1344.238 -1189.406)"/>
                <path id="Path_5753" data-name="Path 5753" class="cls-2" d="M1337.742,1227.558s.39-.345.648-.3a.737.737,0,0,1,.424.338.571.571,0,0,1,.428-.35,7.135,7.135,0,0,1,1.186.124s-.674,1.376-1.61,1.232a1.24,1.24,0,0,1-1.059-1Z" transform="translate(-1326.707 -1211.198)"/>
                <path id="Path_5754" data-name="Path 5754" class="cls-2" d="M1337.99,1227.42a2.927,2.927,0,0,0,2.031-.753.07.07,0,0,0-.095-.1c-.062.058-1.543,1.409-2.844.3a.07.07,0,0,0-.091.106A1.846,1.846,0,0,0,1337.99,1227.42Z" transform="translate(-1326.048 -1210.606)"/>
                <path id="Path_5755" data-name="Path 5755" class="cls-2" d="M1358.637,1195.911a.206.206,0,0,0,.057-.382,2.468,2.468,0,0,0-1.641-.169.206.206,0,0,0-.15.249.21.21,0,0,0,.249.15,2.055,2.055,0,0,1,1.347.132A.208.208,0,0,0,1358.637,1195.911Z" transform="translate(-1342.99 -1184.035)"/>
                <path id="Path_5756" data-name="Path 5756" class="cls-2" d="M1324.37,1196.012a.206.206,0,0,0-.013-.387,2.444,2.444,0,0,0-1.645.128.206.206,0,1,0,.169.375,2.047,2.047,0,0,1,1.349-.112A.2.2,0,0,0,1324.37,1196.012Z" transform="translate(-1313.826 -1184.247)"/>
                <path id="Path_5757" data-name="Path 5757" class="cls-2" d="M1340.463,1205.387a.881.881,0,0,1-.9-.657.173.173,0,0,1,.021-.127,2.558,2.558,0,0,0,.233-1.638.173.173,0,0,1,.339-.073,2.908,2.908,0,0,1-.235,1.82c.054.13.237.412.783.3a.173.173,0,0,1,.068.34A1.544,1.544,0,0,1,1340.463,1205.387Z" transform="translate(-1328.249 -1190.382)"/>
              </g>
            </g>
            <g id="Group_3043" data-name="Group 3043" transform="translate(0)">
              <g id="Group_3035" data-name="Group 3035" transform="translate(1.344)">
                <g id="Group_3034" data-name="Group 3034" class="cls-18" transform="translate(0)">
                  <rect id="Rectangle_13525" data-name="Rectangle 13525" class="cls-2" width="33.429" height="37.092" transform="translate(-3.225 -3.764) rotate(0.236)"/>
                  <g id="Group_3033" data-name="Group 3033" transform="translate(7.671 4.445)">
                    <path id="Path_5758" data-name="Path 5758" class="cls-2" d="M1318.868,651.176s-.412-.771-.819-.512c-1.04.661-.164,1.721.461,2Z" transform="translate(-1317.567 -642.873)"/>
                    <path id="Path_5759" data-name="Path 5759" class="cls-2" d="M1323.18,604.6l.006,0c0-.076.008-.153.016-.23a5.942,5.942,0,1,1,11.088,3.487c-.68,1.331-1.275,2.469-1.879,3.4a8.488,8.488,0,0,0-1.312,5.224l.1,1.445c-3.819,1.589-5.306-.369-5.306-.369l.182-2.616a.66.66,0,0,0-.557-.7h-.006C1321.037,613.526,1322.987,606.628,1323.18,604.6Z" transform="translate(-1321.839 -598.991)"/>
                    <path id="Path_5760" data-name="Path 5760" class="cls-2" d="M1365.178,658.14a.553.553,0,1,1,.5.6A.553.553,0,0,1,1365.178,658.14Z" transform="translate(-1358.039 -648.848)"/>
                    <path id="Path_5761" data-name="Path 5761" class="cls-2" d="M1333.155,648.5a.553.553,0,1,1,.5.6A.553.553,0,0,1,1333.155,648.5Z" transform="translate(-1330.816 -640.649)"/>
                    <path id="Path_5762" data-name="Path 5762" class="cls-2" d="M1366.483,648.57a.324.324,0,0,0,.323-.462,1.738,1.738,0,0,0-2.3-.777.324.324,0,1,0,.234.6,1.094,1.094,0,0,1,1.485.452A.324.324,0,0,0,1366.483,648.57Z" transform="translate(-1357.29 -639.949)"/>
                    <path id="Path_5763" data-name="Path 5763" class="cls-2" d="M1332.592,639.549a.324.324,0,0,0,.323-.462,1.737,1.737,0,0,0-2.3-.778.324.324,0,1,0,.234.6,1.094,1.094,0,0,1,1.485.452A.324.324,0,0,0,1332.592,639.549Z" transform="translate(-1328.479 -632.28)"/>
                    <path id="Path_5764" data-name="Path 5764" class="cls-2" d="M1390.733,635.851l-1.986,3.849-1.055-.318-.154-5.224Z" transform="translate(-1377.05 -628.887)"/>
                    <path id="Path_5765" data-name="Path 5765" class="cls-2" d="M1385.574,665.347a.882.882,0,0,1,.5-.373,1.489,1.489,0,0,1,1.61.306c.657.8-.988,2.582-2.341,1.488C1385.343,666.767,1384.969,666.315,1385.574,665.347Z" transform="translate(-1375.086 -654.995)"/>
                    <path id="Path_5766" data-name="Path 5766" class="cls-2" d="M1342.544,657.761a1.107,1.107,0,0,0,1.007.066.1.1,0,0,0-.086-.172.9.9,0,0,1-1.056-.255c-.078-.086-.117-.153-.114-.2,0-.066.09-.143.21-.25a2.829,2.829,0,0,0,.967-1.666.1.1,0,1,0-.188-.043,2.624,2.624,0,0,1-.907,1.565c-.149.133-.267.238-.274.384a.48.48,0,0,0,.164.34A1.275,1.275,0,0,0,1342.544,657.761Z" transform="translate(-1338.425 -646.745)"/>
                    <path id="Path_5767" data-name="Path 5767" class="cls-2" d="M1326.048,619.071s-.907.516-1.458,4.086c0,0,.092-4.029.579-4.428S1326.048,619.071,1326.048,619.071Z" transform="translate(-1323.538 -615.671)"/>
                  </g>
                  <path id="Path_5768" data-name="Path 5768" class="cls-2" d="M1334.9,720.457l-5.921-.024-2.336,9.917-.078,19.042s5.425,2.656,12.6-.758l-2-22.291Z" transform="translate(-1317.547 -697.784)"/>
                  <path id="Path_5769" data-name="Path 5769" class="cls-2" d="M1382.175,720.595s8.919,3.818,10.665,6.256c1.612,2.252,1.393.116,6.012,12.736a5.214,5.214,0,0,1-.67,4.844,3.516,3.516,0,0,1-1.643,1.226l-4.608,1.7.439,11.7-8.917.841Z" transform="translate(-1364.82 -697.922)"/>
                  <path id="Path_5770" data-name="Path 5770" class="cls-2" d="M1277.732,720.433s-8.95,3.745-10.716,6.168.2,32.21.2,32.21l8.91.915Z" transform="translate(-1266.298 -697.784)"/>
                  <path id="Path_5771" data-name="Path 5771" class="cls-2" d="M1342.047,722.782,1341,724.55l2.066,25.077-3.368,5.388-2.461-5.547,2.51-25.075-.752-1.776,2.045-.751Z" transform="translate(-1326.616 -699.002)"/>
                  <path id="Path_5772" data-name="Path 5772" class="cls-2" d="M1348.593,714.462l-.439-.975-2.789.962-2.3-1.068-.394,1.057.483,1.825,2.107-1.357,2.045,1.5Z" transform="translate(-1331.238 -691.788)"/>
                  <path id="Path_5773" data-name="Path 5773" class="cls-2" d="M1332.383,594.764c-.169-.175-.482-.316-.626-.12a.423.423,0,0,0-.052.283,2.615,2.615,0,0,0,.2.828,5.333,5.333,0,0,0-4.195-1.528c-1.538.017-3.067.346-4.6.265-.609-.032-1.339-.079-1.7.414a1.046,1.046,0,0,0,.053,1.193,1.84,1.84,0,0,0,1.066.653.829.829,0,0,0-1.047,1.172,1.668,1.668,0,0,0,1.388.606,47.037,47.037,0,0,0,5.022.163l-.733.587a.63.63,0,0,0-.21.237.47.47,0,0,0,.071.417,1.239,1.239,0,0,0,.975.5,5.037,5.037,0,0,0,1.13-.117,8.949,8.949,0,0,1,1.656-.108.833.833,0,0,1,.336.059,1.069,1.069,0,0,1,.331.32,4.8,4.8,0,0,0,2.4,1.289c.274.084.636.139.789-.1a.637.637,0,0,0,.072-.321,7.421,7.421,0,0,0-.909-3.831.417.417,0,0,0,.757.028c.236-.441-.318-.807-.629-.99-.285-.167-.556-.2-.767-.482C1332.825,595.741,1332.793,595.188,1332.383,594.764Z" transform="translate(-1313.02 -590.495)"/>
                  <path id="Path_5774" data-name="Path 5774" class="cls-2" d="M1337.212,677.809l-3.125-.769s.172,1.735,1.309,1.739A2.4,2.4,0,0,0,1337.212,677.809Z" transform="translate(-1323.939 -660.895)"/>
                  <path id="Path_5775" data-name="Path 5775" class="cls-2" d="M1385.653,722.206l-1.784,7.224,1.751.74-2.647,14.983-.8-24.558Z" transform="translate(-1364.82 -697.922)"/>
                  <path id="Path_5776" data-name="Path 5776" class="cls-2" d="M1319.2,722.015l1.724,7.239-1.757.726,2.523,15,1-24.551Z" transform="translate(-1311.253 -697.784)"/>
                </g>
              </g>
              <path id="Path_5777" data-name="Path 5777" class="cls-2" d="M1292.675,853.071l-.354,31.311h-28.316l.358-31.631Z" transform="translate(-1263.02 -810.268)"/>
              <path id="Path_5778" data-name="Path 5778" class="cls-2" d="M1285.917,866.386a1.066,1.066,0,0,1,.679.176c.213.182.247.492.365.746.341.732,1.289.884,2.083,1.031s1.737.592,1.725,1.4a1.563,1.563,0,0,0,0,.549.723.723,0,0,0,.212.28,11.106,11.106,0,0,0,1.915,1.081,1.822,1.822,0,0,1,1.054,1.774c-.073.338-.3.631-.346.974a1.966,1.966,0,0,0,.666,1.445l2.016,2.328a1.944,1.944,0,0,1,.579,1.054c.058.739-.705,1.287-.872,2.009-.2.886.519,1.7.714,2.588a2.368,2.368,0,0,1-1.808,2.726,1.972,1.972,0,0,0-.808.219c-.372.263-.388.793-.476,1.24a2.927,2.927,0,0,1-1.827,2.141c-1.81.665-3.732-.579-5.654-.732a28.384,28.384,0,0,0-3.509.279,7.815,7.815,0,0,1-3.969-.885,1.126,1.126,0,0,1-.369-.27c-.239-.3-.149-.729-.2-1.107-.149-1.124-1.469-1.627-2.58-1.858s-2.435-.6-2.752-1.685c-.168-.577.013-1.218-.187-1.783-.243-.685-.973-1.076-1.335-1.706a3.129,3.129,0,0,1,.263-2.891,7.5,7.5,0,0,0,1.115-2.789,15.223,15.223,0,0,0-.211-1.989,1.924,1.924,0,0,1,.671-1.786c.681-.443,1.6-.109,2.389-.287,1.859-.416,2.316-3.336,4.2-3.647a5.306,5.306,0,0,1,1.12.013,8.069,8.069,0,0,0,2.693-.548A8.28,8.28,0,0,1,1285.917,866.386Z" transform="translate(-1268.948 -821.82)"/>
              <path id="Path_5779" data-name="Path 5779" class="cls-2" d="M1301.157,1002.323H1275.04c.566-2.508,1.809-7.156,3.457-8.433a7.866,7.866,0,0,1,2.389-1.146,24.8,24.8,0,0,1,4.719-.905c.42-.04.674-.056.674-.056l4.051-.295a62.062,62.062,0,0,1,6.781,2.685,6.578,6.578,0,0,1,2.135,1.44C1299.943,996.566,1300.682,999.861,1301.157,1002.323Z" transform="translate(-1272.4 -928.208)"/>
              <g id="Group_3036" data-name="Group 3036" transform="translate(6.935 45.152)">
                <path id="Path_5780" data-name="Path 5780" class="cls-2" d="M1310.824,932.121s-.553-.616-.87-.286c-.807.843.239,1.62.876,1.733Z" transform="translate(-1308.766 -922.567)"/>
                <path id="Path_5781" data-name="Path 5781" class="cls-2" d="M1313.067,879.882h.006c-.013-.071-.027-.143-.037-.215a5.63,5.63,0,1,1,10.99.7,28.645,28.645,0,0,1-1.233,4.283,8.808,8.808,0,0,0-.325,5.9l.111.4c-3,2.1-4.7.527-4.7.527l-.385-2.611a.735.735,0,0,0-.67-.626C1313.138,887.95,1313.336,881.7,1313.067,879.882Z" transform="translate(-1311.584 -872.816)"/>
                <path id="Path_5782" data-name="Path 5782" class="cls-2" d="M1332.261,952.543s.413-.3.661-.23a.722.722,0,0,1,.382.37.56.56,0,0,1,.451-.3,6.993,6.993,0,0,1,1.146.233s-.788,1.279-1.688,1.05a1.216,1.216,0,0,1-.939-1.078Z" transform="translate(-1327.979 -940.048)"/>
                <path id="Path_5783" data-name="Path 5783" class="cls-2" d="M1352.966,927.991a.572.572,0,1,1,.649.482A.572.572,0,0,1,1352.966,927.991Z" transform="translate(-1345.575 -918.824)"/>
                <path id="Path_5784" data-name="Path 5784" class="cls-2" d="M1322.306,927.681a.572.572,0,1,1,.649.482A.572.572,0,0,1,1322.306,927.681Z" transform="translate(-1319.511 -918.56)"/>
                <path id="Path_5785" data-name="Path 5785" class="cls-2" d="M1332.486,953.666a2.871,2.871,0,0,0,2.054-.542.068.068,0,0,0-.083-.109c-.066.051-1.64,1.229-2.8.02a.068.068,0,0,0-.1.095A1.81,1.81,0,0,0,1332.486,953.666Z" transform="translate(-1327.362 -940.642)"/>
                <path id="Path_5786" data-name="Path 5786" class="cls-2" d="M1354.2,919.413a.2.2,0,0,0,.024-.379A2.42,2.42,0,0,0,1352.6,919a.2.2,0,0,0-.126.256.207.207,0,0,0,.255.126,2.017,2.017,0,0,1,1.328.018A.2.2,0,0,0,1354.2,919.413Z" transform="translate(-1345.155 -911.636)"/>
                <path id="Path_5787" data-name="Path 5787" class="cls-2" d="M1319.976,919.5a.2.2,0,0,0,.025-.379,2.4,2.4,0,0,0-1.618-.031.2.2,0,1,0,.129.382,2.008,2.008,0,0,1,1.327.019A.2.2,0,0,0,1319.976,919.5Z" transform="translate(-1316.065 -911.71)"/>
                <path id="Path_5788" data-name="Path 5788" class="cls-2" d="M1333.535,932.086a.962.962,0,0,0,.315-.156.1.1,0,0,0-.129-.155.758.758,0,0,1-.913-.006c-.1-.067-.123-.109-.128-.133-.009-.049.05-.132.124-.237a2.451,2.451,0,0,0,.484-1.6.1.1,0,0,0-.2,0,2.24,2.24,0,0,1-.447,1.478c-.1.144-.181.258-.157.389a.429.429,0,0,0,.212.264A.96.96,0,0,0,1333.535,932.086Z" transform="translate(-1328.164 -920.836)"/>
                <path id="Path_5789" data-name="Path 5789" class="cls-2" d="M1314.511,879.6c-.112-.274-.1-.587-.223-.857-.31-.685-1.253-.751-1.848-1.21-.735-.567-.931-1.737-1.8-2.072-.383-.148-.852-.105-1.159-.378a2.154,2.154,0,0,1-.418-.779c-.122-.271-.366-.544-.661-.5a.666.666,0,0,0-.349.19c-.664.613-.751,1.74-1.529,2.2a5.359,5.359,0,0,1-.809.31,2.431,2.431,0,0,0-1.477,1.78,1.6,1.6,0,0,1-.425-1.87,14.361,14.361,0,0,1,1.016-1.8c.322-.608.5-1.282.808-1.9a2.584,2.584,0,0,1,1.429-1.411,10.893,10.893,0,0,1,1.7-.137,10.611,10.611,0,0,0,1.431-.434,4.571,4.571,0,0,1,4.108.829,9,9,0,0,1,1.073,1.1l2.253,2.6a3.73,3.73,0,0,1,.878,1.38,3.768,3.768,0,0,1-.637,2.662c-.214.4-.478.849-.923.954C1316.108,880.448,1314.915,880.583,1314.511,879.6Z" transform="translate(-1303.696 -870.552)"/>
                <path id="Path_5790" data-name="Path 5790" class="cls-2" d="M1376.183,928.769a.836.836,0,0,1,.376-.457,1.411,1.411,0,0,1,1.55-.083c.785.583-.324,2.6-1.817,1.9C1376.291,930.128,1375.845,929.8,1376.183,928.769Z" transform="translate(-1365.21 -919.41)"/>
              </g>
              <g id="Group_3038" data-name="Group 3038" transform="translate(41.453 0.165)">
                <rect id="Rectangle_13527" data-name="Rectangle 13527" class="cls-2" width="54.681" height="1.761" transform="translate(0.138 0) rotate(0.236)"/>
                <rect id="Rectangle_13528" data-name="Rectangle 13528" class="cls-2" width="54.681" height="1.761" transform="matrix(1, 0.004, -0.004, 1, 0.116, 5.357)"/>
                <rect id="Rectangle_13529" data-name="Rectangle 13529" class="cls-2" width="54.681" height="1.761" transform="translate(0.094 10.714) rotate(0.236)"/>
                <g id="Group_3037" data-name="Group 3037" transform="translate(0 17.21)">
                  <path id="Path_5791" data-name="Path 5791" class="cls-2" d="M1550.26,701.605l-16.288-.067.067-16.288,16.288.067Zm-14.857-1.486,13.438.055.055-13.438-13.438-.055Z" transform="translate(-1533.972 -685.25)"/>
                </g>
              </g>
              <g id="Group_3040" data-name="Group 3040" transform="translate(41.278 42.686)">
                <rect id="Rectangle_13530" data-name="Rectangle 13530" class="cls-2" width="54.681" height="1.761" transform="matrix(1, 0.004, -0.004, 1, 0.138, 0)"/>
                <rect id="Rectangle_13531" data-name="Rectangle 13531" class="cls-2" width="54.681" height="1.761" transform="matrix(1, 0.004, -0.004, 1, 0.116, 5.357)"/>
                <rect id="Rectangle_13532" data-name="Rectangle 13532" class="cls-2" width="54.681" height="1.761" transform="translate(0.094 10.714) rotate(0.236)"/>
                <g id="Group_3039" data-name="Group 3039" transform="translate(0 17.21)">
                  <path id="Path_5792" data-name="Path 5792" class="cls-2" d="M1549.092,985.274l-16.288-.067.067-16.288,16.288.067Zm-14.857-1.486,13.438.055.055-13.438-13.438-.055Z" transform="translate(-1532.804 -968.919)"/>
                </g>
              </g>
              <g id="Group_3042" data-name="Group 3042" transform="translate(0 82.463)">
                <rect id="Rectangle_13533" data-name="Rectangle 13533" class="cls-2" width="54.681" height="1.761" transform="matrix(1, 0.004, -0.004, 1, 41.252, 0)"/>
                <rect id="Rectangle_13534" data-name="Rectangle 13534" class="cls-2" width="54.681" height="1.761" transform="translate(41.23 5.357) rotate(0.236)"/>
                <rect id="Rectangle_13535" data-name="Rectangle 13535" class="cls-2" width="54.681" height="1.761" transform="translate(41.208 10.714) rotate(0.236)"/>
                <rect id="Rectangle_13536" data-name="Rectangle 13536" class="cls-2" width="23.039" height="1.761" transform="translate(36.305 47.612) rotate(0.236)"/>
                <rect id="Rectangle_13537" data-name="Rectangle 13537" class="cls-2" width="33.729" height="1.761" transform="translate(63.282 47.723) rotate(0.236)"/>
                <rect id="Rectangle_13538" data-name="Rectangle 13538" class="cls-2" width="32.431" height="1.761" transform="translate(0.027 47.463) rotate(0.236)"/>
                <rect id="Rectangle_13539" data-name="Rectangle 13539" class="cls-2" width="34.257" height="1.761" transform="translate(36.285 52.506) rotate(0.236)"/>
                <rect id="Rectangle_13540" data-name="Rectangle 13540" class="cls-2" width="32.431" height="1.761" transform="translate(0.007 52.356) rotate(0.236)"/>
                <g id="Group_3041" data-name="Group 3041" transform="translate(41.114 17.21)">
                  <path id="Path_5793" data-name="Path 5793" class="cls-2" d="M1548,1250.632l-16.288-.067.067-16.288,16.288.067Zm-14.857-1.486,13.438.055.055-13.438-13.438-.055Z" transform="translate(-1531.711 -1234.277)"/>
                </g>
              </g>
              <path id="Path_5794" data-name="Path 5794" class="cls-16" d="M1553.785,998.653h-.031a.5.5,0,0,1-.443-.341,16.433,16.433,0,0,0-2.572-4.783.5.5,0,0,1,.8-.615,17.506,17.506,0,0,1,2.327,4.008,26.272,26.272,0,0,1,6.994-8.106.5.5,0,1,1,.612.8,25.166,25.166,0,0,0-7.23,8.759A.5.5,0,0,1,1553.785,998.653Z" transform="translate(-1506.683 -925.847)"/>
            </g>
          </g>
        </g>
        <g id="Group_3049" data-name="Group 3049" transform="translate(194.507 53.735)">
          <path id="Path_5795" data-name="Path 5795" class="cls-8" d="M2009.985,1522.713s-1.216,7.113-1.263,7.2.444.849.444.849l1.92.344,1.752-.806s1.011-5.734,1.194-6.626S2009.985,1522.713,2009.985,1522.713Z" transform="translate(-1962.192 -1420.129)"/>
          <path id="Path_5796" data-name="Path 5796" class="cls-15" d="M1972.371,1570.454a4.991,4.991,0,0,1-4.1-.507s-7.367,2.761-7.142,4.861c0,0-.314.626,2.878.49s8.153-.277,8.286-.351S1973.047,1575.211,1972.371,1570.454Z" transform="translate(-1921.726 -1460.282)"/>
          <path id="Path_5797" data-name="Path 5797" class="cls-8" d="M2163.1,1522.71s1.877,7.113,1.83,7.2.444.849.444.849l1.92.344,1.752-.805s-.955-5.851-.772-6.744S2163.1,1522.71,2163.1,1522.71Z" transform="translate(-2093.434 -1420.126)"/>
          <path id="Path_5798" data-name="Path 5798" class="cls-15" d="M2138.94,1570.454a4.993,4.993,0,0,1-4.1-.507s-7.367,2.761-7.142,4.861c0,0-.313.626,2.878.49s8.152-.277,8.286-.351S2139.616,1575.211,2138.94,1570.454Z" transform="translate(-2063.326 -1460.282)"/>
          <path id="Path_5799" data-name="Path 5799" class="cls-15" d="M2008.535,1218.97l-3.849,48.677h6.615s6.993-38.465,7.985-38.634,8.078,38.634,8.078,38.634h7.592l-3.88-49.937Z" transform="translate(-1958.764 -1160.845)"/>
          <path id="Path_5800" data-name="Path 5800" class="cls-9" d="M2043.32,973.082s-10.1,1.185-12.238,2.647-2.7,25.531-2.7,25.531l-.337,10.682s13.271,4.5,24.068,0l.562-10.682s5.046-24.4,1.56-25.4S2043.32,973.082,2043.32,973.082Z" transform="translate(-1978.622 -952.886)"/>
          <path id="Path_5801" data-name="Path 5801" class="cls-8" d="M2202.643,1257s-.719,2.96-.89,4.037-1.135,1.995-.58,2.3,1.675-1.472,1.675-1.472.689,2.109.8,2.79.626,1.845,1.13,1.8-.269-3.275-.269-3.275.918,2.656,1.393,2.714-.2-3.492-.2-3.492a18.429,18.429,0,0,0,1.1,3.049c.263.168.489-.162.439-1.254a10.4,10.4,0,0,0-.383-2.195,23.566,23.566,0,0,0,.915,2.186c.172.207.56.365.314-1.245a16.391,16.391,0,0,0-2.521-6.4Z" transform="translate(-2125.654 -1193.854)"/>
          <g id="Group_3047" data-name="Group 3047" transform="translate(58.007)">
            <g id="Group_3046" data-name="Group 3046" transform="translate(0 2.667)">
              <path id="Path_5802" data-name="Path 5802" class="cls-12" d="M2086.554,906.3s-.4-.737-.787-.487c-.993.637-.15,1.649.449,1.911Z" transform="translate(-2085.309 -898.321)"/>
              <path id="Path_5803" data-name="Path 5803" class="cls-8" d="M2090.721,861.536h.005c0-.073.008-.146.014-.22a5.692,5.692,0,1,1,10.634,3.3c-.646,1.278-1.211,2.37-1.787,3.268a8.132,8.132,0,0,0-1.236,5.009l.106,1.384c-3.651,1.537-5.083-.332-5.083-.332l.164-2.507a.632.632,0,0,0-.536-.664H2093C2088.7,870.1,2090.544,863.481,2090.721,861.536Z" transform="translate(-2089.448 -856.142)"/>
              <path id="Path_5804" data-name="Path 5804" class="cls-19" d="M2130.933,912.787a.53.53,0,1,1,.48.575A.53.53,0,0,1,2130.933,912.787Z" transform="translate(-2124.092 -903.887)"/>
              <path id="Path_5805" data-name="Path 5805" class="cls-19" d="M2100.223,903.676a.53.53,0,1,1,.479.576A.53.53,0,0,1,2100.223,903.676Z" transform="translate(-2097.985 -896.141)"/>
              <path id="Path_5806" data-name="Path 5806" class="cls-19" d="M2132.145,903.606a.31.31,0,0,0,.307-.444,1.664,1.664,0,0,0-2.21-.735.31.31,0,1,0,.227.578,1.048,1.048,0,0,1,1.424.427A.311.311,0,0,0,2132.145,903.606Z" transform="translate(-2123.339 -895.357)"/>
              <path id="Path_5807" data-name="Path 5807" class="cls-19" d="M2099.646,895.1a.31.31,0,0,0,.307-.444,1.664,1.664,0,0,0-2.21-.735.31.31,0,0,0,.226.578,1.048,1.048,0,0,1,1.425.427A.31.31,0,0,0,2099.646,895.1Z" transform="translate(-2095.712 -888.125)"/>
              <path id="Path_5808" data-name="Path 5808" class="cls-20" d="M2155.311,891.351l-1.887,3.694-1.012-.3-.167-5Z" transform="translate(-2142.211 -884.706)"/>
              <path id="Path_5809" data-name="Path 5809" class="cls-8" d="M2150.518,919.589a.846.846,0,0,1,.478-.36,1.426,1.426,0,0,1,1.543.286c.633.76-.936,2.477-2.236,1.434C2150.3,920.95,2149.943,920.518,2150.518,919.589Z" transform="translate(-2140.466 -909.686)"/>
              <path id="Path_5810" data-name="Path 5810" class="cls-12" d="M2109.286,912.5a1.06,1.06,0,0,0,.965.059.092.092,0,0,0-.083-.165.864.864,0,0,1-1.013-.24c-.075-.082-.113-.147-.11-.192,0-.063.086-.138.2-.241a2.713,2.713,0,0,0,.919-1.6.092.092,0,0,0-.18-.04,2.51,2.51,0,0,1-.862,1.5c-.142.128-.254.229-.261.369a.462.462,0,0,0,.158.325A1.237,1.237,0,0,0,2109.286,912.5Z" transform="translate(-2105.331 -901.933)"/>
              <path id="Path_5811" data-name="Path 5811" class="cls-9" d="M2105.566,930.412a7.891,7.891,0,0,1-3.482-.691s.188,1.686,1.426,1.932S2105.566,930.412,2105.566,930.412Z" transform="translate(-2099.569 -918.692)"/>
              <path id="Path_5812" data-name="Path 5812" class="cls-20" d="M2093.39,875.513s-.866.5-1.38,3.92c0,0,.072-3.86.537-4.244S2093.39,875.513,2093.39,875.513Z" transform="translate(-2091.005 -872.237)"/>
            </g>
            <path id="Path_5813" data-name="Path 5813" class="cls-20" d="M2097.344,840.549c-1.132-1.268-3.213-1.158-4.557-2.2a7.881,7.881,0,0,0,1.729,2.32l-5.986-1.735a13.325,13.325,0,0,0,2.017,1.682,25.437,25.437,0,0,1-4.674-.029.913.913,0,0,0,.055.817c.583,1.444,1.3,3.03,2.747,3.615a4.39,4.39,0,0,0,1.417.274c1.91.1,4.02-.365,5.6.714.732.5,1.64,2.234,2.683,1.984C2099.3,847.771,2100.852,844.48,2097.344,840.549Z" transform="translate(-2085.722 -838.351)"/>
          </g>
          <path id="Path_5814" data-name="Path 5814" class="cls-9" d="M1923.852,987.113c-5.113,1.173-12.643,15.152-14.616,17.473s-8.7,9.86-8.7,9.86l3.9,1.621s10.837-5.873,15.265-10.961S1923.852,987.113,1923.852,987.113Z" transform="translate(-1870.223 -964.814)"/>
          <g id="Group_3048" data-name="Group 3048" transform="translate(0 19.675)">
            <path id="Path_5815" data-name="Path 5815" class="cls-21" d="M1705.619,976.09l-5.313-2.418a1.387,1.387,0,0,0-1.962,1.26l-.014,6.869a1.387,1.387,0,0,0,.813,1.265l2.975,1.354a1.387,1.387,0,0,0,1.86-.742l2.352-5.805A1.387,1.387,0,0,0,1705.619,976.09Z" transform="translate(-1698.331 -972.956)"/>
            <path id="Path_5816" data-name="Path 5816" class="cls-1" d="M1722.113,972.259l-.7-.319-4.264,9.37.7.319a5.68,5.68,0,0,1,3.3,5.716h0a4.437,4.437,0,0,0,2.579,4.466l50.539,23L1784.192,993l-50.539-23a4.437,4.437,0,0,0-5.061.99h0A5.68,5.68,0,0,1,1722.113,972.259Z" transform="translate(-1714.328 -969.604)"/>
            <rect id="Rectangle_13541" data-name="Rectangle 13541" class="cls-22" width="20.283" height="7.86" transform="translate(77.498 51.377) rotate(-65.534)"/>
            <path id="Path_5817" data-name="Path 5817" class="cls-21" d="M1783.149,977.805l-9.923,21.808,59,26.846a.464.464,0,0,0,.614-.23l9.539-20.964a.464.464,0,0,0-.23-.614Z" transform="translate(-1762 -976.576)"/>
            <rect id="Rectangle_13542" data-name="Rectangle 13542" class="cls-9" width="5.071" height="42.12" transform="translate(18.885 21.922) rotate(-65.535)"/>
            <rect id="Rectangle_13543" data-name="Rectangle 13543" class="cls-1" width="24.218" height="24.142" transform="matrix(0.414, -0.91, 0.91, 0.414, 59.941, 45.203)"/>
            <path id="Path_5818" data-name="Path 5818" class="cls-1" d="M2060.852,1267.506a1.592,1.592,0,0,1-.663-.145l-27.3-12.419a1.6,1.6,0,1,1,1.329-2.92l25.835,11.755.753-1.655a1.6,1.6,0,1,1,2.92,1.329l-1.417,3.115A1.605,1.605,0,0,1,2060.852,1267.506Z" transform="translate(-1981.943 -1209.564)"/>
          </g>
          <path id="Path_5819" data-name="Path 5819" class="cls-8" d="M2167.435,1172.069s-2.723,1.365-3.655,1.932-2.256.424-2.128,1.044,2.206.326,2.206.326-1.163,1.89-1.608,2.417-1,1.671-.643,2.027,2.323-2.323,2.323-2.323-1.432,2.418-1.17,2.818,2.536-2.41,2.536-2.41a18.4,18.4,0,0,0-1.612,2.814c.042.309.439.268,1.24-.476a10.415,10.415,0,0,0,1.427-1.711,23.669,23.669,0,0,0-1.077,2.111c-.046.265.084.663,1.153-.565a16.4,16.4,0,0,0,3.254-6.063Z" transform="translate(-2092.064 -1122.045)"/>
          <path id="Path_5820" data-name="Path 5820" class="cls-9" d="M2193.261,991.6c.349.23.7.485,1.048.763,5.751,4.582,11.2,15.253,9.906,18.178-1.375,3.1-8.426,10.957-8.426,10.957l-4.2-2.281s4.1-7.508,4.353-9.655-2.941-6.291-2.941-6.291Z" transform="translate(-2117.647 -968.631)"/>
        </g>
        <g id="Group_3057" data-name="Group 3057" transform="translate(0 43.768)">
          <g id="Group_3054" data-name="Group 3054" transform="translate(0 2.555)">
            <path id="Path_5821" data-name="Path 5821" class="cls-15" d="M320.367,794.464c-.1,1.551.5,3.145.066,4.638-.572,1.978-2.732,3.077-3.649,4.92-.961,1.931-.456,4.468-1.814,6.142-.483.6-1.156,1.01-1.669,1.579a4.094,4.094,0,0,0-.324,4.911c1.116,1.624,3.27,2.192,5.24,2.181s3.925-.476,5.893-.383c2,.095,3.96.765,5.963.7a10.143,10.143,0,0,0,7.169-3.734,18.343,18.343,0,0,0,3.567-7.439,16.225,16.225,0,0,0,.531-3.122c.226-4.111-1.857-7.993-4.265-11.332a11.163,11.163,0,0,0-4.045-3.838C329.164,787.881,320.723,789.1,320.367,794.464Z" transform="translate(-308.564 -788.906)"/>
            <g id="Group_3050" data-name="Group 3050" transform="translate(26.208 108.409)">
              <path id="Path_5822" data-name="Path 5822" class="cls-8" d="M467.006,1512.127s-.7,6.953.715,7.741c2.571,1.428,7.312,2.791,6.915,4.017s-11.762,1.275-12.078.156.958-4.541-.392-11.2Z" transform="translate(-462.167 -1512.127)"/>
              <path id="Path_5823" data-name="Path 5823" class="cls-23" d="M464.621,1571.463a10.028,10.028,0,0,0-.113,2.5c.315,1.119,11.68,1.071,12.078-.156.294-.91-2.215-1.935-4.6-2.956C471.425,1571.794,470.224,1573.268,464.621,1571.463Z" transform="translate(-464.116 -1562.046)"/>
            </g>
            <g id="Group_3051" data-name="Group 3051" transform="translate(3.314 108.087)">
              <path id="Path_5824" data-name="Path 5824" class="cls-8" d="M315.85,1510.1s-1.878,6.731-.613,7.75c2.29,1.845,6.73,3.995,6.13,5.136s-11.807-.747-11.928-1.9,1.717-4.311,1.522-11.106Z" transform="translate(-309.434 -1509.975)"/>
              <path id="Path_5825" data-name="Path 5825" class="cls-23" d="M309.982,1567.781a10.027,10.027,0,0,0-.537,2.441c.12,1.156,11.327,3.044,11.928,1.9.445-.846-1.853-2.284-4.026-3.7C316.63,1569.266,315.2,1570.514,309.982,1567.781Z" transform="translate(-309.439 -1559.116)"/>
            </g>
            <path id="Path_5826" data-name="Path 5826" class="cls-8" d="M494.653,950.584s2.387,3.2,4.377,3.2,8.754-8.455,8.754-8.455l1.591,2.561s-5.67,12.36-10.843,12.459-9.052-5.67-8.953-5.968,3.382-3.794,3.382-3.794Z" transform="translate(-459.261 -921.879)"/>
            <path id="Path_5827" data-name="Path 5827" class="cls-24" d="M340.623,1100.945a27.957,27.957,0,0,1,4.48,8.117c1.393,4.377-2.3,56.234-2.3,56.234h-6.168s-3.272-46.182-3.272-46.592c0-1.613-12.145,46.592-12.145,46.592h-6.158s3.332-56.443,11.066-64.351l7.237.448Z" transform="translate(-310.901 -1054.171)"/>
            <path id="Path_5828" data-name="Path 5828" class="cls-14" d="M403.243,1084.619v1.94s-3.68,3.581-14.5,0l-.025-1.94,9.5-.6Z" transform="translate(-373.521 -1039.785)"/>
            <path id="Path_5829" data-name="Path 5829" class="cls-9" d="M336.945,924.713s3.834-.142,5.779,1.2c1.392.961,4.464,6.379,4.464,6.379l-3.527,3a4.363,4.363,0,0,1-2.443,4.91l-.6,7.908s-6.168,3.581-14.523,0c0,0-1.592-14.822-3.084-13.529a19.631,19.631,0,0,0-2.387,2.437l-5.571-5.521s6.073-6.084,8.082-7.038a9.718,9.718,0,0,1,8.527-.085Z" transform="translate(-310.901 -903.275)"/>
            <path id="Path_5830" data-name="Path 5830" class="cls-8" d="M296.532,984.925s-3.234,3.774-2.861,4.819,6.082,9.646,6.846,11.276a4.392,4.392,0,0,1,.54,2.6l-2.91,1.418s-.151-2.3-.784-2.979-10.257-10.6-10.033-13.733,4.641-7.922,4.641-7.922Z" transform="translate(-287.326 -951.699)"/>
            <g id="Group_3052" data-name="Group 3052" transform="translate(13.933 0.288)">
              <path id="Path_5831" data-name="Path 5831" class="cls-8" d="M472.3,847.5s.422-.828.86-.56c1.117.681.128,1.867-.53,2.173Z" transform="translate(-458.504 -838.481)"/>
              <path id="Path_5832" data-name="Path 5832" class="cls-8" d="M392.692,793.031a6.313,6.313,0,0,0-4.3,9.419,27.249,27.249,0,0,0,3.066,4.942,6.284,6.284,0,0,1,1.6,4.314l-.045,1.606c3.858,1.407,5.364.439,5.364.439l-.536-4.688h0c3.893-.922,2.535-8.145,2.289-10.3l-.006,0c-.006-.081-.012-.162-.022-.244A6.314,6.314,0,0,0,392.692,793.031Z" transform="translate(-386.43 -792.613)"/>
              <path id="Path_5833" data-name="Path 5833" class="cls-15" d="M386.77,797.645a26.255,26.255,0,0,0-2.634,4.426c-.073.174-.577,1.481-.374,1.6a8.137,8.137,0,0,1-2.571-2.828,6.577,6.577,0,0,1,4.643-9.861,6.95,6.95,0,0,1,6.442,1.777c1.512,1.636,1.829,3.886,2.221,5.987-.44-2.357-3.838-3.765-5.849-4.386.059.018-1.19,2.216-1.257,2.325C387.19,797.008,386.982,797.327,386.77,797.645Z" transform="translate(-380.277 -790.826)"/>
              <path id="Path_5834" data-name="Path 5834" class="cls-8" d="M393.9,863.979a.936.936,0,0,0-.539-.387,1.582,1.582,0,0,0-1.7.356c-.682.858,1.1,2.723,2.517,1.534C394.175,865.482,394.562,864.994,393.9,863.979Z" transform="translate(-389.824 -852.602)"/>
              <path id="Path_5835" data-name="Path 5835" class="cls-14" d="M459.17,849.094a.551.551,0,1,0-.541.56A.551.551,0,0,0,459.17,849.094Z" transform="translate(-446.408 -839.899)"/>
              <path id="Path_5836" data-name="Path 5836" class="cls-14" d="M425.141,856.9a.551.551,0,1,0-.541.56A.551.551,0,0,0,425.141,856.9Z" transform="translate(-417.479 -846.534)"/>
              <path id="Path_5837" data-name="Path 5837" class="cls-16" d="M444.735,875.4s-.725-.523-1-.436a.822.822,0,0,0-.422.432.636.636,0,0,0-.521-.327c-.343.006-1.052.952-1.052.952s1.023,1.476,2.053,1.253c1.049-.227.935-1.8.935-1.8Z" transform="translate(-432.523 -862.343)"/>
              <path id="Path_5838" data-name="Path 5838" class="cls-14" d="M418.435,849.246a.229.229,0,0,1-.2-.383,2.75,2.75,0,0,1,1.671-.764.229.229,0,0,1,.247.209.234.234,0,0,1-.209.247,2.29,2.29,0,0,0-1.374.62A.23.23,0,0,1,418.435,849.246Z" transform="translate(-412.496 -839.513)"/>
              <path id="Path_5839" data-name="Path 5839" class="cls-14" d="M453.813,840.413a.229.229,0,0,1-.1-.419,2.721,2.721,0,0,1,1.8-.347.229.229,0,1,1-.07.453,2.281,2.281,0,0,0-1.482.278A.228.228,0,0,1,453.813,840.413Z" transform="translate(-442.617 -832.301)"/>
              <path id="Path_5840" data-name="Path 5840" class="cls-12" d="M446.337,855.127a.981.981,0,0,0,.783-.966.193.193,0,0,0-.059-.13,2.849,2.849,0,0,1-.721-1.7.193.193,0,0,0-.385.018,3.238,3.238,0,0,0,.775,1.891c-.021.155-.137.511-.756.551a.193.193,0,0,0,.025.385A1.716,1.716,0,0,0,446.337,855.127Z" transform="translate(-435.973 -842.959)"/>
              <path id="Path_5841" data-name="Path 5841" class="cls-25" d="M444.735,877.928l-3,.621a3.591,3.591,0,0,0,1.937.615C444.486,879.041,444.735,877.928,444.735,877.928Z" transform="translate(-432.523 -864.872)"/>
            </g>
            <g id="Group_3053" data-name="Group 3053" transform="translate(9.239 47.627)">
              <path id="Path_5842" data-name="Path 5842" class="cls-8" d="M351.857,1106.633s2.526,3.545,2.269,4.368-1.339,3.142-1.423,3.55a20.076,20.076,0,0,1-.256,2.943c-.223.341-.761-2.354-.761-2.354s.136,2.364-.276,2.512-.777-2.374-.777-2.374.214,2.391-.189,2.4-.643-2.306-.643-2.306.14,1.859-.18,1.863-1.032-3.037-.406-4.106c1.48-2.525,1.046-3.877,1.046-3.877Z" transform="translate(-348.964 -1106.633)"/>
              <path id="Path_5843" data-name="Path 5843" class="cls-8" d="M378.309,1123.673a10.678,10.678,0,0,1,1.271,2.909c.016.8.246,2.432-.1,2.427s-.813-2.26-1.061-2.355-.253-1.116-.253-1.116Z" transform="translate(-373.79 -1121.119)"/>
            </g>
            <path id="Path_5844" data-name="Path 5844" class="cls-26" d="M399.643,1011.144c-2.8,0-3.964-2.8-3.975-2.825a.1.1,0,1,1,.192-.078c.011.027,1.127,2.7,3.783,2.7a4.16,4.16,0,0,0,3.7-1.958.1.1,0,1,1,.184.095A4.378,4.378,0,0,1,399.643,1011.144Z" transform="translate(-379.421 -975.309)"/>
            <path id="Path_5845" data-name="Path 5845" class="cls-26" d="M495.534,983.231a.1.1,0,0,1-.1-.091,5.936,5.936,0,0,0-1.688-3.247.1.1,0,0,1,.142-.151,6.035,6.035,0,0,1,1.752,3.374.1.1,0,0,1-.091.115Z" transform="translate(-462.773 -951.112)"/>
            <path id="Path_5846" data-name="Path 5846" class="cls-7" d="M441.2,1096.222a1.825,1.825,0,1,1,1.825-1.825A1.827,1.827,0,0,1,441.2,1096.222Zm0-2.821a1,1,0,1,0,1,1A1,1,0,0,0,441.2,1093.4Z" transform="translate(-416.583 -1047.053)"/>
          </g>
          <path id="Path_5847" data-name="Path 5847" class="cls-8" d="M618.7,916.767c.129-.181,2.119-3.023,2.119-3.023l2.492,3.508-3.362,3.019Z" transform="translate(-569.031 -892.476)"/>
          <g id="Group_3056" data-name="Group 3056" transform="translate(47.407 0)">
            <rect id="Rectangle_13544" data-name="Rectangle 13544" class="cls-9" width="40.234" height="53.255" transform="translate(0 9.422) rotate(-13.543)"/>
            <g id="Group_3055" data-name="Group 3055" transform="translate(3.412 9.363)">
              <path id="Path_5848" data-name="Path 5848" class="cls-7" d="M643.134,841.991l-16.617,4a.086.086,0,0,1-.1-.064l-.062-.259a.086.086,0,0,1,.064-.1l16.617-4a.086.086,0,0,1,.1.064l.063.259A.086.086,0,0,1,643.134,841.991Z" transform="translate(-626.349 -840.477)"/>
              <path id="Path_5849" data-name="Path 5849" class="cls-7" d="M648.163,862.866l-16.617,4a.086.086,0,0,1-.1-.063l-.062-.259a.086.086,0,0,1,.063-.1l16.617-4a.087.087,0,0,1,.1.064l.062.259A.086.086,0,0,1,648.163,862.866Z" transform="translate(-630.624 -858.223)"/>
              <path id="Path_5850" data-name="Path 5850" class="cls-7" d="M712.874,935.626l-16.617,4a.086.086,0,0,1-.1-.064l-.062-.259a.086.086,0,0,1,.064-.1l16.617-4a.086.086,0,0,1,.1.064l.063.259A.087.087,0,0,1,712.874,935.626Z" transform="translate(-685.635 -920.076)"/>
              <path id="Path_5851" data-name="Path 5851" class="cls-7" d="M718.36,958.4l-16.617,4a.086.086,0,0,1-.1-.064l-.062-.26a.086.086,0,0,1,.064-.1l16.617-4a.087.087,0,0,1,.1.064l.063.259A.086.086,0,0,1,718.36,958.4Z" transform="translate(-690.299 -939.436)"/>
              <path id="Path_5852" data-name="Path 5852" class="cls-7" d="M722.018,936.727,699,942.271a.086.086,0,0,1-.1-.063l-.062-.259a.086.086,0,0,1,.064-.1l23.017-5.544a.086.086,0,0,1,.1.064l.063.259A.086.086,0,0,1,722.018,936.727Z" transform="translate(-687.967 -921.012)"/>
              <path id="Path_5853" data-name="Path 5853" class="cls-7" d="M661.877,919.8l-16.617,4a.086.086,0,0,1-.1-.063l-.062-.26a.087.087,0,0,1,.064-.1l16.617-4a.086.086,0,0,1,.1.063l.063.26A.086.086,0,0,1,661.877,919.8Z" transform="translate(-642.282 -906.622)"/>
              <path id="Path_5854" data-name="Path 5854" class="cls-7" d="M764.876,834.752l-16.617,4a.086.086,0,0,1-.1-.064l-.062-.259a.086.086,0,0,1,.064-.1l16.617-4a.086.086,0,0,1,.1.064l.062.259A.086.086,0,0,1,764.876,834.752Z" transform="translate(-729.842 -834.323)"/>
              <path id="Path_5855" data-name="Path 5855" class="cls-7" d="M669.086,848.985,634.975,857.2a.086.086,0,0,1-.1-.064l-.062-.259a.086.086,0,0,1,.064-.1l34.112-8.217a.087.087,0,0,1,.1.064l.063.259A.086.086,0,0,1,669.086,848.985Z" transform="translate(-633.538 -846.423)"/>
              <path id="Path_5856" data-name="Path 5856" class="cls-7" d="M672.972,865.117l-34.112,8.217a.087.087,0,0,1-.1-.064l-.062-.26a.086.086,0,0,1,.064-.1l34.112-8.217a.086.086,0,0,1,.1.063l.062.26A.086.086,0,0,1,672.972,865.117Z" transform="translate(-636.841 -860.136)"/>
              <path id="Path_5857" data-name="Path 5857" class="cls-7" d="M676.172,878.4l-34.112,8.217a.086.086,0,0,1-.1-.063l-.062-.259a.086.086,0,0,1,.063-.1l34.112-8.217a.086.086,0,0,1,.1.064l.063.259A.086.086,0,0,1,676.172,878.4Z" transform="translate(-639.562 -871.429)"/>
              <path id="Path_5858" data-name="Path 5858" class="cls-7" d="M655.151,964.179l-4.836,1.165a.2.2,0,0,1-.24-.147l-1.165-4.836a.2.2,0,0,1,.147-.24l4.836-1.165a.2.2,0,0,1,.24.146l1.165,4.836A.2.2,0,0,1,655.151,964.179Zm-4.736.732,4.45-1.072-1.072-4.45-4.45,1.072Z" transform="translate(-645.524 -940.27)"/>
              <path id="Path_5859" data-name="Path 5859" class="cls-7" d="M730.246,1007.742l-16.617,4a.086.086,0,0,1-.1-.064l-.062-.259a.086.086,0,0,1,.063-.1l16.617-4a.086.086,0,0,1,.1.064l.062.259A.086.086,0,0,1,730.246,1007.742Z" transform="translate(-700.403 -981.382)"/>
              <path id="Path_5860" data-name="Path 5860" class="cls-7" d="M733.9,986.069l-23.017,5.544a.086.086,0,0,1-.1-.064l-.062-.259a.086.086,0,0,1,.063-.1l23.017-5.545a.086.086,0,0,1,.1.064l.063.259A.086.086,0,0,1,733.9,986.069Z" transform="translate(-698.071 -962.958)"/>
              <path id="Path_5861" data-name="Path 5861" class="cls-7" d="M668.865,1021.113l-4.836,1.165a.2.2,0,0,1-.24-.146l-1.165-4.836a.2.2,0,0,1,.147-.24l4.836-1.165a.2.2,0,0,1,.24.147l1.165,4.836A.2.2,0,0,1,668.865,1021.113Zm-4.736.732,4.45-1.072-1.072-4.45-4.45,1.072Z" transform="translate(-657.182 -988.67)"/>
              <path id="Path_5862" data-name="Path 5862" class="cls-16" d="M671.7,1016.065l-.016,0a.265.265,0,0,1-.27-.118,8.64,8.64,0,0,0-1.918-2.117.265.265,0,0,1,.329-.415,9.215,9.215,0,0,1,1.695,1.752,13.82,13.82,0,0,1,2.546-5.023.265.265,0,0,1,.413.331,13.238,13.238,0,0,0-2.584,5.386A.265.265,0,0,1,671.7,1016.065Z" transform="translate(-662.947 -983.707)"/>
              <path id="Path_5863" data-name="Path 5863" class="cls-7" d="M739.389,1045.7l-16.617,4a.086.086,0,0,1-.1-.063l-.063-.259a.087.087,0,0,1,.064-.1l16.617-4a.086.086,0,0,1,.1.064l.063.259A.086.086,0,0,1,739.389,1045.7Z" transform="translate(-708.175 -1013.648)"/>
              <path id="Path_5864" data-name="Path 5864" class="cls-7" d="M748.532,1046.8l-23.017,5.545a.087.087,0,0,1-.1-.063l-.062-.26a.086.086,0,0,1,.064-.1l23.017-5.544a.086.086,0,0,1,.1.064l.063.259A.086.086,0,0,1,748.532,1046.8Z" transform="translate(-710.507 -1014.584)"/>
              <path id="Path_5865" data-name="Path 5865" class="cls-7" d="M681.665,1074.251l-4.836,1.165a.2.2,0,0,1-.24-.146l-1.165-4.836a.2.2,0,0,1,.147-.24l4.836-1.165a.2.2,0,0,1,.239.147l1.165,4.836A.2.2,0,0,1,681.665,1074.251Zm-4.736.732,4.45-1.072-1.072-4.45-4.45,1.072Z" transform="translate(-668.063 -1033.842)"/>
              <path id="Path_5866" data-name="Path 5866" class="cls-7" d="M751.731,1096.938l-16.617,4a.086.086,0,0,1-.1-.064l-.062-.259a.086.086,0,0,1,.064-.1l16.617-4a.087.087,0,0,1,.1.064l.063.259A.086.086,0,0,1,751.731,1096.938Z" transform="translate(-718.668 -1057.208)"/>
              <path id="Path_5867" data-name="Path 5867" class="cls-7" d="M757.217,1119.711l-16.617,4a.086.086,0,0,1-.1-.063l-.063-.26a.086.086,0,0,1,.064-.1l16.617-4a.086.086,0,0,1,.1.063l.063.259A.086.086,0,0,1,757.217,1119.711Z" transform="translate(-723.331 -1076.568)"/>
              <path id="Path_5868" data-name="Path 5868" class="cls-7" d="M760.875,1098.039l-23.017,5.545a.087.087,0,0,1-.1-.064l-.062-.259a.086.086,0,0,1,.064-.1l23.017-5.544a.086.086,0,0,1,.1.064l.063.259A.086.086,0,0,1,760.875,1098.039Z" transform="translate(-720.999 -1058.144)"/>
              <path id="Path_5869" data-name="Path 5869" class="cls-7" d="M694.008,1125.491l-4.836,1.165a.2.2,0,0,1-.24-.146l-1.165-4.836a.2.2,0,0,1,.147-.24l4.836-1.165a.2.2,0,0,1,.239.146l1.165,4.836A.2.2,0,0,1,694.008,1125.491Zm-4.736.732,4.45-1.072-1.072-4.45-4.45,1.072Z" transform="translate(-678.556 -1077.402)"/>
            </g>
          </g>
          <path id="Path_5870" data-name="Path 5870" class="cls-8" d="M609.775,913.948a5.4,5.4,0,0,1,.4-2.848c.62-.93,1.86-3.307,2.222-2.532s-.669,2.961-.62,3.54,2.278,2.37-.411,4.4S609.775,913.948,609.775,913.948Z" transform="translate(-561.252 -887.945)"/>
        </g>
      </g>
    </g>
  </g>
</svg>
